<?xml version="1.0" encoding="UTF-8" standalone="no"?>
<svg
   xmlns:dc="http://purl.org/dc/elements/1.1/"
   xmlns:cc="http://creativecommons.org/ns#"
   xmlns:rdf="http://www.w3.org/1999/02/22-rdf-syntax-ns#"
   xmlns:svg="http://www.w3.org/2000/svg"
   xmlns="http://www.w3.org/2000/svg"
   version="1.1"
   id="svg4364"
   viewBox="0 0 61.48451 68.224055"
   height="19.254345mm"
   width="17.352295mm">
  <defs
     id="defs4366">
    <clipPath
       id="clipPath3741"
       clipPathUnits="userSpaceOnUse">
      <path
         id="path3743"
         d="m 0,595.276 841.891,0 L 841.891,0 0,0 0,595.276 Z" />
    </clipPath>
  </defs>
  <metadata
     id="metadata4369">
    <rdf:RDF>
      <cc:Work
         rdf:about="">
        <dc:format>image/svg+xml</dc:format>
        <dc:type
           rdf:resource="http://purl.org/dc/dcmitype/StillImage" />
        <dc:title></dc:title>
      </cc:Work>
    </rdf:RDF>
  </metadata>
  <g
     transform="translate(231.20625,-693.87894)"
     id="layer1">
    <g
       transform="translate(-417.60685,489.91448)"
       id="layer1-3">
      <path
         id="path3451"
         style="fill:#41bfc2;fill-opacity:1;fill-rule:nonzero;stroke:none"
         d="m 241.0642,214.07164 -3.11073,0 0,12.00189 -10.88005,0 0,-12.00189 -19.86327,0 0,12.00189 -10.8822,0 0,-12.00189 -3.10858,0 c -3.8001,0 -6.81877,3.10431 -6.81877,6.81877 l 0,44.47506 c 0,3.8001 3.10645,6.82305 6.81877,6.82305 l 47.84483,0 c 3.79582,0 6.82091,-3.10859 6.82091,-6.82305 l 0,-44.47506 c 0,-3.79796 -3.10859,-6.81877 -6.82091,-6.81877 m 0,51.29383 -47.84483,0 0,-33.41945 47.84483,0 0,33.41945 z m -42.40481,-45.25221 0,-13.12371 c 0,-1.64207 1.29739,-3.02509 3.02295,-3.02509 1.72771,0 3.0251,1.29952 3.0251,3.02509 l 0,13.12371 c 0,1.64207 -1.29739,3.0251 -3.0251,3.0251 -1.72556,0 -3.02295,-1.38303 -3.02295,-3.0251 m 31.00666,0 0,-13.12371 c 0,-1.64207 1.29524,-3.02509 3.02295,-3.02509 1.72771,0 3.01867,1.29952 3.01867,3.02509 l 0,13.12371 c 0,1.64207 -1.29096,3.0251 -3.01867,3.0251 -1.72771,0 -3.02295,-1.38303 -3.02295,-3.0251" />
    </g>
  </g>
</svg>
