<?xml version="1.0" encoding="UTF-8" standalone="no"?>
<svg
   xmlns:dc="http://purl.org/dc/elements/1.1/"
   xmlns:cc="http://creativecommons.org/ns#"
   xmlns:rdf="http://www.w3.org/1999/02/22-rdf-syntax-ns#"
   xmlns:svg="http://www.w3.org/2000/svg"
   xmlns="http://www.w3.org/2000/svg"
   version="1.1"
   id="svg4364"
   viewBox="0 0 54.045456 84.741105"
   height="23.915823mm"
   width="15.252829mm">
  <defs
     id="defs4366">
    <clipPath
       id="clipPath3741"
       clipPathUnits="userSpaceOnUse">
      <path
         id="path3743"
         d="m 0,595.276 841.891,0 L 841.891,0 0,0 0,595.276 Z" />
    </clipPath>
  </defs>
  <metadata
     id="metadata4369">
    <rdf:RDF>
      <cc:Work
         rdf:about="">
        <dc:format>image/svg+xml</dc:format>
        <dc:type
           rdf:resource="http://purl.org/dc/dcmitype/StillImage" />
        <dc:title></dc:title>
      </cc:Work>
    </rdf:RDF>
  </metadata>
  <g
     transform="translate(381.30844,-741.42022)"
     id="layer1">
    <g
       style="stroke:none"
       transform="translate(-515.02321,384.09562)"
       id="layer1-7">
      <g
         style="stroke:none"
         id="g3737"
         transform="matrix(2.1409001,0,0,-2.1409001,-1264.8298,890.31447)">
        <g
           style="stroke:none"
           clip-path="url(#clipPath3741)"
           id="g3739">
          <g
             style="stroke:none"
             transform="translate(696.96701,237.07602)"
             id="g3745">
            <path
               id="path3747"
               style="fill:#17975f;fill-opacity:1;fill-rule:nonzero;stroke:none"
               d="m -36.867003,-9.1750462 c 0.029,0.015 0.048,0.035 0.074,0.049 0.01,0.012 0.02,0.012 0.026,0.015 0.011,0.021 0.027,0.046 0.043,0.066 0.005,0.014 0.014,0.019 0.021,0.034 0.002,0.01 0.002,0.024 0.008,0.039 0.007,0.023 0.015,0.049 0.015,0.074 l 0,0.006 0,18.5849997 c 0,1.2050005 0.982,2.1870005 2.194,2.1870005 1.205,0 2.187,-0.982 2.187,-2.1870005 l 0,-8.1589997 0,-6.0359999 c 0,-0.169 0.137,-0.303 0.301,-0.303 0.169999,0 0.302999,0.134 0.302999,0.303 l 0,6.0359999 c 0,1.205 0.982,2.187 2.193001,2.187 1.204,0 2.188,-0.982 2.188,-2.187 l 0,-1.79899997 0,-4.23699993 c 0,-0.169 0.137,-0.303 0.302,-0.303 0.17,0 0.301,0.134 0.301,0.303 l 0,4.23699993 c 0,1.084 0.883,1.96599997 1.966,1.96599997 1.086,0 1.964,-0.88199997 1.964,-1.96599997 l 0,-2.25200003 0,-1.9849999 c 0,-0.169 0.139,-0.303 0.304,-0.303 0.167,0 0.301,0.134 0.301,0.303 l 0,1.9849999 c 0,1.019 0.829,1.84700003 1.849999,1.84700003 1.021,0 1.854,-0.82800003 1.854,-1.84700003 l 0,-5.041 c 0,-3.6619998 -0.491,-6.1709998 -2.28,-11.6709998 -0.370999,-1.141 -0.778999,-2.506 -1.071999,-4.092 l -0.09,-4.381 -13.053,0 -0.095,4.381 c -0.293,1.306 -0.719,2.533 -1.282,3.656 -0.454,0.912 -1.089,1.973 -1.765,3.098 -1.072,1.792 -2.289,3.821 -3.237001,5.978 -0.595,1.3589998 -2.199,5.5549998 -2.212,5.6029998 -0.221,0.5420001 -0.208,1.1380001 0.023,1.6770001 0.233,0.5359999 0.662,0.9499999 1.205,1.1639999 0.548,0.217 1.143,0.206 1.679001,-0.026 0.538,-0.233 0.951,-0.659 1.163,-1.2069999 l 2.223,-5.6300001 0.005,0 c 0.009,-0.023 0.026,-0.047 0.045,-0.067 0.004,-0.012 0.01,-0.021 0.02,-0.032 0.039,-0.039 0.094,-0.063 0.148,-0.078 0.02,0 0.04,-0.009 0.059,-0.009 l 0.008,0 c 0.016,0 0.039,0.002 0.06,0.009 0.018,0.005 0.032,0.005 0.049,0.01 l 0.004,0 z" />
          </g>
        </g>
      </g>
    </g>
  </g>
</svg>
