<?xml version="1.0" encoding="UTF-8" standalone="no"?>
<svg
   xmlns:dc="http://purl.org/dc/elements/1.1/"
   xmlns:cc="http://creativecommons.org/ns#"
   xmlns:rdf="http://www.w3.org/1999/02/22-rdf-syntax-ns#"
   xmlns:svg="http://www.w3.org/2000/svg"
   xmlns="http://www.w3.org/2000/svg"
   version="1.1"
   id="svg4880"
   viewBox="0 0 56.623715 87.607776"
   height="24.724861mm"
   width="15.980471mm">
  <defs
     id="defs4882">
    <clipPath
       id="clipPath3741"
       clipPathUnits="userSpaceOnUse">
      <path
         id="path3743"
         d="m 0,595.276 841.891,0 L 841.891,0 0,0 0,595.276 Z" />
    </clipPath>
  </defs>
  <metadata
     id="metadata4885">
    <rdf:RDF>
      <cc:Work
         rdf:about="">
        <dc:format>image/svg+xml</dc:format>
        <dc:type
           rdf:resource="http://purl.org/dc/dcmitype/StillImage" />
        <dc:title></dc:title>
      </cc:Work>
    </rdf:RDF>
  </metadata>
  <g
     transform="translate(-201.70827,-364.95643)"
     id="layer1">
    <g
       id="g3737"
       transform="matrix(2.1409001,0,0,-2.1409001,-1264.8298,890.31447)">
      <g
         clip-path="url(#clipPath3741)"
         id="g3739">
        <g
           transform="translate(692.4629,223.7305)"
           id="g3745">
          <path
             id="path3747"
             style="fill:#17975f;fill-opacity:1;fill-rule:nonzero;stroke:none"
             d="M 0,0 C 0.029,0.015 0.048,0.035 0.074,0.049 0.084,0.061 0.094,0.061 0.1,0.064 0.111,0.085 0.127,0.11 0.143,0.13 0.148,0.144 0.157,0.149 0.164,0.164 0.166,0.174 0.166,0.188 0.172,0.203 0.179,0.226 0.187,0.252 0.187,0.277 l 0,0.006 0,18.585 c 0,1.205 0.982,2.187 2.194,2.187 1.205,0 2.187,-0.982 2.187,-2.187 l 0,-8.159 0,-6.036 c 0,-0.169 0.137,-0.303 0.301,-0.303 0.17,0 0.303,0.134 0.303,0.303 l 0,6.036 c 0,1.205 0.982,2.187 2.193,2.187 1.204,0 2.188,-0.982 2.188,-2.187 l 0,-1.799 0,-4.237 c 0,-0.169 0.137,-0.303 0.302,-0.303 0.17,0 0.301,0.134 0.301,0.303 l 0,4.237 c 0,1.084 0.883,1.966 1.966,1.966 1.086,0 1.964,-0.882 1.964,-1.966 l 0,-2.252 0,-1.985 c 0,-0.169 0.139,-0.303 0.304,-0.303 0.167,0 0.301,0.134 0.301,0.303 l 0,1.985 c 0,1.019 0.829,1.847 1.85,1.847 1.021,0 1.854,-0.828 1.854,-1.847 l 0,-5.041 c 0,-3.662 -0.491,-6.171 -2.28,-11.671 -0.371,-1.141 -0.779,-2.506 -1.072,-4.092 l -0.09,-4.381 -13.053,0 -0.095,4.381 c -0.293,1.306 -0.719,2.533 -1.282,3.656 -0.454,0.912 -1.089,1.973 -1.765,3.098 -1.072,1.792 -2.289,3.821 -3.237,5.978 -0.595,1.359 -2.199,5.555 -2.212,5.603 -0.221,0.542 -0.208,1.138 0.023,1.677 0.233,0.536 0.662,0.95 1.205,1.164 0.548,0.217 1.143,0.206 1.679,-0.026 0.538,-0.233 0.951,-0.659 1.163,-1.207 l 2.223,-5.63 0.005,0 C -0.384,0.144 -0.367,0.12 -0.348,0.1 c 0.004,-0.012 0.01,-0.021 0.02,-0.032 0.039,-0.039 0.094,-0.063 0.148,-0.078 0.02,0 0.04,-0.009 0.059,-0.009 l 0.008,0 c 0.016,0 0.039,0.002 0.06,0.009 0.018,0.005 0.032,0.005 0.049,0.01 L 0,0 Z" />
        </g>
        <g
           transform="translate(693.7266,209.2822)"
           id="g3749">
          <path
             id="path3751"
             style="fill:#ffffff;fill-opacity:1;fill-rule:nonzero;stroke:none"
             d="m 0,0 c -0.271,1.278 -0.707,2.544 -1.279,3.688 -0.447,0.889 -1.076,1.947 -1.744,3.057 -1.085,1.807 -2.311,3.854 -3.27,6.047 -0.605,1.375 -2.158,5.456 -2.228,5.629 -0.274,0.689 -0.258,1.448 0.035,2.134 0.298,0.685 0.843,1.214 1.537,1.487 0.695,0.277 1.454,0.262 2.142,-0.036 0.685,-0.296 1.212,-0.842 1.491,-1.537 l 1.635,-4.152 0,17 c 0,1.536 1.254,2.792 2.798,2.792 1.537,0 2.791,-1.256 2.791,-2.792 l 0,-6.449 c 0.513,0.655 1.301,1.081 2.194,1.081 1.536,0 2.791,-1.254 2.791,-2.792 l 0,-0.164 c 0.472,0.566 1.171,0.933 1.965,0.933 1.418,0 2.57,-1.15 2.57,-2.568 l 0,-0.655 c 0.451,0.52 1.109,0.858 1.849,0.858 1.354,0 2.455,-1.103 2.455,-2.455 l 0,-5.041 c 0,-3.74 -0.496,-6.289 -2.304,-11.861 C 15.02,2.957 14.604,1.571 14.32,-0.051 l 0.004,-4.453 c 0,-0.168 -0.135,-0.304 -0.301,-0.304 l -13.7,0 C 0.316,-4.808 0.312,-4.812 0.305,-4.812 0.133,-4.812 0,-4.678 0,-4.509 L 0,0 Z m -1.189,14.497 c -0.027,-0.014 -0.045,-0.034 -0.075,-0.048 l -0.004,0 C -1.285,14.443 -1.299,14.443 -1.316,14.438 -1.338,14.432 -1.36,14.43 -1.377,14.43 l -0.008,0 c -0.018,0 -0.039,0.008 -0.058,0.008 -0.055,0.015 -0.11,0.04 -0.149,0.08 -0.01,0.009 -0.015,0.018 -0.019,0.03 -0.02,0.02 -0.036,0.044 -0.045,0.067 l -0.006,0 -2.223,5.63 c -0.212,0.548 -0.625,0.974 -1.164,1.207 -0.535,0.233 -1.13,0.243 -1.678,0.027 -0.543,-0.214 -0.971,-0.628 -1.205,-1.165 -0.231,-0.539 -0.244,-1.134 -0.023,-1.676 0.016,-0.049 1.617,-4.244 2.212,-5.604 0.948,-2.157 2.169,-4.187 3.237,-5.977 C -1.83,5.932 -1.194,4.87 -0.74,3.958 -0.178,2.835 0.248,1.608 0.541,0.302 l 0.096,-4.381 13.052,0 0.09,4.381 c 0.293,1.587 0.701,2.951 1.073,4.092 1.789,5.501 2.279,8.009 2.279,11.671 l 0,5.041 c 0,1.019 -0.832,1.847 -1.854,1.847 -1.023,0 -1.849,-0.828 -1.849,-1.847 l 0,-1.985 c 0,-0.169 -0.135,-0.303 -0.302,-0.303 -0.165,0 -0.304,0.134 -0.304,0.303 l 0,1.985 0,2.252 c 0,1.084 -0.878,1.969 -1.964,1.969 -1.083,0 -1.965,-0.885 -1.965,-1.969 l 0,-4.237 c 0,-0.169 -0.131,-0.303 -0.301,-0.303 -0.165,0 -0.303,0.134 -0.303,0.303 l 0,4.237 0,1.799 c 0,1.205 -0.983,2.187 -2.187,2.187 -1.211,0 -2.194,-0.982 -2.194,-2.187 l 0,-6.036 c 0,-0.169 -0.133,-0.303 -0.303,-0.303 -0.164,0 -0.3,0.134 -0.3,0.303 l 0,6.036 0,8.16 c 0,1.204 -0.983,2.186 -2.188,2.186 -1.212,0 -2.193,-0.982 -2.193,-2.186 l 0,-18.586 0,-0.005 c 0,-0.026 -0.009,-0.052 -0.016,-0.075 C -1.098,14.637 -1.098,14.622 -1.1,14.612 -1.106,14.598 -1.115,14.592 -1.121,14.578 -1.137,14.559 -1.152,14.533 -1.164,14.513 -1.17,14.509 -1.18,14.509 -1.189,14.497" />
        </g>
      </g>
    </g>
  </g>
</svg>
