<?xml version="1.0" encoding="UTF-8" standalone="no"?>
<svg
   xmlns:dc="http://purl.org/dc/elements/1.1/"
   xmlns:cc="http://creativecommons.org/ns#"
   xmlns:rdf="http://www.w3.org/1999/02/22-rdf-syntax-ns#"
   xmlns:svg="http://www.w3.org/2000/svg"
   xmlns="http://www.w3.org/2000/svg"
   version="1.1"
   id="svg4880"
   viewBox="0 0 35.112909 102.61289"
   height="28.959639mm"
   width="9.9096432mm">
  <defs
     id="defs4882">
    <clipPath
       id="clipPath3741"
       clipPathUnits="userSpaceOnUse">
      <path
         id="path3743"
         d="m 0,595.276 841.891,0 L 841.891,0 0,0 0,595.276 Z" />
    </clipPath>
  </defs>
  <metadata
     id="metadata4885">
    <rdf:RDF>
      <cc:Work
         rdf:about="">
        <dc:format>image/svg+xml</dc:format>
        <dc:type
           rdf:resource="http://purl.org/dc/dcmitype/StillImage" />
        <dc:title></dc:title>
      </cc:Work>
    </rdf:RDF>
  </metadata>
  <g
     transform="translate(-274.05539,-438.6334)"
     id="layer1">
    <g
       transform="matrix(1.71272,0,0,1.71272,-594.2037,68.164618)"
       id="g4856">
      <g
         id="g3573"
         transform="matrix(1.25,0,0,-1.25,511.05874,222.44685)">
        <path
           d="m 0,0 c 0,-2.715 2.198,-4.916 4.913,-4.916 2.718,0 4.915,2.201 4.915,4.916 0,2.713 -2.197,4.914 -4.915,4.914 C 2.198,4.914 0,2.713 0,0"
           style="fill:#4099bd;fill-opacity:1;fill-rule:nonzero;stroke:none"
           id="path3575" />
      </g>
      <path
         d="m 523.50748,230.26659 -12.61875,0 c -2.17375,0 -3.94125,1.76625 -3.94125,3.945 l 0,14.24875 c 0,2.1775 1.7675,3.9425 3.94125,3.9425 l 0.98,0 c -0.003,0.07 -0.02,0.14125 -0.02,0.215 l 0,20.5575 c 0,1.68 1.35875,3.04125 3.03875,3.04125 l 4.6225,0 c 1.6825,0 3.04125,-1.36125 3.04125,-3.04125 l 0,-20.5575 c 0,-0.0737 -0.0163,-0.145 -0.02,-0.215 l 0.97625,0 c 2.18125,0 3.94125,-1.765 3.94125,-3.9425 l 0,-14.24875 c 0.003,-2.17875 -1.76,-3.945 -3.94125,-3.945"
         style="fill:#4099bd;fill-opacity:1;fill-rule:nonzero;stroke:none"
         id="path3579" />
    </g>
  </g>
</svg>
