<?xml version="1.0" standalone="no"?>
<!DOCTYPE svg PUBLIC "-//W3C//DTD SVG 1.1//EN" "http://www.w3.org/Graphics/SVG/1.1/DTD/svg11.dtd" >
<svg xmlns="http://www.w3.org/2000/svg">
<metadata>
Copyright (c) 2016 by Fontsmith Ltd. All rights reserved. This font may not be altered in any way without prior permission of Fontsmith Ltd.
</metadata>
<defs>
<font id="TIMSansWeb-Medium" horiz-adv-x="351" >
  <font-face 
    font-family="TIM Sans Web Medium"
    font-weight="500"
    font-stretch="normal"
    units-per-em="1000"
    panose-1="0 0 6 0 0 0 0 0 0 0"
    ascent="750"
    descent="-250"
    x-height="528"
    cap-height="720"
    bbox="-364.778 -305 2799 1097"
    underline-thickness="87"
    underline-position="-28"
    unicode-range="U+000D-FB02"
  />
<missing-glyph horiz-adv-x="694" 
d="M90 720h514v-720h-514v720zM522 669h-350l176 -263zM316 360l-174 262v-524zM553 622l-175 -262l175 -262v524zM522 52l-174 262l-176 -262h350z" />
    <glyph glyph-name="f_f.liga" unicode="ff" horiz-adv-x="713" 
d="M112.5 2.5q-9.5 2.5 -9.5 10.5v424h-70q-7 0 -9.5 7t-2.5 35v7q0 28 2.5 35t9.5 7h70v29q0 104 48.5 160.5t144.5 56.5q59 0 104 -19q6 -3 6 -13q0 -11 -4 -27l-3 -14q-5 -22 -9.5 -28.5t-10.5 -4.5q-33 9 -66 9q-53 0 -74 -29.5t-21 -93.5v-26h232v29q0 104 48.5 160.5
t144.5 56.5q58 0 104 -19q6 -3 6 -12q0 -11 -4 -28l-3 -14q-4 -21 -8.5 -28t-11.5 -5q-33 9 -66 9q-53 0 -74 -29.5t-21 -93.5v-26h117q7 0 9.5 -7t2.5 -35v-7q0 -28 -2.5 -35t-9.5 -7h-117v-424q0 -7 -10 -10t-44 -3h-6q-36 0 -45.5 2.5t-9.5 10.5v424h-232v-424
q0 -7 -10.5 -10t-43.5 -3h-6q-36 0 -45.5 2.5z" />
    <glyph glyph-name="f_f_i.liga" unicode="ffi" horiz-adv-x="960" 
d="M112.5 2.5q-9.5 2.5 -9.5 10.5v424h-70q-7 0 -9.5 7t-2.5 35v7q0 28 2.5 35t9.5 7h70v29q0 104 48.5 160.5t144.5 56.5q53 0 104 -19q7 -3 7 -12q0 -5 -5 -28l-3 -14q-5 -21 -9.5 -28t-10.5 -5q-33 9 -66 9q-53 0 -74 -29.5t-21 -93.5v-26h232v22q0 108 61 164t173 56
q93 0 174 -39q9 -4 9 -12q0 -5 -8 -27l-7 -19q-8 -22 -13 -26.5t-14 -0.5q-66 29 -128 29q-69 0 -100.5 -32t-31.5 -100v-15h117q7 0 9 -7t2 -35v-7q0 -28 -2 -35t-9 -7h-117v-424q0 -7 -10 -10t-44 -3h-6q-36 0 -45.5 2.5t-9.5 10.5v424h-232v-424q0 -7 -10.5 -10t-43.5 -3
h-6q-36 0 -45.5 2.5zM781.5 2.5q-9.5 2.5 -9.5 10.5v502q0 8 9.5 10.5t45.5 2.5h6q35 0 44.5 -2.5t9.5 -10.5v-502q0 -7 -10 -10t-44 -3h-6q-36 0 -45.5 2.5z" />
    <glyph glyph-name="f_f_l.liga" unicode="ffl" horiz-adv-x="993" 
d="M805 26q-14 16 -20 41t-6 64v348q0 58 -4 160l-1 23q-34 17 -77 17q-68 0 -100 -34t-32 -102v-15h117q7 0 9 -7t2 -35v-7q0 -28 -2 -35t-9 -7h-117v-424q0 -7 -10 -10t-44 -3h-6q-36 0 -45.5 2.5t-9.5 10.5v424h-232v-424q0 -7 -10.5 -10t-43.5 -3h-6q-36 0 -45.5 2.5
t-9.5 10.5v424h-70q-7 0 -9.5 7t-2.5 35v7q0 28 2.5 35t9.5 7h70v29q0 104 48.5 160.5t144.5 56.5q57 0 104 -19q7 -3 7 -11q0 -4 -5 -29l-3 -14q-5 -21 -9.5 -28t-10.5 -5q-33 9 -66 9q-53 0 -74 -29.5t-21 -93.5v-26h232v22q0 111 62.5 167.5t179.5 56.5q53 0 102.5 -13
t76.5 -33q10 -8 13.5 -15.5t4.5 -22.5q5 -98 5 -233v-327q0 -23 7 -32.5t26 -9.5h15q6 0 8 -6t2 -29v-9q0 -22 -1.5 -28.5t-7.5 -8.5q-23 -10 -59 -10q-53 0 -79 29z" />
    <glyph glyph-name="fi" unicode="fi" horiz-adv-x="612" 
d="M112.5 2.5q-9.5 2.5 -9.5 10.5v424h-71q-7 0 -9.5 7t-2.5 35v7q0 28 2.5 35t9.5 7h71v22q0 108 61 164t173 56q93 0 174 -39q9 -4 9 -12q0 -5 -8 -27l-7 -19q-8 -22 -13 -26.5t-14 -0.5q-66 29 -128 29q-69 0 -100.5 -32t-31.5 -100v-15h117q7 0 9 -7t2 -35v-7
q0 -28 -2 -35t-9 -7h-117v-424q0 -7 -10 -10t-44 -3h-6q-36 0 -45.5 2.5zM433.5 2.5q-9.5 2.5 -9.5 10.5v502q0 8 9.5 10.5t45.5 2.5h6q35 0 44.5 -2.5t9.5 -10.5v-502q0 -7 -10 -10t-44 -3h-6q-36 0 -45.5 2.5z" />
    <glyph glyph-name="fl" unicode="fl" horiz-adv-x="646" 
d="M458 26q-14 16 -20 41t-6 64v348q0 59 -4 163l-1 21q-16 7 -36.5 11.5t-40.5 4.5q-68 0 -100 -34t-32 -102v-15h117q7 0 9 -7t2 -35v-7q0 -28 -2 -35t-9 -7h-117v-424q0 -7 -10 -10t-44 -3h-6q-36 0 -45.5 2.5t-9.5 10.5v424h-71q-7 0 -9.5 7t-2.5 35v7q0 28 2.5 35
t9.5 7h71v21q0 111 63 168t179 57q53 0 101.5 -13.5t76.5 -32.5q11 -8 14.5 -15.5t4.5 -22.5q5 -98 5 -233v-327q0 -23 7 -32.5t27 -9.5h14q7 0 9 -6t2 -30v-8q0 -22 -1.5 -28t-8.5 -9q-23 -10 -59 -10q-51 0 -79 29z" />
    <glyph glyph-name=".notdef" horiz-adv-x="694" 
d="M90 720h514v-720h-514v720zM522 669h-350l176 -263zM316 360l-174 262v-524zM553 622l-175 -262l175 -262v524zM522 52l-174 262l-176 -262h350z" />
    <glyph glyph-name=".null" horiz-adv-x="0" 
 />
    <glyph glyph-name="nonmarkingreturn" unicode="&#xd;" horiz-adv-x="253" 
 />
    <glyph glyph-name="space" unicode=" " horiz-adv-x="253" 
 />
    <glyph glyph-name="A" unicode="A" horiz-adv-x="704" 
d="M30 1.5q-11 1.5 -13 4.5t0 9l267 690q4 10 13 12.5t46 2.5h8q22 0 36 -1t18.5 -3.5t7.5 -10.5l272 -689q4 -10 -5.5 -13t-46.5 -3h-13q-37 0 -49 3t-15 12l-64 171h-290l-62 -171q-5 -10 -15 -12.5t-48 -2.5h-10q-26 0 -37 1.5zM458 280l-27 74q-54 149 -83 240l-15 -44
q-48 -139 -68 -193l-28 -77h221z" />
    <glyph glyph-name="Aacute" unicode="&#xc1;" horiz-adv-x="704" 
d="M30 1.5q-11 1.5 -13 4.5t0 9l267 690q4 10 13 12.5t46 2.5h8q22 0 36 -1t18.5 -3.5t7.5 -10.5l272 -689q4 -10 -5.5 -13t-46.5 -3h-13q-37 0 -49 3t-15 12l-64 171h-290l-62 -171q-5 -10 -15 -12.5t-48 -2.5h-10q-26 0 -37 1.5zM458 280l-27 74q-54 149 -83 240l-15 -44
q-48 -139 -68 -193l-28 -77h221zM272.5 788q-5.5 3 -1.5 10l94 149q4 6 13 8.5t33 2.5h38q21 0 26.5 -3t-0.5 -11l-117 -150q-5 -5 -12.5 -7t-24.5 -2h-27q-16 0 -21.5 3z" />
    <glyph glyph-name="Abreve" unicode="&#x102;" horiz-adv-x="704" 
d="M30 1.5q-11 1.5 -13 4.5t0 9l267 690q4 10 13 12.5t46 2.5h8q22 0 36 -1t18.5 -3.5t7.5 -10.5l272 -689q4 -10 -5.5 -13t-46.5 -3h-13q-37 0 -49 3t-15 12l-64 171h-290l-62 -171q-5 -10 -15 -12.5t-48 -2.5h-10q-26 0 -37 1.5zM458 280l-27 74q-54 149 -83 240l-15 -44
q-48 -139 -68 -193l-28 -77h221zM241.5 831q-40.5 35 -42.5 97q0 7 7 9.5t29 2.5h14q19 0 24.5 -2.5t6.5 -9.5q11 -59 68 -59q59 0 68 59q1 7 7 9.5t25 2.5h14q22 0 28.5 -2.5t6.5 -9.5q-2 -62 -42.5 -97t-106.5 -35t-106.5 35z" />
    <glyph glyph-name="uni01CD" unicode="&#x1cd;" horiz-adv-x="704" 
d="M30 1.5q-11 1.5 -13 4.5t0 9l267 690q4 10 13 12.5t46 2.5h8q22 0 36 -1t18.5 -3.5t7.5 -10.5l272 -689q4 -10 -5.5 -13t-46.5 -3h-13q-37 0 -49 3t-15 12l-64 171h-290l-62 -171q-5 -10 -15 -12.5t-48 -2.5h-10q-26 0 -37 1.5zM458 280l-27 74q-54 149 -83 240l-15 -44
q-48 -139 -68 -193l-28 -77h221zM305 792q-11 3 -19 12l-92 97q-5 5 -5 9t4.5 9.5t10.5 11.5l8 8q17 17 23 17q2 0 8 -4l105 -91l106 91q6 4 8 4q4 0 10 -5t13 -12l8 -8q1 -2 8 -9.5t7 -11.5t-5 -9l-92 -97q-8 -9 -19 -12t-35 -3h-17q-24 0 -35 3z" />
    <glyph glyph-name="Acircumflex" unicode="&#xc2;" horiz-adv-x="704" 
d="M30 1.5q-11 1.5 -13 4.5t0 9l267 690q4 10 13 12.5t46 2.5h8q22 0 36 -1t18.5 -3.5t7.5 -10.5l272 -689q4 -10 -5.5 -13t-46.5 -3h-13q-37 0 -49 3t-15 12l-64 171h-290l-62 -171q-5 -10 -15 -12.5t-48 -2.5h-10q-26 0 -37 1.5zM458 280l-27 74q-54 149 -83 240l-15 -44
q-48 -139 -68 -193l-28 -77h221zM235 787q-4 0 -10 5t-13 12l-8 8q-14 16 -14 21t4 9l92 97q9 9 20 12t34 3h17q23 0 34 -3t20 -12l92 -97q4 -4 4 -9t-14 -21l-8 -8q-7 -7 -13 -12t-10 -5q-2 0 -8 4l-106 91l-105 -91q-6 -4 -8 -4z" />
    <glyph glyph-name="Adieresis" unicode="&#xc4;" horiz-adv-x="704" 
d="M30 1.5q-11 1.5 -13 4.5t0 9l267 690q4 10 13 12.5t46 2.5h8q22 0 36 -1t18.5 -3.5t7.5 -10.5l272 -689q4 -10 -5.5 -13t-46.5 -3h-13q-37 0 -49 3t-15 12l-64 171h-290l-62 -171q-5 -10 -15 -12.5t-48 -2.5h-10q-26 0 -37 1.5zM458 280l-27 74q-54 149 -83 240l-15 -44
q-48 -139 -68 -193l-28 -77h221zM195.5 819q-18.5 18 -18.5 44q0 27 18.5 45.5t46.5 18.5t46.5 -18.5t18.5 -45.5q0 -26 -18.5 -44t-46.5 -18t-46.5 18zM408.5 819q-18.5 18 -18.5 44q0 27 18.5 45.5t45.5 18.5q28 0 47 -18.5t19 -45.5q0 -26 -19 -44t-47 -18
q-27 0 -45.5 18z" />
    <glyph glyph-name="Agrave" unicode="&#xc0;" horiz-adv-x="704" 
d="M30 1.5q-11 1.5 -13 4.5t0 9l267 690q4 10 13 12.5t46 2.5h8q22 0 36 -1t18.5 -3.5t7.5 -10.5l272 -689q4 -10 -5.5 -13t-46.5 -3h-13q-37 0 -49 3t-15 12l-64 171h-290l-62 -171q-5 -10 -15 -12.5t-48 -2.5h-10q-26 0 -37 1.5zM458 280l-27 74q-54 149 -83 240l-15 -44
q-48 -139 -68 -193l-28 -77h221zM338.5 787q-7.5 2 -12.5 7l-117 150q-6 8 0 11t27 3h38q24 0 33 -2.5t12 -8.5l94 -149q2 -4 2 -6q0 -7 -24 -7h-28q-17 0 -24.5 2z" />
    <glyph glyph-name="Amacron" unicode="&#x100;" horiz-adv-x="704" 
d="M30 1.5q-11 1.5 -13 4.5t0 9l267 690q4 10 13 12.5t46 2.5h8q22 0 36 -1t18.5 -3.5t7.5 -10.5l272 -689q4 -10 -5.5 -13t-46.5 -3h-13q-37 0 -49 3t-15 12l-64 171h-290l-62 -171q-5 -10 -15 -12.5t-48 -2.5h-10q-26 0 -37 1.5zM458 280l-27 74q-54 149 -83 240l-15 -44
q-48 -139 -68 -193l-28 -77h221zM205 834q-2 8 -2 29v10q0 21 2 28.5t9 7.5h268q7 0 9.5 -7.5t2.5 -28.5v-10q0 -21 -2.5 -29t-9.5 -8h-268q-7 0 -9 8z" />
    <glyph glyph-name="Aogonek" unicode="&#x104;" horiz-adv-x="704" 
d="M508 -207.5q-33 29.5 -33 80.5q0 37 23.5 72.5t61.5 58.5l-68 182h-290l-62 -171q-5 -10 -15 -12.5t-48 -2.5h-10q-26 0 -37 1.5t-13 4.5t0 9l267 690q4 10 13 12.5t46 2.5h8q22 0 36 -1t18.5 -3.5t7.5 -10.5l272 -689q1 -2 1 -6q0 -5 -10 -8q-30 -7 -55 -23t-40 -38
q-19 -29 -19 -59q0 -21 13 -32t34 -11q17 0 44 9q1 1 4 1q4 0 7.5 -6.5t7.5 -17.5l3 -10q4 -13 4 -21q0 -7 -6 -11q-17 -9 -39.5 -14.5t-41.5 -5.5q-51 0 -84 29.5zM458 280l-27 74q-54 149 -83 240l-15 -44q-48 -139 -68 -193l-28 -77h221z" />
    <glyph glyph-name="Aring" unicode="&#xc5;" horiz-adv-x="704" 
d="M30 1.5q-11 1.5 -13 4.5t0 9l271 699q-21 15 -33 36.5t-12 46.5q0 43 31.5 73t76.5 30t76 -29.5t31 -73.5q0 -27 -12.5 -49.5t-34.5 -36.5l274 -695q4 -10 -5.5 -13t-46.5 -3h-13q-37 0 -49 3t-15 12l-64 171h-290l-62 -171q-5 -10 -15 -12.5t-48 -2.5h-10q-26 0 -37 1.5
zM380 766.5q12 12.5 12 30.5t-12 30.5t-30 12.5t-30.5 -12t-12.5 -31q0 -18 12.5 -30.5t30.5 -12.5t30 12.5zM458 280l-27 74q-54 149 -83 240l-15 -44q-48 -139 -68 -193l-28 -77h221z" />
    <glyph glyph-name="Aringacute" unicode="&#x1fa;" horiz-adv-x="704" 
d="M276.5 927q-5.5 3 -1.5 10l94 149q4 6 13 8.5t33 2.5h38q21 0 26.5 -3t-0.5 -11l-117 -150q-5 -5 -12.5 -7t-24.5 -2h-27q-16 0 -21.5 3zM30 1.5q-11 1.5 -13 4.5t0 9l271 699q-21 15 -33 36.5t-12 46.5q0 43 31.5 73t76.5 30t76 -29.5t31 -73.5q0 -27 -12.5 -49.5
t-34.5 -36.5l274 -695q4 -10 -5.5 -13t-46.5 -3h-13q-37 0 -49 3t-15 12l-64 171h-290l-62 -171q-5 -10 -15 -12.5t-48 -2.5h-10q-26 0 -37 1.5zM380 766.5q12 12.5 12 30.5t-12 30.5t-30 12.5t-30.5 -12t-12.5 -31q0 -18 12.5 -30.5t30.5 -12.5t30 12.5zM458 280l-27 74
q-54 149 -83 240l-15 -44q-48 -139 -68 -193l-28 -77h221z" />
    <glyph glyph-name="Atilde" unicode="&#xc3;" horiz-adv-x="704" 
d="M30 1.5q-11 1.5 -13 4.5t0 9l267 690q4 10 13 12.5t46 2.5h8q22 0 36 -1t18.5 -3.5t7.5 -10.5l272 -689q4 -10 -5.5 -13t-46.5 -3h-13q-37 0 -49 3t-15 12l-64 171h-290l-62 -171q-5 -10 -15 -12.5t-48 -2.5h-10q-26 0 -37 1.5zM458 280l-27 74q-54 149 -83 240l-15 -44
q-48 -139 -68 -193l-28 -77h221zM337 834q-16 8 -26.5 12t-21.5 4q-14 0 -28 -8t-30 -24q-5 -5 -10 -2.5t-20 17.5l-6 6q-15 15 -15 21q0 5 4 10q20 26 48 43t59 17t71 -22q16 -8 26.5 -12t21.5 -4q14 0 28 8t30 24q4 4 10 1.5t20 -16.5l6 -6q15 -15 15 -22q0 -3 -4 -9
q-21 -26 -49 -43t-58 -17q-31 0 -71 22z" />
    <glyph glyph-name="AE" unicode="&#xc6;" horiz-adv-x="1027" 
d="M5.5 3.5q-8.5 3.5 -3.5 11.5l453 688q7 10 16.5 13.5t39.5 3.5h443q9 0 11.5 -7t2.5 -38v-7q0 -29 -2.5 -37.5t-11.5 -8.5h-318v-209h270q9 0 11.5 -7t2.5 -38v-6q0 -30 -2.5 -38.5t-11.5 -8.5h-270v-217h322q9 0 11.5 -7t2.5 -38v-7q0 -29 -2.5 -37.5t-11.5 -8.5h-399
q-28 0 -37 2t-9 8v172h-271l-109 -167q-6 -9 -19 -12t-44 -3h-25q-31 0 -39.5 3.5zM513 275v335q-38 -71 -110 -181l-100 -154h210z" />
    <glyph glyph-name="AEacute" unicode="&#x1fc;" horiz-adv-x="1027" 
d="M5.5 3.5q-8.5 3.5 -3.5 11.5l453 688q7 10 16.5 13.5t39.5 3.5h443q9 0 11.5 -7t2.5 -38v-7q0 -29 -2.5 -37.5t-11.5 -8.5h-318v-209h270q9 0 11.5 -7t2.5 -38v-6q0 -30 -2.5 -38.5t-11.5 -8.5h-270v-217h322q9 0 11.5 -7t2.5 -38v-7q0 -29 -2.5 -37.5t-11.5 -8.5h-399
q-28 0 -37 2t-9 8v172h-271l-109 -167q-6 -9 -19 -12t-44 -3h-25q-31 0 -39.5 3.5zM513 275v335q-38 -71 -110 -181l-100 -154h210zM556.5 788q-5.5 3 -1.5 10l94 149q4 6 13 8.5t33 2.5h38q21 0 26.5 -3t-0.5 -11l-117 -150q-5 -5 -12.5 -7t-24.5 -2h-27q-16 0 -21.5 3z
" />
    <glyph glyph-name="B" unicode="B" horiz-adv-x="641" 
d="M85 2q-7 2 -9 8v700q0 7 7 8.5t31 1.5h173q265 0 265 -180q0 -57 -29 -96.5t-79 -60.5q70 -18 109.5 -61.5t39.5 -110.5q0 -211 -291 -211h-187q-23 0 -30 2zM284 416q146 0 146 107q0 55 -35.5 78t-106.5 23h-89v-208h85zM302 96q83 0 124.5 26.5t41.5 88.5t-40.5 87.5
t-123.5 25.5h-105v-228h103z" />
    <glyph glyph-name="C" unicode="C" horiz-adv-x="624" 
d="M190.5 33.5q-73.5 43.5 -112 125t-38.5 193.5q0 117 42 202.5t118.5 130.5t176.5 45q60 0 111.5 -15.5t87.5 -40.5q5 -3 8.5 -6.5t3.5 -7.5q0 -5 -4 -12.5t-11 -18.5l-12 -19q-9 -15 -14 -20.5t-9 -5.5t-8 3q-38 21 -71 30.5t-72 9.5q-106 0 -163 -70t-57 -200t56 -197
t164 -67q66 0 150 33q6 3 9 3q5 0 9 -5t11 -20l10 -21q11 -24 11 -30q0 -7 -10 -12q-44 -24 -100 -37.5t-112 -13.5q-101 0 -174.5 43.5z" />
    <glyph glyph-name="Cacute" unicode="&#x106;" horiz-adv-x="624" 
d="M190.5 33.5q-73.5 43.5 -112 125t-38.5 193.5q0 117 42 202.5t118.5 130.5t176.5 45q60 0 111.5 -15.5t87.5 -40.5q5 -3 8.5 -6.5t3.5 -7.5q0 -5 -4 -12.5t-11 -18.5l-12 -19q-9 -15 -14 -20.5t-9 -5.5t-8 3q-38 21 -71 30.5t-72 9.5q-106 0 -163 -70t-57 -200t56 -197
t164 -67q66 0 150 33q6 3 9 3q5 0 9 -5t11 -20l10 -21q11 -24 11 -30q0 -7 -10 -12q-44 -24 -100 -37.5t-112 -13.5q-101 0 -174.5 43.5zM299.5 788q-5.5 3 -1.5 10l94 149q4 6 13 8.5t33 2.5h38q21 0 26.5 -3t-0.5 -11l-117 -150q-5 -5 -12.5 -7t-24.5 -2h-27
q-16 0 -21.5 3z" />
    <glyph glyph-name="Cacute.loclPLK" horiz-adv-x="624" 
d="M190.5 33.5q-73.5 43.5 -112 125t-38.5 193.5q0 117 42 202.5t118.5 130.5t176.5 45q60 0 111.5 -15.5t87.5 -40.5q5 -3 8.5 -6.5t3.5 -7.5q0 -5 -4 -12.5t-11 -18.5l-12 -19q-9 -15 -14 -20.5t-9 -5.5t-8 3q-38 21 -71 30.5t-72 9.5q-106 0 -163 -70t-57 -200t56 -197
t164 -67q66 0 150 33q6 3 9 3q5 0 9 -5t11 -20l10 -21q11 -24 11 -30q0 -7 -10 -12q-44 -24 -100 -37.5t-112 -13.5q-101 0 -174.5 43.5zM323 788q-6 3 -4 10l42 148q2 7 9.5 9.5t31.5 2.5h31q23 0 30 -3t3 -11l-65 -149q-3 -7 -8.5 -8.5t-24.5 -1.5h-22q-17 0 -23 3z" />
    <glyph glyph-name="Ccaron" unicode="&#x10c;" horiz-adv-x="624" 
d="M190.5 33.5q-73.5 43.5 -112 125t-38.5 193.5q0 117 42 202.5t118.5 130.5t176.5 45q60 0 111.5 -15.5t87.5 -40.5q5 -3 8.5 -6.5t3.5 -7.5q0 -5 -4 -12.5t-11 -18.5l-12 -19q-9 -15 -14 -20.5t-9 -5.5t-8 3q-38 21 -71 30.5t-72 9.5q-106 0 -163 -70t-57 -200t56 -197
t164 -67q66 0 150 33q6 3 9 3q5 0 9 -5t11 -20l10 -21q11 -24 11 -30q0 -7 -10 -12q-44 -24 -100 -37.5t-112 -13.5q-101 0 -174.5 43.5zM332 792q-11 3 -19 12l-92 97q-5 5 -5 9t4.5 9.5t10.5 11.5l8 8q17 17 23 17q2 0 8 -4l105 -91l106 91q6 4 8 4q4 0 10 -5t13 -12l8 -8
q1 -2 8 -9.5t7 -11.5t-5 -9l-92 -97q-8 -9 -19 -12t-35 -3h-17q-24 0 -35 3z" />
    <glyph glyph-name="Ccedilla" unicode="&#xc7;" horiz-adv-x="624" 
d="M576 83q11 -24 11 -30q0 -7 -10 -12q-42 -22 -94 -36t-105 -15l-4 -38q7 1 17 1q39 0 65.5 -24t26.5 -64q0 -43 -31 -72.5t-91 -29.5q-43 0 -76 13q-9 3 -9 10q0 5 5 20l3 10q4 15 7.5 19t11.5 2q30 -6 49 -6q46 0 46 34q0 33 -50 33q-26 0 -58 -6l14 102
q-125 19 -194.5 113t-69.5 245q0 117 42 202.5t118.5 130.5t176.5 45q60 0 111.5 -15.5t87.5 -40.5q5 -3 8.5 -6.5t3.5 -7.5q0 -5 -4 -12.5t-11 -18.5l-12 -19q-9 -15 -14 -20.5t-9 -5.5t-8 3q-38 21 -71 30.5t-72 9.5q-106 0 -163 -70t-57 -200t56 -197t164 -67
q66 0 150 33q6 3 9 3q5 0 9 -5t11 -20z" />
    <glyph glyph-name="Ccircumflex" unicode="&#x108;" horiz-adv-x="624" 
d="M190.5 33.5q-73.5 43.5 -112 125t-38.5 193.5q0 117 42 202.5t118.5 130.5t176.5 45q60 0 111.5 -15.5t87.5 -40.5q5 -3 8.5 -6.5t3.5 -7.5q0 -5 -4 -12.5t-11 -18.5l-12 -19q-9 -15 -14 -20.5t-9 -5.5t-8 3q-38 21 -71 30.5t-72 9.5q-106 0 -163 -70t-57 -200t56 -197
t164 -67q66 0 150 33q6 3 9 3q5 0 9 -5t11 -20l10 -21q11 -24 11 -30q0 -7 -10 -12q-44 -24 -100 -37.5t-112 -13.5q-101 0 -174.5 43.5zM262 787q-4 0 -10 5t-13 12l-8 8q-14 16 -14 21t4 9l92 97q9 9 20 12t34 3h17q23 0 34 -3t20 -12l92 -97q4 -4 4 -9t-14 -21l-8 -8
q-7 -7 -13 -12t-10 -5q-2 0 -8 4l-106 91l-105 -91q-6 -4 -8 -4z" />
    <glyph glyph-name="Cdotaccent" unicode="&#x10a;" horiz-adv-x="624" 
d="M190.5 33.5q-73.5 43.5 -112 125t-38.5 193.5q0 117 42 202.5t118.5 130.5t176.5 45q60 0 111.5 -15.5t87.5 -40.5q5 -3 8.5 -6.5t3.5 -7.5q0 -5 -4 -12.5t-11 -18.5l-12 -19q-9 -15 -14 -20.5t-9 -5.5t-8 3q-38 21 -71 30.5t-72 9.5q-106 0 -163 -70t-57 -200t56 -197
t164 -67q66 0 150 33q6 3 9 3q5 0 9 -5t11 -20l10 -21q11 -24 11 -30q0 -7 -10 -12q-44 -24 -100 -37.5t-112 -13.5q-101 0 -174.5 43.5zM330.5 822q-19.5 19 -19.5 46t19 45.5t46 18.5t46 -18.5t19 -45.5t-19 -46t-46 -19q-26 0 -45.5 19z" />
    <glyph glyph-name="D" unicode="D" horiz-adv-x="710" 
d="M84 1.5q-8 1.5 -8 8.5v700q0 7 7.5 8.5t33.5 1.5h158q104 0 176 -21.5t121 -68.5q47 -46 72 -114.5t25 -153.5q0 -93 -29 -165.5t-81 -117.5q-46 -41 -113.5 -60t-166.5 -19h-161q-26 0 -34 1.5zM274 98q130 0 194 53q75 64 75 210q0 131 -64 196q-34 35 -83 50t-122 15
h-75v-524h75z" />
    <glyph glyph-name="Eth" unicode="&#xd0;" horiz-adv-x="727" 
d="M661 515.5q25 -68.5 25 -153.5q0 -93 -29 -165.5t-81 -117.5q-46 -41 -113.5 -60t-166.5 -19h-161q-26 0 -34 1.5t-8 8.5v310h-57q-7 0 -9.5 8t-2.5 34v7q0 26 2.5 33.5t9.5 7.5h57v300q0 7 7.5 8.5t33.5 1.5h158q104 0 176 -21.5t121 -68.5q47 -46 72 -114.5zM560 361
q0 131 -64 196q-34 35 -83 50t-122 15h-75v-212h149q7 0 10 -7.5t3 -33.5v-7q0 -26 -3 -34t-10 -8h-149v-222h75q130 0 194 53q75 64 75 210z" />
    <glyph glyph-name="Dcaron" unicode="&#x10e;" horiz-adv-x="710" 
d="M84 1.5q-8 1.5 -8 8.5v700q0 7 7.5 8.5t33.5 1.5h158q104 0 176 -21.5t121 -68.5q47 -46 72 -114.5t25 -153.5q0 -93 -29 -165.5t-81 -117.5q-46 -41 -113.5 -60t-166.5 -19h-161q-26 0 -34 1.5zM274 98q130 0 194 53q75 64 75 210q0 131 -64 196q-34 35 -83 50t-122 15
h-75v-524h75zM309 792q-11 3 -19 12l-92 97q-5 5 -5 9t4.5 9.5t10.5 11.5l8 8q17 17 23 17q2 0 8 -4l105 -91l106 91q6 4 8 4q4 0 10 -5t13 -12l8 -8q1 -2 8 -9.5t7 -11.5t-5 -9l-92 -97q-8 -9 -19 -12t-35 -3h-17q-24 0 -35 3z" />
    <glyph glyph-name="Dcroat" unicode="&#x110;" horiz-adv-x="727" 
d="M661 515.5q25 -68.5 25 -153.5q0 -93 -29 -165.5t-81 -117.5q-46 -41 -113.5 -60t-166.5 -19h-161q-26 0 -34 1.5t-8 8.5v310h-57q-7 0 -9.5 8t-2.5 34v7q0 26 2.5 33.5t9.5 7.5h57v300q0 7 7.5 8.5t33.5 1.5h158q104 0 176 -21.5t121 -68.5q47 -46 72 -114.5zM560 361
q0 131 -64 196q-34 35 -83 50t-122 15h-75v-212h149q7 0 10 -7.5t3 -33.5v-7q0 -26 -3 -34t-10 -8h-149v-222h75q130 0 194 53q75 64 75 210z" />
    <glyph glyph-name="E" unicode="E" horiz-adv-x="590" 
d="M85 2q-9 2 -9 8v700q0 6 8.5 8t35.5 2h397q9 0 11.5 -7t2.5 -38v-7q0 -29 -2.5 -37.5t-11.5 -8.5h-318v-209h270q9 0 11.5 -7t2.5 -38v-6q0 -30 -2.5 -38.5t-11.5 -8.5h-270v-217h322q9 0 11.5 -7t2.5 -38v-7q0 -29 -2.5 -37.5t-11.5 -8.5h-399q-28 0 -37 2z" />
    <glyph glyph-name="Eacute" unicode="&#xc9;" horiz-adv-x="590" 
d="M85 2q-9 2 -9 8v700q0 6 8.5 8t35.5 2h397q9 0 11.5 -7t2.5 -38v-7q0 -29 -2.5 -37.5t-11.5 -8.5h-318v-209h270q9 0 11.5 -7t2.5 -38v-6q0 -30 -2.5 -38.5t-11.5 -8.5h-270v-217h322q9 0 11.5 -7t2.5 -38v-7q0 -29 -2.5 -37.5t-11.5 -8.5h-399q-28 0 -37 2zM235.5 788
q-5.5 3 -1.5 10l94 149q4 6 13 8.5t33 2.5h38q21 0 26.5 -3t-0.5 -11l-117 -150q-5 -5 -12.5 -7t-24.5 -2h-27q-16 0 -21.5 3z" />
    <glyph glyph-name="Ebreve" unicode="&#x114;" horiz-adv-x="590" 
d="M85 2q-9 2 -9 8v700q0 6 8.5 8t35.5 2h397q9 0 11.5 -7t2.5 -38v-7q0 -29 -2.5 -37.5t-11.5 -8.5h-318v-209h270q9 0 11.5 -7t2.5 -38v-6q0 -30 -2.5 -38.5t-11.5 -8.5h-270v-217h322q9 0 11.5 -7t2.5 -38v-7q0 -29 -2.5 -37.5t-11.5 -8.5h-399q-28 0 -37 2zM204.5 831
q-40.5 35 -42.5 97q0 7 7 9.5t29 2.5h14q19 0 24.5 -2.5t6.5 -9.5q11 -59 68 -59q59 0 68 59q1 7 7 9.5t25 2.5h14q22 0 28.5 -2.5t6.5 -9.5q-2 -62 -42.5 -97t-106.5 -35t-106.5 35z" />
    <glyph glyph-name="Ecaron" unicode="&#x11a;" horiz-adv-x="590" 
d="M85 2q-9 2 -9 8v700q0 6 8.5 8t35.5 2h397q9 0 11.5 -7t2.5 -38v-7q0 -29 -2.5 -37.5t-11.5 -8.5h-318v-209h270q9 0 11.5 -7t2.5 -38v-6q0 -30 -2.5 -38.5t-11.5 -8.5h-270v-217h322q9 0 11.5 -7t2.5 -38v-7q0 -29 -2.5 -37.5t-11.5 -8.5h-399q-28 0 -37 2zM268 792
q-11 3 -19 12l-92 97q-5 5 -5 9t4.5 9.5t10.5 11.5l8 8q17 17 23 17q2 0 8 -4l105 -91l106 91q6 4 8 4q4 0 10 -5t13 -12l8 -8q1 -2 8 -9.5t7 -11.5t-5 -9l-92 -97q-8 -9 -19 -12t-35 -3h-17q-24 0 -35 3z" />
    <glyph glyph-name="Ecircumflex" unicode="&#xca;" horiz-adv-x="590" 
d="M85 2q-9 2 -9 8v700q0 6 8.5 8t35.5 2h397q9 0 11.5 -7t2.5 -38v-7q0 -29 -2.5 -37.5t-11.5 -8.5h-318v-209h270q9 0 11.5 -7t2.5 -38v-6q0 -30 -2.5 -38.5t-11.5 -8.5h-270v-217h322q9 0 11.5 -7t2.5 -38v-7q0 -29 -2.5 -37.5t-11.5 -8.5h-399q-28 0 -37 2zM198 787
q-4 0 -10 5t-13 12l-8 8q-14 16 -14 21t4 9l92 97q9 9 20 12t34 3h17q23 0 34 -3t20 -12l92 -97q4 -4 4 -9t-14 -21l-8 -8q-7 -7 -13 -12t-10 -5q-2 0 -8 4l-106 91l-105 -91q-6 -4 -8 -4z" />
    <glyph glyph-name="Edieresis" unicode="&#xcb;" horiz-adv-x="590" 
d="M85 2q-9 2 -9 8v700q0 6 8.5 8t35.5 2h397q9 0 11.5 -7t2.5 -38v-7q0 -29 -2.5 -37.5t-11.5 -8.5h-318v-209h270q9 0 11.5 -7t2.5 -38v-6q0 -30 -2.5 -38.5t-11.5 -8.5h-270v-217h322q9 0 11.5 -7t2.5 -38v-7q0 -29 -2.5 -37.5t-11.5 -8.5h-399q-28 0 -37 2zM158.5 819
q-18.5 18 -18.5 44q0 27 18.5 45.5t46.5 18.5t46.5 -18.5t18.5 -45.5q0 -26 -18.5 -44t-46.5 -18t-46.5 18zM371.5 819q-18.5 18 -18.5 44q0 27 18.5 45.5t45.5 18.5q28 0 47 -18.5t19 -45.5q0 -26 -19 -44t-47 -18q-27 0 -45.5 18z" />
    <glyph glyph-name="Edotaccent" unicode="&#x116;" horiz-adv-x="590" 
d="M85 2q-9 2 -9 8v700q0 6 8.5 8t35.5 2h397q9 0 11.5 -7t2.5 -38v-7q0 -29 -2.5 -37.5t-11.5 -8.5h-318v-209h270q9 0 11.5 -7t2.5 -38v-6q0 -30 -2.5 -38.5t-11.5 -8.5h-270v-217h322q9 0 11.5 -7t2.5 -38v-7q0 -29 -2.5 -37.5t-11.5 -8.5h-399q-28 0 -37 2zM266.5 822
q-19.5 19 -19.5 46t19 45.5t46 18.5t46 -18.5t19 -45.5t-19 -46t-46 -19q-26 0 -45.5 19z" />
    <glyph glyph-name="Egrave" unicode="&#xc8;" horiz-adv-x="590" 
d="M85 2q-9 2 -9 8v700q0 6 8.5 8t35.5 2h397q9 0 11.5 -7t2.5 -38v-7q0 -29 -2.5 -37.5t-11.5 -8.5h-318v-209h270q9 0 11.5 -7t2.5 -38v-6q0 -30 -2.5 -38.5t-11.5 -8.5h-270v-217h322q9 0 11.5 -7t2.5 -38v-7q0 -29 -2.5 -37.5t-11.5 -8.5h-399q-28 0 -37 2zM301.5 787
q-7.5 2 -12.5 7l-117 150q-6 8 0 11t27 3h38q24 0 33 -2.5t12 -8.5l94 -149q2 -4 2 -6q0 -7 -24 -7h-28q-17 0 -24.5 2z" />
    <glyph glyph-name="Emacron" unicode="&#x112;" horiz-adv-x="590" 
d="M85 2q-9 2 -9 8v700q0 6 8.5 8t35.5 2h397q9 0 11.5 -7t2.5 -38v-7q0 -29 -2.5 -37.5t-11.5 -8.5h-318v-209h270q9 0 11.5 -7t2.5 -38v-6q0 -30 -2.5 -38.5t-11.5 -8.5h-270v-217h322q9 0 11.5 -7t2.5 -38v-7q0 -29 -2.5 -37.5t-11.5 -8.5h-399q-28 0 -37 2zM168 834
q-2 8 -2 29v10q0 21 2 28.5t9 7.5h268q7 0 9.5 -7.5t2.5 -28.5v-10q0 -21 -2.5 -29t-9.5 -8h-268q-7 0 -9 8z" />
    <glyph glyph-name="Eogonek" unicode="&#x118;" horiz-adv-x="590" 
d="M352 -208q-33 29 -33 83q0 36 22.5 70t59.5 55h-279q-28 0 -37 2t-9 8v700q0 6 8.5 8t35.5 2h397q9 0 11.5 -7t2.5 -38v-7q0 -29 -2.5 -37.5t-11.5 -8.5h-318v-209h270q9 0 11.5 -7t2.5 -38v-6q0 -30 -2.5 -38.5t-11.5 -8.5h-270v-217h322q9 0 11.5 -7t2.5 -38v-7
q0 -28 -2.5 -36t-11.5 -10q-46 -8 -80 -39t-34 -73q0 -23 12.5 -36t34.5 -13q17 0 44 9l3 1q7 0 15 -24l3 -10q5 -17 5 -21q0 -7 -7 -11q-16 -9 -38.5 -14.5t-41.5 -5.5q-52 0 -85 29z" />
    <glyph glyph-name="F" unicode="F" horiz-adv-x="566" 
d="M96.5 0.5q-13.5 0.5 -17 3t-3.5 8.5v698q0 7 8 8.5t34 1.5h403q9 0 12 -7.5t3 -37.5v-7q0 -29 -3 -37.5t-12 -8.5h-322v-209h274q9 0 11.5 -7t2.5 -38v-6q0 -30 -2.5 -38.5t-11.5 -8.5h-274v-303q0 -8 -10 -10t-47 -2h-10q-22 0 -35.5 0.5z" />
    <glyph glyph-name="G" unicode="G" horiz-adv-x="703" 
d="M127.5 87.5q-86.5 97.5 -86.5 270.5q0 113 41.5 197t121 129.5t189.5 45.5q129 0 222 -62q8 -5 8 -11t-14 -32l-12 -21q-7 -13 -12.5 -18.5t-10.5 -5.5q-4 0 -10 3q-75 44 -164 44q-113 0 -173 -68.5t-60 -198.5q0 -132 58 -200t171 -68q29 0 61.5 4.5t57.5 12.5v188
h-141q-10 0 -13 7.5t-3 38.5v7q0 22 1.5 31t4.5 11.5t10 2.5h226q23 0 29.5 -3t6.5 -12v-324q0 -8 -3 -12.5t-11 -8.5q-41 -20 -108 -32.5t-131 -12.5q-169 0 -255.5 97.5z" />
    <glyph glyph-name="Gbreve" unicode="&#x11e;" horiz-adv-x="703" 
d="M127.5 87.5q-86.5 97.5 -86.5 270.5q0 113 41.5 197t121 129.5t189.5 45.5q129 0 222 -62q8 -5 8 -11t-14 -32l-12 -21q-7 -13 -12.5 -18.5t-10.5 -5.5q-4 0 -10 3q-75 44 -164 44q-113 0 -173 -68.5t-60 -198.5q0 -132 58 -200t171 -68q29 0 61.5 4.5t57.5 12.5v188
h-141q-10 0 -13 7.5t-3 38.5v7q0 22 1.5 31t4.5 11.5t10 2.5h226q23 0 29.5 -3t6.5 -12v-324q0 -8 -3 -12.5t-11 -8.5q-41 -20 -108 -32.5t-131 -12.5q-169 0 -255.5 97.5zM282.5 831q-40.5 35 -42.5 97q0 7 7 9.5t29 2.5h14q19 0 24.5 -2.5t6.5 -9.5q11 -59 68 -59
q59 0 68 59q1 7 7 9.5t25 2.5h14q22 0 28.5 -2.5t6.5 -9.5q-2 -62 -42.5 -97t-106.5 -35t-106.5 35z" />
    <glyph glyph-name="Gcircumflex" unicode="&#x11c;" horiz-adv-x="703" 
d="M127.5 87.5q-86.5 97.5 -86.5 270.5q0 113 41.5 197t121 129.5t189.5 45.5q129 0 222 -62q8 -5 8 -11t-14 -32l-12 -21q-7 -13 -12.5 -18.5t-10.5 -5.5q-4 0 -10 3q-75 44 -164 44q-113 0 -173 -68.5t-60 -198.5q0 -132 58 -200t171 -68q29 0 61.5 4.5t57.5 12.5v188
h-141q-10 0 -13 7.5t-3 38.5v7q0 22 1.5 31t4.5 11.5t10 2.5h226q23 0 29.5 -3t6.5 -12v-324q0 -8 -3 -12.5t-11 -8.5q-41 -20 -108 -32.5t-131 -12.5q-169 0 -255.5 97.5zM276 787q-4 0 -10 5t-13 12l-8 8q-14 16 -14 21t4 9l92 97q9 9 20 12t34 3h17q23 0 34 -3t20 -12
l92 -97q4 -4 4 -9t-14 -21l-8 -8q-7 -7 -13 -12t-10 -5q-2 0 -8 4l-106 91l-105 -91q-6 -4 -8 -4z" />
    <glyph glyph-name="Gcommaaccent" unicode="&#x122;" horiz-adv-x="703" 
d="M127.5 87.5q-86.5 97.5 -86.5 270.5q0 113 41.5 197t121 129.5t189.5 45.5q129 0 222 -62q8 -5 8 -11t-14 -32l-12 -21q-7 -13 -12.5 -18.5t-10.5 -5.5q-4 0 -10 3q-75 44 -164 44q-113 0 -173 -68.5t-60 -198.5q0 -132 58 -200t171 -68q29 0 61.5 4.5t57.5 12.5v188
h-141q-10 0 -13 7.5t-3 38.5v7q0 22 1.5 31t4.5 11.5t10 2.5h226q23 0 29.5 -3t6.5 -12v-324q0 -8 -3 -12.5t-11 -8.5q-41 -20 -108 -32.5t-131 -12.5q-169 0 -255.5 97.5zM342 -305q-5 0 -10 5l-13 11q-6 6 -6 9q0 5 4 9q23 27 33.5 50.5t10.5 39.5q0 11 -4 17.5t-12 17.5
q-1 2 -6.5 9t-8 14.5t-2.5 16.5q0 20 15.5 34.5t38.5 14.5q27 0 44 -19.5t17 -49.5q0 -46 -24 -91.5t-68 -83.5q-4 -4 -9 -4z" />
    <glyph glyph-name="Gdotaccent" unicode="&#x120;" horiz-adv-x="703" 
d="M127.5 87.5q-86.5 97.5 -86.5 270.5q0 113 41.5 197t121 129.5t189.5 45.5q129 0 222 -62q8 -5 8 -11t-14 -32l-12 -21q-7 -13 -12.5 -18.5t-10.5 -5.5q-4 0 -10 3q-75 44 -164 44q-113 0 -173 -68.5t-60 -198.5q0 -132 58 -200t171 -68q29 0 61.5 4.5t57.5 12.5v188
h-141q-10 0 -13 7.5t-3 38.5v7q0 22 1.5 31t4.5 11.5t10 2.5h226q23 0 29.5 -3t6.5 -12v-324q0 -8 -3 -12.5t-11 -8.5q-41 -20 -108 -32.5t-131 -12.5q-169 0 -255.5 97.5zM344.5 822q-19.5 19 -19.5 46t19 45.5t46 18.5t46 -18.5t19 -45.5t-19 -46t-46 -19q-26 0 -45.5 19z
" />
    <glyph glyph-name="H" unicode="H" horiz-adv-x="721" 
d="M96.5 1q-13.5 1 -17 3.5t-3.5 8.5v694q0 6 3.5 8.5t17 3.5t34.5 1h11q38 0 47.5 -2t9.5 -11v-294h323v294q0 6 3.5 8.5t17 3.5t34.5 1h11q38 0 47.5 -2t9.5 -11v-694q0 -9 -9.5 -11t-47.5 -2h-11q-21 0 -34.5 1t-17 3.5t-3.5 8.5v302h-323v-302q0 -9 -9.5 -11t-47.5 -2
h-11q-21 0 -34.5 1z" />
    <glyph glyph-name="Hbar" unicode="&#x126;" horiz-adv-x="737" 
d="M720.5 610.5q2.5 -7.5 2.5 -33.5v-6q0 -26 -2.5 -34t-9.5 -8h-58v-516q0 -9 -9.5 -11t-47.5 -2h-11q-21 0 -34.5 1t-17 3.5t-3.5 8.5v302h-323v-302q0 -9 -9.5 -11t-47.5 -2h-11q-21 0 -34.5 1t-17 3.5t-3.5 8.5v516h-58q-7 0 -9.5 8t-2.5 34v6q0 26 2.5 33.5t9.5 7.5h58
v89q0 6 3.5 8.5t17 3.5t34.5 1h11q38 0 47.5 -2t9.5 -11v-89h323v89q0 6 3.5 8.5t17 3.5t34.5 1h11q38 0 47.5 -2t9.5 -11v-89h58q7 0 9.5 -7.5zM530 529h-323v-116h323v116z" />
    <glyph glyph-name="Hcircumflex" unicode="&#x124;" horiz-adv-x="721" 
d="M96.5 1q-13.5 1 -17 3.5t-3.5 8.5v694q0 6 3.5 8.5t17 3.5t34.5 1h11q38 0 47.5 -2t9.5 -11v-294h323v294q0 6 3.5 8.5t17 3.5t34.5 1h11q38 0 47.5 -2t9.5 -11v-694q0 -9 -9.5 -11t-47.5 -2h-11q-21 0 -34.5 1t-17 3.5t-3.5 8.5v302h-323v-302q0 -9 -9.5 -11t-47.5 -2
h-11q-21 0 -34.5 1zM248 787q-4 0 -10 5t-13 12l-8 8q-14 16 -14 21t4 9l92 97q9 9 20 12t34 3h17q23 0 34 -3t20 -12l92 -97q4 -4 4 -9t-14 -21l-8 -8q-7 -7 -13 -12t-10 -5q-2 0 -8 4l-106 91l-105 -91q-6 -4 -8 -4z" />
    <glyph glyph-name="I" unicode="I" horiz-adv-x="283" 
d="M100.5 1q-13.5 1 -17 3.5t-3.5 8.5v694q0 6 3.5 8.5t17 3.5t34.5 1h11q38 0 47.5 -2t9.5 -11v-694q0 -9 -9.5 -11t-47.5 -2h-11q-21 0 -34.5 1z" />
    <glyph glyph-name="IJ" unicode="&#x132;" horiz-adv-x="745" 
d="M100.5 1q-13.5 1 -17 3.5t-3.5 8.5v694q0 6 3.5 8.5t17 3.5t34.5 1h11q38 0 47.5 -2t9.5 -11v-694q0 -9 -9.5 -11t-47.5 -2h-11q-21 0 -34.5 1zM384.5 -1q-39.5 9 -66.5 22q-6 3 -8.5 6t-2.5 8q0 6 8 30l6 17q7 19 11.5 25.5t10.5 6.5q3 0 9 -2q57 -20 99 -20q47 0 72 28
q16 18 21.5 44t5.5 69v474q0 8 10.5 10.5t44.5 2.5h11q33 0 45 -2.5t12 -10.5v-480q0 -121 -53 -179q-54 -58 -158 -58q-38 0 -77.5 9z" />
    <glyph glyph-name="Iacute" unicode="&#xcd;" horiz-adv-x="283" 
d="M100.5 1q-13.5 1 -17 3.5t-3.5 8.5v694q0 6 3.5 8.5t17 3.5t34.5 1h11q38 0 47.5 -2t9.5 -11v-694q0 -9 -9.5 -11t-47.5 -2h-11q-21 0 -34.5 1zM65.5 788q-5.5 3 -1.5 10l94 149q4 6 13 8.5t33 2.5h38q21 0 26.5 -3t-0.5 -11l-117 -150q-5 -5 -12.5 -7t-24.5 -2h-27
q-16 0 -21.5 3z" />
    <glyph glyph-name="Iacute_J.loclNLD" horiz-adv-x="745" 
d="M100.5 1q-13.5 1 -17 3.5t-3.5 8.5v694q0 6 3.5 8.5t17 3.5t34.5 1h11q38 0 47.5 -2t9.5 -11v-694q0 -9 -9.5 -11t-47.5 -2h-11q-21 0 -34.5 1zM65.5 788q-5.5 3 -1.5 10l94 149q4 6 13 8.5t33 2.5h38q21 0 26.5 -3t-0.5 -11l-117 -150q-5 -5 -12.5 -7t-24.5 -2h-27
q-16 0 -21.5 3zM384.5 -1q-39.5 9 -66.5 22q-6 3 -8.5 6t-2.5 8q0 6 8 30l6 17q7 19 11.5 25.5t10.5 6.5q3 0 9 -2q57 -20 99 -20q47 0 72 28q16 18 21.5 44t5.5 69v474q0 8 10.5 10.5t44.5 2.5h11q33 0 45 -2.5t12 -10.5v-480q0 -121 -53 -179q-54 -58 -158 -58
q-38 0 -77.5 9zM535.5 788q-5.5 3 -1.5 10l94 149q4 6 13 8.5t33 2.5h38q21 0 26.5 -3t-0.5 -11l-117 -150q-5 -5 -12.5 -7t-24.5 -2h-27q-16 0 -21.5 3z" />
    <glyph glyph-name="Ibreve" unicode="&#x12c;" horiz-adv-x="283" 
d="M100.5 1q-13.5 1 -17 3.5t-3.5 8.5v694q0 6 3.5 8.5t17 3.5t34.5 1h11q38 0 47.5 -2t9.5 -11v-694q0 -9 -9.5 -11t-47.5 -2h-11q-21 0 -34.5 1zM34.5 831q-40.5 35 -42.5 97q0 7 7 9.5t29 2.5h14q19 0 24.5 -2.5t6.5 -9.5q11 -59 68 -59q59 0 68 59q1 7 7 9.5t25 2.5h14
q22 0 28.5 -2.5t6.5 -9.5q-2 -62 -42.5 -97t-106.5 -35t-106.5 35z" />
    <glyph glyph-name="Icircumflex" unicode="&#xce;" horiz-adv-x="283" 
d="M100.5 1q-13.5 1 -17 3.5t-3.5 8.5v694q0 6 3.5 8.5t17 3.5t34.5 1h11q38 0 47.5 -2t9.5 -11v-694q0 -9 -9.5 -11t-47.5 -2h-11q-21 0 -34.5 1zM28 787q-4 0 -10 5t-13 12l-8 8q-14 16 -14 21t4 9l92 97q9 9 20 12t34 3h17q23 0 34 -3t20 -12l92 -97q4 -4 4 -9t-14 -21
l-8 -8q-7 -7 -13 -12t-10 -5q-2 0 -8 4l-106 91l-105 -91q-6 -4 -8 -4z" />
    <glyph glyph-name="Idieresis" unicode="&#xcf;" horiz-adv-x="283" 
d="M100.5 1q-13.5 1 -17 3.5t-3.5 8.5v694q0 6 3.5 8.5t17 3.5t34.5 1h11q38 0 47.5 -2t9.5 -11v-694q0 -9 -9.5 -11t-47.5 -2h-11q-21 0 -34.5 1zM-11.5 819q-18.5 18 -18.5 44q0 27 18.5 45.5t46.5 18.5t46.5 -18.5t18.5 -45.5q0 -26 -18.5 -44t-46.5 -18t-46.5 18z
M201.5 819q-18.5 18 -18.5 44q0 27 18.5 45.5t45.5 18.5q28 0 47 -18.5t19 -45.5q0 -26 -19 -44t-47 -18q-27 0 -45.5 18z" />
    <glyph glyph-name="Idotaccent" unicode="&#x130;" horiz-adv-x="283" 
d="M100.5 1q-13.5 1 -17 3.5t-3.5 8.5v694q0 6 3.5 8.5t17 3.5t34.5 1h11q38 0 47.5 -2t9.5 -11v-694q0 -9 -9.5 -11t-47.5 -2h-11q-21 0 -34.5 1zM96.5 822q-19.5 19 -19.5 46t19 45.5t46 18.5t46 -18.5t19 -45.5t-19 -46t-46 -19q-26 0 -45.5 19z" />
    <glyph glyph-name="Igrave" unicode="&#xcc;" horiz-adv-x="283" 
d="M100.5 1q-13.5 1 -17 3.5t-3.5 8.5v694q0 6 3.5 8.5t17 3.5t34.5 1h11q38 0 47.5 -2t9.5 -11v-694q0 -9 -9.5 -11t-47.5 -2h-11q-21 0 -34.5 1zM131.5 787q-7.5 2 -12.5 7l-117 150q-6 8 0 11t27 3h38q24 0 33 -2.5t12 -8.5l94 -149q2 -4 2 -6q0 -7 -24 -7h-28
q-17 0 -24.5 2z" />
    <glyph glyph-name="Imacron" unicode="&#x12a;" horiz-adv-x="283" 
d="M100.5 1q-13.5 1 -17 3.5t-3.5 8.5v694q0 6 3.5 8.5t17 3.5t34.5 1h11q38 0 47.5 -2t9.5 -11v-694q0 -9 -9.5 -11t-47.5 -2h-11q-21 0 -34.5 1zM-2 834q-2 8 -2 29v10q0 21 2 28.5t9 7.5h268q7 0 9.5 -7.5t2.5 -28.5v-10q0 -21 -2.5 -29t-9.5 -8h-268q-7 0 -9 8z" />
    <glyph glyph-name="Iogonek" unicode="&#x12e;" horiz-adv-x="283" 
d="M53.5 -203.5q-33.5 28.5 -33.5 78.5q0 35 16 67t44 55v710q0 6 3.5 8.5t17 3.5t34.5 1h11q38 0 47.5 -2t9.5 -11v-689q0 -9 -11 -14q-37 -17 -55 -37q-12 -13 -20.5 -32t-8.5 -41q0 -25 12 -38t34 -13q18 0 46 10q1 1 4 1q6 0 14 -24l3 -9q5 -17 5 -22q0 -7 -7 -11
q-16 -10 -38 -15t-44 -5q-50 0 -83.5 28.5z" />
    <glyph glyph-name="Itilde" unicode="&#x128;" horiz-adv-x="283" 
d="M100.5 1q-13.5 1 -17 3.5t-3.5 8.5v694q0 6 3.5 8.5t17 3.5t34.5 1h11q38 0 47.5 -2t9.5 -11v-694q0 -9 -9.5 -11t-47.5 -2h-11q-21 0 -34.5 1zM130 834q-16 8 -26.5 12t-21.5 4q-14 0 -28 -8t-30 -24q-5 -5 -10 -2.5t-20 17.5l-6 6q-15 15 -15 21q0 5 4 10q20 26 48 43
t59 17t71 -22q16 -8 26.5 -12t21.5 -4q14 0 28 8t30 24q4 4 10 1.5t20 -16.5l6 -6q15 -15 15 -22q0 -3 -4 -9q-21 -26 -49 -43t-58 -17q-31 0 -71 22z" />
    <glyph glyph-name="J" unicode="J" horiz-adv-x="462" 
d="M101.5 -1q-39.5 9 -66.5 22q-6 3 -8.5 6t-2.5 8q0 6 8 30l6 17q7 19 11.5 25.5t10.5 6.5q3 0 9 -2q57 -20 99 -20q47 0 72 28q16 18 21.5 44t5.5 69v474q0 8 10.5 10.5t44.5 2.5h11q33 0 45 -2.5t12 -10.5v-480q0 -121 -53 -179q-54 -58 -158 -58q-38 0 -77.5 9z" />
    <glyph glyph-name="Jcircumflex" unicode="&#x134;" horiz-adv-x="462" 
d="M101.5 -1q-39.5 9 -66.5 22q-6 3 -8.5 6t-2.5 8q0 6 8 30l6 17q7 19 11.5 25.5t10.5 6.5q3 0 9 -2q57 -20 99 -20q47 0 72 28q16 18 21.5 44t5.5 69v474q0 8 10.5 10.5t44.5 2.5h11q33 0 45 -2.5t12 -10.5v-480q0 -121 -53 -179q-54 -58 -158 -58q-38 0 -77.5 9zM215 787
q-4 0 -10 5t-13 12l-8 8q-14 16 -14 21t4 9l92 97q9 9 20 12t34 3h17q23 0 34 -3t20 -12l92 -97q4 -4 4 -9t-14 -21l-8 -8q-7 -7 -13 -12t-10 -5q-2 0 -8 4l-106 91l-105 -91q-6 -4 -8 -4z" />
    <glyph glyph-name="K" unicode="K" horiz-adv-x="651" 
d="M96.5 1q-13.5 1 -17 3.5t-3.5 8.5v694q0 8 9.5 10.5t45.5 2.5h11q36 0 46.5 -2.5t10.5 -10.5v-317l65 62q143 140 219 256q5 8 14.5 10t41.5 2h15q34 0 42 -3t4 -11q-59 -121 -239 -290l260 -400q6 -9 -2 -12.5t-41 -3.5h-28q-39 0 -49.5 2t-15.5 11l-206 324l-80 -75
v-249q0 -8 -11 -10.5t-46 -2.5h-11q-21 0 -34.5 1z" />
    <glyph glyph-name="Kcommaaccent" unicode="&#x136;" horiz-adv-x="651" 
d="M96.5 1q-13.5 1 -17 3.5t-3.5 8.5v694q0 8 9.5 10.5t45.5 2.5h11q36 0 46.5 -2.5t10.5 -10.5v-317l65 62q143 140 219 256q5 8 14.5 10t41.5 2h15q34 0 42 -3t4 -11q-59 -121 -239 -290l260 -400q6 -9 -2 -12.5t-41 -3.5h-28q-39 0 -49.5 2t-15.5 11l-206 324l-80 -75
v-249q0 -8 -11 -10.5t-46 -2.5h-11q-21 0 -34.5 1zM307 -305q-5 0 -10 5l-13 11q-6 6 -6 9q0 5 4 9q23 27 33.5 50.5t10.5 39.5q0 11 -4 17.5t-12 17.5q-1 2 -6.5 9t-8 14.5t-2.5 16.5q0 20 15.5 34.5t38.5 14.5q27 0 44 -19.5t17 -49.5q0 -46 -24 -91.5t-68 -83.5
q-4 -4 -9 -4z" />
    <glyph glyph-name="L" unicode="L" horiz-adv-x="544" 
d="M82 2.5q-6 2.5 -6 11.5v693q0 8 9.5 10.5t45.5 2.5h11q36 0 46.5 -2.5t10.5 -10.5v-609h297q9 0 11.5 -7.5t2.5 -37.5v-7q0 -29 -2.5 -37.5t-11.5 -8.5h-382q-26 0 -32 2.5z" />
    <glyph glyph-name="Lacute" unicode="&#x139;" horiz-adv-x="544" 
d="M82 2.5q-6 2.5 -6 11.5v693q0 8 9.5 10.5t45.5 2.5h11q36 0 46.5 -2.5t10.5 -10.5v-609h297q9 0 11.5 -7.5t2.5 -37.5v-7q0 -29 -2.5 -37.5t-11.5 -8.5h-382q-26 0 -32 2.5zM89.5 788q-5.5 3 -1.5 10l94 149q4 6 13 8.5t33 2.5h38q21 0 26.5 -3t-0.5 -11l-117 -150
q-5 -5 -12.5 -7t-24.5 -2h-27q-16 0 -21.5 3z" />
    <glyph glyph-name="Lcaron" unicode="&#x13d;" horiz-adv-x="544" 
d="M82 2.5q-6 2.5 -6 11.5v693q0 8 9.5 10.5t45.5 2.5h11q36 0 46.5 -2.5t10.5 -10.5v-609h297q9 0 11.5 -7.5t2.5 -37.5v-7q0 -29 -2.5 -37.5t-11.5 -8.5h-382q-26 0 -32 2.5zM300 485q-5 0 -10 5l-13 11q-6 6 -6 9q0 5 4 9q23 27 33.5 50.5t10.5 39.5q0 11 -4 17.5
t-12 17.5q-1 2 -6.5 9t-8 14.5t-2.5 16.5q0 20 15.5 34.5t38.5 14.5q27 0 44 -19.5t17 -49.5q0 -46 -24 -91.5t-68 -83.5q-4 -4 -9 -4z" />
    <glyph glyph-name="Lcommaaccent" unicode="&#x13b;" horiz-adv-x="544" 
d="M82 2.5q-6 2.5 -6 11.5v693q0 8 9.5 10.5t45.5 2.5h11q36 0 46.5 -2.5t10.5 -10.5v-609h297q9 0 11.5 -7.5t2.5 -37.5v-7q0 -29 -2.5 -37.5t-11.5 -8.5h-382q-26 0 -32 2.5zM263 -305q-5 0 -10 5l-13 11q-6 6 -6 9q0 5 4 9q23 27 33.5 50.5t10.5 39.5q0 11 -4 17.5
t-12 17.5q-1 2 -6.5 9t-8 14.5t-2.5 16.5q0 20 15.5 34.5t38.5 14.5q27 0 44 -19.5t17 -49.5q0 -46 -24 -91.5t-68 -83.5q-4 -4 -9 -4z" />
    <glyph glyph-name="Ldot" unicode="&#x13f;" horiz-adv-x="544" 
d="M82 2.5q-6 2.5 -6 11.5v693q0 8 9.5 10.5t45.5 2.5h11q36 0 46.5 -2.5t10.5 -10.5v-609h297q9 0 11.5 -7.5t2.5 -37.5v-7q0 -29 -2.5 -37.5t-11.5 -8.5h-382q-26 0 -32 2.5zM357.5 346q-19.5 19 -19.5 46t19.5 46t45.5 19q27 0 46 -19t19 -46t-19 -46t-46 -19
q-26 0 -45.5 19z" />
    <glyph glyph-name="Lslash" unicode="&#x141;" horiz-adv-x="557" 
d="M520.5 90.5q2.5 -7.5 2.5 -37.5v-7q0 -29 -2.5 -37.5t-11.5 -8.5h-382q-26 0 -32 2.5t-6 11.5v261l-63 -38q-9 -5 -12.5 1.5t-3.5 28.5v22q0 26 2.5 34.5t9.5 13.5l67 41v329q0 8 9.5 10.5t45.5 2.5h11q36 0 46.5 -2.5t10.5 -10.5v-255l123 75q9 5 12.5 -1t3.5 -29v-22
q0 -26 -2.5 -34.5t-9.5 -13.5l-127 -77v-252h297q9 0 11.5 -7.5z" />
    <glyph glyph-name="M" unicode="M" horiz-adv-x="857" 
d="M96.5 1q-13.5 1 -17 3.5t-3.5 8.5v693q0 9 10 11.5t46 2.5h32q35 0 46 -3t16 -12l115 -235q53 -106 92 -213q32 86 92 213l113 235q5 9 16 12t46 3h26q34 0 44.5 -3t10.5 -11v-693q0 -9 -9 -11t-46 -2h-8q-22 0 -35.5 1t-16.5 3.5t-3 8.5v302q0 153 4 214
q-34 -91 -92 -211l-87 -181q-4 -8 -12 -10t-41 -2h-10q-33 0 -42 2t-13 10l-89 181q-53 107 -92 210q5 -59 5 -214v-301q0 -6 -3.5 -8.5t-17 -3.5t-35.5 -1h-6q-22 0 -35.5 1z" />
    <glyph glyph-name="N" unicode="N" horiz-adv-x="742" 
d="M95.5 1q-13.5 1 -16.5 3.5t-3 8.5v694q0 6 2.5 8.5t14.5 3.5t31 1h6q38 0 47.5 -2t16.5 -12l221 -315q94 -134 142 -216q-4 130 -4 237v295q0 6 3.5 8.5t16 3.5t32.5 1h8q35 0 44 -2t9 -11v-694q0 -6 -2.5 -8.5t-14 -3.5t-31.5 -1h-7q-35 0 -45 2.5t-17 11.5l-221 315
q-83 116 -142 211q3 -72 3 -240v-287q0 -6 -3.5 -8.5t-16 -3.5t-32.5 -1h-7q-21 0 -34.5 1z" />
    <glyph glyph-name="Nacute" unicode="&#x143;" horiz-adv-x="742" 
d="M95.5 1q-13.5 1 -16.5 3.5t-3 8.5v694q0 6 2.5 8.5t14.5 3.5t31 1h6q38 0 47.5 -2t16.5 -12l221 -315q94 -134 142 -216q-4 130 -4 237v295q0 6 3.5 8.5t16 3.5t32.5 1h8q35 0 44 -2t9 -11v-694q0 -6 -2.5 -8.5t-14 -3.5t-31.5 -1h-7q-35 0 -45 2.5t-17 11.5l-221 315
q-83 116 -142 211q3 -72 3 -240v-287q0 -6 -3.5 -8.5t-16 -3.5t-32.5 -1h-7q-21 0 -34.5 1zM298.5 788q-5.5 3 -1.5 10l94 149q4 6 13 8.5t33 2.5h38q21 0 26.5 -3t-0.5 -11l-117 -150q-5 -5 -12.5 -7t-24.5 -2h-27q-16 0 -21.5 3z" />
    <glyph glyph-name="Nacute.loclPLK" horiz-adv-x="742" 
d="M95.5 1q-13.5 1 -16.5 3.5t-3 8.5v694q0 6 2.5 8.5t14.5 3.5t31 1h6q38 0 47.5 -2t16.5 -12l221 -315q94 -134 142 -216q-4 130 -4 237v295q0 6 3.5 8.5t16 3.5t32.5 1h8q35 0 44 -2t9 -11v-694q0 -6 -2.5 -8.5t-14 -3.5t-31.5 -1h-7q-35 0 -45 2.5t-17 11.5l-221 315
q-83 116 -142 211q3 -72 3 -240v-287q0 -6 -3.5 -8.5t-16 -3.5t-32.5 -1h-7q-21 0 -34.5 1zM322 788q-6 3 -4 10l42 148q2 7 9.5 9.5t31.5 2.5h31q23 0 30 -3t3 -11l-65 -149q-3 -7 -8.5 -8.5t-24.5 -1.5h-22q-17 0 -23 3z" />
    <glyph glyph-name="Ncaron" unicode="&#x147;" horiz-adv-x="742" 
d="M95.5 1q-13.5 1 -16.5 3.5t-3 8.5v694q0 6 2.5 8.5t14.5 3.5t31 1h6q38 0 47.5 -2t16.5 -12l221 -315q94 -134 142 -216q-4 130 -4 237v295q0 6 3.5 8.5t16 3.5t32.5 1h8q35 0 44 -2t9 -11v-694q0 -6 -2.5 -8.5t-14 -3.5t-31.5 -1h-7q-35 0 -45 2.5t-17 11.5l-221 315
q-83 116 -142 211q3 -72 3 -240v-287q0 -6 -3.5 -8.5t-16 -3.5t-32.5 -1h-7q-21 0 -34.5 1zM331 792q-11 3 -19 12l-92 97q-5 5 -5 9t4.5 9.5t10.5 11.5l8 8q17 17 23 17q2 0 8 -4l105 -91l106 91q6 4 8 4q4 0 10 -5t13 -12l8 -8q1 -2 8 -9.5t7 -11.5t-5 -9l-92 -97
q-8 -9 -19 -12t-35 -3h-17q-24 0 -35 3z" />
    <glyph glyph-name="Ncommaaccent" unicode="&#x145;" horiz-adv-x="742" 
d="M95.5 1q-13.5 1 -16.5 3.5t-3 8.5v694q0 6 2.5 8.5t14.5 3.5t31 1h6q38 0 47.5 -2t16.5 -12l221 -315q94 -134 142 -216q-4 130 -4 237v295q0 6 3.5 8.5t16 3.5t32.5 1h8q35 0 44 -2t9 -11v-694q0 -6 -2.5 -8.5t-14 -3.5t-31.5 -1h-7q-35 0 -45 2.5t-17 11.5l-221 315
q-83 116 -142 211q3 -72 3 -240v-287q0 -6 -3.5 -8.5t-16 -3.5t-32.5 -1h-7q-21 0 -34.5 1zM334 -305q-5 0 -10 5l-13 11q-6 6 -6 9q0 5 4 9q23 27 33.5 50.5t10.5 39.5q0 11 -4 17.5t-12 17.5q-1 2 -6.5 9t-8 14.5t-2.5 16.5q0 20 15.5 34.5t38.5 14.5q27 0 44 -19.5
t17 -49.5q0 -46 -24 -91.5t-68 -83.5q-4 -4 -9 -4z" />
    <glyph glyph-name="Eng" unicode="&#x14a;" horiz-adv-x="742" 
d="M427.5 -182q-25.5 5 -38.5 12q-4 3 -6 5.5t-2 7.5q0 6 5 29l3 14q6 22 9 27t13 3q30 -7 53 -7q44 0 64 24t23 78l-223 318q-94 133 -142 211q3 -72 3 -240v-287q0 -6 -3.5 -8.5t-16 -3.5t-32.5 -1h-7q-21 0 -34.5 1t-16.5 3.5t-3 8.5v694q0 6 2.5 8.5t14.5 3.5t31 1h6
q38 0 47.5 -2t16.5 -12l221 -315q94 -134 142 -216q-4 130 -4 237v295q0 6 3.5 8.5t16 3.5t32.5 1h8q35 0 44 -2t9 -11v-656q0 -125 -48.5 -181.5t-139.5 -56.5q-25 0 -50.5 5z" />
    <glyph glyph-name="Ntilde" unicode="&#xd1;" horiz-adv-x="742" 
d="M95.5 1q-13.5 1 -16.5 3.5t-3 8.5v694q0 6 2.5 8.5t14.5 3.5t31 1h6q38 0 47.5 -2t16.5 -12l221 -315q94 -134 142 -216q-4 130 -4 237v295q0 6 3.5 8.5t16 3.5t32.5 1h8q35 0 44 -2t9 -11v-694q0 -6 -2.5 -8.5t-14 -3.5t-31.5 -1h-7q-35 0 -45 2.5t-17 11.5l-221 315
q-83 116 -142 211q3 -72 3 -240v-287q0 -6 -3.5 -8.5t-16 -3.5t-32.5 -1h-7q-21 0 -34.5 1zM363 834q-16 8 -26.5 12t-21.5 4q-14 0 -28 -8t-30 -24q-5 -5 -10 -2.5t-20 17.5l-6 6q-15 15 -15 21q0 5 4 10q20 26 48 43t59 17t71 -22q16 -8 26.5 -12t21.5 -4q14 0 28 8t30 24
q4 4 10 1.5t20 -16.5l6 -6q15 -15 15 -22q0 -3 -4 -9q-21 -26 -49 -43t-58 -17q-31 0 -71 22z" />
    <glyph glyph-name="O" unicode="O" horiz-adv-x="749" 
d="M124.5 83q-83.5 93 -83.5 267q0 116 40 201.5t117.5 132t187.5 46.5q155 0 238.5 -93t83.5 -267q0 -116 -40 -201.5t-117.5 -132t-187.5 -46.5q-155 0 -238.5 93zM525.5 163.5q55.5 71.5 55.5 202.5q0 130 -50 196t-148 66q-104 0 -159.5 -70.5t-55.5 -203.5
q0 -130 50 -196t149 -66q103 0 158.5 71.5z" />
    <glyph glyph-name="Oacute" unicode="&#xd3;" horiz-adv-x="749" 
d="M124.5 83q-83.5 93 -83.5 267q0 116 40 201.5t117.5 132t187.5 46.5q155 0 238.5 -93t83.5 -267q0 -116 -40 -201.5t-117.5 -132t-187.5 -46.5q-155 0 -238.5 93zM525.5 163.5q55.5 71.5 55.5 202.5q0 130 -50 196t-148 66q-104 0 -159.5 -70.5t-55.5 -203.5
q0 -130 50 -196t149 -66q103 0 158.5 71.5zM309.5 788q-5.5 3 -1.5 10l94 149q4 6 13 8.5t33 2.5h38q21 0 26.5 -3t-0.5 -11l-117 -150q-5 -5 -12.5 -7t-24.5 -2h-27q-16 0 -21.5 3z" />
    <glyph glyph-name="Oacute.loclPLK" horiz-adv-x="749" 
d="M124.5 83q-83.5 93 -83.5 267q0 116 40 201.5t117.5 132t187.5 46.5q155 0 238.5 -93t83.5 -267q0 -116 -40 -201.5t-117.5 -132t-187.5 -46.5q-155 0 -238.5 93zM525.5 163.5q55.5 71.5 55.5 202.5q0 130 -50 196t-148 66q-104 0 -159.5 -70.5t-55.5 -203.5
q0 -130 50 -196t149 -66q103 0 158.5 71.5zM333 788q-6 3 -4 10l42 148q2 7 9.5 9.5t31.5 2.5h31q23 0 30 -3t3 -11l-65 -149q-3 -7 -8.5 -8.5t-24.5 -1.5h-22q-17 0 -23 3z" />
    <glyph glyph-name="Obreve" unicode="&#x14e;" horiz-adv-x="749" 
d="M124.5 83q-83.5 93 -83.5 267q0 116 40 201.5t117.5 132t187.5 46.5q155 0 238.5 -93t83.5 -267q0 -116 -40 -201.5t-117.5 -132t-187.5 -46.5q-155 0 -238.5 93zM525.5 163.5q55.5 71.5 55.5 202.5q0 130 -50 196t-148 66q-104 0 -159.5 -70.5t-55.5 -203.5
q0 -130 50 -196t149 -66q103 0 158.5 71.5zM278.5 831q-40.5 35 -42.5 97q0 7 7 9.5t29 2.5h14q19 0 24.5 -2.5t6.5 -9.5q11 -59 68 -59q59 0 68 59q1 7 7 9.5t25 2.5h14q22 0 28.5 -2.5t6.5 -9.5q-2 -62 -42.5 -97t-106.5 -35t-106.5 35z" />
    <glyph glyph-name="Ocircumflex" unicode="&#xd4;" horiz-adv-x="749" 
d="M124.5 83q-83.5 93 -83.5 267q0 116 40 201.5t117.5 132t187.5 46.5q155 0 238.5 -93t83.5 -267q0 -116 -40 -201.5t-117.5 -132t-187.5 -46.5q-155 0 -238.5 93zM525.5 163.5q55.5 71.5 55.5 202.5q0 130 -50 196t-148 66q-104 0 -159.5 -70.5t-55.5 -203.5
q0 -130 50 -196t149 -66q103 0 158.5 71.5zM272 787q-4 0 -10 5t-13 12l-8 8q-14 16 -14 21t4 9l92 97q9 9 20 12t34 3h17q23 0 34 -3t20 -12l92 -97q4 -4 4 -9t-14 -21l-8 -8q-7 -7 -13 -12t-10 -5q-2 0 -8 4l-106 91l-105 -91q-6 -4 -8 -4z" />
    <glyph glyph-name="Odieresis" unicode="&#xd6;" horiz-adv-x="749" 
d="M124.5 83q-83.5 93 -83.5 267q0 116 40 201.5t117.5 132t187.5 46.5q155 0 238.5 -93t83.5 -267q0 -116 -40 -201.5t-117.5 -132t-187.5 -46.5q-155 0 -238.5 93zM525.5 163.5q55.5 71.5 55.5 202.5q0 130 -50 196t-148 66q-104 0 -159.5 -70.5t-55.5 -203.5
q0 -130 50 -196t149 -66q103 0 158.5 71.5zM232.5 819q-18.5 18 -18.5 44q0 27 18.5 45.5t46.5 18.5t46.5 -18.5t18.5 -45.5q0 -26 -18.5 -44t-46.5 -18t-46.5 18zM445.5 819q-18.5 18 -18.5 44q0 27 18.5 45.5t45.5 18.5q28 0 47 -18.5t19 -45.5q0 -26 -19 -44t-47 -18
q-27 0 -45.5 18z" />
    <glyph glyph-name="Ograve" unicode="&#xd2;" horiz-adv-x="749" 
d="M124.5 83q-83.5 93 -83.5 267q0 116 40 201.5t117.5 132t187.5 46.5q155 0 238.5 -93t83.5 -267q0 -116 -40 -201.5t-117.5 -132t-187.5 -46.5q-155 0 -238.5 93zM525.5 163.5q55.5 71.5 55.5 202.5q0 130 -50 196t-148 66q-104 0 -159.5 -70.5t-55.5 -203.5
q0 -130 50 -196t149 -66q103 0 158.5 71.5zM375.5 787q-7.5 2 -12.5 7l-117 150q-6 8 0 11t27 3h38q24 0 33 -2.5t12 -8.5l94 -149q2 -4 2 -6q0 -7 -24 -7h-28q-17 0 -24.5 2z" />
    <glyph glyph-name="Ohungarumlaut" unicode="&#x150;" horiz-adv-x="749" 
d="M124.5 83q-83.5 93 -83.5 267q0 116 40 201.5t117.5 132t187.5 46.5q155 0 238.5 -93t83.5 -267q0 -116 -40 -201.5t-117.5 -132t-187.5 -46.5q-155 0 -238.5 93zM525.5 163.5q55.5 71.5 55.5 202.5q0 130 -50 196t-148 66q-104 0 -159.5 -70.5t-55.5 -203.5
q0 -130 50 -196t149 -66q103 0 158.5 71.5zM219 792.5q-5 2.5 -1 9.5l84 145q4 6 12.5 8.5t31.5 2.5h35q20 0 25.5 -3t0.5 -10l-108 -146q-5 -5 -12 -7t-23 -2h-24q-16 0 -21 2.5zM406 792.5q-5 2.5 -1 9.5l84 145q4 6 12.5 8.5t31.5 2.5h35q20 0 25.5 -3t0.5 -10l-108 -146
q-5 -5 -12 -7t-23 -2h-24q-16 0 -21 2.5z" />
    <glyph glyph-name="Omacron" unicode="&#x14c;" horiz-adv-x="749" 
d="M124.5 83q-83.5 93 -83.5 267q0 116 40 201.5t117.5 132t187.5 46.5q155 0 238.5 -93t83.5 -267q0 -116 -40 -201.5t-117.5 -132t-187.5 -46.5q-155 0 -238.5 93zM525.5 163.5q55.5 71.5 55.5 202.5q0 130 -50 196t-148 66q-104 0 -159.5 -70.5t-55.5 -203.5
q0 -130 50 -196t149 -66q103 0 158.5 71.5zM242 834q-2 8 -2 29v10q0 21 2 28.5t9 7.5h268q7 0 9.5 -7.5t2.5 -28.5v-10q0 -21 -2.5 -29t-9.5 -8h-268q-7 0 -9 8z" />
    <glyph glyph-name="Oslash" unicode="&#xd8;" horiz-adv-x="749" 
d="M681 541q27 -73 27 -171q0 -116 -40 -201.5t-117.5 -132t-187.5 -46.5q-81 0 -144 26l-37 -62q-4 -9 -13 -9q-8 0 -29 12l-12 7q-23 14 -27 19t0 12l42 70q-102 93 -102 285q0 116 40 201.5t117.5 132t187.5 46.5q78 0 138 -24l36 61q6 10 13 10q6 0 29 -12l13 -7
q22 -12 27 -18t0 -14l-40 -67q52 -45 79 -118zM207 174l261 438q-36 16 -85 16q-104 0 -159.5 -70.5t-55.5 -203.5q0 -115 39 -180zM525.5 163.5q55.5 71.5 55.5 202.5q0 121 -43 186l-263 -441q38 -19 92 -19q103 0 158.5 71.5z" />
    <glyph glyph-name="Oslashacute" unicode="&#x1fe;" horiz-adv-x="749" 
d="M681 541q27 -73 27 -171q0 -116 -40 -201.5t-117.5 -132t-187.5 -46.5q-81 0 -144 26l-37 -62q-4 -9 -13 -9q-8 0 -29 12l-12 7q-23 14 -27 19t0 12l42 70q-102 93 -102 285q0 116 40 201.5t117.5 132t187.5 46.5q78 0 138 -24l36 61q6 10 13 10q6 0 29 -12l13 -7
q22 -12 27 -18t0 -14l-40 -67q52 -45 79 -118zM207 174l261 438q-36 16 -85 16q-104 0 -159.5 -70.5t-55.5 -203.5q0 -115 39 -180zM525.5 163.5q55.5 71.5 55.5 202.5q0 121 -43 186l-263 -441q38 -19 92 -19q103 0 158.5 71.5zM298.5 788q-5.5 3 -1.5 10l94 149
q4 6 13 8.5t33 2.5h38q21 0 26.5 -3t-0.5 -11l-117 -150q-5 -5 -12.5 -7t-24.5 -2h-27q-16 0 -21.5 3z" />
    <glyph glyph-name="Otilde" unicode="&#xd5;" horiz-adv-x="749" 
d="M124.5 83q-83.5 93 -83.5 267q0 116 40 201.5t117.5 132t187.5 46.5q155 0 238.5 -93t83.5 -267q0 -116 -40 -201.5t-117.5 -132t-187.5 -46.5q-155 0 -238.5 93zM525.5 163.5q55.5 71.5 55.5 202.5q0 130 -50 196t-148 66q-104 0 -159.5 -70.5t-55.5 -203.5
q0 -130 50 -196t149 -66q103 0 158.5 71.5zM374 834q-16 8 -26.5 12t-21.5 4q-14 0 -28 -8t-30 -24q-5 -5 -10 -2.5t-20 17.5l-6 6q-15 15 -15 21q0 5 4 10q20 26 48 43t59 17t71 -22q16 -8 26.5 -12t21.5 -4q14 0 28 8t30 24q4 4 10 1.5t20 -16.5l6 -6q15 -15 15 -22
q0 -3 -4 -9q-21 -26 -49 -43t-58 -17q-31 0 -71 22z" />
    <glyph glyph-name="OE" unicode="&#x152;" horiz-adv-x="1026" 
d="M123 84.5q-82 94.5 -82 263.5q0 115 39.5 201t116 133.5t185.5 47.5q42 0 90 -5q83 -5 114 -5h367q9 0 11.5 -7t2.5 -38v-7q0 -29 -2.5 -37.5t-11.5 -8.5h-318v-209h270q9 0 11.5 -7t2.5 -38v-6q0 -30 -2.5 -38.5t-11.5 -8.5h-270v-217h322q9 0 11.5 -7t2.5 -38v-7
q0 -29 -2.5 -37.5t-11.5 -8.5h-359q-41 0 -108 -5q-18 -1 -59 -3t-67 -2q-159 0 -241 94.5zM512 97v524l-36 3q-65 5 -87 5q-112 0 -167.5 -74.5t-55.5 -201.5t51 -194.5t156 -67.5q46 0 139 6z" />
    <glyph glyph-name="P" unicode="P" horiz-adv-x="597" 
d="M96.5 1q-13.5 1 -17 3.5t-3.5 8.5v697q0 7 8 8.5t33 1.5h131q155 0 235 -49.5t80 -173.5q0 -115 -74.5 -175t-204.5 -60q-17 0 -85 4v-253q0 -9 -9.5 -11t-47.5 -2h-11q-21 0 -34.5 1zM397 393q42 34 42 101q0 71 -46 99.5t-132 28.5h-62v-259q33 -4 76 -4q80 0 122 34z
" />
    <glyph glyph-name="Thorn" unicode="&#xde;" horiz-adv-x="607" 
d="M96.5 1q-13.5 1 -17 3.5t-3.5 8.5v694q0 6 3.5 8.5t17 3.5t34.5 1h11q38 0 47.5 -2t9.5 -11v-129q32 4 72 4q294 0 294 -217q0 -110 -71.5 -168.5t-205.5 -58.5q-50 0 -89 5v-130q0 -9 -9.5 -11t-47.5 -2h-11q-21 0 -34.5 1zM401.5 267.5q40.5 32.5 40.5 96.5
q0 62 -41.5 91.5t-126.5 29.5q-39 0 -75 -3v-242q42 -5 82 -5q80 0 120.5 32.5z" />
    <glyph glyph-name="Q" unicode="Q" horiz-adv-x="749" 
d="M391 -45q-23 22 -36.5 28.5t-38.5 9.5q-132 13 -203.5 105t-71.5 252q0 116 40 201.5t117.5 132t187.5 46.5q155 0 238.5 -93t83.5 -267q0 -141 -57.5 -235t-166.5 -128q24 -15 53 -41l79 -73q5 -5 5 -10q0 -10 -22 -32l-15 -15q-24 -25 -36 -25q-7 0 -14 7zM525.5 163.5
q55.5 71.5 55.5 202.5q0 130 -50 196t-148 66q-104 0 -159.5 -70.5t-55.5 -203.5q0 -130 50 -196t149 -66q103 0 158.5 71.5z" />
    <glyph glyph-name="R" unicode="R" horiz-adv-x="640" 
d="M614 10q0 -6 -9 -8t-29 -2h-46q-30 0 -40.5 2.5t-16.5 11.5l-130 204q-19 30 -32 43.5t-30 18.5t-49 5h-33v-272q0 -9 -9.5 -11t-47.5 -2h-11q-21 0 -34.5 1t-17 3.5t-3.5 8.5v697q0 7 8 8.5t35 1.5h148q151 0 225 -48.5t74 -156.5q0 -156 -155 -212q23 -19 53 -64
l147 -221q3 -4 3 -8zM442 508q0 64 -40.5 89.5t-121.5 25.5h-81v-242h83q160 0 160 127z" />
    <glyph glyph-name="Racute" unicode="&#x154;" horiz-adv-x="640" 
d="M614 10q0 -6 -9 -8t-29 -2h-46q-30 0 -40.5 2.5t-16.5 11.5l-130 204q-19 30 -32 43.5t-30 18.5t-49 5h-33v-272q0 -9 -9.5 -11t-47.5 -2h-11q-21 0 -34.5 1t-17 3.5t-3.5 8.5v697q0 7 8 8.5t35 1.5h148q151 0 225 -48.5t74 -156.5q0 -156 -155 -212q23 -19 53 -64
l147 -221q3 -4 3 -8zM442 508q0 64 -40.5 89.5t-121.5 25.5h-81v-242h83q160 0 160 127zM245.5 788q-5.5 3 -1.5 10l94 149q4 6 13 8.5t33 2.5h38q21 0 26.5 -3t-0.5 -11l-117 -150q-5 -5 -12.5 -7t-24.5 -2h-27q-16 0 -21.5 3z" />
    <glyph glyph-name="Rcaron" unicode="&#x158;" horiz-adv-x="640" 
d="M614 10q0 -6 -9 -8t-29 -2h-46q-30 0 -40.5 2.5t-16.5 11.5l-130 204q-19 30 -32 43.5t-30 18.5t-49 5h-33v-272q0 -9 -9.5 -11t-47.5 -2h-11q-21 0 -34.5 1t-17 3.5t-3.5 8.5v697q0 7 8 8.5t35 1.5h148q151 0 225 -48.5t74 -156.5q0 -156 -155 -212q23 -19 53 -64
l147 -221q3 -4 3 -8zM442 508q0 64 -40.5 89.5t-121.5 25.5h-81v-242h83q160 0 160 127zM278 792q-11 3 -19 12l-92 97q-5 5 -5 9t4.5 9.5t10.5 11.5l8 8q17 17 23 17q2 0 8 -4l105 -91l106 91q6 4 8 4q4 0 10 -5t13 -12l8 -8q1 -2 8 -9.5t7 -11.5t-5 -9l-92 -97
q-8 -9 -19 -12t-35 -3h-17q-24 0 -35 3z" />
    <glyph glyph-name="Rcommaaccent" unicode="&#x156;" horiz-adv-x="640" 
d="M614 10q0 -6 -9 -8t-29 -2h-46q-30 0 -40.5 2.5t-16.5 11.5l-130 204q-19 30 -32 43.5t-30 18.5t-49 5h-33v-272q0 -9 -9.5 -11t-47.5 -2h-11q-21 0 -34.5 1t-17 3.5t-3.5 8.5v697q0 7 8 8.5t35 1.5h148q151 0 225 -48.5t74 -156.5q0 -156 -155 -212q23 -19 53 -64
l147 -221q3 -4 3 -8zM442 508q0 64 -40.5 89.5t-121.5 25.5h-81v-242h83q160 0 160 127zM295 -305q-5 0 -10 5l-13 11q-6 6 -6 9q0 5 4 9q23 27 33.5 50.5t10.5 39.5q0 11 -4 17.5t-12 17.5q-1 2 -6.5 9t-8 14.5t-2.5 16.5q0 20 15.5 34.5t38.5 14.5q27 0 44 -19.5t17 -49.5
q0 -46 -24 -91.5t-68 -83.5q-4 -4 -9 -4z" />
    <glyph glyph-name="S" unicode="S" horiz-adv-x="579" 
d="M150.5 8q-61.5 18 -101.5 47q-11 8 -11 16q0 9 13 32l10 18q9 16 14 22t10 6q4 0 10 -3q49 -26 91.5 -40.5t91.5 -14.5q59 0 95.5 28t36.5 73q0 30 -18 52t-47 38.5t-83 40.5q-69 32 -109 60t-59 62.5t-19 82.5q0 60 30 105.5t84.5 71t124.5 25.5q55 0 104.5 -14
t85.5 -38q10 -7 10 -14q0 -8 -13 -33l-8 -15q-8 -16 -13.5 -22.5t-10.5 -6.5q-4 0 -8 3q-33 20 -69 30.5t-70 10.5q-61 0 -93.5 -25.5t-32.5 -67.5q0 -27 18 -47.5t44 -35.5t75 -38q70 -32 112 -61t64 -66.5t22 -90.5q0 -62 -30.5 -109t-88.5 -73.5t-137 -26.5
q-63 0 -124.5 18z" />
    <glyph glyph-name="Sacute" unicode="&#x15a;" horiz-adv-x="579" 
d="M150.5 8q-61.5 18 -101.5 47q-11 8 -11 16q0 9 13 32l10 18q9 16 14 22t10 6q4 0 10 -3q49 -26 91.5 -40.5t91.5 -14.5q59 0 95.5 28t36.5 73q0 30 -18 52t-47 38.5t-83 40.5q-69 32 -109 60t-59 62.5t-19 82.5q0 60 30 105.5t84.5 71t124.5 25.5q55 0 104.5 -14
t85.5 -38q10 -7 10 -14q0 -8 -13 -33l-8 -15q-8 -16 -13.5 -22.5t-10.5 -6.5q-4 0 -8 3q-33 20 -69 30.5t-70 10.5q-61 0 -93.5 -25.5t-32.5 -67.5q0 -27 18 -47.5t44 -35.5t75 -38q70 -32 112 -61t64 -66.5t22 -90.5q0 -62 -30.5 -109t-88.5 -73.5t-137 -26.5
q-63 0 -124.5 18zM238.5 788q-5.5 3 -1.5 10l94 149q4 6 13 8.5t33 2.5h38q21 0 26.5 -3t-0.5 -11l-117 -150q-5 -5 -12.5 -7t-24.5 -2h-27q-16 0 -21.5 3z" />
    <glyph glyph-name="Sacute.loclPLK" horiz-adv-x="579" 
d="M150.5 8q-61.5 18 -101.5 47q-11 8 -11 16q0 9 13 32l10 18q9 16 14 22t10 6q4 0 10 -3q49 -26 91.5 -40.5t91.5 -14.5q59 0 95.5 28t36.5 73q0 30 -18 52t-47 38.5t-83 40.5q-69 32 -109 60t-59 62.5t-19 82.5q0 60 30 105.5t84.5 71t124.5 25.5q55 0 104.5 -14
t85.5 -38q10 -7 10 -14q0 -8 -13 -33l-8 -15q-8 -16 -13.5 -22.5t-10.5 -6.5q-4 0 -8 3q-33 20 -69 30.5t-70 10.5q-61 0 -93.5 -25.5t-32.5 -67.5q0 -27 18 -47.5t44 -35.5t75 -38q70 -32 112 -61t64 -66.5t22 -90.5q0 -62 -30.5 -109t-88.5 -73.5t-137 -26.5
q-63 0 -124.5 18zM262 788q-6 3 -4 10l42 148q2 7 9.5 9.5t31.5 2.5h31q23 0 30 -3t3 -11l-65 -149q-3 -7 -8.5 -8.5t-24.5 -1.5h-22q-17 0 -23 3z" />
    <glyph glyph-name="Scaron" unicode="&#x160;" horiz-adv-x="579" 
d="M150.5 8q-61.5 18 -101.5 47q-11 8 -11 16q0 9 13 32l10 18q9 16 14 22t10 6q4 0 10 -3q49 -26 91.5 -40.5t91.5 -14.5q59 0 95.5 28t36.5 73q0 30 -18 52t-47 38.5t-83 40.5q-69 32 -109 60t-59 62.5t-19 82.5q0 60 30 105.5t84.5 71t124.5 25.5q55 0 104.5 -14
t85.5 -38q10 -7 10 -14q0 -8 -13 -33l-8 -15q-8 -16 -13.5 -22.5t-10.5 -6.5q-4 0 -8 3q-33 20 -69 30.5t-70 10.5q-61 0 -93.5 -25.5t-32.5 -67.5q0 -27 18 -47.5t44 -35.5t75 -38q70 -32 112 -61t64 -66.5t22 -90.5q0 -62 -30.5 -109t-88.5 -73.5t-137 -26.5
q-63 0 -124.5 18zM271 792q-11 3 -19 12l-92 97q-5 5 -5 9t4.5 9.5t10.5 11.5l8 8q17 17 23 17q2 0 8 -4l105 -91l106 91q6 4 8 4q4 0 10 -5t13 -12l8 -8q1 -2 8 -9.5t7 -11.5t-5 -9l-92 -97q-8 -9 -19 -12t-35 -3h-17q-24 0 -35 3z" />
    <glyph glyph-name="Scedilla" unicode="&#x15e;" horiz-adv-x="579" 
d="M474 58q-57 -56 -158 -66l-4 -40q7 1 17 1q39 0 65.5 -24t26.5 -64q0 -43 -31 -72.5t-91 -29.5q-44 0 -76 13q-9 3 -9 10q0 5 5 20l3 10q4 15 7.5 19t11.5 2q30 -6 49 -6q46 0 46 34q0 33 -50 33q-27 0 -58 -6l14 99q-56 4 -107.5 21.5t-85.5 42.5q-11 8 -11 16
q0 9 13 32l10 18q9 16 14 22t10 6q4 0 10 -3q49 -26 91.5 -40.5t91.5 -14.5q59 0 95.5 28t36.5 73q0 30 -18 52t-47 38.5t-83 40.5q-69 32 -109 60t-59 62.5t-19 82.5q0 60 30 105.5t84.5 71t124.5 25.5q55 0 104.5 -14t85.5 -38q10 -7 10 -14q0 -8 -13 -33l-8 -15
q-8 -16 -13.5 -22.5t-10.5 -6.5q-4 0 -8 3q-33 20 -69 30.5t-70 10.5q-61 0 -93.5 -25.5t-32.5 -67.5q0 -27 18 -47.5t44 -35.5t75 -38q70 -32 112 -61t64 -66.5t22 -90.5q0 -85 -57 -141z" />
    <glyph glyph-name="Scircumflex" unicode="&#x15c;" horiz-adv-x="579" 
d="M150.5 8q-61.5 18 -101.5 47q-11 8 -11 16q0 9 13 32l10 18q9 16 14 22t10 6q4 0 10 -3q49 -26 91.5 -40.5t91.5 -14.5q59 0 95.5 28t36.5 73q0 30 -18 52t-47 38.5t-83 40.5q-69 32 -109 60t-59 62.5t-19 82.5q0 60 30 105.5t84.5 71t124.5 25.5q55 0 104.5 -14
t85.5 -38q10 -7 10 -14q0 -8 -13 -33l-8 -15q-8 -16 -13.5 -22.5t-10.5 -6.5q-4 0 -8 3q-33 20 -69 30.5t-70 10.5q-61 0 -93.5 -25.5t-32.5 -67.5q0 -27 18 -47.5t44 -35.5t75 -38q70 -32 112 -61t64 -66.5t22 -90.5q0 -62 -30.5 -109t-88.5 -73.5t-137 -26.5
q-63 0 -124.5 18zM201 787q-4 0 -10 5t-13 12l-8 8q-14 16 -14 21t4 9l92 97q9 9 20 12t34 3h17q23 0 34 -3t20 -12l92 -97q4 -4 4 -9t-14 -21l-8 -8q-7 -7 -13 -12t-10 -5q-2 0 -8 4l-106 91l-105 -91q-6 -4 -8 -4z" />
    <glyph glyph-name="Scommaaccent" unicode="&#x218;" horiz-adv-x="579" 
d="M150.5 8q-61.5 18 -101.5 47q-11 8 -11 16q0 9 13 32l10 18q9 16 14 22t10 6q4 0 10 -3q49 -26 91.5 -40.5t91.5 -14.5q59 0 95.5 28t36.5 73q0 30 -18 52t-47 38.5t-83 40.5q-69 32 -109 60t-59 62.5t-19 82.5q0 60 30 105.5t84.5 71t124.5 25.5q55 0 104.5 -14
t85.5 -38q10 -7 10 -14q0 -8 -13 -33l-8 -15q-8 -16 -13.5 -22.5t-10.5 -6.5q-4 0 -8 3q-33 20 -69 30.5t-70 10.5q-61 0 -93.5 -25.5t-32.5 -67.5q0 -27 18 -47.5t44 -35.5t75 -38q70 -32 112 -61t64 -66.5t22 -90.5q0 -62 -30.5 -109t-88.5 -73.5t-137 -26.5
q-63 0 -124.5 18zM245 -305q-5 0 -10 5l-13 11q-6 6 -6 9q0 5 4 9q23 27 33.5 50.5t10.5 39.5q0 11 -4 17.5t-12 17.5q-1 2 -6.5 9t-8 14.5t-2.5 16.5q0 20 15.5 34.5t38.5 14.5q27 0 44 -19.5t17 -49.5q0 -46 -24 -91.5t-68 -83.5q-4 -4 -9 -4z" />
    <glyph glyph-name="T" unicode="T" horiz-adv-x="580" 
d="M237 2q-9 2 -9 11v609h-195q-9 0 -12 8t-3 38v7q0 22 1 31t4 11.5t10 2.5h514q7 0 10 -2.5t4 -11.5t1 -31v-7q0 -29 -3 -37.5t-12 -8.5h-196v-609q0 -9 -9.5 -11t-46.5 -2h-12q-37 0 -46 2z" />
    <glyph glyph-name="Tbar" unicode="&#x166;" horiz-adv-x="580" 
d="M557 717.5q3 -2.5 4 -11.5t1 -31v-7q0 -29 -3 -37.5t-12 -8.5h-196v-215h105q7 0 9.5 -7.5t2.5 -33.5v-5q0 -27 -2.5 -35t-9.5 -8h-105v-305q0 -9 -9.5 -11t-46.5 -2h-12q-37 0 -46 2t-9 11v305h-108q-7 0 -9.5 8t-2.5 35v5q0 26 2.5 33.5t9.5 7.5h108v215h-195
q-9 0 -12 8t-3 38v7q0 22 1 31t4 11.5t10 2.5h514q7 0 10 -2.5z" />
    <glyph glyph-name="Tcaron" unicode="&#x164;" horiz-adv-x="580" 
d="M237 2q-9 2 -9 11v609h-195q-9 0 -12 8t-3 38v7q0 22 1 31t4 11.5t10 2.5h514q7 0 10 -2.5t4 -11.5t1 -31v-7q0 -29 -3 -37.5t-12 -8.5h-196v-609q0 -9 -9.5 -11t-46.5 -2h-12q-37 0 -46 2zM246 792q-11 3 -19 12l-92 97q-5 5 -5 9t4.5 9.5t10.5 11.5l8 8q17 17 23 17
q2 0 8 -4l105 -91l106 91q6 4 8 4q4 0 10 -5t13 -12l8 -8q1 -2 8 -9.5t7 -11.5t-5 -9l-92 -97q-8 -9 -19 -12t-35 -3h-17q-24 0 -35 3z" />
    <glyph glyph-name="uni0162" unicode="&#x162;" horiz-adv-x="580" 
d="M237 2q-9 2 -9 11v609h-195q-9 0 -12 8t-3 38v7q0 22 1 31t4 11.5t10 2.5h514q7 0 10 -2.5t4 -11.5t1 -31v-7q0 -29 -3 -37.5t-12 -8.5h-196v-609q0 -9 -9.5 -11t-46.5 -2h-12q-37 0 -46 2zM253 -305q-5 0 -10 5l-13 11q-6 6 -6 9q0 5 4 9q23 27 33.5 50.5t10.5 39.5
q0 11 -4 17.5t-12 17.5q-1 2 -6.5 9t-8 14.5t-2.5 16.5q0 20 15.5 34.5t38.5 14.5q27 0 44 -19.5t17 -49.5q0 -46 -24 -91.5t-68 -83.5q-4 -4 -9 -4z" />
    <glyph glyph-name="uni021A" unicode="&#x21a;" horiz-adv-x="580" 
d="M237 2q-9 2 -9 11v609h-195q-9 0 -12 8t-3 38v7q0 22 1 31t4 11.5t10 2.5h514q7 0 10 -2.5t4 -11.5t1 -31v-7q0 -29 -3 -37.5t-12 -8.5h-196v-609q0 -9 -9.5 -11t-46.5 -2h-12q-37 0 -46 2zM253 -305q-5 0 -10 5l-13 11q-6 6 -6 9q0 5 4 9q23 27 33.5 50.5t10.5 39.5
q0 11 -4 17.5t-12 17.5q-1 2 -6.5 9t-8 14.5t-2.5 16.5q0 20 15.5 34.5t38.5 14.5q27 0 44 -19.5t17 -49.5q0 -46 -24 -91.5t-68 -83.5q-4 -4 -9 -4z" />
    <glyph glyph-name="U" unicode="U" horiz-adv-x="731" 
d="M234.5 7.5q-57.5 17.5 -94.5 54.5q-68 65 -68 207v438q0 6 3.5 8.5t17 3.5t34.5 1h12q37 0 46.5 -2t9.5 -11v-434q0 -54 11.5 -88.5t36.5 -56.5q41 -36 123 -36q40 0 72 9.5t52 26.5q25 22 36.5 57t11.5 88v434q0 9 9 11t45 2h10q38 0 47.5 -2t9.5 -11v-438
q0 -141 -67 -207q-75 -72 -220 -72q-80 0 -137.5 17.5z" />
    <glyph glyph-name="Uacute" unicode="&#xda;" horiz-adv-x="731" 
d="M234.5 7.5q-57.5 17.5 -94.5 54.5q-68 65 -68 207v438q0 6 3.5 8.5t17 3.5t34.5 1h12q37 0 46.5 -2t9.5 -11v-434q0 -54 11.5 -88.5t36.5 -56.5q41 -36 123 -36q40 0 72 9.5t52 26.5q25 22 36.5 57t11.5 88v434q0 9 9 11t45 2h10q38 0 47.5 -2t9.5 -11v-438
q0 -141 -67 -207q-75 -72 -220 -72q-80 0 -137.5 17.5zM290.5 788q-5.5 3 -1.5 10l94 149q4 6 13 8.5t33 2.5h38q21 0 26.5 -3t-0.5 -11l-117 -150q-5 -5 -12.5 -7t-24.5 -2h-27q-16 0 -21.5 3z" />
    <glyph glyph-name="Ubreve" unicode="&#x16c;" horiz-adv-x="731" 
d="M234.5 7.5q-57.5 17.5 -94.5 54.5q-68 65 -68 207v438q0 6 3.5 8.5t17 3.5t34.5 1h12q37 0 46.5 -2t9.5 -11v-434q0 -54 11.5 -88.5t36.5 -56.5q41 -36 123 -36q40 0 72 9.5t52 26.5q25 22 36.5 57t11.5 88v434q0 9 9 11t45 2h10q38 0 47.5 -2t9.5 -11v-438
q0 -141 -67 -207q-75 -72 -220 -72q-80 0 -137.5 17.5zM259.5 831q-40.5 35 -42.5 97q0 7 7 9.5t29 2.5h14q19 0 24.5 -2.5t6.5 -9.5q11 -59 68 -59q59 0 68 59q1 7 7 9.5t25 2.5h14q22 0 28.5 -2.5t6.5 -9.5q-2 -62 -42.5 -97t-106.5 -35t-106.5 35z" />
    <glyph glyph-name="Ucircumflex" unicode="&#xdb;" horiz-adv-x="731" 
d="M234.5 7.5q-57.5 17.5 -94.5 54.5q-68 65 -68 207v438q0 6 3.5 8.5t17 3.5t34.5 1h12q37 0 46.5 -2t9.5 -11v-434q0 -54 11.5 -88.5t36.5 -56.5q41 -36 123 -36q40 0 72 9.5t52 26.5q25 22 36.5 57t11.5 88v434q0 9 9 11t45 2h10q38 0 47.5 -2t9.5 -11v-438
q0 -141 -67 -207q-75 -72 -220 -72q-80 0 -137.5 17.5zM253 787q-4 0 -10 5t-13 12l-8 8q-14 16 -14 21t4 9l92 97q9 9 20 12t34 3h17q23 0 34 -3t20 -12l92 -97q4 -4 4 -9t-14 -21l-8 -8q-7 -7 -13 -12t-10 -5q-2 0 -8 4l-106 91l-105 -91q-6 -4 -8 -4z" />
    <glyph glyph-name="Udieresis" unicode="&#xdc;" horiz-adv-x="731" 
d="M234.5 7.5q-57.5 17.5 -94.5 54.5q-68 65 -68 207v438q0 6 3.5 8.5t17 3.5t34.5 1h12q37 0 46.5 -2t9.5 -11v-434q0 -54 11.5 -88.5t36.5 -56.5q41 -36 123 -36q40 0 72 9.5t52 26.5q25 22 36.5 57t11.5 88v434q0 9 9 11t45 2h10q38 0 47.5 -2t9.5 -11v-438
q0 -141 -67 -207q-75 -72 -220 -72q-80 0 -137.5 17.5zM213.5 819q-18.5 18 -18.5 44q0 27 18.5 45.5t46.5 18.5t46.5 -18.5t18.5 -45.5q0 -26 -18.5 -44t-46.5 -18t-46.5 18zM426.5 819q-18.5 18 -18.5 44q0 27 18.5 45.5t45.5 18.5q28 0 47 -18.5t19 -45.5q0 -26 -19 -44
t-47 -18q-27 0 -45.5 18z" />
    <glyph glyph-name="Ugrave" unicode="&#xd9;" horiz-adv-x="731" 
d="M234.5 7.5q-57.5 17.5 -94.5 54.5q-68 65 -68 207v438q0 6 3.5 8.5t17 3.5t34.5 1h12q37 0 46.5 -2t9.5 -11v-434q0 -54 11.5 -88.5t36.5 -56.5q41 -36 123 -36q40 0 72 9.5t52 26.5q25 22 36.5 57t11.5 88v434q0 9 9 11t45 2h10q38 0 47.5 -2t9.5 -11v-438
q0 -141 -67 -207q-75 -72 -220 -72q-80 0 -137.5 17.5zM356.5 787q-7.5 2 -12.5 7l-117 150q-6 8 0 11t27 3h38q24 0 33 -2.5t12 -8.5l94 -149q2 -4 2 -6q0 -7 -24 -7h-28q-17 0 -24.5 2z" />
    <glyph glyph-name="Uhungarumlaut" unicode="&#x170;" horiz-adv-x="731" 
d="M234.5 7.5q-57.5 17.5 -94.5 54.5q-68 65 -68 207v438q0 6 3.5 8.5t17 3.5t34.5 1h12q37 0 46.5 -2t9.5 -11v-434q0 -54 11.5 -88.5t36.5 -56.5q41 -36 123 -36q40 0 72 9.5t52 26.5q25 22 36.5 57t11.5 88v434q0 9 9 11t45 2h10q38 0 47.5 -2t9.5 -11v-438
q0 -141 -67 -207q-75 -72 -220 -72q-80 0 -137.5 17.5zM200 792.5q-5 2.5 -1 9.5l84 145q4 6 12.5 8.5t31.5 2.5h35q20 0 25.5 -3t0.5 -10l-108 -146q-5 -5 -12 -7t-23 -2h-24q-16 0 -21 2.5zM387 792.5q-5 2.5 -1 9.5l84 145q4 6 12.5 8.5t31.5 2.5h35q20 0 25.5 -3
t0.5 -10l-108 -146q-5 -5 -12 -7t-23 -2h-24q-16 0 -21 2.5z" />
    <glyph glyph-name="Umacron" unicode="&#x16a;" horiz-adv-x="731" 
d="M234.5 7.5q-57.5 17.5 -94.5 54.5q-68 65 -68 207v438q0 6 3.5 8.5t17 3.5t34.5 1h12q37 0 46.5 -2t9.5 -11v-434q0 -54 11.5 -88.5t36.5 -56.5q41 -36 123 -36q40 0 72 9.5t52 26.5q25 22 36.5 57t11.5 88v434q0 9 9 11t45 2h10q38 0 47.5 -2t9.5 -11v-438
q0 -141 -67 -207q-75 -72 -220 -72q-80 0 -137.5 17.5zM223 834q-2 8 -2 29v10q0 21 2 28.5t9 7.5h268q7 0 9.5 -7.5t2.5 -28.5v-10q0 -21 -2.5 -29t-9.5 -8h-268q-7 0 -9 8z" />
    <glyph glyph-name="Uogonek" unicode="&#x172;" horiz-adv-x="731" 
d="M649.5 718q9.5 -2 9.5 -11v-423q0 -80 -16.5 -133.5t-52.5 -89.5q-20 -20 -71 -54q-7 -5 -33 -23t-43 -35q-30 -30 -30 -63q0 -21 12.5 -34t34.5 -13q19 0 44 9q1 1 4 1q4 0 7.5 -6.5t7.5 -17.5l3 -10q4 -13 4 -21q0 -7 -6 -11q-38 -20 -81 -20q-49 0 -83.5 29.5
t-34.5 80.5q0 32 18.5 64t48.5 53h-26q-78 1 -133.5 18.5t-92.5 53.5q-68 65 -68 207v438q0 6 3.5 8.5t17 3.5t34.5 1h12q37 0 46.5 -2t9.5 -11v-434q0 -54 11.5 -88.5t36.5 -56.5q41 -36 123 -36q40 0 72 9.5t52 26.5q25 22 36.5 57t11.5 88v434q0 9 9 11t45 2h10
q38 0 47.5 -2z" />
    <glyph glyph-name="Uring" unicode="&#x16e;" horiz-adv-x="731" 
d="M234.5 7.5q-57.5 17.5 -94.5 54.5q-68 65 -68 207v438q0 6 3.5 8.5t17 3.5t34.5 1h12q37 0 46.5 -2t9.5 -11v-434q0 -54 11.5 -88.5t36.5 -56.5q41 -36 123 -36q40 0 72 9.5t52 26.5q25 22 36.5 57t11.5 88v434q0 9 9 11t45 2h10q38 0 47.5 -2t9.5 -11v-438
q0 -141 -67 -207q-75 -72 -220 -72q-80 0 -137.5 17.5zM291 817.5q-32 30.5 -32 73.5t31.5 73t76.5 30t76 -29.5t31 -73.5t-31 -74t-76 -30q-44 0 -76 30.5zM396 860.5q12 12.5 12 30.5t-12 30.5t-30 12.5t-30.5 -12.5t-12.5 -30.5q0 -19 12.5 -31t30.5 -12t30 12.5z" />
    <glyph glyph-name="Utilde" unicode="&#x168;" horiz-adv-x="731" 
d="M234.5 7.5q-57.5 17.5 -94.5 54.5q-68 65 -68 207v438q0 6 3.5 8.5t17 3.5t34.5 1h12q37 0 46.5 -2t9.5 -11v-434q0 -54 11.5 -88.5t36.5 -56.5q41 -36 123 -36q40 0 72 9.5t52 26.5q25 22 36.5 57t11.5 88v434q0 9 9 11t45 2h10q38 0 47.5 -2t9.5 -11v-438
q0 -141 -67 -207q-75 -72 -220 -72q-80 0 -137.5 17.5zM355 834q-16 8 -26.5 12t-21.5 4q-14 0 -28 -8t-30 -24q-5 -5 -10 -2.5t-20 17.5l-6 6q-15 15 -15 21q0 5 4 10q20 26 48 43t59 17t71 -22q16 -8 26.5 -12t21.5 -4q14 0 28 8t30 24q4 4 10 1.5t20 -16.5l6 -6
q15 -15 15 -22q0 -3 -4 -9q-21 -26 -49 -43t-58 -17q-31 0 -71 22z" />
    <glyph glyph-name="V" unicode="V" horiz-adv-x="678" 
d="M297 1.5q-15 1.5 -20 5t-8 10.5l-247 687q-4 10 5 13t45 3h15q38 0 48.5 -2.5t14.5 -12.5l117 -351l20 -61q46 -137 60 -185q41 150 75 250l116 347q4 10 13.5 12.5t44.5 2.5h6q23 0 37 -1t17 -4t1 -10l-235 -686q-4 -13 -16.5 -16t-55.5 -3h-6q-32 0 -47 1.5z" />
    <glyph glyph-name="W" unicode="W" horiz-adv-x="1035" 
d="M262 1q-15 1 -19 4t-7 11l-212 688q-2 7 1 10.5t17.5 4.5t37.5 1h14q36 0 45.5 -2.5t12.5 -12.5l103 -360q34 -120 58 -219q17 79 51 214l96 365q3 10 12.5 12.5t46.5 2.5h10q37 0 47.5 -2.5t12.5 -12.5l94 -350q31 -114 57 -239q27 126 57 236l95 353q2 8 6 10.5
t17.5 3.5t35.5 1h7q37 0 46.5 -2.5t6.5 -12.5l-203 -689q-3 -10 -14.5 -13t-50.5 -3h-12q-44 0 -56 2.5t-15 13.5l-81 292q-36 126 -59 236q-24 -118 -57 -239l-80 -289q-3 -11 -13.5 -13.5t-50.5 -2.5h-18q-24 0 -39 1z" />
    <glyph glyph-name="Wacute" unicode="&#x1e82;" horiz-adv-x="1035" 
d="M262 1q-15 1 -19 4t-7 11l-212 688q-2 7 1 10.5t17.5 4.5t37.5 1h14q36 0 45.5 -2.5t12.5 -12.5l103 -360q34 -120 58 -219q17 79 51 214l96 365q3 10 12.5 12.5t46.5 2.5h10q37 0 47.5 -2.5t12.5 -12.5l94 -350q31 -114 57 -239q27 126 57 236l95 353q2 8 6 10.5
t17.5 3.5t35.5 1h7q37 0 46.5 -2.5t6.5 -12.5l-203 -689q-3 -10 -14.5 -13t-50.5 -3h-12q-44 0 -56 2.5t-15 13.5l-81 292q-36 126 -59 236q-24 -118 -57 -239l-80 -289q-3 -11 -13.5 -13.5t-50.5 -2.5h-18q-24 0 -39 1zM447.5 788q-5.5 3 -1.5 10l94 149q4 6 13 8.5t33 2.5
h38q21 0 26.5 -3t-0.5 -11l-117 -150q-5 -5 -12.5 -7t-24.5 -2h-27q-16 0 -21.5 3z" />
    <glyph glyph-name="Wcircumflex" unicode="&#x174;" horiz-adv-x="1035" 
d="M262 1q-15 1 -19 4t-7 11l-212 688q-2 7 1 10.5t17.5 4.5t37.5 1h14q36 0 45.5 -2.5t12.5 -12.5l103 -360q34 -120 58 -219q17 79 51 214l96 365q3 10 12.5 12.5t46.5 2.5h10q37 0 47.5 -2.5t12.5 -12.5l94 -350q31 -114 57 -239q27 126 57 236l95 353q2 8 6 10.5
t17.5 3.5t35.5 1h7q37 0 46.5 -2.5t6.5 -12.5l-203 -689q-3 -10 -14.5 -13t-50.5 -3h-12q-44 0 -56 2.5t-15 13.5l-81 292q-36 126 -59 236q-24 -118 -57 -239l-80 -289q-3 -11 -13.5 -13.5t-50.5 -2.5h-18q-24 0 -39 1zM410 787q-4 0 -10 5t-13 12l-8 8q-14 16 -14 21t4 9
l92 97q9 9 20 12t34 3h17q23 0 34 -3t20 -12l92 -97q4 -4 4 -9t-14 -21l-8 -8q-7 -7 -13 -12t-10 -5q-2 0 -8 4l-106 91l-105 -91q-6 -4 -8 -4z" />
    <glyph glyph-name="Wdieresis" unicode="&#x1e84;" horiz-adv-x="1035" 
d="M262 1q-15 1 -19 4t-7 11l-212 688q-2 7 1 10.5t17.5 4.5t37.5 1h14q36 0 45.5 -2.5t12.5 -12.5l103 -360q34 -120 58 -219q17 79 51 214l96 365q3 10 12.5 12.5t46.5 2.5h10q37 0 47.5 -2.5t12.5 -12.5l94 -350q31 -114 57 -239q27 126 57 236l95 353q2 8 6 10.5
t17.5 3.5t35.5 1h7q37 0 46.5 -2.5t6.5 -12.5l-203 -689q-3 -10 -14.5 -13t-50.5 -3h-12q-44 0 -56 2.5t-15 13.5l-81 292q-36 126 -59 236q-24 -118 -57 -239l-80 -289q-3 -11 -13.5 -13.5t-50.5 -2.5h-18q-24 0 -39 1zM370.5 819q-18.5 18 -18.5 44q0 27 18.5 45.5
t46.5 18.5t46.5 -18.5t18.5 -45.5q0 -26 -18.5 -44t-46.5 -18t-46.5 18zM583.5 819q-18.5 18 -18.5 44q0 27 18.5 45.5t45.5 18.5q28 0 47 -18.5t19 -45.5q0 -26 -19 -44t-47 -18q-27 0 -45.5 18z" />
    <glyph glyph-name="Wgrave" unicode="&#x1e80;" horiz-adv-x="1035" 
d="M262 1q-15 1 -19 4t-7 11l-212 688q-2 7 1 10.5t17.5 4.5t37.5 1h14q36 0 45.5 -2.5t12.5 -12.5l103 -360q34 -120 58 -219q17 79 51 214l96 365q3 10 12.5 12.5t46.5 2.5h10q37 0 47.5 -2.5t12.5 -12.5l94 -350q31 -114 57 -239q27 126 57 236l95 353q2 8 6 10.5
t17.5 3.5t35.5 1h7q37 0 46.5 -2.5t6.5 -12.5l-203 -689q-3 -10 -14.5 -13t-50.5 -3h-12q-44 0 -56 2.5t-15 13.5l-81 292q-36 126 -59 236q-24 -118 -57 -239l-80 -289q-3 -11 -13.5 -13.5t-50.5 -2.5h-18q-24 0 -39 1zM513.5 787q-7.5 2 -12.5 7l-117 150q-6 8 0 11t27 3
h38q24 0 33 -2.5t12 -8.5l94 -149q2 -4 2 -6q0 -7 -24 -7h-28q-17 0 -24.5 2z" />
    <glyph glyph-name="X" unicode="X" horiz-adv-x="641" 
d="M20 4q-7 4 -1 12l172 256l17 25q29 44 51 75l-68 102l-148 227q-3 5 -3 9q0 5 9.5 7.5t33.5 2.5h33q32 0 42.5 -2.5t15.5 -10.5l100 -153q34 -53 58 -94l62 104l85 142q5 9 15 11.5t44 2.5h32q22 0 30.5 -2t8.5 -6q0 -3 -3 -8l-146 -220l-26 -39q-20 -30 -49 -72
q30 -41 63 -92l172 -264q6 -9 -2.5 -13t-40.5 -4h-33q-32 0 -42 2t-15 10l-112 172q-38 58 -64 103q-3 -6 -46 -78l-18 -30l-102 -167q-5 -7 -15 -9.5t-43 -2.5h-31q-29 0 -36 4z" />
    <glyph glyph-name="Y" unicode="Y" horiz-adv-x="622" 
d="M268 1q-13 1 -16.5 3.5t-3.5 8.5v266l-232 426q-4 8 6 11.5t47 3.5h18q38 0 48.5 -2.5t15.5 -11.5l93 -181q56 -108 73 -146l11 24q34 74 59 123l90 179q5 10 14 12.5t45 2.5h25q32 0 40 -3t3 -12l-233 -426v-266q0 -9 -9.5 -11t-47.5 -2h-12q-21 0 -34 1z" />
    <glyph glyph-name="Yacute" unicode="&#xdd;" horiz-adv-x="622" 
d="M268 1q-13 1 -16.5 3.5t-3.5 8.5v266l-232 426q-4 8 6 11.5t47 3.5h18q38 0 48.5 -2.5t15.5 -11.5l93 -181q56 -108 73 -146l11 24q34 74 59 123l90 179q5 10 14 12.5t45 2.5h25q32 0 40 -3t3 -12l-233 -426v-266q0 -9 -9.5 -11t-47.5 -2h-12q-21 0 -34 1zM243.5 788
q-5.5 3 -1.5 10l94 149q4 6 13 8.5t33 2.5h38q21 0 26.5 -3t-0.5 -11l-117 -150q-5 -5 -12.5 -7t-24.5 -2h-27q-16 0 -21.5 3z" />
    <glyph glyph-name="Ycircumflex" unicode="&#x176;" horiz-adv-x="622" 
d="M268 1q-13 1 -16.5 3.5t-3.5 8.5v266l-232 426q-4 8 6 11.5t47 3.5h18q38 0 48.5 -2.5t15.5 -11.5l93 -181q56 -108 73 -146l11 24q34 74 59 123l90 179q5 10 14 12.5t45 2.5h25q32 0 40 -3t3 -12l-233 -426v-266q0 -9 -9.5 -11t-47.5 -2h-12q-21 0 -34 1zM206 787
q-4 0 -10 5t-13 12l-8 8q-14 16 -14 21t4 9l92 97q9 9 20 12t34 3h17q23 0 34 -3t20 -12l92 -97q4 -4 4 -9t-14 -21l-8 -8q-7 -7 -13 -12t-10 -5q-2 0 -8 4l-106 91l-105 -91q-6 -4 -8 -4z" />
    <glyph glyph-name="Ydieresis" unicode="&#x178;" horiz-adv-x="622" 
d="M268 1q-13 1 -16.5 3.5t-3.5 8.5v266l-232 426q-4 8 6 11.5t47 3.5h18q38 0 48.5 -2.5t15.5 -11.5l93 -181q56 -108 73 -146l11 24q34 74 59 123l90 179q5 10 14 12.5t45 2.5h25q32 0 40 -3t3 -12l-233 -426v-266q0 -9 -9.5 -11t-47.5 -2h-12q-21 0 -34 1zM166.5 819
q-18.5 18 -18.5 44q0 27 18.5 45.5t46.5 18.5t46.5 -18.5t18.5 -45.5q0 -26 -18.5 -44t-46.5 -18t-46.5 18zM379.5 819q-18.5 18 -18.5 44q0 27 18.5 45.5t45.5 18.5q28 0 47 -18.5t19 -45.5q0 -26 -19 -44t-47 -18q-27 0 -45.5 18z" />
    <glyph glyph-name="Ygrave" unicode="&#x1ef2;" horiz-adv-x="622" 
d="M268 1q-13 1 -16.5 3.5t-3.5 8.5v266l-232 426q-4 8 6 11.5t47 3.5h18q38 0 48.5 -2.5t15.5 -11.5l93 -181q56 -108 73 -146l11 24q34 74 59 123l90 179q5 10 14 12.5t45 2.5h25q32 0 40 -3t3 -12l-233 -426v-266q0 -9 -9.5 -11t-47.5 -2h-12q-21 0 -34 1zM309.5 787
q-7.5 2 -12.5 7l-117 150q-6 8 0 11t27 3h38q24 0 33 -2.5t12 -8.5l94 -149q2 -4 2 -6q0 -7 -24 -7h-28q-17 0 -24.5 2z" />
    <glyph glyph-name="Z" unicode="Z" horiz-adv-x="606" 
d="M50 2.5q-6 2.5 -6 10.5v43q0 19 4 31.5t18 32.5l340 502h-329q-9 0 -12 8.5t-3 37.5v7q0 22 1 31t4 11.5t10 2.5h439q25 0 30 -2t5 -11v-41q0 -19 -4.5 -33t-16.5 -31l-340 -504h358q9 0 12 -7.5t3 -37.5v-7q0 -29 -3 -37.5t-12 -8.5h-467q-25 0 -31 2.5z" />
    <glyph glyph-name="Zacute" unicode="&#x179;" horiz-adv-x="606" 
d="M50 2.5q-6 2.5 -6 10.5v43q0 19 4 31.5t18 32.5l340 502h-329q-9 0 -12 8.5t-3 37.5v7q0 22 1 31t4 11.5t10 2.5h439q25 0 30 -2t5 -11v-41q0 -19 -4.5 -33t-16.5 -31l-340 -504h358q9 0 12 -7.5t3 -37.5v-7q0 -29 -3 -37.5t-12 -8.5h-467q-25 0 -31 2.5zM231.5 788
q-5.5 3 -1.5 10l94 149q4 6 13 8.5t33 2.5h38q21 0 26.5 -3t-0.5 -11l-117 -150q-5 -5 -12.5 -7t-24.5 -2h-27q-16 0 -21.5 3z" />
    <glyph glyph-name="Zacute.loclPLK" horiz-adv-x="606" 
d="M50 2.5q-6 2.5 -6 10.5v43q0 19 4 31.5t18 32.5l340 502h-329q-9 0 -12 8.5t-3 37.5v7q0 22 1 31t4 11.5t10 2.5h439q25 0 30 -2t5 -11v-41q0 -19 -4.5 -33t-16.5 -31l-340 -504h358q9 0 12 -7.5t3 -37.5v-7q0 -29 -3 -37.5t-12 -8.5h-467q-25 0 -31 2.5zM255 788
q-6 3 -4 10l42 148q2 7 9.5 9.5t31.5 2.5h31q23 0 30 -3t3 -11l-65 -149q-3 -7 -8.5 -8.5t-24.5 -1.5h-22q-17 0 -23 3z" />
    <glyph glyph-name="Zcaron" unicode="&#x17d;" horiz-adv-x="606" 
d="M50 2.5q-6 2.5 -6 10.5v43q0 19 4 31.5t18 32.5l340 502h-329q-9 0 -12 8.5t-3 37.5v7q0 22 1 31t4 11.5t10 2.5h439q25 0 30 -2t5 -11v-41q0 -19 -4.5 -33t-16.5 -31l-340 -504h358q9 0 12 -7.5t3 -37.5v-7q0 -29 -3 -37.5t-12 -8.5h-467q-25 0 -31 2.5zM264 792
q-11 3 -19 12l-92 97q-5 5 -5 9t4.5 9.5t10.5 11.5l8 8q17 17 23 17q2 0 8 -4l105 -91l106 91q6 4 8 4q4 0 10 -5t13 -12l8 -8q1 -2 8 -9.5t7 -11.5t-5 -9l-92 -97q-8 -9 -19 -12t-35 -3h-17q-24 0 -35 3z" />
    <glyph glyph-name="Zdotaccent" unicode="&#x17b;" horiz-adv-x="606" 
d="M50 2.5q-6 2.5 -6 10.5v43q0 19 4 31.5t18 32.5l340 502h-329q-9 0 -12 8.5t-3 37.5v7q0 22 1 31t4 11.5t10 2.5h439q25 0 30 -2t5 -11v-41q0 -19 -4.5 -33t-16.5 -31l-340 -504h358q9 0 12 -7.5t3 -37.5v-7q0 -29 -3 -37.5t-12 -8.5h-467q-25 0 -31 2.5zM262.5 822
q-19.5 19 -19.5 46t19 45.5t46 18.5t46 -18.5t19 -45.5t-19 -46t-46 -19q-26 0 -45.5 19z" />
    <glyph glyph-name="a" unicode="a" horiz-adv-x="573" 
d="M96.5 61.5q-56.5 71.5 -56.5 192.5q0 88 29.5 152.5t80 98t113.5 33.5q43 0 78.5 -17.5t54.5 -45.5l4 41q1 7 10 9.5t40 2.5h6q30 0 38.5 -2.5t8.5 -10.5l-1 -48q-1 -41 -1 -147v-87q0 -115 7 -218q1 -7 -1.5 -10t-12.5 -4t-33 -1h-4q-30 0 -39.5 2.5t-11.5 9.5
q-5 18 -7 42q-23 -29 -62.5 -46.5t-82.5 -17.5q-101 0 -157.5 71.5zM329.5 97q22.5 9 35.5 25q12 15 16.5 33.5t4.5 53.5v170q-18 27 -44.5 42.5t-58.5 15.5q-60 0 -92 -46.5t-32 -131.5q0 -171 121 -171q27 0 49.5 9z" />
    <glyph glyph-name="a.ss01" horiz-adv-x="580" 
d="M547 82q2 -6 2 -30v-8q0 -21 -2 -28t-8 -9q-25 -10 -59 -10q-53 0 -79 29q-12 13 -18 32q-25 -32 -67 -50t-90 -18q-54 0 -96.5 21.5t-66 59t-23.5 84.5q0 77 56 114.5t146 37.5h132v20q0 114 -106 114q-66 0 -149 -36q-6 -3 -11 -3q-6 0 -12 7t-13 25l-6 14q-8 21 -8 29
q0 10 9 14q41 22 93 34.5t103 12.5q108 0 161.5 -54t53.5 -155v-199q0 -23 7 -32.5t27 -9.5h15q7 0 9 -6zM343 120q31 36 31 95v8h-127q-89 0 -89 -61q0 -34 26 -56t69 -22q59 0 90 36z" />
    <glyph glyph-name="aacute" unicode="&#xe1;" horiz-adv-x="573" 
d="M96.5 61.5q-56.5 71.5 -56.5 192.5q0 88 29.5 152.5t80 98t113.5 33.5q43 0 78.5 -17.5t54.5 -45.5l4 41q1 7 10 9.5t40 2.5h6q30 0 38.5 -2.5t8.5 -10.5l-1 -48q-1 -41 -1 -147v-87q0 -115 7 -218q1 -7 -1.5 -10t-12.5 -4t-33 -1h-4q-30 0 -39.5 2.5t-11.5 9.5
q-5 18 -7 42q-23 -29 -62.5 -46.5t-82.5 -17.5q-101 0 -157.5 71.5zM329.5 97q22.5 9 35.5 25q12 15 16.5 33.5t4.5 53.5v170q-18 27 -44.5 42.5t-58.5 15.5q-60 0 -92 -46.5t-32 -131.5q0 -171 121 -171q27 0 49.5 9zM197 596q-5 3 -1 10l94 149q5 7 13 9t33 2h38
q21 0 26 -3t0 -11l-117 -150q-5 -5 -12.5 -7t-24.5 -2h-27q-17 0 -22 3z" />
    <glyph glyph-name="aacute.ss01" horiz-adv-x="580" 
d="M547 82q2 -6 2 -30v-8q0 -21 -2 -28t-8 -9q-25 -10 -59 -10q-53 0 -79 29q-12 13 -18 32q-25 -32 -67 -50t-90 -18q-54 0 -96.5 21.5t-66 59t-23.5 84.5q0 77 56 114.5t146 37.5h132v20q0 114 -106 114q-66 0 -149 -36q-6 -3 -11 -3q-6 0 -12 7t-13 25l-6 14q-8 21 -8 29
q0 10 9 14q41 22 93 34.5t103 12.5q108 0 161.5 -54t53.5 -155v-199q0 -23 7 -32.5t27 -9.5h15q7 0 9 -6zM343 120q31 36 31 95v8h-127q-89 0 -89 -61q0 -34 26 -56t69 -22q59 0 90 36zM198 596q-5 3 -1 10l94 149q5 7 13 9t33 2h38q21 0 26 -3t0 -11l-117 -150
q-5 -5 -12.5 -7t-24.5 -2h-27q-17 0 -22 3z" />
    <glyph glyph-name="abreve" unicode="&#x103;" horiz-adv-x="573" 
d="M96.5 61.5q-56.5 71.5 -56.5 192.5q0 88 29.5 152.5t80 98t113.5 33.5q43 0 78.5 -17.5t54.5 -45.5l4 41q1 7 10 9.5t40 2.5h6q30 0 38.5 -2.5t8.5 -10.5l-1 -48q-1 -41 -1 -147v-87q0 -115 7 -218q1 -7 -1.5 -10t-12.5 -4t-33 -1h-4q-30 0 -39.5 2.5t-11.5 9.5
q-5 18 -7 42q-23 -29 -62.5 -46.5t-82.5 -17.5q-101 0 -157.5 71.5zM329.5 97q22.5 9 35.5 25q12 15 16.5 33.5t4.5 53.5v170q-18 27 -44.5 42.5t-58.5 15.5q-60 0 -92 -46.5t-32 -131.5q0 -171 121 -171q27 0 49.5 9zM171.5 638q-40.5 35 -42.5 97q0 7 7 9.5t29 2.5h14
q19 0 24.5 -2.5t6.5 -9.5q11 -59 68 -59q59 0 68 59q1 7 7 9.5t25 2.5h14q22 0 28.5 -2.5t6.5 -9.5q-2 -62 -42.5 -97t-106.5 -35t-106.5 35z" />
    <glyph glyph-name="abreve.ss01" horiz-adv-x="580" 
d="M547 82q2 -6 2 -30v-8q0 -21 -2 -28t-8 -9q-25 -10 -59 -10q-53 0 -79 29q-12 13 -18 32q-25 -32 -67 -50t-90 -18q-54 0 -96.5 21.5t-66 59t-23.5 84.5q0 77 56 114.5t146 37.5h132v20q0 114 -106 114q-66 0 -149 -36q-6 -3 -11 -3q-6 0 -12 7t-13 25l-6 14q-8 21 -8 29
q0 10 9 14q41 22 93 34.5t103 12.5q108 0 161.5 -54t53.5 -155v-199q0 -23 7 -32.5t27 -9.5h15q7 0 9 -6zM343 120q31 36 31 95v8h-127q-89 0 -89 -61q0 -34 26 -56t69 -22q59 0 90 36zM172.5 638q-40.5 35 -42.5 97q0 7 7 9.5t29 2.5h14q19 0 24.5 -2.5t6.5 -9.5
q11 -59 68 -59q59 0 68 59q1 7 7 9.5t25 2.5h14q22 0 28.5 -2.5t6.5 -9.5q-2 -62 -42.5 -97t-106.5 -35t-106.5 35z" />
    <glyph glyph-name="uni01CE" unicode="&#x1ce;" horiz-adv-x="573" 
d="M96.5 61.5q-56.5 71.5 -56.5 192.5q0 88 29.5 152.5t80 98t113.5 33.5q43 0 78.5 -17.5t54.5 -45.5l4 41q1 7 10 9.5t40 2.5h6q30 0 38.5 -2.5t8.5 -10.5l-1 -48q-1 -41 -1 -147v-87q0 -115 7 -218q1 -7 -1.5 -10t-12.5 -4t-33 -1h-4q-30 0 -39.5 2.5t-11.5 9.5
q-5 18 -7 42q-23 -29 -62.5 -46.5t-82.5 -17.5q-101 0 -157.5 71.5zM329.5 97q22.5 9 35.5 25q12 15 16.5 33.5t4.5 53.5v170q-18 27 -44.5 42.5t-58.5 15.5q-60 0 -92 -46.5t-32 -131.5q0 -171 121 -171q27 0 49.5 9zM235 596q-11 3 -19 12l-92 98q-4 4 -4 8q0 5 14 21l8 8
q7 7 13 12t10 5q2 0 8 -4l105 -91l106 91q6 4 8 4q4 0 10 -5t13 -12l8 -8q14 -16 14 -21q0 -4 -4 -8l-92 -98q-8 -9 -19 -12t-35 -3h-17q-24 0 -35 3z" />
    <glyph glyph-name="uni01CE.ss01" horiz-adv-x="580" 
d="M547 82q2 -6 2 -30v-8q0 -21 -2 -28t-8 -9q-25 -10 -59 -10q-53 0 -79 29q-12 13 -18 32q-25 -32 -67 -50t-90 -18q-54 0 -96.5 21.5t-66 59t-23.5 84.5q0 77 56 114.5t146 37.5h132v20q0 114 -106 114q-66 0 -149 -36q-6 -3 -11 -3q-6 0 -12 7t-13 25l-6 14q-8 21 -8 29
q0 10 9 14q41 22 93 34.5t103 12.5q108 0 161.5 -54t53.5 -155v-199q0 -23 7 -32.5t27 -9.5h15q7 0 9 -6zM343 120q31 36 31 95v8h-127q-89 0 -89 -61q0 -34 26 -56t69 -22q59 0 90 36zM236 596q-11 3 -19 12l-92 98q-4 4 -4 8q0 5 14 21l8 8q7 7 13 12t10 5q2 0 8 -4
l105 -91l106 91q6 4 8 4q4 0 10 -5t13 -12l8 -8q14 -16 14 -21q0 -4 -4 -8l-92 -98q-8 -9 -19 -12t-35 -3h-17q-24 0 -35 3z" />
    <glyph glyph-name="acircumflex" unicode="&#xe2;" horiz-adv-x="573" 
d="M96.5 61.5q-56.5 71.5 -56.5 192.5q0 88 29.5 152.5t80 98t113.5 33.5q43 0 78.5 -17.5t54.5 -45.5l4 41q1 7 10 9.5t40 2.5h6q30 0 38.5 -2.5t8.5 -10.5l-1 -48q-1 -41 -1 -147v-87q0 -115 7 -218q1 -7 -1.5 -10t-12.5 -4t-33 -1h-4q-30 0 -39.5 2.5t-11.5 9.5
q-5 18 -7 42q-23 -29 -62.5 -46.5t-82.5 -17.5q-101 0 -157.5 71.5zM329.5 97q22.5 9 35.5 25q12 15 16.5 33.5t4.5 53.5v170q-18 27 -44.5 42.5t-58.5 15.5q-60 0 -92 -46.5t-32 -131.5q0 -171 121 -171q27 0 49.5 9zM165 595q-4 0 -10 5t-13 12l-8 8q-14 16 -14 21t4 9
l92 97q8 9 19 12t35 3h17q24 0 35 -3t19 -12l92 -97q4 -4 4 -9t-14 -21l-8 -8q-7 -7 -13 -12t-10 -5q-2 0 -8 4l-106 91l-105 -91q-6 -4 -8 -4z" />
    <glyph glyph-name="acircumflex.ss01" horiz-adv-x="580" 
d="M547 82q2 -6 2 -30v-8q0 -21 -2 -28t-8 -9q-25 -10 -59 -10q-53 0 -79 29q-12 13 -18 32q-25 -32 -67 -50t-90 -18q-54 0 -96.5 21.5t-66 59t-23.5 84.5q0 77 56 114.5t146 37.5h132v20q0 114 -106 114q-66 0 -149 -36q-6 -3 -11 -3q-6 0 -12 7t-13 25l-6 14q-8 21 -8 29
q0 10 9 14q41 22 93 34.5t103 12.5q108 0 161.5 -54t53.5 -155v-199q0 -23 7 -32.5t27 -9.5h15q7 0 9 -6zM343 120q31 36 31 95v8h-127q-89 0 -89 -61q0 -34 26 -56t69 -22q59 0 90 36zM166 595q-4 0 -10 5t-13 12l-8 8q-14 16 -14 21t4 9l92 97q8 9 19 12t35 3h17
q24 0 35 -3t19 -12l92 -97q4 -4 4 -9t-14 -21l-8 -8q-7 -7 -13 -12t-10 -5q-2 0 -8 4l-106 91l-105 -91q-6 -4 -8 -4z" />
    <glyph glyph-name="adieresis" unicode="&#xe4;" horiz-adv-x="573" 
d="M96.5 61.5q-56.5 71.5 -56.5 192.5q0 88 29.5 152.5t80 98t113.5 33.5q43 0 78.5 -17.5t54.5 -45.5l4 41q1 7 10 9.5t40 2.5h6q30 0 38.5 -2.5t8.5 -10.5l-1 -48q-1 -41 -1 -147v-87q0 -115 7 -218q1 -7 -1.5 -10t-12.5 -4t-33 -1h-4q-30 0 -39.5 2.5t-11.5 9.5
q-5 18 -7 42q-23 -29 -62.5 -46.5t-82.5 -17.5q-101 0 -157.5 71.5zM329.5 97q22.5 9 35.5 25q12 15 16.5 33.5t4.5 53.5v170q-18 27 -44.5 42.5t-58.5 15.5q-60 0 -92 -46.5t-32 -131.5q0 -171 121 -171q27 0 49.5 9zM125.5 627q-18.5 18 -18.5 44q0 27 18.5 45.5
t46.5 18.5t46.5 -18.5t18.5 -45.5q0 -26 -18.5 -44t-46.5 -18t-46.5 18zM338.5 627q-18.5 18 -18.5 44q0 27 18.5 45.5t45.5 18.5q28 0 47 -18.5t19 -45.5q0 -26 -19 -44t-47 -18q-27 0 -45.5 18z" />
    <glyph glyph-name="adieresis.ss01" horiz-adv-x="580" 
d="M547 82q2 -6 2 -30v-8q0 -21 -2 -28t-8 -9q-25 -10 -59 -10q-53 0 -79 29q-12 13 -18 32q-25 -32 -67 -50t-90 -18q-54 0 -96.5 21.5t-66 59t-23.5 84.5q0 77 56 114.5t146 37.5h132v20q0 114 -106 114q-66 0 -149 -36q-6 -3 -11 -3q-6 0 -12 7t-13 25l-6 14q-8 21 -8 29
q0 10 9 14q41 22 93 34.5t103 12.5q108 0 161.5 -54t53.5 -155v-199q0 -23 7 -32.5t27 -9.5h15q7 0 9 -6zM343 120q31 36 31 95v8h-127q-89 0 -89 -61q0 -34 26 -56t69 -22q59 0 90 36zM126.5 627q-18.5 18 -18.5 44q0 27 18.5 45.5t46.5 18.5t46.5 -18.5t18.5 -45.5
q0 -26 -18.5 -44t-46.5 -18t-46.5 18zM339.5 627q-18.5 18 -18.5 44q0 27 18.5 45.5t45.5 18.5q28 0 47 -18.5t19 -45.5q0 -26 -19 -44t-47 -18q-27 0 -45.5 18z" />
    <glyph glyph-name="agrave" unicode="&#xe0;" horiz-adv-x="573" 
d="M96.5 61.5q-56.5 71.5 -56.5 192.5q0 88 29.5 152.5t80 98t113.5 33.5q43 0 78.5 -17.5t54.5 -45.5l4 41q1 7 10 9.5t40 2.5h6q30 0 38.5 -2.5t8.5 -10.5l-1 -48q-1 -41 -1 -147v-87q0 -115 7 -218q1 -7 -1.5 -10t-12.5 -4t-33 -1h-4q-30 0 -39.5 2.5t-11.5 9.5
q-5 18 -7 42q-23 -29 -62.5 -46.5t-82.5 -17.5q-101 0 -157.5 71.5zM329.5 97q22.5 9 35.5 25q12 15 16.5 33.5t4.5 53.5v170q-18 27 -44.5 42.5t-58.5 15.5q-60 0 -92 -46.5t-32 -131.5q0 -171 121 -171q27 0 49.5 9zM289.5 595q-7.5 2 -12.5 7l-117 150q-5 8 0.5 11
t26.5 3h38q24 0 32.5 -2.5t12.5 -8.5l94 -149q2 -4 2 -6q0 -7 -24 -7h-28q-17 0 -24.5 2z" />
    <glyph glyph-name="agrave.ss01" horiz-adv-x="580" 
d="M547 82q2 -6 2 -30v-8q0 -21 -2 -28t-8 -9q-25 -10 -59 -10q-53 0 -79 29q-12 13 -18 32q-25 -32 -67 -50t-90 -18q-54 0 -96.5 21.5t-66 59t-23.5 84.5q0 77 56 114.5t146 37.5h132v20q0 114 -106 114q-66 0 -149 -36q-6 -3 -11 -3q-6 0 -12 7t-13 25l-6 14q-8 21 -8 29
q0 10 9 14q41 22 93 34.5t103 12.5q108 0 161.5 -54t53.5 -155v-199q0 -23 7 -32.5t27 -9.5h15q7 0 9 -6zM343 120q31 36 31 95v8h-127q-89 0 -89 -61q0 -34 26 -56t69 -22q59 0 90 36zM290.5 595q-7.5 2 -12.5 7l-117 150q-5 8 0.5 11t26.5 3h38q24 0 32.5 -2.5t12.5 -8.5
l94 -149q2 -4 2 -6q0 -7 -24 -7h-28q-17 0 -24.5 2z" />
    <glyph glyph-name="amacron" unicode="&#x101;" horiz-adv-x="573" 
d="M96.5 61.5q-56.5 71.5 -56.5 192.5q0 88 29.5 152.5t80 98t113.5 33.5q43 0 78.5 -17.5t54.5 -45.5l4 41q1 7 10 9.5t40 2.5h6q30 0 38.5 -2.5t8.5 -10.5l-1 -48q-1 -41 -1 -147v-87q0 -115 7 -218q1 -7 -1.5 -10t-12.5 -4t-33 -1h-4q-30 0 -39.5 2.5t-11.5 9.5
q-5 18 -7 42q-23 -29 -62.5 -46.5t-82.5 -17.5q-101 0 -157.5 71.5zM329.5 97q22.5 9 35.5 25q12 15 16.5 33.5t4.5 53.5v170q-18 27 -44.5 42.5t-58.5 15.5q-60 0 -92 -46.5t-32 -131.5q0 -171 121 -171q27 0 49.5 9zM135 645q-2 8 -2 28v11q0 21 2 28t9 7h268q7 0 9.5 -7
t2.5 -28v-11q0 -20 -2.5 -28t-9.5 -8h-268q-7 0 -9 8z" />
    <glyph glyph-name="amacron.ss01" horiz-adv-x="580" 
d="M547 82q2 -6 2 -30v-8q0 -21 -2 -28t-8 -9q-25 -10 -59 -10q-53 0 -79 29q-12 13 -18 32q-25 -32 -67 -50t-90 -18q-54 0 -96.5 21.5t-66 59t-23.5 84.5q0 77 56 114.5t146 37.5h132v20q0 114 -106 114q-66 0 -149 -36q-6 -3 -11 -3q-6 0 -12 7t-13 25l-6 14q-8 21 -8 29
q0 10 9 14q41 22 93 34.5t103 12.5q108 0 161.5 -54t53.5 -155v-199q0 -23 7 -32.5t27 -9.5h15q7 0 9 -6zM343 120q31 36 31 95v8h-127q-89 0 -89 -61q0 -34 26 -56t69 -22q59 0 90 36zM136 645q-2 8 -2 28v11q0 21 2 28t9 7h268q7 0 9.5 -7t2.5 -28v-11q0 -20 -2.5 -28
t-9.5 -8h-268q-7 0 -9 8z" />
    <glyph glyph-name="aogonek" unicode="&#x105;" horiz-adv-x="573" 
d="M330.5 -206.5q-32.5 30.5 -32.5 80.5q0 87 107 142q-4 13 -6 38q-23 -29 -62.5 -46.5t-82.5 -17.5q-101 0 -157.5 71.5t-56.5 192.5q0 88 29.5 152.5t80 98t113.5 33.5q43 0 78.5 -17.5t54.5 -45.5l4 41q1 7 10 9.5t40 2.5h6q30 0 38.5 -2.5t8.5 -10.5l-1 -48
q-1 -41 -1 -147v-87q0 -114 7 -217v-3q0 -5 -2 -7t-8 -4q-27 -6 -51 -19.5t-38 -33.5q-24 -29 -24 -62q0 -23 12.5 -35.5t34.5 -12.5q17 0 43 8l4 1q5 0 8.5 -5t7.5 -18l3 -10q4 -13 4 -21q0 -7 -6 -11q-17 -9 -38.5 -14.5t-41.5 -5.5q-53 0 -85.5 30.5zM329.5 97
q22.5 9 35.5 25q12 15 16.5 33.5t4.5 53.5v170q-18 27 -44.5 42.5t-58.5 15.5q-60 0 -92 -46.5t-32 -131.5q0 -171 121 -171q27 0 49.5 9z" />
    <glyph glyph-name="aogonek.ss01" horiz-adv-x="580" 
d="M371.5 -206.5q-32.5 30.5 -32.5 80.5q0 80 90 132q-15 7 -28 20q-12 13 -18 32q-25 -32 -67 -50t-90 -18q-54 0 -96.5 21.5t-66 59t-23.5 84.5q0 77 56 114.5t146 37.5h132v20q0 114 -106 114q-66 0 -149 -36q-6 -3 -11 -3q-6 0 -12 7t-13 25l-6 14q-8 21 -8 29
q0 10 9 14q41 22 93 34.5t103 12.5q108 0 161.5 -54t53.5 -155v-199q0 -23 7 -32.5t27 -9.5h15q7 0 9 -6t2 -30v-36q0 -7 -2 -9.5t-8 -4.5q-56 -13 -89 -53q-24 -29 -24 -62q0 -23 12.5 -35.5t34.5 -12.5q17 0 43 8l5 1q9 0 15 -23l3 -10q4 -13 4 -21q0 -7 -6 -11
q-16 -9 -38 -14.5t-42 -5.5q-53 0 -85.5 30.5zM343 120q31 36 31 95v8h-127q-89 0 -89 -61q0 -34 26 -56t69 -22q59 0 90 36z" />
    <glyph glyph-name="aring" unicode="&#xe5;" horiz-adv-x="573" 
d="M96.5 61.5q-56.5 71.5 -56.5 192.5q0 88 29.5 152.5t80 98t113.5 33.5q43 0 78.5 -17.5t54.5 -45.5l4 41q1 7 10 9.5t40 2.5h6q30 0 38.5 -2.5t8.5 -10.5l-1 -48q-1 -41 -1 -147v-87q0 -115 7 -218q1 -7 -1.5 -10t-12.5 -4t-33 -1h-4q-30 0 -39.5 2.5t-11.5 9.5
q-5 18 -7 42q-23 -29 -62.5 -46.5t-82.5 -17.5q-101 0 -157.5 71.5zM329.5 97q22.5 9 35.5 25q12 15 16.5 33.5t4.5 53.5v170q-18 27 -44.5 42.5t-58.5 15.5q-60 0 -92 -46.5t-32 -131.5q0 -171 121 -171q27 0 49.5 9zM203 617.5q-32 30.5 -32 73.5t31.5 73t76.5 30
t76 -29.5t31 -73.5t-31 -74t-76 -30q-44 0 -76 30.5zM308 660.5q12 12.5 12 30.5t-12 30.5t-30 12.5t-30.5 -12.5t-12.5 -30.5q0 -19 12.5 -31t30.5 -12t30 12.5z" />
    <glyph glyph-name="aring.ss01" horiz-adv-x="580" 
d="M547 82q2 -6 2 -30v-8q0 -21 -2 -28t-8 -9q-25 -10 -59 -10q-53 0 -79 29q-12 13 -18 32q-25 -32 -67 -50t-90 -18q-54 0 -96.5 21.5t-66 59t-23.5 84.5q0 77 56 114.5t146 37.5h132v20q0 114 -106 114q-66 0 -149 -36q-6 -3 -11 -3q-6 0 -12 7t-13 25l-6 14q-8 21 -8 29
q0 10 9 14q41 22 93 34.5t103 12.5q108 0 161.5 -54t53.5 -155v-199q0 -23 7 -32.5t27 -9.5h15q7 0 9 -6zM343 120q31 36 31 95v8h-127q-89 0 -89 -61q0 -34 26 -56t69 -22q59 0 90 36zM204 617.5q-32 30.5 -32 73.5t31.5 73t76.5 30t76 -29.5t31 -73.5t-31 -74t-76 -30
q-44 0 -76 30.5zM309 660.5q12 12.5 12 30.5t-12 30.5t-30 12.5t-30.5 -12.5t-12.5 -30.5q0 -19 12.5 -31t30.5 -12t30 12.5z" />
    <glyph glyph-name="aringacute" unicode="&#x1fb;" horiz-adv-x="573" 
d="M96.5 61.5q-56.5 71.5 -56.5 192.5q0 88 29.5 152.5t80 98t113.5 33.5q43 0 78.5 -17.5t54.5 -45.5l4 41q1 7 10 9.5t40 2.5h6q30 0 38.5 -2.5t8.5 -10.5l-1 -48q-1 -41 -1 -147v-87q0 -115 7 -218q1 -7 -1.5 -10t-12.5 -4t-33 -1h-4q-30 0 -39.5 2.5t-11.5 9.5
q-5 18 -7 42q-23 -29 -62.5 -46.5t-82.5 -17.5q-101 0 -157.5 71.5zM329.5 97q22.5 9 35.5 25q12 15 16.5 33.5t4.5 53.5v170q-18 27 -44.5 42.5t-58.5 15.5q-60 0 -92 -46.5t-32 -131.5q0 -171 121 -171q27 0 49.5 9zM211 607.5q-32 30.5 -32 73.5t31.5 73t76.5 30
t76 -29.5t31 -73.5t-31 -74t-76 -30q-44 0 -76 30.5zM316 650.5q12 12.5 12 30.5t-12 30.5t-30 12.5t-30.5 -12.5t-12.5 -30.5q0 -19 12.5 -31t30.5 -12t30 12.5zM189 813q-5 3 -1 10l94 149q5 7 13 9t33 2h38q21 0 26 -3t0 -11l-117 -150q-5 -5 -12.5 -7t-24.5 -2h-27
q-17 0 -22 3z" />
    <glyph glyph-name="aringacute.ss01" horiz-adv-x="580" 
d="M547 82q2 -6 2 -30v-8q0 -21 -2 -28t-8 -9q-25 -10 -59 -10q-53 0 -79 29q-12 13 -18 32q-25 -32 -67 -50t-90 -18q-54 0 -96.5 21.5t-66 59t-23.5 84.5q0 77 56 114.5t146 37.5h132v20q0 114 -106 114q-66 0 -149 -36q-6 -3 -11 -3q-6 0 -12 7t-13 25l-6 14q-8 21 -8 29
q0 10 9 14q41 22 93 34.5t103 12.5q108 0 161.5 -54t53.5 -155v-199q0 -23 7 -32.5t27 -9.5h15q7 0 9 -6zM343 120q31 36 31 95v8h-127q-89 0 -89 -61q0 -34 26 -56t69 -22q59 0 90 36zM204 595.5q-32 30.5 -32 73.5t31.5 73t76.5 30t76 -29.5t31 -73.5t-31 -74t-76 -30
q-44 0 -76 30.5zM309 638.5q12 12.5 12 30.5t-12 30.5t-30 12.5t-30.5 -12.5t-12.5 -30.5q0 -19 12.5 -31t30.5 -12t30 12.5zM198 803q-5 3 -1 10l94 149q5 7 13 9t33 2h38q21 0 26 -3t0 -11l-117 -150q-5 -5 -12.5 -7t-24.5 -2h-27q-17 0 -22 3z" />
    <glyph glyph-name="atilde" unicode="&#xe3;" horiz-adv-x="573" 
d="M96.5 61.5q-56.5 71.5 -56.5 192.5q0 88 29.5 152.5t80 98t113.5 33.5q43 0 78.5 -17.5t54.5 -45.5l4 41q1 7 10 9.5t40 2.5h6q30 0 38.5 -2.5t8.5 -10.5l-1 -48q-1 -41 -1 -147v-87q0 -115 7 -218q1 -7 -1.5 -10t-12.5 -4t-33 -1h-4q-30 0 -39.5 2.5t-11.5 9.5
q-5 18 -7 42q-23 -29 -62.5 -46.5t-82.5 -17.5q-101 0 -157.5 71.5zM329.5 97q22.5 9 35.5 25q12 15 16.5 33.5t4.5 53.5v170q-18 27 -44.5 42.5t-58.5 15.5q-60 0 -92 -46.5t-32 -131.5q0 -171 121 -171q27 0 49.5 9zM267 642q-16 8 -26.5 12t-21.5 4q-14 0 -28 -8t-30 -24
q-5 -5 -10 -2.5t-20 17.5l-6 6q-15 15 -15 21q0 5 4 10q20 26 48 43t59 17t71 -22q16 -8 26.5 -12t21.5 -4q14 0 28 8t30 24q4 4 10 1.5t20 -16.5l6 -6q15 -15 15 -22q0 -3 -4 -9q-21 -26 -49 -43t-58 -17q-31 0 -71 22z" />
    <glyph glyph-name="atilde.ss01" horiz-adv-x="580" 
d="M547 82q2 -6 2 -30v-8q0 -21 -2 -28t-8 -9q-25 -10 -59 -10q-53 0 -79 29q-12 13 -18 32q-25 -32 -67 -50t-90 -18q-54 0 -96.5 21.5t-66 59t-23.5 84.5q0 77 56 114.5t146 37.5h132v20q0 114 -106 114q-66 0 -149 -36q-6 -3 -11 -3q-6 0 -12 7t-13 25l-6 14q-8 21 -8 29
q0 10 9 14q41 22 93 34.5t103 12.5q108 0 161.5 -54t53.5 -155v-199q0 -23 7 -32.5t27 -9.5h15q7 0 9 -6zM343 120q31 36 31 95v8h-127q-89 0 -89 -61q0 -34 26 -56t69 -22q59 0 90 36zM268 642q-16 8 -26.5 12t-21.5 4q-14 0 -28 -8t-30 -24q-5 -5 -10 -2.5t-20 17.5l-6 6
q-15 15 -15 21q0 5 4 10q20 26 48 43t59 17t71 -22q16 -8 26.5 -12t21.5 -4q14 0 28 8t30 24q4 4 10 1.5t20 -16.5l6 -6q15 -15 15 -22q0 -3 -4 -9q-21 -26 -49 -43t-58 -17q-31 0 -71 22z" />
    <glyph glyph-name="ae" unicode="&#xe6;" horiz-adv-x="866" 
d="M147.5 2q-35.5 12 -60.5 35q-50 47 -50 122q0 83 57 126.5t155 43.5q58 0 110 -19v30q1 53 -26 78t-84 25q-31 0 -67.5 -8.5t-69.5 -22.5q-9 -4 -14.5 1.5t-14.5 26.5l-5 11q-9 20 -9 28t6 11q38 22 89.5 35t97.5 13q62 0 105.5 -18.5t65.5 -53.5q29 35 71 53.5t94 18.5
q61 0 107 -25t74 -71q43 -72 43 -173q0 -25 -2.5 -34.5t-8.5 -9.5h-332q6 -69 44 -102q36 -33 99 -33q70 0 139 31q9 4 14 -0.5t12 -24.5l7 -20q8 -21 8 -28q0 -8 -9 -13q-38 -21 -87.5 -33t-99.5 -12q-61 0 -109.5 21t-78.5 59q-35 -37 -85 -58.5t-111 -21.5
q-39 0 -74.5 12zM707 309q-4 57 -31.5 94t-76.5 37t-80 -34t-39 -97h227zM319.5 101.5q34.5 15.5 56.5 42.5q-13 36 -16 81q-48 19 -98 19t-79 -20t-29 -61q0 -38 26.5 -57.5t65.5 -19.5t73.5 15.5z" />
    <glyph glyph-name="aeacute" unicode="&#x1fd;" horiz-adv-x="866" 
d="M147.5 2q-35.5 12 -60.5 35q-50 47 -50 122q0 83 57 126.5t155 43.5q58 0 110 -19v30q1 53 -26 78t-84 25q-31 0 -67.5 -8.5t-69.5 -22.5q-9 -4 -14.5 1.5t-14.5 26.5l-5 11q-9 20 -9 28t6 11q38 22 89.5 35t97.5 13q62 0 105.5 -18.5t65.5 -53.5q29 35 71 53.5t94 18.5
q61 0 107 -25t74 -71q43 -72 43 -173q0 -25 -2.5 -34.5t-8.5 -9.5h-332q6 -69 44 -102q36 -33 99 -33q70 0 139 31q9 4 14 -0.5t12 -24.5l7 -20q8 -21 8 -28q0 -8 -9 -13q-38 -21 -87.5 -33t-99.5 -12q-61 0 -109.5 21t-78.5 59q-35 -37 -85 -58.5t-111 -21.5
q-39 0 -74.5 12zM707 309q-4 57 -31.5 94t-76.5 37t-80 -34t-39 -97h227zM319.5 101.5q34.5 15.5 56.5 42.5q-13 36 -16 81q-48 19 -98 19t-79 -20t-29 -61q0 -38 26.5 -57.5t65.5 -19.5t73.5 15.5zM351 596q-5 3 -1 10l94 149q5 7 13 9t33 2h38q21 0 26 -3t0 -11l-117 -150
q-5 -5 -12.5 -7t-24.5 -2h-27q-17 0 -22 3z" />
    <glyph glyph-name="b" unicode="b" horiz-adv-x="572" 
d="M164 -0.5q-51 9.5 -80 23.5q-8 4 -11 9.5t-3 14.5v700q0 8 9.5 10.5t45.5 2.5h6q34 0 44 -2.5t10 -10.5v-263q26 26 61.5 40t76.5 14q100 0 154.5 -72.5t54.5 -191.5q0 -140 -68 -212t-199 -72q-50 0 -101 9.5zM378 135q35 47 35 137q0 166 -119 166q-27 0 -51.5 -9
t-38.5 -23q-13 -13 -16 -29.5t-3 -54.5v-222q33 -12 81 -12q77 0 112 47z" />
    <glyph glyph-name="c" unicode="c" horiz-adv-x="494" 
d="M104 63q-64 73 -64 196q0 85 31 148t89 97t136 34q98 0 165 -55q8 -6 8 -13q0 -8 -13 -30l-9 -16q-9 -15 -14.5 -21t-10.5 -6q-4 0 -11 5q-26 17 -52 26t-58 9q-63 0 -102.5 -44t-39.5 -128q0 -81 35.5 -127.5t106.5 -46.5q56 0 117 29q6 3 9 3q6 0 10 -6.5t11 -25.5
l5 -13q8 -19 8 -29q0 -8 -8 -14q-30 -20 -74 -32.5t-92 -12.5q-119 0 -183 73z" />
    <glyph glyph-name="cacute" unicode="&#x107;" horiz-adv-x="494" 
d="M104 63q-64 73 -64 196q0 85 31 148t89 97t136 34q98 0 165 -55q8 -6 8 -13q0 -8 -13 -30l-9 -16q-9 -15 -14.5 -21t-10.5 -6q-4 0 -11 5q-26 17 -52 26t-58 9q-63 0 -102.5 -44t-39.5 -128q0 -81 35.5 -127.5t106.5 -46.5q56 0 117 29q6 3 9 3q6 0 10 -6.5t11 -25.5
l5 -13q8 -19 8 -29q0 -8 -8 -14q-30 -20 -74 -32.5t-92 -12.5q-119 0 -183 73zM208 596q-5 3 -1 10l94 149q5 7 13 9t33 2h38q21 0 26 -3t0 -11l-117 -150q-5 -5 -12.5 -7t-24.5 -2h-27q-17 0 -22 3z" />
    <glyph glyph-name="cacute.loclPLK" horiz-adv-x="494" 
d="M104 63q-64 73 -64 196q0 85 31 148t89 97t136 34q98 0 165 -55q8 -6 8 -13q0 -8 -13 -30l-9 -16q-9 -15 -14.5 -21t-10.5 -6q-4 0 -11 5q-26 17 -52 26t-58 9q-63 0 -102.5 -44t-39.5 -128q0 -81 35.5 -127.5t106.5 -46.5q56 0 117 29q6 3 9 3q6 0 10 -6.5t11 -25.5
l5 -13q8 -19 8 -29q0 -8 -8 -14q-30 -20 -74 -32.5t-92 -12.5q-119 0 -183 73zM246 596q-6 3 -4 10l42 148q2 8 9.5 10t31.5 2h29q23 0 29.5 -3t2.5 -11l-64 -149q-3 -7 -9 -8.5t-25 -1.5h-19q-17 0 -23 3z" />
    <glyph glyph-name="ccaron" unicode="&#x10d;" horiz-adv-x="494" 
d="M104 63q-64 73 -64 196q0 85 31 148t89 97t136 34q98 0 165 -55q8 -6 8 -13q0 -8 -13 -30l-9 -16q-9 -15 -14.5 -21t-10.5 -6q-4 0 -11 5q-26 17 -52 26t-58 9q-63 0 -102.5 -44t-39.5 -128q0 -81 35.5 -127.5t106.5 -46.5q56 0 117 29q6 3 9 3q6 0 10 -6.5t11 -25.5
l5 -13q8 -19 8 -29q0 -8 -8 -14q-30 -20 -74 -32.5t-92 -12.5q-119 0 -183 73zM246 596q-11 3 -19 12l-92 98q-4 4 -4 8q0 5 14 21l8 8q7 7 13 12t10 5q2 0 8 -4l105 -91l106 91q6 4 8 4q4 0 10 -5t13 -12l8 -8q14 -16 14 -21q0 -4 -4 -8l-92 -98q-8 -9 -19 -12t-35 -3h-17
q-24 0 -35 3z" />
    <glyph glyph-name="ccedilla" unicode="&#xe7;" horiz-adv-x="494" 
d="M453 78q8 -19 8 -29q0 -8 -8 -14q-29 -19 -69.5 -31.5t-85.5 -13.5l-4 -38q7 1 17 1q39 0 65.5 -24t26.5 -64q0 -43 -31 -72.5t-91 -29.5q-43 0 -76 13q-9 3 -9 10q0 5 5 20l3 10q4 15 7.5 19t11.5 2q30 -6 49 -6q46 0 46 34q0 33 -50 33q-26 0 -58 -6l14 104
q-89 18 -136.5 88t-47.5 175q0 85 31 148t89 97t136 34q98 0 165 -55q8 -6 8 -13q0 -8 -13 -30l-9 -16q-9 -15 -14.5 -21t-10.5 -6q-4 0 -11 5q-26 17 -52 26t-58 9q-63 0 -102.5 -44t-39.5 -128q0 -81 35.5 -127.5t106.5 -46.5q56 0 117 29q6 3 9 3q6 0 10 -6.5t11 -25.5z
" />
    <glyph glyph-name="ccircumflex" unicode="&#x109;" horiz-adv-x="494" 
d="M104 63q-64 73 -64 196q0 85 31 148t89 97t136 34q98 0 165 -55q8 -6 8 -13q0 -8 -13 -30l-9 -16q-9 -15 -14.5 -21t-10.5 -6q-4 0 -11 5q-26 17 -52 26t-58 9q-63 0 -102.5 -44t-39.5 -128q0 -81 35.5 -127.5t106.5 -46.5q56 0 117 29q6 3 9 3q6 0 10 -6.5t11 -25.5
l5 -13q8 -19 8 -29q0 -8 -8 -14q-30 -20 -74 -32.5t-92 -12.5q-119 0 -183 73zM176 595q-4 0 -10 5t-13 12l-8 8q-14 16 -14 21t4 9l92 97q8 9 19 12t35 3h17q24 0 35 -3t19 -12l92 -97q4 -4 4 -9t-14 -21l-8 -8q-7 -7 -13 -12t-10 -5q-2 0 -8 4l-106 91l-105 -91
q-6 -4 -8 -4z" />
    <glyph glyph-name="cdotaccent" unicode="&#x10b;" horiz-adv-x="494" 
d="M104 63q-64 73 -64 196q0 85 31 148t89 97t136 34q98 0 165 -55q8 -6 8 -13q0 -8 -13 -30l-9 -16q-9 -15 -14.5 -21t-10.5 -6q-4 0 -11 5q-26 17 -52 26t-58 9q-63 0 -102.5 -44t-39.5 -128q0 -81 35.5 -127.5t106.5 -46.5q56 0 117 29q6 3 9 3q6 0 10 -6.5t11 -25.5
l5 -13q8 -19 8 -29q0 -8 -8 -14q-30 -20 -74 -32.5t-92 -12.5q-119 0 -183 73zM244.5 636.5q-19.5 19.5 -19.5 45.5q0 27 19.5 46t45.5 19q27 0 46 -19t19 -46q0 -26 -19 -45.5t-46 -19.5q-26 0 -45.5 19.5z" />
    <glyph glyph-name="d" unicode="d" horiz-adv-x="588" 
d="M97 61q-57 71 -57 194q0 84 27.5 148t78.5 99.5t120 35.5q71 0 123 -44v253q0 8 9.5 10.5t45.5 2.5h6q34 0 44 -2.5t10 -10.5v-619q0 -24 7.5 -31.5t25.5 -7.5q8 0 10 -5.5t2 -29.5v-9q0 -22 -2 -29.5t-7 -9.5q-25 -9 -60 -9q-32 0 -52.5 14.5t-28.5 40.5
q-25 -30 -62 -46t-83 -16q-100 0 -157 71zM332.5 97.5q23.5 8.5 37.5 22.5q11 13 15 31t4 53v187q-43 46 -101 46q-63 0 -96 -47t-33 -134q0 -79 31 -123t92 -44q27 0 50.5 8.5z" />
    <glyph glyph-name="eth" unicode="&#xf0;" horiz-adv-x="579" 
d="M151.5 22q-53.5 32 -82.5 90.5t-29 137.5q0 78 31 136.5t83 90t114 31.5t109 -29q-28 61 -78 108l-114 -39l-4 -1q-4 0 -6.5 4.5t-7.5 18.5l-4 13q-4 12 -4 19q0 6 5 8l83 30q-43 32 -81 52q-6 3 -6 10q0 9 14 30l11 16q14 21 25 21l8 -2q78 -37 142 -93l120 40l4 1
q6 0 13 -21l5 -15q4 -12 4 -19q0 -6 -5 -8l-91 -31q121 -133 121 -318q0 -149 -67.5 -231t-188.5 -82q-70 0 -123.5 32zM380.5 140.5q30.5 53.5 30.5 169.5q0 33 -7 66q-55 39 -112 39q-63 0 -98 -44t-35 -123q0 -77 32.5 -119t90.5 -42q68 0 98.5 53.5z" />
    <glyph glyph-name="dcaron" unicode="&#x10f;" horiz-adv-x="665" 
d="M97 61q-57 71 -57 194q0 84 27.5 148t78.5 99.5t120 35.5q71 0 123 -44v253q0 8 9.5 10.5t45.5 2.5h6q34 0 44 -2.5t10 -10.5v-619q0 -24 7.5 -31.5t25.5 -7.5q8 0 10 -5.5t2 -29.5v-9q0 -22 -2 -29.5t-7 -9.5q-25 -9 -60 -9q-32 0 -52.5 14.5t-28.5 40.5
q-25 -30 -62 -46t-83 -16q-100 0 -157 71zM332.5 97.5q23.5 8.5 37.5 22.5q11 13 15 31t4 53v187q-43 46 -101 46q-63 0 -96 -47t-33 -134q0 -79 31 -123t92 -44q27 0 50.5 8.5zM574 482q-5 0 -10 5l-13 11q-6 6 -6 9q0 5 4 9q23 27 33.5 50.5t10.5 39.5q0 11 -4 17.5
t-12 17.5q-1 2 -6.5 9t-8 14.5t-2.5 16.5q0 20 15.5 34.5t38.5 14.5q27 0 44 -19.5t17 -49.5q0 -46 -24 -91.5t-68 -83.5q-4 -4 -9 -4z" />
    <glyph glyph-name="dcroat" unicode="&#x111;" horiz-adv-x="588" 
d="M576.5 679q2.5 -8 2.5 -33q0 -26 -2.5 -34t-9.5 -8h-63v-476q0 -24 7.5 -31.5t25.5 -7.5q8 0 10 -5.5t2 -29.5v-9q0 -22 -2 -29.5t-7 -9.5q-25 -9 -60 -9q-32 0 -52.5 14.5t-28.5 40.5q-25 -30 -62 -46t-83 -16q-100 0 -157 71t-57 194q0 84 27.5 148t78.5 99.5t120 35.5
q71 0 123 -44v110h-139q-7 0 -9.5 8t-2.5 34t2.5 33.5t9.5 7.5h139v60q0 8 9.5 10.5t45.5 2.5h6q34 0 44 -2.5t10 -10.5v-60h63q7 0 9.5 -8zM389 391q-43 46 -101 46q-63 0 -96 -47t-33 -134q0 -79 31 -123t92 -44q27 0 50.5 8.5t37.5 22.5q11 13 15 31t4 53v187z" />
    <glyph glyph-name="e" unicode="e" horiz-adv-x="552" 
d="M108 61q-68 71 -68 195q0 82 29.5 146t84.5 100t129 36q66 0 113.5 -28t75.5 -79q36 -67 36 -162q0 -26 -3 -35t-12 -9h-332q6 -65 43 -100t104 -35q70 0 140 31l8 2q5 0 8.5 -5.5t9.5 -21.5l7 -19q8 -24 8 -29q0 -8 -9 -13q-38 -21 -87.5 -33t-100.5 -12q-116 0 -184 71
zM393 309q-4 57 -32 94t-77 37t-81 -33.5t-42 -97.5h232z" />
    <glyph glyph-name="eacute" unicode="&#xe9;" horiz-adv-x="552" 
d="M108 61q-68 71 -68 195q0 82 29.5 146t84.5 100t129 36q66 0 113.5 -28t75.5 -79q36 -67 36 -162q0 -26 -3 -35t-12 -9h-332q6 -65 43 -100t104 -35q70 0 140 31l8 2q5 0 8.5 -5.5t9.5 -21.5l7 -19q8 -24 8 -29q0 -8 -9 -13q-38 -21 -87.5 -33t-100.5 -12q-116 0 -184 71
zM393 309q-4 57 -32 94t-77 37t-81 -33.5t-42 -97.5h232zM201 596q-5 3 -1 10l94 149q5 7 13 9t33 2h38q21 0 26 -3t0 -11l-117 -150q-5 -5 -12.5 -7t-24.5 -2h-27q-17 0 -22 3z" />
    <glyph glyph-name="ebreve" unicode="&#x115;" horiz-adv-x="552" 
d="M108 61q-68 71 -68 195q0 82 29.5 146t84.5 100t129 36q66 0 113.5 -28t75.5 -79q36 -67 36 -162q0 -26 -3 -35t-12 -9h-332q6 -65 43 -100t104 -35q70 0 140 31l8 2q5 0 8.5 -5.5t9.5 -21.5l7 -19q8 -24 8 -29q0 -8 -9 -13q-38 -21 -87.5 -33t-100.5 -12q-116 0 -184 71
zM393 309q-4 57 -32 94t-77 37t-81 -33.5t-42 -97.5h232zM175.5 638q-40.5 35 -42.5 97q0 7 7 9.5t29 2.5h14q19 0 24.5 -2.5t6.5 -9.5q11 -59 68 -59q59 0 68 59q1 7 7 9.5t25 2.5h14q22 0 28.5 -2.5t6.5 -9.5q-2 -62 -42.5 -97t-106.5 -35t-106.5 35z" />
    <glyph glyph-name="ecaron" unicode="&#x11b;" horiz-adv-x="552" 
d="M108 61q-68 71 -68 195q0 82 29.5 146t84.5 100t129 36q66 0 113.5 -28t75.5 -79q36 -67 36 -162q0 -26 -3 -35t-12 -9h-332q6 -65 43 -100t104 -35q70 0 140 31l8 2q5 0 8.5 -5.5t9.5 -21.5l7 -19q8 -24 8 -29q0 -8 -9 -13q-38 -21 -87.5 -33t-100.5 -12q-116 0 -184 71
zM393 309q-4 57 -32 94t-77 37t-81 -33.5t-42 -97.5h232zM239 596q-11 3 -19 12l-92 98q-4 4 -4 8q0 5 14 21l8 8q7 7 13 12t10 5q2 0 8 -4l105 -91l106 91q6 4 8 4q4 0 10 -5t13 -12l8 -8q14 -16 14 -21q0 -4 -4 -8l-92 -98q-8 -9 -19 -12t-35 -3h-17q-24 0 -35 3z" />
    <glyph glyph-name="ecircumflex" unicode="&#xea;" horiz-adv-x="552" 
d="M108 61q-68 71 -68 195q0 82 29.5 146t84.5 100t129 36q66 0 113.5 -28t75.5 -79q36 -67 36 -162q0 -26 -3 -35t-12 -9h-332q6 -65 43 -100t104 -35q70 0 140 31l8 2q5 0 8.5 -5.5t9.5 -21.5l7 -19q8 -24 8 -29q0 -8 -9 -13q-38 -21 -87.5 -33t-100.5 -12q-116 0 -184 71
zM393 309q-4 57 -32 94t-77 37t-81 -33.5t-42 -97.5h232zM169 595q-4 0 -10 5t-13 12l-8 8q-14 16 -14 21t4 9l92 97q8 9 19 12t35 3h17q24 0 35 -3t19 -12l92 -97q4 -4 4 -9t-14 -21l-8 -8q-7 -7 -13 -12t-10 -5q-2 0 -8 4l-106 91l-105 -91q-6 -4 -8 -4z" />
    <glyph glyph-name="edieresis" unicode="&#xeb;" horiz-adv-x="552" 
d="M108 61q-68 71 -68 195q0 82 29.5 146t84.5 100t129 36q66 0 113.5 -28t75.5 -79q36 -67 36 -162q0 -26 -3 -35t-12 -9h-332q6 -65 43 -100t104 -35q70 0 140 31l8 2q5 0 8.5 -5.5t9.5 -21.5l7 -19q8 -24 8 -29q0 -8 -9 -13q-38 -21 -87.5 -33t-100.5 -12q-116 0 -184 71
zM393 309q-4 57 -32 94t-77 37t-81 -33.5t-42 -97.5h232zM129.5 627q-18.5 18 -18.5 44q0 27 18.5 45.5t46.5 18.5t46.5 -18.5t18.5 -45.5q0 -26 -18.5 -44t-46.5 -18t-46.5 18zM342.5 627q-18.5 18 -18.5 44q0 27 18.5 45.5t45.5 18.5q28 0 47 -18.5t19 -45.5
q0 -26 -19 -44t-47 -18q-27 0 -45.5 18z" />
    <glyph glyph-name="edotaccent" unicode="&#x117;" horiz-adv-x="552" 
d="M108 61q-68 71 -68 195q0 82 29.5 146t84.5 100t129 36q66 0 113.5 -28t75.5 -79q36 -67 36 -162q0 -26 -3 -35t-12 -9h-332q6 -65 43 -100t104 -35q70 0 140 31l8 2q5 0 8.5 -5.5t9.5 -21.5l7 -19q8 -24 8 -29q0 -8 -9 -13q-38 -21 -87.5 -33t-100.5 -12q-116 0 -184 71
zM393 309q-4 57 -32 94t-77 37t-81 -33.5t-42 -97.5h232zM237.5 636.5q-19.5 19.5 -19.5 45.5q0 27 19.5 46t45.5 19q27 0 46 -19t19 -46q0 -26 -19 -45.5t-46 -19.5q-26 0 -45.5 19.5z" />
    <glyph glyph-name="egrave" unicode="&#xe8;" horiz-adv-x="552" 
d="M108 61q-68 71 -68 195q0 82 29.5 146t84.5 100t129 36q66 0 113.5 -28t75.5 -79q36 -67 36 -162q0 -26 -3 -35t-12 -9h-332q6 -65 43 -100t104 -35q70 0 140 31l8 2q5 0 8.5 -5.5t9.5 -21.5l7 -19q8 -24 8 -29q0 -8 -9 -13q-38 -21 -87.5 -33t-100.5 -12q-116 0 -184 71
zM393 309q-4 57 -32 94t-77 37t-81 -33.5t-42 -97.5h232zM293.5 595q-7.5 2 -12.5 7l-117 150q-5 8 0.5 11t26.5 3h38q24 0 32.5 -2.5t12.5 -8.5l94 -149q2 -4 2 -6q0 -7 -24 -7h-28q-17 0 -24.5 2z" />
    <glyph glyph-name="emacron" unicode="&#x113;" horiz-adv-x="552" 
d="M108 61q-68 71 -68 195q0 82 29.5 146t84.5 100t129 36q66 0 113.5 -28t75.5 -79q36 -67 36 -162q0 -26 -3 -35t-12 -9h-332q6 -65 43 -100t104 -35q70 0 140 31l8 2q5 0 8.5 -5.5t9.5 -21.5l7 -19q8 -24 8 -29q0 -8 -9 -13q-38 -21 -87.5 -33t-100.5 -12q-116 0 -184 71
zM393 309q-4 57 -32 94t-77 37t-81 -33.5t-42 -97.5h232zM139 645q-2 8 -2 28v11q0 21 2 28t9 7h268q7 0 9.5 -7t2.5 -28v-11q0 -20 -2.5 -28t-9.5 -8h-268q-7 0 -9 8z" />
    <glyph glyph-name="eogonek" unicode="&#x119;" horiz-adv-x="552" 
d="M295 -207q-33 30 -33 82q0 32 15.5 62t43.5 54q-9 -1 -29 -1q-117 0 -184.5 70.5t-67.5 195.5q0 82 29.5 146t84 100t129.5 36q109 0 167 -74.5t58 -194.5q0 -26 -2 -35t-9 -9h-336q7 -66 43.5 -100.5t103.5 -34.5q70 0 140 31q8 4 13 -0.5t13 -24.5l7 -20q8 -22 8 -28
q0 -8 -9 -13q-131 -70 -131 -145q0 -23 13.5 -37t35.5 -14q17 0 42 9l4 1q4 0 7 -5t8 -19l3 -10q4 -13 4 -21q0 -7 -6 -11q-16 -9 -38.5 -14.5t-42.5 -5.5q-51 0 -84 30zM393 309q-4 57 -32 94t-77 37t-81 -33.5t-42 -97.5h232z" />
    <glyph glyph-name="f" unicode="f" horiz-adv-x="365" 
d="M112.5 2.5q-9.5 2.5 -9.5 10.5v424h-70q-7 0 -9.5 7t-2.5 35v7q0 28 2.5 35t9.5 7h70v29q0 104 48.5 160.5t145.5 56.5q58 0 103 -18q11 -3 11 -14q0 -7 -6 -27l-4 -13q-7 -24 -12 -29t-15 -3q-32 7 -58 7q-56 0 -77 -28.5t-21 -93.5v-27h117q7 0 9.5 -7t2.5 -35v-7
q0 -28 -2.5 -35t-9.5 -7h-117v-424q0 -7 -10.5 -10t-43.5 -3h-6q-36 0 -45.5 2.5z" />
    <glyph glyph-name="g" unicode="g" horiz-adv-x="574" 
d="M177 -227q-43 10 -72 27q-9 4 -9 14q0 9 10 32l6 14q9 21 15 26.5t15 1.5q58 -26 116 -26q78 0 108 51q14 24 19.5 58t5.5 79q-27 -25 -63 -38t-76 -13q-99 0 -155.5 70.5t-56.5 189.5q0 86 29.5 149t79.5 96.5t113 33.5q84 0 137 -64q2 24 5 39q2 9 9 12t33 3h8
q27 0 35 -2t10 -9q7 -34 7 -224v-235q0 -69 -12 -118t-36 -87q-28 -45 -77.5 -67.5t-116.5 -22.5q-44 0 -87 10zM345.5 112q30.5 14 45.5 36v164q0 33 -4 52t-13 33q-13 19 -36.5 29.5t-52.5 10.5q-60 0 -93 -45.5t-33 -130.5q0 -80 31.5 -121.5t93.5 -41.5q31 0 61.5 14z
" />
    <glyph glyph-name="gbreve" unicode="&#x11f;" horiz-adv-x="574" 
d="M177 -227q-43 10 -72 27q-9 4 -9 14q0 9 10 32l6 14q9 21 15 26.5t15 1.5q58 -26 116 -26q78 0 108 51q14 24 19.5 58t5.5 79q-27 -25 -63 -38t-76 -13q-99 0 -155.5 70.5t-56.5 189.5q0 86 29.5 149t79.5 96.5t113 33.5q84 0 137 -64q2 24 5 39q2 9 9 12t33 3h8
q27 0 35 -2t10 -9q7 -34 7 -224v-235q0 -69 -12 -118t-36 -87q-28 -45 -77.5 -67.5t-116.5 -22.5q-44 0 -87 10zM345.5 112q30.5 14 45.5 36v164q0 33 -4 52t-13 33q-13 19 -36.5 29.5t-52.5 10.5q-60 0 -93 -45.5t-33 -130.5q0 -80 31.5 -121.5t93.5 -41.5q31 0 61.5 14z
M179.5 638q-40.5 35 -42.5 97q0 7 7 9.5t29 2.5h14q19 0 24.5 -2.5t6.5 -9.5q11 -59 68 -59q59 0 68 59q1 7 7 9.5t25 2.5h14q22 0 28.5 -2.5t6.5 -9.5q-2 -62 -42.5 -97t-106.5 -35t-106.5 35z" />
    <glyph glyph-name="gcircumflex" unicode="&#x11d;" horiz-adv-x="574" 
d="M177 -227q-43 10 -72 27q-9 4 -9 14q0 9 10 32l6 14q9 21 15 26.5t15 1.5q58 -26 116 -26q78 0 108 51q14 24 19.5 58t5.5 79q-27 -25 -63 -38t-76 -13q-99 0 -155.5 70.5t-56.5 189.5q0 86 29.5 149t79.5 96.5t113 33.5q84 0 137 -64q2 24 5 39q2 9 9 12t33 3h8
q27 0 35 -2t10 -9q7 -34 7 -224v-235q0 -69 -12 -118t-36 -87q-28 -45 -77.5 -67.5t-116.5 -22.5q-44 0 -87 10zM345.5 112q30.5 14 45.5 36v164q0 33 -4 52t-13 33q-13 19 -36.5 29.5t-52.5 10.5q-60 0 -93 -45.5t-33 -130.5q0 -80 31.5 -121.5t93.5 -41.5q31 0 61.5 14z
M173 595q-4 0 -10 5t-13 12l-8 8q-14 16 -14 21t4 9l92 97q8 9 19 12t35 3h17q24 0 35 -3t19 -12l92 -97q4 -4 4 -9t-14 -21l-8 -8q-7 -7 -13 -12t-10 -5q-2 0 -8 4l-106 91l-105 -91q-6 -4 -8 -4z" />
    <glyph glyph-name="gcommaaccent" unicode="&#x123;" horiz-adv-x="574" 
d="M238 625.5q-17 19.5 -17 49.5q0 46 24.5 91.5t68.5 83.5q4 4 9 4q3 0 10 -5l12 -11q6 -4 6 -9q0 -3 -4 -9q-23 -27 -33.5 -50.5t-10.5 -39.5q0 -11 4 -17.5t12 -17.5q9 -11 13.5 -19t4.5 -21q0 -20 -15.5 -34.5t-39.5 -14.5q-27 0 -44 19.5zM177 -227q-43 10 -72 27
q-9 4 -9 14q0 9 10 32l6 14q9 21 15 26.5t15 1.5q58 -26 116 -26q78 0 108 51q14 24 19.5 58t5.5 79q-27 -25 -63 -38t-76 -13q-99 0 -155.5 70.5t-56.5 189.5q0 86 29.5 149t79.5 96.5t113 33.5q84 0 137 -64q2 24 5 39q2 9 9 12t33 3h8q27 0 35 -2t10 -9q7 -34 7 -224
v-235q0 -69 -12 -118t-36 -87q-28 -45 -77.5 -67.5t-116.5 -22.5q-44 0 -87 10zM345.5 112q30.5 14 45.5 36v164q0 33 -4 52t-13 33q-13 19 -36.5 29.5t-52.5 10.5q-60 0 -93 -45.5t-33 -130.5q0 -80 31.5 -121.5t93.5 -41.5q31 0 61.5 14z" />
    <glyph glyph-name="gdotaccent" unicode="&#x121;" horiz-adv-x="574" 
d="M177 -227q-43 10 -72 27q-9 4 -9 14q0 9 10 32l6 14q9 21 15 26.5t15 1.5q58 -26 116 -26q78 0 108 51q14 24 19.5 58t5.5 79q-27 -25 -63 -38t-76 -13q-99 0 -155.5 70.5t-56.5 189.5q0 86 29.5 149t79.5 96.5t113 33.5q84 0 137 -64q2 24 5 39q2 9 9 12t33 3h8
q27 0 35 -2t10 -9q7 -34 7 -224v-235q0 -69 -12 -118t-36 -87q-28 -45 -77.5 -67.5t-116.5 -22.5q-44 0 -87 10zM345.5 112q30.5 14 45.5 36v164q0 33 -4 52t-13 33q-13 19 -36.5 29.5t-52.5 10.5q-60 0 -93 -45.5t-33 -130.5q0 -80 31.5 -121.5t93.5 -41.5q31 0 61.5 14z
M241.5 636.5q-19.5 19.5 -19.5 45.5q0 27 19.5 46t45.5 19q27 0 46 -19t19 -46q0 -26 -19 -45.5t-46 -19.5q-26 0 -45.5 19.5z" />
    <glyph glyph-name="h" unicode="h" horiz-adv-x="586" 
d="M79.5 3q-9.5 3 -9.5 11v732q0 8 9.5 11t46.5 3h5q34 0 44 -3t10 -11v-268q26 28 63.5 44t83.5 16q92 0 140 -53q25 -28 36.5 -67t11.5 -97v-307q0 -8 -10 -11t-44 -3h-6q-37 0 -46 3t-9 11v267q0 58 -4.5 83.5t-19.5 41.5q-26 28 -79 28q-52 0 -86 -26q-26 -20 -29 -59
q-2 -25 -2 -113v-222q0 -8 -10 -11t-44 -3h-5q-37 0 -46.5 3z" />
    <glyph glyph-name="hbar" unicode="&#x127;" horiz-adv-x="586" 
d="M508.5 418q11.5 -39 11.5 -97v-307q0 -8 -10 -11t-44 -3h-6q-37 0 -46 3t-9 11v267q0 58 -4.5 83.5t-19.5 41.5q-26 28 -79 28q-52 0 -86 -26q-26 -20 -29 -59q-2 -25 -2 -113v-222q0 -8 -10 -11t-44 -3h-5q-37 0 -46.5 3t-9.5 11v590h-62q-7 0 -9.5 8t-2.5 34t2.5 33.5
t9.5 7.5h62v59q0 8 9.5 11t46.5 3h5q34 0 44 -3t10 -11v-59h139q7 0 9.5 -7.5t2.5 -33.5t-2.5 -34t-9.5 -8h-139v-126q26 28 63.5 44t83.5 16q92 0 140 -53q25 -28 36.5 -67z" />
    <glyph glyph-name="hcircumflex" unicode="&#x125;" horiz-adv-x="586" 
d="M79.5 3q-9.5 3 -9.5 11v732q0 8 9.5 11t46.5 3h5q34 0 44 -3t10 -11v-268q26 28 63.5 44t83.5 16q92 0 140 -53q25 -28 36.5 -67t11.5 -97v-307q0 -8 -10 -11t-44 -3h-6q-37 0 -46 3t-9 11v267q0 58 -4.5 83.5t-19.5 41.5q-26 28 -79 28q-52 0 -86 -26q-26 -20 -29 -59
q-2 -25 -2 -113v-222q0 -8 -10 -11t-44 -3h-5q-37 0 -46.5 3zM15 765q-4 0 -10 5t-13 12l-8 8q-14 16 -14 21t4 9l92 97q9 9 20 12t34 3h17q23 0 34 -3t20 -12l92 -97q4 -4 4 -9t-14 -21l-8 -8q-7 -7 -13 -12t-10 -5q-2 0 -8 4l-106 91l-105 -91q-6 -4 -8 -4z" />
    <glyph glyph-name="i" unicode="i" horiz-adv-x="260" 
d="M77.5 644q-21.5 22 -21.5 52t21.5 52t52.5 22t52.5 -22t21.5 -52t-21.5 -52t-52.5 -22t-52.5 22zM81.5 2.5q-9.5 2.5 -9.5 10.5v502q0 8 9.5 10.5t45.5 2.5h6q35 0 44.5 -2.5t9.5 -10.5v-502q0 -7 -10 -10t-44 -3h-6q-36 0 -45.5 2.5z" />
    <glyph glyph-name="dotlessi" unicode="&#x131;" horiz-adv-x="260" 
d="M81.5 2.5q-9.5 2.5 -9.5 10.5v502q0 8 9.5 10.5t45.5 2.5h6q35 0 44.5 -2.5t9.5 -10.5v-502q0 -7 -10 -10t-44 -3h-6q-36 0 -45.5 2.5z" />
    <glyph glyph-name="iacute" unicode="&#xed;" horiz-adv-x="260" 
d="M81.5 2.5q-9.5 2.5 -9.5 10.5v502q0 8 9.5 10.5t45.5 2.5h6q35 0 44.5 -2.5t9.5 -10.5v-502q0 -7 -10 -10t-44 -3h-6q-36 0 -45.5 2.5zM48 596q-5 3 -1 10l94 149q5 7 13 9t33 2h38q21 0 26 -3t0 -11l-117 -150q-5 -5 -12.5 -7t-24.5 -2h-27q-17 0 -22 3z" />
    <glyph glyph-name="iacute_j.loclNLD" horiz-adv-x="535" 
d="M81.5 2.5q-9.5 2.5 -9.5 10.5v502q0 8 9.5 10.5t45.5 2.5h6q35 0 44.5 -2.5t9.5 -10.5v-502q0 -7 -10 -10t-44 -3h-6q-36 0 -45.5 2.5zM48 596q-5 3 -1 10l94 149q5 7 13 9t33 2h38q21 0 26 -3t0 -11l-117 -150q-5 -5 -12.5 -7t-24.5 -2h-27q-17 0 -22 3zM224.5 -232
q-24.5 5 -36.5 11q-6 3 -8 6.5t-2 9.5q0 11 4 27l3 14q5 21 9 26.5t14 3.5q30 -7 53 -7q47 0 66.5 29.5t19.5 97.5v529q0 8 9.5 10.5t45.5 2.5h6q35 0 44.5 -2.5t9.5 -10.5v-514q0 -125 -48.5 -181.5t-139.5 -56.5q-25 0 -49.5 5zM322 596q-5 3 -1 10l94 149q5 7 13 9t33 2
h38q21 0 26 -3t0 -11l-117 -150q-5 -5 -12.5 -7t-24.5 -2h-27q-17 0 -22 3z" />
    <glyph glyph-name="ibreve" unicode="&#x12d;" horiz-adv-x="260" 
d="M81.5 2.5q-9.5 2.5 -9.5 10.5v502q0 8 9.5 10.5t45.5 2.5h6q35 0 44.5 -2.5t9.5 -10.5v-502q0 -7 -10 -10t-44 -3h-6q-36 0 -45.5 2.5zM22.5 638q-40.5 35 -42.5 97q0 7 7 9.5t29 2.5h14q19 0 24.5 -2.5t6.5 -9.5q11 -59 68 -59q59 0 68 59q1 7 7 9.5t25 2.5h14
q22 0 28.5 -2.5t6.5 -9.5q-2 -62 -42.5 -97t-106.5 -35t-106.5 35z" />
    <glyph glyph-name="icircumflex" unicode="&#xee;" horiz-adv-x="260" 
d="M81.5 2.5q-9.5 2.5 -9.5 10.5v502q0 8 9.5 10.5t45.5 2.5h6q35 0 44.5 -2.5t9.5 -10.5v-502q0 -7 -10 -10t-44 -3h-6q-36 0 -45.5 2.5zM16 595q-4 0 -10 5t-13 12l-8 8q-14 16 -14 21t4 9l92 97q8 9 19 12t35 3h17q24 0 35 -3t19 -12l92 -97q4 -4 4 -9t-14 -21l-8 -8
q-7 -7 -13 -12t-10 -5q-2 0 -8 4l-106 91l-105 -91q-6 -4 -8 -4z" />
    <glyph glyph-name="idieresis" unicode="&#xef;" horiz-adv-x="260" 
d="M81.5 2.5q-9.5 2.5 -9.5 10.5v502q0 8 9.5 10.5t45.5 2.5h6q35 0 44.5 -2.5t9.5 -10.5v-502q0 -7 -10 -10t-44 -3h-6q-36 0 -45.5 2.5zM-23.5 627q-18.5 18 -18.5 44q0 27 18.5 45.5t46.5 18.5t46.5 -18.5t18.5 -45.5q0 -26 -18.5 -44t-46.5 -18t-46.5 18zM189.5 627
q-18.5 18 -18.5 44q0 27 18.5 45.5t45.5 18.5q28 0 47 -18.5t19 -45.5q0 -26 -19 -44t-47 -18q-27 0 -45.5 18z" />
    <glyph glyph-name="i.loclTRK" horiz-adv-x="260" 
d="M81.5 2.5q-9.5 2.5 -9.5 10.5v502q0 8 9.5 10.5t45.5 2.5h6q35 0 44.5 -2.5t9.5 -10.5v-502q0 -7 -10 -10t-44 -3h-6q-36 0 -45.5 2.5zM84.5 636.5q-19.5 19.5 -19.5 45.5q0 27 19.5 46t45.5 19q27 0 46 -19t19 -46q0 -26 -19 -45.5t-46 -19.5q-26 0 -45.5 19.5z" />
    <glyph glyph-name="igrave" unicode="&#xec;" horiz-adv-x="260" 
d="M81.5 2.5q-9.5 2.5 -9.5 10.5v502q0 8 9.5 10.5t45.5 2.5h6q35 0 44.5 -2.5t9.5 -10.5v-502q0 -7 -10 -10t-44 -3h-6q-36 0 -45.5 2.5zM140.5 595q-7.5 2 -12.5 7l-117 150q-5 8 0.5 11t26.5 3h38q24 0 32.5 -2.5t12.5 -8.5l94 -149q2 -4 2 -6q0 -7 -24 -7h-28
q-17 0 -24.5 2z" />
    <glyph glyph-name="ij" unicode="&#x133;" horiz-adv-x="535" 
d="M77.5 644q-21.5 22 -21.5 52t21.5 52t52.5 22t52.5 -22t21.5 -52t-21.5 -52t-52.5 -22t-52.5 22zM81.5 2.5q-9.5 2.5 -9.5 10.5v502q0 8 9.5 10.5t45.5 2.5h6q35 0 44.5 -2.5t9.5 -10.5v-502q0 -7 -10 -10t-44 -3h-6q-36 0 -45.5 2.5zM352.5 644q-21.5 22 -21.5 52
t21.5 52t52.5 22t52.5 -22t21.5 -52t-21.5 -52t-52.5 -22t-52.5 22zM224.5 -232q-24.5 5 -36.5 11q-6 3 -8 6.5t-2 9.5q0 11 4 27l3 14q5 21 9 26.5t14 3.5q30 -7 53 -7q47 0 66.5 29.5t19.5 97.5v529q0 8 9.5 10.5t45.5 2.5h6q35 0 44.5 -2.5t9.5 -10.5v-514
q0 -125 -48.5 -181.5t-139.5 -56.5q-25 0 -49.5 5z" />
    <glyph glyph-name="imacron" unicode="&#x12b;" horiz-adv-x="260" 
d="M81.5 2.5q-9.5 2.5 -9.5 10.5v502q0 8 9.5 10.5t45.5 2.5h6q35 0 44.5 -2.5t9.5 -10.5v-502q0 -7 -10 -10t-44 -3h-6q-36 0 -45.5 2.5zM-14 645q-2 8 -2 28v11q0 21 2 28t9 7h268q7 0 9.5 -7t2.5 -28v-11q0 -20 -2.5 -28t-9.5 -8h-268q-7 0 -9 8z" />
    <glyph glyph-name="iogonek" unicode="&#x12f;" horiz-adv-x="260" 
d="M75.5 644.5q-21.5 21.5 -21.5 51.5t21.5 52t52.5 22t52.5 -22t21.5 -52t-21.5 -51.5t-52.5 -21.5t-52.5 21.5zM37.5 -203.5q-33.5 28.5 -33.5 78.5q0 37 18.5 69.5t49.5 56.5v514q0 8 9.5 10.5t45.5 2.5h6q35 0 44.5 -2.5t9.5 -10.5v-497q0 -9 -11 -14q-37 -17 -55 -37
q-12 -13 -20.5 -32t-8.5 -41q0 -25 12 -38t34 -13q18 0 46 10q1 1 4 1q6 0 14 -24l3 -9q5 -17 5 -22q0 -7 -7 -11q-16 -10 -38 -15t-44 -5q-50 0 -83.5 28.5z" />
    <glyph glyph-name="itilde" unicode="&#x129;" horiz-adv-x="260" 
d="M81.5 2.5q-9.5 2.5 -9.5 10.5v502q0 8 9.5 10.5t45.5 2.5h6q35 0 44.5 -2.5t9.5 -10.5v-502q0 -7 -10 -10t-44 -3h-6q-36 0 -45.5 2.5zM118 642q-16 8 -26.5 12t-21.5 4q-14 0 -28 -8t-30 -24q-5 -5 -10 -2.5t-20 17.5l-6 6q-15 15 -15 21q0 5 4 10q20 26 48 43t59 17
t71 -22q16 -8 26.5 -12t21.5 -4q14 0 28 8t30 24q4 4 10 1.5t20 -16.5l6 -6q15 -15 15 -22q0 -3 -4 -9q-21 -26 -49 -43t-58 -17q-31 0 -71 22z" />
    <glyph glyph-name="j" unicode="j" horiz-adv-x="275" 
d="M92.5 644q-21.5 22 -21.5 52t21.5 52t52.5 22t52.5 -22t21.5 -52t-21.5 -52t-52.5 -22t-52.5 22zM-35.5 -232q-24.5 5 -36.5 11q-6 3 -8 6.5t-2 9.5q0 11 4 27l3 14q5 21 9 26.5t14 3.5q30 -7 53 -7q47 0 66.5 29.5t19.5 97.5v529q0 8 9.5 10.5t45.5 2.5h6
q35 0 44.5 -2.5t9.5 -10.5v-514q0 -125 -48.5 -181.5t-139.5 -56.5q-25 0 -49.5 5z" />
    <glyph glyph-name="uni0237" unicode="&#x237;" horiz-adv-x="275" 
d="M-35.5 -232q-24.5 5 -36.5 11q-6 3 -8 6.5t-2 9.5q0 11 4 27l3 14q5 21 9 26.5t14 3.5q30 -7 53 -7q47 0 66.5 29.5t19.5 97.5v529q0 8 9.5 10.5t45.5 2.5h6q35 0 44.5 -2.5t9.5 -10.5v-514q0 -125 -48.5 -181.5t-139.5 -56.5q-25 0 -49.5 5z" />
    <glyph glyph-name="jcircumflex" unicode="&#x135;" horiz-adv-x="275" 
d="M-35.5 -232q-24.5 5 -36.5 11q-6 3 -8 6.5t-2 9.5q0 11 4 27l3 14q5 21 9 26.5t14 3.5q30 -7 53 -7q47 0 66.5 29.5t19.5 97.5v529q0 8 9.5 10.5t45.5 2.5h6q35 0 44.5 -2.5t9.5 -10.5v-514q0 -125 -48.5 -181.5t-139.5 -56.5q-25 0 -49.5 5zM30 595q-4 0 -10 5t-13 12
l-8 8q-14 16 -14 21t4 9l92 97q8 9 19 12t35 3h17q24 0 35 -3t19 -12l92 -97q4 -4 4 -9t-14 -21l-8 -8q-7 -7 -13 -12t-10 -5q-2 0 -8 4l-106 91l-105 -91q-6 -4 -8 -4z" />
    <glyph glyph-name="k" unicode="k" horiz-adv-x="514" 
d="M497 4.5q-11 -4.5 -47 -4.5h-10q-41 0 -51.5 2.5t-17.5 11.5l-146 214l-40 -29v-186q0 -8 -10 -10.5t-44 -2.5h-6q-36 0 -45.5 2.5t-9.5 10.5v734q0 8 9.5 10.5t45.5 2.5h6q34 0 44 -2.5t10 -10.5v-427q54 47 96 93.5t81 102.5q5 8 15 10t42 2h12q33 0 42 -3t4 -12
q-58 -108 -170 -214l195 -280q6 -10 -5 -14.5z" />
    <glyph glyph-name="kcommaaccent" unicode="&#x137;" horiz-adv-x="514" 
d="M497 4.5q-11 -4.5 -47 -4.5h-10q-41 0 -51.5 2.5t-17.5 11.5l-146 214l-40 -29v-186q0 -8 -10 -10.5t-44 -2.5h-6q-36 0 -45.5 2.5t-9.5 10.5v734q0 8 9.5 10.5t45.5 2.5h6q34 0 44 -2.5t10 -10.5v-427q54 47 96 93.5t81 102.5q5 8 15 10t42 2h12q33 0 42 -3t4 -12
q-58 -108 -170 -214l195 -280q6 -10 -5 -14.5zM236 -305q-5 0 -10 5l-13 11q-6 6 -6 9q0 5 4 9q23 27 33.5 50.5t10.5 39.5q0 11 -4 17.5t-12 17.5q-1 2 -6.5 9t-8 14.5t-2.5 16.5q0 20 15.5 34.5t38.5 14.5q27 0 44 -19.5t17 -49.5q0 -46 -24 -91.5t-68 -83.5q-4 -4 -9 -4z
" />
    <glyph glyph-name="kgreenlandic" unicode="&#x138;" horiz-adv-x="514" 
d="M497 4.5q-11 -4.5 -47 -4.5h-10q-41 0 -51.5 2.5t-17.5 11.5l-146 214l-40 -29v-186q0 -8 -10 -10.5t-44 -2.5h-6q-36 0 -45.5 2.5t-9.5 10.5v502q0 8 9.5 10.5t45.5 2.5h6q34 0 44 -2.5t10 -10.5v-195q54 47 96 93.5t81 102.5q5 8 15 10t42 2h12q33 0 42 -3t4 -12
q-58 -108 -170 -214l195 -280q6 -10 -5 -14.5z" />
    <glyph glyph-name="l" unicode="l" horiz-adv-x="282" 
d="M95 26q-15 16 -21 41t-6 64v348q0 171 -6 269q-1 6 2 8.5t16 3t35 0.5h6q35 0 44.5 -2.5t10.5 -9.5q7 -53 7 -291v-327q0 -23 7 -32.5t27 -9.5h15q7 0 9 -6t2 -30v-8q0 -21 -2 -28t-8 -9q-25 -10 -59 -10q-53 0 -79 29z" />
    <glyph glyph-name="lacute" unicode="&#x13a;" horiz-adv-x="282" 
d="M95 26q-15 16 -21 41t-6 64v348q0 171 -6 269q-1 6 2 8.5t16 3t35 0.5h6q35 0 44.5 -2.5t10.5 -9.5q7 -53 7 -291v-327q0 -23 7 -32.5t27 -9.5h15q7 0 9 -6t2 -30v-8q0 -21 -2 -28t-8 -9q-25 -10 -59 -10q-53 0 -79 29zM47.5 799q-5.5 3 -1.5 10l94 149q4 6 13 8.5
t33 2.5h38q21 0 26.5 -3t-0.5 -11l-117 -150q-5 -5 -12.5 -7t-24.5 -2h-27q-16 0 -21.5 3z" />
    <glyph glyph-name="lcaron" unicode="&#x13e;" horiz-adv-x="345" 
d="M95 26q-15 16 -21 41t-6 64v348q0 171 -6 269q-1 6 2 8.5t16 3t35 0.5h6q35 0 44.5 -2.5t10.5 -9.5q7 -53 7 -291v-327q0 -23 7 -32.5t27 -9.5h15q7 0 9 -6t2 -30v-8q0 -21 -2 -28t-8 -9q-25 -10 -59 -10q-53 0 -79 29zM253 482q-5 0 -10 5l-13 11q-6 6 -6 9q0 5 4 9
q23 27 33.5 50.5t10.5 39.5q0 11 -4 17.5t-12 17.5q-1 2 -6.5 9t-8 14.5t-2.5 16.5q0 20 15.5 34.5t38.5 14.5q27 0 44 -19.5t17 -49.5q0 -46 -24 -91.5t-68 -83.5q-4 -4 -9 -4z" />
    <glyph glyph-name="lcommaaccent" unicode="&#x13c;" horiz-adv-x="282" 
d="M95 26q-15 16 -21 41t-6 64v348q0 171 -6 269q-1 6 2 8.5t16 3t35 0.5h6q35 0 44.5 -2.5t10.5 -9.5q7 -53 7 -291v-327q0 -23 7 -32.5t27 -9.5h15q7 0 9 -6t2 -30v-8q0 -21 -2 -28t-8 -9q-25 -10 -59 -10q-53 0 -79 29zM106 -305q-5 0 -10 5l-13 11q-6 6 -6 9q0 5 4 9
q23 27 33.5 50.5t10.5 39.5q0 11 -4 17.5t-12 17.5q-1 2 -6.5 9t-8 14.5t-2.5 16.5q0 20 15.5 34.5t38.5 14.5q27 0 44 -19.5t17 -49.5q0 -46 -24 -91.5t-68 -83.5q-4 -4 -9 -4z" />
    <glyph glyph-name="ldot" unicode="&#x140;" horiz-adv-x="376" 
d="M95 26q-15 16 -21 41t-6 64v348q0 171 -6 269q-1 6 2 8.5t16 3t35 0.5h6q35 0 44.5 -2.5t10.5 -9.5q7 -53 7 -291v-327q0 -23 7 -32.5t27 -9.5h15q7 0 9 -6t2 -30v-8q0 -21 -2 -28t-8 -9q-25 -10 -59 -10q-53 0 -79 29zM261.5 314.5q-19.5 19.5 -19.5 45.5q0 27 19.5 46
t45.5 19q27 0 46 -19t19 -46q0 -26 -19 -45.5t-46 -19.5q-26 0 -45.5 19.5z" />
    <glyph glyph-name="lslash" unicode="&#x142;" horiz-adv-x="320" 
d="M318.5 508q3.5 -7 3.5 -33v-17q0 -25 -2.5 -34t-9.5 -14l-86 -51v-229q0 -23 7 -32.5t27 -9.5h15q7 0 9 -6t2 -30v-8q0 -21 -2 -28t-8 -9q-25 -10 -59 -10q-53 0 -79 29q-15 16 -21 41t-6 64v160l-75 -45q-9 -5 -12.5 1t-3.5 29v21q0 26 2.5 34.5t9.5 13.5l79 47v87
q0 171 -6 269q-1 6 2 8.5t16 3t35 0.5h6q35 0 44.5 -2.5t10.5 -9.5q7 -53 7 -287l82 49q9 5 12.5 -2z" />
    <glyph glyph-name="m" unicode="m" horiz-adv-x="900" 
d="M80.5 2.5q-9.5 2.5 -9.5 10.5v307q0 110 -5 193q-1 9 7.5 12t41.5 3h6q32 0 41 -2t11 -10t7 -48q26 33 64.5 51.5t84.5 18.5q52 0 93.5 -22t61.5 -62q31 41 73.5 62.5t92.5 21.5q43 0 78.5 -13.5t58.5 -39.5q25 -28 36 -66.5t11 -97.5v-308q0 -8 -10 -10.5t-43 -2.5h-6
q-37 0 -46.5 2.5t-9.5 10.5v268q0 58 -4.5 83.5t-18.5 41.5q-25 28 -75 28q-51 0 -82 -27q-24 -21 -27 -59q-2 -26 -2 -111v-224q0 -8 -10 -10.5t-43 -2.5h-6q-37 0 -46.5 2.5t-9.5 10.5v268q0 58 -4.5 83.5t-18.5 41.5q-25 28 -75 28q-51 0 -82 -27q-24 -21 -27 -59
q-2 -26 -2 -111v-224q0 -8 -10 -10.5t-44 -2.5h-5q-37 0 -46.5 2.5z" />
    <glyph glyph-name="n" unicode="n" horiz-adv-x="587" 
d="M80.5 3q-9.5 3 -9.5 11v306q0 108 -5 193q-1 9 8 12t42 3h5q31 0 41 -2.5t11 -9.5q4 -24 5 -47q26 32 66 50.5t89 18.5q92 0 140 -53q25 -28 36.5 -67t11.5 -97v-307q0 -8 -10 -11t-44 -3h-6q-37 0 -46 3t-9 11v267q0 58 -4.5 83.5t-19.5 41.5q-26 28 -79 28
q-52 0 -86 -26q-26 -20 -29 -59q-2 -25 -2 -113v-222q0 -8 -10 -11t-44 -3h-5q-37 0 -46.5 3z" />
    <glyph glyph-name="nacute" unicode="&#x144;" horiz-adv-x="587" 
d="M80.5 3q-9.5 3 -9.5 11v306q0 108 -5 193q-1 9 8 12t42 3h5q31 0 41 -2.5t11 -9.5q4 -24 5 -47q26 32 66 50.5t89 18.5q92 0 140 -53q25 -28 36.5 -67t11.5 -97v-307q0 -8 -10 -11t-44 -3h-6q-37 0 -46 3t-9 11v267q0 58 -4.5 83.5t-19.5 41.5q-26 28 -79 28
q-52 0 -86 -26q-26 -20 -29 -59q-2 -25 -2 -113v-222q0 -8 -10 -11t-44 -3h-5q-37 0 -46.5 3zM234 596q-5 3 -1 10l94 149q5 7 13 9t33 2h38q21 0 26 -3t0 -11l-117 -150q-5 -5 -12.5 -7t-24.5 -2h-27q-17 0 -22 3z" />
    <glyph glyph-name="nacute.loclPLK" horiz-adv-x="587" 
d="M80.5 3q-9.5 3 -9.5 11v306q0 108 -5 193q-1 9 8 12t42 3h5q31 0 41 -2.5t11 -9.5q4 -24 5 -47q26 32 66 50.5t89 18.5q92 0 140 -53q25 -28 36.5 -67t11.5 -97v-307q0 -8 -10 -11t-44 -3h-6q-37 0 -46 3t-9 11v267q0 58 -4.5 83.5t-19.5 41.5q-26 28 -79 28
q-52 0 -86 -26q-26 -20 -29 -59q-2 -25 -2 -113v-222q0 -8 -10 -11t-44 -3h-5q-37 0 -46.5 3zM272 596q-6 3 -4 10l42 148q2 8 9.5 10t31.5 2h29q23 0 29.5 -3t2.5 -11l-64 -149q-3 -7 -9 -8.5t-25 -1.5h-19q-17 0 -23 3z" />
    <glyph glyph-name="napostrophe" unicode="&#x149;" horiz-adv-x="695" 
d="M188.5 3q-9.5 3 -9.5 11v306q0 108 -5 193q-1 9 8 12t42 3h5q31 0 41 -2.5t11 -9.5q4 -24 5 -47q26 32 66 50.5t89 18.5q92 0 140 -53q25 -28 36.5 -67t11.5 -97v-307q0 -8 -10 -11t-44 -3h-6q-37 0 -46 3t-9 11v267q0 58 -4.5 83.5t-19.5 41.5q-26 28 -79 28
q-52 0 -86 -26q-26 -20 -29 -59q-2 -25 -2 -113v-222q0 -8 -10 -11t-44 -3h-5q-37 0 -46.5 3zM27 406q-7 0 -14 7l-14 13q-8 7 -8 12q0 6 5 11q29 35 43 65t14 53q0 16 -5.5 26t-16.5 23q-11 12 -17 23t-6 26q0 26 20 45.5t49 19.5q36 0 58.5 -25t22.5 -65q0 -60 -32 -119.5
t-88 -109.5q-5 -5 -11 -5z" />
    <glyph glyph-name="ncaron" unicode="&#x148;" horiz-adv-x="587" 
d="M80.5 3q-9.5 3 -9.5 11v306q0 108 -5 193q-1 9 8 12t42 3h5q31 0 41 -2.5t11 -9.5q4 -24 5 -47q26 32 66 50.5t89 18.5q92 0 140 -53q25 -28 36.5 -67t11.5 -97v-307q0 -8 -10 -11t-44 -3h-6q-37 0 -46 3t-9 11v267q0 58 -4.5 83.5t-19.5 41.5q-26 28 -79 28
q-52 0 -86 -26q-26 -20 -29 -59q-2 -25 -2 -113v-222q0 -8 -10 -11t-44 -3h-5q-37 0 -46.5 3zM272 596q-11 3 -19 12l-92 98q-4 4 -4 8q0 5 14 21l8 8q7 7 13 12t10 5q2 0 8 -4l105 -91l106 91q6 4 8 4q4 0 10 -5t13 -12l8 -8q14 -16 14 -21q0 -4 -4 -8l-92 -98
q-8 -9 -19 -12t-35 -3h-17q-24 0 -35 3z" />
    <glyph glyph-name="ncommaaccent" unicode="&#x146;" horiz-adv-x="587" 
d="M80.5 3q-9.5 3 -9.5 11v306q0 108 -5 193q-1 9 8 12t42 3h5q31 0 41 -2.5t11 -9.5q4 -24 5 -47q26 32 66 50.5t89 18.5q92 0 140 -53q25 -28 36.5 -67t11.5 -97v-307q0 -8 -10 -11t-44 -3h-6q-37 0 -46 3t-9 11v267q0 58 -4.5 83.5t-19.5 41.5q-26 28 -79 28
q-52 0 -86 -26q-26 -20 -29 -59q-2 -25 -2 -113v-222q0 -8 -10 -11t-44 -3h-5q-37 0 -46.5 3zM257 -305q-5 0 -10 5l-13 11q-6 6 -6 9q0 5 4 9q23 27 33.5 50.5t10.5 39.5q0 11 -4 17.5t-12 17.5q-1 2 -6.5 9t-8 14.5t-2.5 16.5q0 20 15.5 34.5t38.5 14.5q27 0 44 -19.5
t17 -49.5q0 -46 -24 -91.5t-68 -83.5q-4 -4 -9 -4z" />
    <glyph glyph-name="eng" unicode="&#x14b;" horiz-adv-x="587" 
d="M283.5 -182q-24.5 5 -36.5 11q-6 3 -8 6.5t-2 9.5q0 11 4 27l3 14q5 21 9 26.5t14 3.5q30 -7 53 -7q47 0 66.5 29.5t19.5 97.5v245q0 58 -4.5 83.5t-19.5 41.5q-26 28 -79 28q-52 0 -86 -26q-26 -20 -29 -59q-2 -25 -2 -113v-222q0 -8 -10 -11t-44 -3h-5q-37 0 -46.5 3
t-9.5 11v306q0 108 -5 193q-1 9 8 12t42 3h5q31 0 41 -2.5t11 -9.5q4 -24 5 -47q26 32 66 50.5t89 18.5q92 0 140 -53q25 -28 36.5 -67t11.5 -97v-270q0 -125 -48.5 -181.5t-139.5 -56.5q-25 0 -49.5 5z" />
    <glyph glyph-name="ntilde" unicode="&#xf1;" horiz-adv-x="587" 
d="M80.5 3q-9.5 3 -9.5 11v306q0 108 -5 193q-1 9 8 12t42 3h5q31 0 41 -2.5t11 -9.5q4 -24 5 -47q26 32 66 50.5t89 18.5q92 0 140 -53q25 -28 36.5 -67t11.5 -97v-307q0 -8 -10 -11t-44 -3h-6q-37 0 -46 3t-9 11v267q0 58 -4.5 83.5t-19.5 41.5q-26 28 -79 28
q-52 0 -86 -26q-26 -20 -29 -59q-2 -25 -2 -113v-222q0 -8 -10 -11t-44 -3h-5q-37 0 -46.5 3zM304 642q-16 8 -26.5 12t-21.5 4q-14 0 -28 -8t-30 -24q-5 -5 -10 -2.5t-20 17.5l-6 6q-15 15 -15 21q0 5 4 10q20 26 48 43t59 17t71 -22q16 -8 26.5 -12t21.5 -4q14 0 28 8
t30 24q4 4 10 1.5t20 -16.5l6 -6q15 -15 15 -22q0 -3 -4 -9q-21 -26 -49 -43t-58 -17q-31 0 -71 22z" />
    <glyph glyph-name="o" unicode="o" horiz-adv-x="569" 
d="M101.5 59q-61.5 69 -61.5 194q0 138 66 211.5t188 73.5q112 0 173.5 -69t61.5 -194q0 -138 -66 -211.5t-187 -73.5q-113 0 -174.5 69zM375.5 135.5q34.5 45.5 34.5 132.5q0 79 -29 124.5t-91 45.5q-63 0 -97 -45.5t-34 -132.5q0 -79 28.5 -124.5t90.5 -45.5
q63 0 97.5 45.5z" />
    <glyph glyph-name="oacute" unicode="&#xf3;" horiz-adv-x="569" 
d="M101.5 59q-61.5 69 -61.5 194q0 138 66 211.5t188 73.5q112 0 173.5 -69t61.5 -194q0 -138 -66 -211.5t-187 -73.5q-113 0 -174.5 69zM375.5 135.5q34.5 45.5 34.5 132.5q0 79 -29 124.5t-91 45.5q-63 0 -97 -45.5t-34 -132.5q0 -79 28.5 -124.5t90.5 -45.5
q63 0 97.5 45.5zM203 596q-5 3 -1 10l94 149q5 7 13 9t33 2h38q21 0 26 -3t0 -11l-117 -150q-5 -5 -12.5 -7t-24.5 -2h-27q-17 0 -22 3z" />
    <glyph glyph-name="oacute.loclPLK" horiz-adv-x="569" 
d="M101.5 59q-61.5 69 -61.5 194q0 138 66 211.5t188 73.5q112 0 173.5 -69t61.5 -194q0 -138 -66 -211.5t-187 -73.5q-113 0 -174.5 69zM375.5 135.5q34.5 45.5 34.5 132.5q0 79 -29 124.5t-91 45.5q-63 0 -97 -45.5t-34 -132.5q0 -79 28.5 -124.5t90.5 -45.5
q63 0 97.5 45.5zM241 596q-6 3 -4 10l42 148q2 8 9.5 10t31.5 2h29q23 0 29.5 -3t2.5 -11l-64 -149q-3 -7 -9 -8.5t-25 -1.5h-19q-17 0 -23 3z" />
    <glyph glyph-name="obreve" unicode="&#x14f;" horiz-adv-x="569" 
d="M101.5 59q-61.5 69 -61.5 194q0 138 66 211.5t188 73.5q112 0 173.5 -69t61.5 -194q0 -138 -66 -211.5t-187 -73.5q-113 0 -174.5 69zM375.5 135.5q34.5 45.5 34.5 132.5q0 79 -29 124.5t-91 45.5q-63 0 -97 -45.5t-34 -132.5q0 -79 28.5 -124.5t90.5 -45.5
q63 0 97.5 45.5zM177.5 638q-40.5 35 -42.5 97q0 7 7 9.5t29 2.5h14q19 0 24.5 -2.5t6.5 -9.5q11 -59 68 -59q59 0 68 59q1 7 7 9.5t25 2.5h14q22 0 28.5 -2.5t6.5 -9.5q-2 -62 -42.5 -97t-106.5 -35t-106.5 35z" />
    <glyph glyph-name="ocircumflex" unicode="&#xf4;" horiz-adv-x="569" 
d="M101.5 59q-61.5 69 -61.5 194q0 138 66 211.5t188 73.5q112 0 173.5 -69t61.5 -194q0 -138 -66 -211.5t-187 -73.5q-113 0 -174.5 69zM375.5 135.5q34.5 45.5 34.5 132.5q0 79 -29 124.5t-91 45.5q-63 0 -97 -45.5t-34 -132.5q0 -79 28.5 -124.5t90.5 -45.5
q63 0 97.5 45.5zM171 595q-4 0 -10 5t-13 12l-8 8q-14 16 -14 21t4 9l92 97q8 9 19 12t35 3h17q24 0 35 -3t19 -12l92 -97q4 -4 4 -9t-14 -21l-8 -8q-7 -7 -13 -12t-10 -5q-2 0 -8 4l-106 91l-105 -91q-6 -4 -8 -4z" />
    <glyph glyph-name="odieresis" unicode="&#xf6;" horiz-adv-x="569" 
d="M101.5 59q-61.5 69 -61.5 194q0 138 66 211.5t188 73.5q112 0 173.5 -69t61.5 -194q0 -138 -66 -211.5t-187 -73.5q-113 0 -174.5 69zM375.5 135.5q34.5 45.5 34.5 132.5q0 79 -29 124.5t-91 45.5q-63 0 -97 -45.5t-34 -132.5q0 -79 28.5 -124.5t90.5 -45.5
q63 0 97.5 45.5zM131.5 627q-18.5 18 -18.5 44q0 27 18.5 45.5t46.5 18.5t46.5 -18.5t18.5 -45.5q0 -26 -18.5 -44t-46.5 -18t-46.5 18zM344.5 627q-18.5 18 -18.5 44q0 27 18.5 45.5t45.5 18.5q28 0 47 -18.5t19 -45.5q0 -26 -19 -44t-47 -18q-27 0 -45.5 18z" />
    <glyph glyph-name="ograve" unicode="&#xf2;" horiz-adv-x="569" 
d="M101.5 59q-61.5 69 -61.5 194q0 138 66 211.5t188 73.5q112 0 173.5 -69t61.5 -194q0 -138 -66 -211.5t-187 -73.5q-113 0 -174.5 69zM375.5 135.5q34.5 45.5 34.5 132.5q0 79 -29 124.5t-91 45.5q-63 0 -97 -45.5t-34 -132.5q0 -79 28.5 -124.5t90.5 -45.5
q63 0 97.5 45.5zM295.5 595q-7.5 2 -12.5 7l-117 150q-5 8 0.5 11t26.5 3h38q24 0 32.5 -2.5t12.5 -8.5l94 -149q2 -4 2 -6q0 -7 -24 -7h-28q-17 0 -24.5 2z" />
    <glyph glyph-name="ohungarumlaut" unicode="&#x151;" horiz-adv-x="569" 
d="M101.5 59q-61.5 69 -61.5 194q0 138 66 211.5t188 73.5q112 0 173.5 -69t61.5 -194q0 -138 -66 -211.5t-187 -73.5q-113 0 -174.5 69zM375.5 135.5q34.5 45.5 34.5 132.5q0 79 -29 124.5t-91 45.5q-63 0 -97 -45.5t-34 -132.5q0 -79 28.5 -124.5t90.5 -45.5
q63 0 97.5 45.5zM117 600.5q-5 2.5 -1 9.5l84 145q4 6 12.5 8.5t31.5 2.5h35q21 0 26 -2.5t0 -10.5l-108 -146q-5 -5 -12 -7t-23 -2h-24q-16 0 -21 2.5zM304 600.5q-5 2.5 -1 9.5l84 145q4 6 12.5 8.5t31.5 2.5h35q20 0 25.5 -3t0.5 -10l-108 -146q-5 -5 -12 -7t-23 -2h-24
q-16 0 -21 2.5z" />
    <glyph glyph-name="omacron" unicode="&#x14d;" horiz-adv-x="569" 
d="M101.5 59q-61.5 69 -61.5 194q0 138 66 211.5t188 73.5q112 0 173.5 -69t61.5 -194q0 -138 -66 -211.5t-187 -73.5q-113 0 -174.5 69zM375.5 135.5q34.5 45.5 34.5 132.5q0 79 -29 124.5t-91 45.5q-63 0 -97 -45.5t-34 -132.5q0 -79 28.5 -124.5t90.5 -45.5
q63 0 97.5 45.5zM141 645q-2 8 -2 28v11q0 21 2 28t9 7h268q7 0 9.5 -7t2.5 -28v-11q0 -20 -2.5 -28t-9.5 -8h-268q-7 0 -9 8z" />
    <glyph glyph-name="oslash" unicode="&#xf8;" horiz-adv-x="569" 
d="M529 275q0 -138 -66 -211.5t-187 -73.5q-47 0 -89 13l-32 -54q-4 -9 -11 -9t-32 13l-11 5q-16 8 -22.5 13.5t-6.5 10.5q0 3 3 8l35 60q-70 68 -70 203q0 138 66 211.5t188 73.5q52 0 94 -15l33 56q6 9 12 9q7 0 31 -12l11 -6q17 -8 23.5 -13.5t6.5 -10.5q0 -3 -3 -8
l-38 -65q65 -70 65 -198zM175 160l159 271q-23 7 -44 7q-63 0 -97 -45.5t-34 -132.5q0 -59 16 -100zM375.5 135.5q34.5 45.5 34.5 132.5q0 54 -13 92l-156 -265q18 -5 37 -5q63 0 97.5 45.5z" />
    <glyph glyph-name="oslashacute" unicode="&#x1ff;" horiz-adv-x="569" 
d="M529 275q0 -138 -66 -211.5t-187 -73.5q-47 0 -89 13l-32 -54q-4 -9 -11 -9t-32 13l-11 5q-16 8 -22.5 13.5t-6.5 10.5q0 3 3 8l35 60q-70 68 -70 203q0 138 66 211.5t188 73.5q52 0 94 -15l33 56q6 9 12 9q7 0 31 -12l11 -6q17 -8 23.5 -13.5t6.5 -10.5q0 -3 -3 -8
l-38 -65q65 -70 65 -198zM175 160l159 271q-23 7 -44 7q-63 0 -97 -45.5t-34 -132.5q0 -59 16 -100zM375.5 135.5q34.5 45.5 34.5 132.5q0 54 -13 92l-156 -265q18 -5 37 -5q63 0 97.5 45.5zM211 596q-5 3 -1 10l94 149q5 7 13 9t33 2h38q21 0 26 -3t0 -11l-117 -150
q-5 -5 -12.5 -7t-24.5 -2h-27q-17 0 -22 3z" />
    <glyph glyph-name="otilde" unicode="&#xf5;" horiz-adv-x="569" 
d="M101.5 59q-61.5 69 -61.5 194q0 138 66 211.5t188 73.5q112 0 173.5 -69t61.5 -194q0 -138 -66 -211.5t-187 -73.5q-113 0 -174.5 69zM375.5 135.5q34.5 45.5 34.5 132.5q0 79 -29 124.5t-91 45.5q-63 0 -97 -45.5t-34 -132.5q0 -79 28.5 -124.5t90.5 -45.5
q63 0 97.5 45.5zM273 642q-16 8 -26.5 12t-21.5 4q-14 0 -28 -8t-30 -24q-5 -5 -10 -2.5t-20 17.5l-6 6q-15 15 -15 21q0 5 4 10q20 26 48 43t59 17t71 -22q16 -8 26.5 -12t21.5 -4q14 0 28 8t30 24q4 4 10 1.5t20 -16.5l6 -6q15 -15 15 -22q0 -3 -4 -9q-21 -26 -49 -43
t-58 -17q-31 0 -71 22z" />
    <glyph glyph-name="oe" unicode="&#x153;" horiz-adv-x="922" 
d="M101.5 59q-61.5 69 -61.5 194q0 138 66 211.5t188 73.5q60 0 106 -20t76 -59q32 38 77 58.5t100 20.5q66 0 113.5 -28t75.5 -79q36 -67 36 -162q0 -26 -3 -35t-12 -9h-332q6 -65 43 -100t104 -35q70 0 140 31l8 2q5 0 8.5 -5.5t9.5 -21.5l7 -19q8 -24 8 -29q0 -8 -9 -13
q-38 -21 -87.5 -33t-100.5 -12q-126 0 -193 81q-66 -81 -193 -81q-113 0 -174.5 69zM763 309q-4 57 -32 94t-77 37t-81 -33.5t-42 -97.5h232zM375.5 135.5q34.5 45.5 34.5 132.5q0 79 -29 124.5t-91 45.5q-63 0 -97 -45.5t-34 -132.5q0 -79 28.5 -124.5t90.5 -45.5
q63 0 97.5 45.5z" />
    <glyph glyph-name="p" unicode="p" horiz-adv-x="574" 
d="M90.5 -225q-13.5 1 -16.5 3.5t-3 8.5v515q0 69 -5 211q-1 9 8 12t42 3h6q31 0 40.5 -2t10.5 -10q4 -22 5 -43q26 31 64 48t83 17q96 0 152.5 -70.5t56.5 -194.5q0 -84 -27.5 -148t-78.5 -99.5t-119 -35.5q-36 0 -68.5 11.5t-54.5 30.5v-245q0 -8 -10 -10.5t-44 -2.5h-6
q-22 0 -35.5 1zM383 137q32 48 32 135q0 166 -122 166q-28 0 -51.5 -9t-35.5 -23q-11 -12 -15.5 -31.5t-4.5 -57.5v-185q20 -20 47 -31.5t56 -11.5q62 0 94 48z" />
    <glyph glyph-name="thorn" unicode="&#xfe;" horiz-adv-x="573" 
d="M89.5 -225q-13.5 1 -16.5 3.5t-3 8.5v959q0 8 9.5 11t46.5 3h5q34 0 44 -3t10 -11v-264q26 27 62 41.5t77 14.5q96 0 152.5 -70.5t56.5 -194.5q0 -84 -27.5 -148t-78.5 -99.5t-119 -35.5q-36 0 -68.5 11.5t-54.5 30.5v-245q0 -8 -10 -10.5t-44 -2.5h-6q-22 0 -35.5 1z
M382 137q32 48 32 135q0 166 -122 166q-28 0 -51.5 -9t-35.5 -23q-11 -12 -15.5 -31.5t-4.5 -57.5v-185q20 -20 47 -31.5t56 -11.5q62 0 94 48z" />
    <glyph glyph-name="q" unicode="q" horiz-adv-x="572" 
d="M413 -223.5q-9 2.5 -11 10.5q-6 37 -10.5 103t-4.5 146v13q-51 -59 -136 -59q-99 0 -155 71.5t-56 192.5q0 86 33 150t95 99t146 35q46 0 94 -12t80 -29q8 -5 11 -9.5t3 -14.5v-408q0 -77 4.5 -153t10.5 -125q1 -8 -7.5 -10.5t-44.5 -2.5h-8q-35 0 -44 2.5zM327 98
q24 9 38 23q13 13 17.5 35.5t4.5 65.5v206q-37 13 -77 13q-74 0 -112.5 -52t-38.5 -133q0 -78 29 -122.5t88 -44.5q27 0 51 9z" />
    <glyph glyph-name="r" unicode="r" horiz-adv-x="380" 
d="M90.5 1q-13.5 1 -16.5 3.5t-3 8.5v298q0 112 -5 202q-1 9 8 12t42 3h6q31 0 40.5 -2t10.5 -9q7 -60 9 -107q23 62 59 94.5t82 32.5q16 0 27 -4q7 -3 8.5 -9.5t1.5 -31.5v-12q0 -30 -3 -38t-11 -9q-76 -6 -119 -66q-23 -32 -32 -83t-9 -137v-134q0 -8 -9.5 -10.5
t-44.5 -2.5h-5q-23 0 -36.5 1z" />
    <glyph glyph-name="racute" unicode="&#x155;" horiz-adv-x="380" 
d="M90.5 1q-13.5 1 -16.5 3.5t-3 8.5v298q0 112 -5 202q-1 9 8 12t42 3h6q31 0 40.5 -2t10.5 -9q7 -60 9 -107q23 62 59 94.5t82 32.5q16 0 27 -4q7 -3 8.5 -9.5t1.5 -31.5v-12q0 -30 -3 -38t-11 -9q-76 -6 -119 -66q-23 -32 -32 -83t-9 -137v-134q0 -8 -9.5 -10.5
t-44.5 -2.5h-5q-23 0 -36.5 1zM142 596q-5 3 -1 10l94 149q5 7 13 9t33 2h38q21 0 26 -3t0 -11l-117 -150q-5 -5 -12.5 -7t-24.5 -2h-27q-17 0 -22 3z" />
    <glyph glyph-name="rcaron" unicode="&#x159;" horiz-adv-x="380" 
d="M90.5 1q-13.5 1 -16.5 3.5t-3 8.5v298q0 112 -5 202q-1 9 8 12t42 3h6q31 0 40.5 -2t10.5 -9q7 -60 9 -107q23 62 59 94.5t82 32.5q16 0 27 -4q7 -3 8.5 -9.5t1.5 -31.5v-12q0 -30 -3 -38t-11 -9q-76 -6 -119 -66q-23 -32 -32 -83t-9 -137v-134q0 -8 -9.5 -10.5
t-44.5 -2.5h-5q-23 0 -36.5 1zM180 596q-11 3 -19 12l-92 98q-4 4 -4 8q0 5 14 21l8 8q7 7 13 12t10 5q2 0 8 -4l105 -91l106 91q6 4 8 4q4 0 10 -5t13 -12l8 -8q14 -16 14 -21q0 -4 -4 -8l-92 -98q-8 -9 -19 -12t-35 -3h-17q-24 0 -35 3z" />
    <glyph glyph-name="rcommaaccent" unicode="&#x157;" horiz-adv-x="380" 
d="M90.5 1q-13.5 1 -16.5 3.5t-3 8.5v298q0 112 -5 202q-1 9 8 12t42 3h6q31 0 40.5 -2t10.5 -9q7 -60 9 -107q23 62 59 94.5t82 32.5q16 0 27 -4q7 -3 8.5 -9.5t1.5 -31.5v-12q0 -30 -3 -38t-11 -9q-76 -6 -119 -66q-23 -32 -32 -83t-9 -137v-134q0 -8 -9.5 -10.5
t-44.5 -2.5h-5q-23 0 -36.5 1zM86 -305q-5 0 -10 5l-13 11q-6 6 -6 9q0 5 4 9q23 27 33.5 50.5t10.5 39.5q0 11 -4 17.5t-12 17.5q-1 2 -6.5 9t-8 14.5t-2.5 16.5q0 20 15.5 34.5t38.5 14.5q27 0 44 -19.5t17 -49.5q0 -46 -24 -91.5t-68 -83.5q-4 -4 -9 -4z" />
    <glyph glyph-name="s" unicode="s" horiz-adv-x="469" 
d="M126 5q-47 15 -79 38q-7 5 -7 11q0 7 12 31l7 14q8 16 13 22.5t11 6.5q2 0 8 -2q75 -42 139 -42q41 0 65 16.5t24 45.5q0 28 -25 42t-93 32q-77 22 -112.5 57t-35.5 98q0 76 54 119.5t143 43.5q46 0 88.5 -13t75.5 -38q6 -4 6 -10q0 -7 -16 -32l-7 -11q-13 -21 -19 -25
t-13 1q-54 35 -111 35q-43 0 -66 -15t-23 -44q0 -20 13.5 -32.5t33.5 -19.5t61 -19q82 -24 119.5 -56.5t37.5 -97.5q0 -80 -56 -125.5t-147 -45.5q-54 0 -101 15z" />
    <glyph glyph-name="sacute" unicode="&#x15b;" horiz-adv-x="469" 
d="M126 5q-47 15 -79 38q-7 5 -7 11q0 7 12 31l7 14q8 16 13 22.5t11 6.5q2 0 8 -2q75 -42 139 -42q41 0 65 16.5t24 45.5q0 28 -25 42t-93 32q-77 22 -112.5 57t-35.5 98q0 76 54 119.5t143 43.5q46 0 88.5 -13t75.5 -38q6 -4 6 -10q0 -7 -16 -32l-7 -11q-13 -21 -19 -25
t-13 1q-54 35 -111 35q-43 0 -66 -15t-23 -44q0 -20 13.5 -32.5t33.5 -19.5t61 -19q82 -24 119.5 -56.5t37.5 -97.5q0 -80 -56 -125.5t-147 -45.5q-54 0 -101 15zM167 596q-5 3 -1 10l94 149q5 7 13 9t33 2h38q21 0 26 -3t0 -11l-117 -150q-5 -5 -12.5 -7t-24.5 -2h-27
q-17 0 -22 3z" />
    <glyph glyph-name="sacute.loclPLK" horiz-adv-x="469" 
d="M126 5q-47 15 -79 38q-7 5 -7 11q0 7 12 31l7 14q8 16 13 22.5t11 6.5q2 0 8 -2q75 -42 139 -42q41 0 65 16.5t24 45.5q0 28 -25 42t-93 32q-77 22 -112.5 57t-35.5 98q0 76 54 119.5t143 43.5q46 0 88.5 -13t75.5 -38q6 -4 6 -10q0 -7 -16 -32l-7 -11q-13 -21 -19 -25
t-13 1q-54 35 -111 35q-43 0 -66 -15t-23 -44q0 -20 13.5 -32.5t33.5 -19.5t61 -19q82 -24 119.5 -56.5t37.5 -97.5q0 -80 -56 -125.5t-147 -45.5q-54 0 -101 15zM205 596q-6 3 -4 10l42 148q2 8 9.5 10t31.5 2h29q23 0 29.5 -3t2.5 -11l-64 -149q-3 -7 -9 -8.5t-25 -1.5
h-19q-17 0 -23 3z" />
    <glyph glyph-name="scaron" unicode="&#x161;" horiz-adv-x="469" 
d="M126 5q-47 15 -79 38q-7 5 -7 11q0 7 12 31l7 14q8 16 13 22.5t11 6.5q2 0 8 -2q75 -42 139 -42q41 0 65 16.5t24 45.5q0 28 -25 42t-93 32q-77 22 -112.5 57t-35.5 98q0 76 54 119.5t143 43.5q46 0 88.5 -13t75.5 -38q6 -4 6 -10q0 -7 -16 -32l-7 -11q-13 -21 -19 -25
t-13 1q-54 35 -111 35q-43 0 -66 -15t-23 -44q0 -20 13.5 -32.5t33.5 -19.5t61 -19q82 -24 119.5 -56.5t37.5 -97.5q0 -80 -56 -125.5t-147 -45.5q-54 0 -101 15zM205 596q-11 3 -19 12l-92 98q-4 4 -4 8q0 5 14 21l8 8q7 7 13 12t10 5q2 0 8 -4l105 -91l106 91q6 4 8 4
q4 0 10 -5t13 -12l8 -8q14 -16 14 -21q0 -4 -4 -8l-92 -98q-8 -9 -19 -12t-35 -3h-17q-24 0 -35 3z" />
    <glyph glyph-name="scedilla" unicode="&#x15f;" horiz-adv-x="469" 
d="M383.5 44q-46.5 -44 -124.5 -52l-4 -40q7 1 17 1q39 0 65.5 -24t26.5 -64q0 -43 -31 -72.5t-91 -29.5q-43 0 -76 13q-9 3 -9 10q0 5 5 20l3 10q4 15 7.5 19t11.5 2q30 -6 49 -6q46 0 46 34q0 33 -50 33q-27 0 -58 -6l14 101q-82 10 -138 50q-7 5 -7 11q0 7 12 31l7 14
q8 16 13 22.5t11 6.5q2 0 8 -2q75 -42 139 -42q41 0 65 16.5t24 45.5q0 28 -25 42t-93 32q-77 22 -112.5 57t-35.5 98q0 76 54 119.5t143 43.5q46 0 88.5 -13t75.5 -38q6 -4 6 -10q0 -7 -16 -32l-7 -11q-13 -21 -19 -25t-13 1q-54 35 -111 35q-43 0 -66 -15t-23 -44
q0 -20 13.5 -32.5t33.5 -19.5t61 -19q82 -24 119.5 -56.5t37.5 -97.5q0 -73 -46.5 -117z" />
    <glyph glyph-name="scircumflex" unicode="&#x15d;" horiz-adv-x="469" 
d="M126 5q-47 15 -79 38q-7 5 -7 11q0 7 12 31l7 14q8 16 13 22.5t11 6.5q2 0 8 -2q75 -42 139 -42q41 0 65 16.5t24 45.5q0 28 -25 42t-93 32q-77 22 -112.5 57t-35.5 98q0 76 54 119.5t143 43.5q46 0 88.5 -13t75.5 -38q6 -4 6 -10q0 -7 -16 -32l-7 -11q-13 -21 -19 -25
t-13 1q-54 35 -111 35q-43 0 -66 -15t-23 -44q0 -20 13.5 -32.5t33.5 -19.5t61 -19q82 -24 119.5 -56.5t37.5 -97.5q0 -80 -56 -125.5t-147 -45.5q-54 0 -101 15zM135 595q-4 0 -10 5t-13 12l-8 8q-14 16 -14 21t4 9l92 97q8 9 19 12t35 3h17q24 0 35 -3t19 -12l92 -97
q4 -4 4 -9t-14 -21l-8 -8q-7 -7 -13 -12t-10 -5q-2 0 -8 4l-106 91l-105 -91q-6 -4 -8 -4z" />
    <glyph glyph-name="scommaaccent" unicode="&#x219;" horiz-adv-x="469" 
d="M126 5q-47 15 -79 38q-7 5 -7 11q0 7 12 31l7 14q8 16 13 22.5t11 6.5q2 0 8 -2q75 -42 139 -42q41 0 65 16.5t24 45.5q0 28 -25 42t-93 32q-77 22 -112.5 57t-35.5 98q0 76 54 119.5t143 43.5q46 0 88.5 -13t75.5 -38q6 -4 6 -10q0 -7 -16 -32l-7 -11q-13 -21 -19 -25
t-13 1q-54 35 -111 35q-43 0 -66 -15t-23 -44q0 -20 13.5 -32.5t33.5 -19.5t61 -19q82 -24 119.5 -56.5t37.5 -97.5q0 -80 -56 -125.5t-147 -45.5q-54 0 -101 15zM188 -305q-5 0 -10 5l-13 11q-6 6 -6 9q0 5 4 9q23 27 33.5 50.5t10.5 39.5q0 11 -4 17.5t-12 17.5
q-1 2 -6.5 9t-8 14.5t-2.5 16.5q0 20 15.5 34.5t38.5 14.5q27 0 44 -19.5t17 -49.5q0 -46 -24 -91.5t-68 -83.5q-4 -4 -9 -4z" />
    <glyph glyph-name="germandbls" unicode="&#xdf;" horiz-adv-x="663" 
d="M330.5 4q-43.5 14 -75.5 39q-4 3 -4 8q0 11 12 32l7 13q9 17 14.5 23.5t9.5 6.5q5 0 9 -3q62 -38 120 -38q45 0 69 17t24 48q0 21 -13.5 35t-30 21.5t-62.5 25.5q-59 23 -91.5 55t-32.5 87q0 42 19.5 69.5t60.5 64.5q27 24 41 44t14 46q0 36 -28.5 57.5t-77.5 21.5
q-61 0 -94 -39q-36 -43 -36 -133v-492q0 -7 -10 -10t-44 -3h-6q-36 0 -45.5 2.5t-9.5 10.5v497q0 66 16 111.5t46 78.5q64 70 183 70q64 0 114.5 -21t79 -59.5t28.5 -88.5q0 -40 -18.5 -70.5t-53.5 -60.5q-36 -31 -50 -47t-14 -35q0 -23 22 -38t72 -33q64 -24 98.5 -57
t34.5 -97q0 -56 -28 -95t-74 -58.5t-102 -19.5q-50 0 -93.5 14z" />
    <glyph glyph-name="longs" unicode="&#x17f;" horiz-adv-x="325" 
d="M112.5 2.5q-9.5 2.5 -9.5 10.5v424h-70q-7 0 -9.5 7t-2.5 35v7q0 28 2.5 35t9.5 7h70v29q0 104 48.5 160.5t145.5 56.5q58 0 103 -18q11 -3 11 -14q0 -7 -6 -27l-4 -13q-7 -24 -12 -29t-15 -3q-32 7 -58 7q-56 0 -77 -28.5t-21 -93.5v-542q0 -7 -10.5 -10t-43.5 -3h-6
q-36 0 -45.5 2.5z" />
    <glyph glyph-name="t" unicode="t" horiz-adv-x="394" 
d="M138 28q-20 20 -29.5 52t-9.5 81v276h-81q-7 0 -9.5 7t-2.5 26v7q0 18 2 25t9 8q43 12 65.5 29.5t33.5 45.5t16 77q1 7 8 8.5t29 1.5h8q23 0 30 -2.5t7 -9.5v-132h126q7 0 9 -7t2 -35v-7q0 -28 -2 -35t-9 -7h-126v-268q0 -27 3.5 -42t13.5 -25q17 -16 50 -16q29 0 59 11
q7 2 11 -3t12 -30l3 -9q7 -21 7 -29q0 -9 -10 -13q-24 -11 -53.5 -17t-58.5 -6q-73 0 -113 38z" />
    <glyph glyph-name="tbar" unicode="&#x167;" horiz-adv-x="393" 
d="M373 26q0 -9 -10 -13q-24 -11 -53.5 -17t-58.5 -6q-73 0 -113 38q-20 20 -29.5 52t-9.5 81v70h-65q-7 0 -9.5 7.5t-2.5 33.5q0 27 2.5 34.5t9.5 7.5h65v123h-81q-7 0 -9.5 7t-2.5 26v7q0 18 2 25t9 8q43 12 65.5 29.5t33.5 45.5t16 77q1 7 8 8.5t29 1.5h8q23 0 30 -2.5
t7 -9.5v-132h126q7 0 9 -7t2 -35v-7q0 -28 -2 -35t-9 -7h-126v-123h108q8 0 10 -7.5t2 -34.5q0 -26 -2.5 -33.5t-9.5 -7.5h-108v-62q0 -27 3.5 -42t13.5 -25q17 -16 50 -16q29 0 59 11q7 2 11 -3t12 -30l3 -9q7 -21 7 -29z" />
    <glyph glyph-name="tcaron" unicode="&#x165;" horiz-adv-x="393" 
d="M138 28q-20 20 -29.5 52t-9.5 81v276h-81q-7 0 -9.5 7t-2.5 26v7q0 18 2 25t9 8q43 12 65.5 29.5t33.5 45.5t16 77q1 7 8 8.5t29 1.5h8q23 0 30 -2.5t7 -9.5v-132h126q7 0 9 -7t2 -35v-7q0 -28 -2 -35t-9 -7h-126v-268q0 -27 3.5 -42t13.5 -25q17 -16 50 -16q29 0 59 11
q7 2 11 -3t12 -30l3 -9q7 -21 7 -29q0 -9 -10 -13q-24 -11 -53.5 -17t-58.5 -6q-73 0 -113 38zM294 591q-5 0 -10 5l-13 11q-6 6 -6 9q0 5 4 9q23 27 33.5 50.5t10.5 39.5q0 11 -4 17.5t-12 17.5q-1 2 -6.5 9t-8 14.5t-2.5 16.5q0 20 15.5 34.5t38.5 14.5q27 0 44 -19.5
t17 -49.5q0 -46 -24 -91.5t-68 -83.5q-4 -4 -9 -4z" />
    <glyph glyph-name="uni0163" unicode="&#x163;" horiz-adv-x="394" 
d="M138 28q-20 20 -29.5 52t-9.5 81v276h-81q-7 0 -9.5 7t-2.5 26v7q0 18 2 25t9 8q43 12 65.5 29.5t33.5 45.5t16 77q1 7 8 8.5t29 1.5h8q23 0 30 -2.5t7 -9.5v-132h126q7 0 9 -7t2 -35v-7q0 -28 -2 -35t-9 -7h-126v-268q0 -27 3.5 -42t13.5 -25q17 -16 50 -16q29 0 59 11
q7 2 11 -3t12 -30l3 -9q7 -21 7 -29q0 -9 -10 -13q-24 -11 -53.5 -17t-58.5 -6q-73 0 -113 38zM193 -305q-5 0 -10 5l-13 11q-6 6 -6 9q0 5 4 9q23 27 33.5 50.5t10.5 39.5q0 11 -4 17.5t-12 17.5q-1 2 -6.5 9t-8 14.5t-2.5 16.5q0 20 15.5 34.5t38.5 14.5q27 0 44 -19.5
t17 -49.5q0 -46 -24 -91.5t-68 -83.5q-4 -4 -9 -4z" />
    <glyph glyph-name="uni021B" unicode="&#x21b;" horiz-adv-x="394" 
d="M138 28q-20 20 -29.5 52t-9.5 81v276h-81q-7 0 -9.5 7t-2.5 26v7q0 18 2 25t9 8q43 12 65.5 29.5t33.5 45.5t16 77q1 7 8 8.5t29 1.5h8q23 0 30 -2.5t7 -9.5v-132h126q7 0 9 -7t2 -35v-7q0 -28 -2 -35t-9 -7h-126v-268q0 -27 3.5 -42t13.5 -25q17 -16 50 -16q29 0 59 11
q7 2 11 -3t12 -30l3 -9q7 -21 7 -29q0 -9 -10 -13q-24 -11 -53.5 -17t-58.5 -6q-73 0 -113 38zM193 -305q-5 0 -10 5l-13 11q-6 6 -6 9q0 5 4 9q23 27 33.5 50.5t10.5 39.5q0 11 -4 17.5t-12 17.5q-1 2 -6.5 9t-8 14.5t-2.5 16.5q0 20 15.5 34.5t38.5 14.5q27 0 44 -19.5
t17 -49.5q0 -46 -24 -91.5t-68 -83.5q-4 -4 -9 -4z" />
    <glyph glyph-name="u" unicode="u" horiz-adv-x="584" 
d="M114 43q-25 28 -36.5 67t-11.5 97v307q0 8 10 11t44 3h6q37 0 46 -3t9 -11v-267q0 -58 4.5 -83.5t19.5 -41.5q26 -28 77 -28q26 0 48.5 7t37.5 19q25 20 28 59q2 25 2 113v222q0 8 10 11t44 3h5q37 0 46.5 -3t9.5 -11v-306q0 -108 5 -193q1 -9 -8 -12t-42 -3h-5
q-31 0 -41 2.5t-11 9.5q-4 24 -5 47q-26 -32 -65.5 -50.5t-87.5 -18.5q-91 0 -139 53z" />
    <glyph glyph-name="uacute" unicode="&#xfa;" horiz-adv-x="584" 
d="M114 43q-25 28 -36.5 67t-11.5 97v307q0 8 10 11t44 3h6q37 0 46 -3t9 -11v-267q0 -58 4.5 -83.5t19.5 -41.5q26 -28 77 -28q26 0 48.5 7t37.5 19q25 20 28 59q2 25 2 113v222q0 8 10 11t44 3h5q37 0 46.5 -3t9.5 -11v-306q0 -108 5 -193q1 -9 -8 -12t-42 -3h-5
q-31 0 -41 2.5t-11 9.5q-4 24 -5 47q-26 -32 -65.5 -50.5t-87.5 -18.5q-91 0 -139 53zM211 596q-5 3 -1 10l94 149q5 7 13 9t33 2h38q21 0 26 -3t0 -11l-117 -150q-5 -5 -12.5 -7t-24.5 -2h-27q-17 0 -22 3z" />
    <glyph glyph-name="ubreve" unicode="&#x16d;" horiz-adv-x="584" 
d="M114 43q-25 28 -36.5 67t-11.5 97v307q0 8 10 11t44 3h6q37 0 46 -3t9 -11v-267q0 -58 4.5 -83.5t19.5 -41.5q26 -28 77 -28q26 0 48.5 7t37.5 19q25 20 28 59q2 25 2 113v222q0 8 10 11t44 3h5q37 0 46.5 -3t9.5 -11v-306q0 -108 5 -193q1 -9 -8 -12t-42 -3h-5
q-31 0 -41 2.5t-11 9.5q-4 24 -5 47q-26 -32 -65.5 -50.5t-87.5 -18.5q-91 0 -139 53zM185.5 638q-40.5 35 -42.5 97q0 7 7 9.5t29 2.5h14q19 0 24.5 -2.5t6.5 -9.5q11 -59 68 -59q59 0 68 59q1 7 7 9.5t25 2.5h14q22 0 28.5 -2.5t6.5 -9.5q-2 -62 -42.5 -97t-106.5 -35
t-106.5 35z" />
    <glyph glyph-name="ucircumflex" unicode="&#xfb;" horiz-adv-x="584" 
d="M114 43q-25 28 -36.5 67t-11.5 97v307q0 8 10 11t44 3h6q37 0 46 -3t9 -11v-267q0 -58 4.5 -83.5t19.5 -41.5q26 -28 77 -28q26 0 48.5 7t37.5 19q25 20 28 59q2 25 2 113v222q0 8 10 11t44 3h5q37 0 46.5 -3t9.5 -11v-306q0 -108 5 -193q1 -9 -8 -12t-42 -3h-5
q-31 0 -41 2.5t-11 9.5q-4 24 -5 47q-26 -32 -65.5 -50.5t-87.5 -18.5q-91 0 -139 53zM179 595q-4 0 -10 5t-13 12l-8 8q-14 16 -14 21t4 9l92 97q8 9 19 12t35 3h17q24 0 35 -3t19 -12l92 -97q4 -4 4 -9t-14 -21l-8 -8q-7 -7 -13 -12t-10 -5q-2 0 -8 4l-106 91l-105 -91
q-6 -4 -8 -4z" />
    <glyph glyph-name="udieresis" unicode="&#xfc;" horiz-adv-x="584" 
d="M114 43q-25 28 -36.5 67t-11.5 97v307q0 8 10 11t44 3h6q37 0 46 -3t9 -11v-267q0 -58 4.5 -83.5t19.5 -41.5q26 -28 77 -28q26 0 48.5 7t37.5 19q25 20 28 59q2 25 2 113v222q0 8 10 11t44 3h5q37 0 46.5 -3t9.5 -11v-306q0 -108 5 -193q1 -9 -8 -12t-42 -3h-5
q-31 0 -41 2.5t-11 9.5q-4 24 -5 47q-26 -32 -65.5 -50.5t-87.5 -18.5q-91 0 -139 53zM139.5 627q-18.5 18 -18.5 44q0 27 18.5 45.5t46.5 18.5t46.5 -18.5t18.5 -45.5q0 -26 -18.5 -44t-46.5 -18t-46.5 18zM352.5 627q-18.5 18 -18.5 44q0 27 18.5 45.5t45.5 18.5
q28 0 47 -18.5t19 -45.5q0 -26 -19 -44t-47 -18q-27 0 -45.5 18z" />
    <glyph glyph-name="ugrave" unicode="&#xf9;" horiz-adv-x="584" 
d="M114 43q-25 28 -36.5 67t-11.5 97v307q0 8 10 11t44 3h6q37 0 46 -3t9 -11v-267q0 -58 4.5 -83.5t19.5 -41.5q26 -28 77 -28q26 0 48.5 7t37.5 19q25 20 28 59q2 25 2 113v222q0 8 10 11t44 3h5q37 0 46.5 -3t9.5 -11v-306q0 -108 5 -193q1 -9 -8 -12t-42 -3h-5
q-31 0 -41 2.5t-11 9.5q-4 24 -5 47q-26 -32 -65.5 -50.5t-87.5 -18.5q-91 0 -139 53zM303.5 595q-7.5 2 -12.5 7l-117 150q-5 8 0.5 11t26.5 3h38q24 0 32.5 -2.5t12.5 -8.5l94 -149q2 -4 2 -6q0 -7 -24 -7h-28q-17 0 -24.5 2z" />
    <glyph glyph-name="uhungarumlaut" unicode="&#x171;" horiz-adv-x="584" 
d="M114 43q-25 28 -36.5 67t-11.5 97v307q0 8 10 11t44 3h6q37 0 46 -3t9 -11v-267q0 -58 4.5 -83.5t19.5 -41.5q26 -28 77 -28q26 0 48.5 7t37.5 19q25 20 28 59q2 25 2 113v222q0 8 10 11t44 3h5q37 0 46.5 -3t9.5 -11v-306q0 -108 5 -193q1 -9 -8 -12t-42 -3h-5
q-31 0 -41 2.5t-11 9.5q-4 24 -5 47q-26 -32 -65.5 -50.5t-87.5 -18.5q-91 0 -139 53zM125 600.5q-5 2.5 -1 9.5l84 145q4 6 12.5 8.5t31.5 2.5h35q21 0 26 -2.5t0 -10.5l-108 -146q-5 -5 -12 -7t-23 -2h-24q-16 0 -21 2.5zM312 600.5q-5 2.5 -1 9.5l84 145q4 6 12.5 8.5
t31.5 2.5h35q20 0 25.5 -3t0.5 -10l-108 -146q-5 -5 -12 -7t-23 -2h-24q-16 0 -21 2.5z" />
    <glyph glyph-name="umacron" unicode="&#x16b;" horiz-adv-x="584" 
d="M114 43q-25 28 -36.5 67t-11.5 97v307q0 8 10 11t44 3h6q37 0 46 -3t9 -11v-267q0 -58 4.5 -83.5t19.5 -41.5q26 -28 77 -28q26 0 48.5 7t37.5 19q25 20 28 59q2 25 2 113v222q0 8 10 11t44 3h5q37 0 46.5 -3t9.5 -11v-306q0 -108 5 -193q1 -9 -8 -12t-42 -3h-5
q-31 0 -41 2.5t-11 9.5q-4 24 -5 47q-26 -32 -65.5 -50.5t-87.5 -18.5q-91 0 -139 53zM149 645q-2 8 -2 28v11q0 21 2 28t9 7h268q7 0 9.5 -7t2.5 -28v-11q0 -20 -2.5 -28t-9.5 -8h-268q-7 0 -9 8z" />
    <glyph glyph-name="uogonek" unicode="&#x173;" horiz-adv-x="584" 
d="M339.5 -206.5q-32.5 30.5 -32.5 80.5q0 86 104 141q-4 22 -5 44q-26 -32 -65.5 -50.5t-87.5 -18.5q-91 0 -139 53q-25 28 -36.5 67t-11.5 97v307q0 8 10 11t44 3h6q37 0 46 -3t9 -11v-267q0 -58 4.5 -83.5t19.5 -41.5q26 -28 77 -28q26 0 48.5 7t37.5 19q25 20 28 59
q2 25 2 113v222q0 8 10 11t44 3h5q37 0 46.5 -3t9.5 -11v-306q0 -108 5 -193q0 -7 -1.5 -9t-9.5 -4q-56 -13 -86 -49q-27 -30 -27 -66q0 -23 12.5 -35.5t34.5 -12.5q17 0 43 8l5 1q9 0 15 -23l3 -10q5 -17 5 -21q0 -6 -7 -11q-17 -9 -38.5 -14.5t-41.5 -5.5
q-53 0 -85.5 30.5z" />
    <glyph glyph-name="uring" unicode="&#x16f;" horiz-adv-x="584" 
d="M114 43q-25 28 -36.5 67t-11.5 97v307q0 8 10 11t44 3h6q37 0 46 -3t9 -11v-267q0 -58 4.5 -83.5t19.5 -41.5q26 -28 77 -28q26 0 48.5 7t37.5 19q25 20 28 59q2 25 2 113v222q0 8 10 11t44 3h5q37 0 46.5 -3t9.5 -11v-306q0 -108 5 -193q1 -9 -8 -12t-42 -3h-5
q-31 0 -41 2.5t-11 9.5q-4 24 -5 47q-26 -32 -65.5 -50.5t-87.5 -18.5q-91 0 -139 53zM217 617.5q-32 30.5 -32 73.5t31.5 73t76.5 30t76 -29.5t31 -73.5t-31 -74t-76 -30q-44 0 -76 30.5zM322 660.5q12 12.5 12 30.5t-12 30.5t-30 12.5t-30.5 -12.5t-12.5 -30.5
q0 -19 12.5 -31t30.5 -12t30 12.5z" />
    <glyph glyph-name="utilde" unicode="&#x169;" horiz-adv-x="584" 
d="M114 43q-25 28 -36.5 67t-11.5 97v307q0 8 10 11t44 3h6q37 0 46 -3t9 -11v-267q0 -58 4.5 -83.5t19.5 -41.5q26 -28 77 -28q26 0 48.5 7t37.5 19q25 20 28 59q2 25 2 113v222q0 8 10 11t44 3h5q37 0 46.5 -3t9.5 -11v-306q0 -108 5 -193q1 -9 -8 -12t-42 -3h-5
q-31 0 -41 2.5t-11 9.5q-4 24 -5 47q-26 -32 -65.5 -50.5t-87.5 -18.5q-91 0 -139 53zM281 642q-16 8 -26.5 12t-21.5 4q-14 0 -28 -8t-30 -24q-5 -5 -10 -2.5t-20 17.5l-6 6q-15 15 -15 21q0 5 4 10q20 26 48 43t59 17t71 -22q16 -8 26.5 -12t21.5 -4q14 0 28 8t30 24
q4 4 10 1.5t20 -16.5l6 -6q15 -15 15 -22q0 -3 -4 -9q-21 -26 -49 -43t-58 -17q-31 0 -71 22z" />
    <glyph glyph-name="v" unicode="v" horiz-adv-x="515" 
d="M203.5 2.5q-10.5 2.5 -14.5 11.5l-179 498q-3 9 6 12.5t47 3.5h10q33 0 44.5 -3t13.5 -11l77 -228q33 -98 55 -173q33 85 67 198.5t54 202.5q2 9 11 11.5t41 2.5h7q34 0 45 -3t9 -11q-26 -119 -78 -260t-102 -241q-4 -8 -15 -10.5t-45 -2.5h-9q-34 0 -44.5 2.5z" />
    <glyph glyph-name="w" unicode="w" horiz-adv-x="790" 
d="M171 2.5q-12 2.5 -14 11.5l-143 497q-3 9 7 13t47 4h4q35 0 45.5 -3t12.5 -12l53 -200q29 -108 47 -209q29 133 49 208l54 202q2 9 12.5 11.5t45.5 2.5h9q34 0 44 -3t12 -10l56 -209l9 -35q35 -132 42 -165q56 170 97 407q1 7 4 10t14 4t36 1h5q31 0 40.5 -3t7.5 -11
q-48 -259 -140 -498q-4 -10 -15.5 -13t-49.5 -3h-7q-41 0 -52.5 2.5t-13.5 11.5l-52 186q-28 104 -45 197q-18 -102 -45 -198l-53 -184q-2 -9 -14 -12t-50 -3h-10q-37 0 -49 2.5z" />
    <glyph glyph-name="wacute" unicode="&#x1e83;" horiz-adv-x="790" 
d="M171 2.5q-12 2.5 -14 11.5l-143 497q-3 9 7 13t47 4h4q35 0 45.5 -3t12.5 -12l53 -200q29 -108 47 -209q29 133 49 208l54 202q2 9 12.5 11.5t45.5 2.5h9q34 0 44 -3t12 -10l56 -209l9 -35q35 -132 42 -165q56 170 97 407q1 7 4 10t14 4t36 1h5q31 0 40.5 -3t7.5 -11
q-48 -259 -140 -498q-4 -10 -15.5 -13t-49.5 -3h-7q-41 0 -52.5 2.5t-13.5 11.5l-52 186q-28 104 -45 197q-18 -102 -45 -198l-53 -184q-2 -9 -14 -12t-50 -3h-10q-37 0 -49 2.5zM316 596q-5 3 -1 10l94 149q5 7 13 9t33 2h38q21 0 26 -3t0 -11l-117 -150q-5 -5 -12.5 -7
t-24.5 -2h-27q-17 0 -22 3z" />
    <glyph glyph-name="wcircumflex" unicode="&#x175;" horiz-adv-x="790" 
d="M171 2.5q-12 2.5 -14 11.5l-143 497q-3 9 7 13t47 4h4q35 0 45.5 -3t12.5 -12l53 -200q29 -108 47 -209q29 133 49 208l54 202q2 9 12.5 11.5t45.5 2.5h9q34 0 44 -3t12 -10l56 -209l9 -35q35 -132 42 -165q56 170 97 407q1 7 4 10t14 4t36 1h5q31 0 40.5 -3t7.5 -11
q-48 -259 -140 -498q-4 -10 -15.5 -13t-49.5 -3h-7q-41 0 -52.5 2.5t-13.5 11.5l-52 186q-28 104 -45 197q-18 -102 -45 -198l-53 -184q-2 -9 -14 -12t-50 -3h-10q-37 0 -49 2.5zM284 595q-4 0 -10 5t-13 12l-8 8q-14 16 -14 21t4 9l92 97q8 9 19 12t35 3h17q24 0 35 -3
t19 -12l92 -97q4 -4 4 -9t-14 -21l-8 -8q-7 -7 -13 -12t-10 -5q-2 0 -8 4l-106 91l-105 -91q-6 -4 -8 -4z" />
    <glyph glyph-name="wdieresis" unicode="&#x1e85;" horiz-adv-x="790" 
d="M171 2.5q-12 2.5 -14 11.5l-143 497q-3 9 7 13t47 4h4q35 0 45.5 -3t12.5 -12l53 -200q29 -108 47 -209q29 133 49 208l54 202q2 9 12.5 11.5t45.5 2.5h9q34 0 44 -3t12 -10l56 -209l9 -35q35 -132 42 -165q56 170 97 407q1 7 4 10t14 4t36 1h5q31 0 40.5 -3t7.5 -11
q-48 -259 -140 -498q-4 -10 -15.5 -13t-49.5 -3h-7q-41 0 -52.5 2.5t-13.5 11.5l-52 186q-28 104 -45 197q-18 -102 -45 -198l-53 -184q-2 -9 -14 -12t-50 -3h-10q-37 0 -49 2.5zM244.5 627q-18.5 18 -18.5 44q0 27 18.5 45.5t46.5 18.5t46.5 -18.5t18.5 -45.5
q0 -26 -18.5 -44t-46.5 -18t-46.5 18zM457.5 627q-18.5 18 -18.5 44q0 27 18.5 45.5t45.5 18.5q28 0 47 -18.5t19 -45.5q0 -26 -19 -44t-47 -18q-27 0 -45.5 18z" />
    <glyph glyph-name="wgrave" unicode="&#x1e81;" horiz-adv-x="790" 
d="M171 2.5q-12 2.5 -14 11.5l-143 497q-3 9 7 13t47 4h4q35 0 45.5 -3t12.5 -12l53 -200q29 -108 47 -209q29 133 49 208l54 202q2 9 12.5 11.5t45.5 2.5h9q34 0 44 -3t12 -10l56 -209l9 -35q35 -132 42 -165q56 170 97 407q1 7 4 10t14 4t36 1h5q31 0 40.5 -3t7.5 -11
q-48 -259 -140 -498q-4 -10 -15.5 -13t-49.5 -3h-7q-41 0 -52.5 2.5t-13.5 11.5l-52 186q-28 104 -45 197q-18 -102 -45 -198l-53 -184q-2 -9 -14 -12t-50 -3h-10q-37 0 -49 2.5zM408.5 595q-7.5 2 -12.5 7l-117 150q-5 8 0.5 11t26.5 3h38q24 0 32.5 -2.5t12.5 -8.5
l94 -149q2 -4 2 -6q0 -7 -24 -7h-28q-17 0 -24.5 2z" />
    <glyph glyph-name="x" unicode="x" horiz-adv-x="506" 
d="M23 4q-10 4 -4 13l119 179l51 76q-14 18 -55 82l-104 157q-6 10 3 13.5t44 3.5h12q37 0 50.5 -3t19.5 -11l49 -78q34 -54 47 -76q14 25 45 76l46 78q5 9 15 11.5t45 2.5h9q37 0 46.5 -4t3.5 -13l-96 -148q-12 -19 -45 -67l-14 -20q27 -36 59 -83l118 -177q6 -9 -5 -12.5
t-48 -3.5h-13q-35 0 -46.5 3t-17.5 12l-60 92l-13 20q-28 42 -39 62q-34 -58 -48 -81l-58 -94q-5 -9 -16 -11.5t-44 -2.5h-10q-36 0 -46 4z" />
    <glyph glyph-name="y" unicode="y" horiz-adv-x="525" 
d="M28.5 -230.5q-27.5 5.5 -39.5 13.5q-9 6 -9 15q0 6 5 28l3 11q5 20 9 27.5t11 7.5l8 -2q32 -10 59 -10q48 0 79.5 29t58.5 105l-187 515q-3 10 6.5 14.5t45.5 4.5h12q35 0 45 -2.5t13 -10.5l72 -214q34 -103 53 -188q24 95 51 184l68 218q3 8 12 10.5t41 2.5h11
q35 0 44.5 -3.5t6.5 -12.5l-177 -512q-29 -84 -61.5 -135t-77 -76t-108.5 -25q-27 0 -54.5 5.5z" />
    <glyph glyph-name="yacute" unicode="&#xfd;" horiz-adv-x="525" 
d="M28.5 -230.5q-27.5 5.5 -39.5 13.5q-9 6 -9 15q0 6 5 28l3 11q5 20 9 27.5t11 7.5l8 -2q32 -10 59 -10q48 0 79.5 29t58.5 105l-187 515q-3 10 6.5 14.5t45.5 4.5h12q35 0 45 -2.5t13 -10.5l72 -214q34 -103 53 -188q24 95 51 184l68 218q3 8 12 10.5t41 2.5h11
q35 0 44.5 -3.5t6.5 -12.5l-177 -512q-29 -84 -61.5 -135t-77 -76t-108.5 -25q-27 0 -54.5 5.5zM193 596q-5 3 -1 10l94 149q5 7 13 9t33 2h38q21 0 26 -3t0 -11l-117 -150q-5 -5 -12.5 -7t-24.5 -2h-27q-17 0 -22 3z" />
    <glyph glyph-name="ycircumflex" unicode="&#x177;" horiz-adv-x="525" 
d="M28.5 -230.5q-27.5 5.5 -39.5 13.5q-9 6 -9 15q0 6 5 28l3 11q5 20 9 27.5t11 7.5l8 -2q32 -10 59 -10q48 0 79.5 29t58.5 105l-187 515q-3 10 6.5 14.5t45.5 4.5h12q35 0 45 -2.5t13 -10.5l72 -214q34 -103 53 -188q24 95 51 184l68 218q3 8 12 10.5t41 2.5h11
q35 0 44.5 -3.5t6.5 -12.5l-177 -512q-29 -84 -61.5 -135t-77 -76t-108.5 -25q-27 0 -54.5 5.5zM161 595q-4 0 -10 5t-13 12l-8 8q-14 16 -14 21t4 9l92 97q8 9 19 12t35 3h17q24 0 35 -3t19 -12l92 -97q4 -4 4 -9t-14 -21l-8 -8q-7 -7 -13 -12t-10 -5q-2 0 -8 4l-106 91
l-105 -91q-6 -4 -8 -4z" />
    <glyph glyph-name="ydieresis" unicode="&#xff;" horiz-adv-x="525" 
d="M28.5 -230.5q-27.5 5.5 -39.5 13.5q-9 6 -9 15q0 6 5 28l3 11q5 20 9 27.5t11 7.5l8 -2q32 -10 59 -10q48 0 79.5 29t58.5 105l-187 515q-3 10 6.5 14.5t45.5 4.5h12q35 0 45 -2.5t13 -10.5l72 -214q34 -103 53 -188q24 95 51 184l68 218q3 8 12 10.5t41 2.5h11
q35 0 44.5 -3.5t6.5 -12.5l-177 -512q-29 -84 -61.5 -135t-77 -76t-108.5 -25q-27 0 -54.5 5.5zM121.5 627q-18.5 18 -18.5 44q0 27 18.5 45.5t46.5 18.5t46.5 -18.5t18.5 -45.5q0 -26 -18.5 -44t-46.5 -18t-46.5 18zM334.5 627q-18.5 18 -18.5 44q0 27 18.5 45.5t45.5 18.5
q28 0 47 -18.5t19 -45.5q0 -26 -19 -44t-47 -18q-27 0 -45.5 18z" />
    <glyph glyph-name="ygrave" unicode="&#x1ef3;" horiz-adv-x="525" 
d="M28.5 -230.5q-27.5 5.5 -39.5 13.5q-9 6 -9 15q0 6 5 28l3 11q5 20 9 27.5t11 7.5l8 -2q32 -10 59 -10q48 0 79.5 29t58.5 105l-187 515q-3 10 6.5 14.5t45.5 4.5h12q35 0 45 -2.5t13 -10.5l72 -214q34 -103 53 -188q24 95 51 184l68 218q3 8 12 10.5t41 2.5h11
q35 0 44.5 -3.5t6.5 -12.5l-177 -512q-29 -84 -61.5 -135t-77 -76t-108.5 -25q-27 0 -54.5 5.5zM285.5 595q-7.5 2 -12.5 7l-117 150q-5 8 0.5 11t26.5 3h38q24 0 32.5 -2.5t12.5 -8.5l94 -149q2 -4 2 -6q0 -7 -24 -7h-28q-17 0 -24.5 2z" />
    <glyph glyph-name="z" unicode="z" horiz-adv-x="464" 
d="M40 3q-5 3 -5 13v27q0 15 2.5 23.5t9.5 19.5l235 351h-223q-7 0 -9 7.5t-2 36.5v3q0 29 2 36.5t9 7.5h339q18 0 23 -3t5 -13v-27q0 -15 -2.5 -23.5t-10.5 -20.5l-233 -350h243q7 0 9 -7.5t2 -36.5v-4q0 -28 -2 -35.5t-9 -7.5h-360q-18 0 -23 3z" />
    <glyph glyph-name="zacute" unicode="&#x17a;" horiz-adv-x="464" 
d="M40 3q-5 3 -5 13v27q0 15 2.5 23.5t9.5 19.5l235 351h-223q-7 0 -9 7.5t-2 36.5v3q0 29 2 36.5t9 7.5h339q18 0 23 -3t5 -13v-27q0 -15 -2.5 -23.5t-10.5 -20.5l-233 -350h243q7 0 9 -7.5t2 -36.5v-4q0 -28 -2 -35.5t-9 -7.5h-360q-18 0 -23 3zM164 596q-5 3 -1 10
l94 149q5 7 13 9t33 2h38q21 0 26 -3t0 -11l-117 -150q-5 -5 -12.5 -7t-24.5 -2h-27q-17 0 -22 3z" />
    <glyph glyph-name="zacute.loclPLK" horiz-adv-x="464" 
d="M40 3q-5 3 -5 13v27q0 15 2.5 23.5t9.5 19.5l235 351h-223q-7 0 -9 7.5t-2 36.5v3q0 29 2 36.5t9 7.5h339q18 0 23 -3t5 -13v-27q0 -15 -2.5 -23.5t-10.5 -20.5l-233 -350h243q7 0 9 -7.5t2 -36.5v-4q0 -28 -2 -35.5t-9 -7.5h-360q-18 0 -23 3zM202 596q-6 3 -4 10
l42 148q2 8 9.5 10t31.5 2h29q23 0 29.5 -3t2.5 -11l-64 -149q-3 -7 -9 -8.5t-25 -1.5h-19q-17 0 -23 3z" />
    <glyph glyph-name="zcaron" unicode="&#x17e;" horiz-adv-x="464" 
d="M40 3q-5 3 -5 13v27q0 15 2.5 23.5t9.5 19.5l235 351h-223q-7 0 -9 7.5t-2 36.5v3q0 29 2 36.5t9 7.5h339q18 0 23 -3t5 -13v-27q0 -15 -2.5 -23.5t-10.5 -20.5l-233 -350h243q7 0 9 -7.5t2 -36.5v-4q0 -28 -2 -35.5t-9 -7.5h-360q-18 0 -23 3zM202 596q-11 3 -19 12
l-92 98q-4 4 -4 8q0 5 14 21l8 8q7 7 13 12t10 5q2 0 8 -4l105 -91l106 91q6 4 8 4q4 0 10 -5t13 -12l8 -8q14 -16 14 -21q0 -4 -4 -8l-92 -98q-8 -9 -19 -12t-35 -3h-17q-24 0 -35 3z" />
    <glyph glyph-name="zdotaccent" unicode="&#x17c;" horiz-adv-x="464" 
d="M40 3q-5 3 -5 13v27q0 15 2.5 23.5t9.5 19.5l235 351h-223q-7 0 -9 7.5t-2 36.5v3q0 29 2 36.5t9 7.5h339q18 0 23 -3t5 -13v-27q0 -15 -2.5 -23.5t-10.5 -20.5l-233 -350h243q7 0 9 -7.5t2 -36.5v-4q0 -28 -2 -35.5t-9 -7.5h-360q-18 0 -23 3zM200.5 636.5
q-19.5 19.5 -19.5 45.5q0 27 19.5 46t45.5 19q27 0 46 -19t19 -46q0 -26 -19 -45.5t-46 -19.5q-26 0 -45.5 19.5z" />
    <glyph glyph-name="a.sc" horiz-adv-x="618" 
d="M600 11q0 -7 -10.5 -9t-40.5 -2h-11q-37 0 -47.5 2.5t-14.5 12.5l-50 133h-241l-51 -133q-4 -10 -14 -12.5t-45 -2.5h-9q-35 0 -44 3.5t-5 14.5l229 549q5 10 13.5 12.5t43.5 2.5h7q36 0 45 -2.5t13 -12.5l230 -548zM394 233l-88 233l-89 -233h177z" />
    <glyph glyph-name="a.ss01.sc" horiz-adv-x="618" 
d="M600 11q0 -7 -10.5 -9t-40.5 -2h-11q-37 0 -47.5 2.5t-14.5 12.5l-50 133h-241l-51 -133q-4 -10 -14 -12.5t-45 -2.5h-9q-35 0 -44 3.5t-5 14.5l229 549q5 10 13.5 12.5t43.5 2.5h7q36 0 45 -2.5t13 -12.5l230 -548zM394 233l-88 233l-89 -233h177z" />
    <glyph glyph-name="aacute.sc" horiz-adv-x="618" 
d="M600 11q0 -7 -10.5 -9t-40.5 -2h-11q-37 0 -47.5 2.5t-14.5 12.5l-50 133h-241l-51 -133q-4 -10 -14 -12.5t-45 -2.5h-9q-35 0 -44 3.5t-5 14.5l229 549q5 10 13.5 12.5t43.5 2.5h7q36 0 45 -2.5t13 -12.5l230 -548zM394 233l-88 233l-89 -233h177zM228 643q-5 3 -1 10
l94 149q5 7 13 9t33 2h38q21 0 26 -3t0 -11l-117 -150q-5 -5 -12.5 -7t-24.5 -2h-27q-17 0 -22 3z" />
    <glyph glyph-name="aacute.ss01.sc" horiz-adv-x="618" 
d="M600 11q0 -7 -10.5 -9t-40.5 -2h-11q-37 0 -47.5 2.5t-14.5 12.5l-50 133h-241l-51 -133q-4 -10 -14 -12.5t-45 -2.5h-9q-35 0 -44 3.5t-5 14.5l229 549q5 10 13.5 12.5t43.5 2.5h7q36 0 45 -2.5t13 -12.5l230 -548zM394 233l-88 233l-89 -233h177zM228 643q-5 3 -1 10
l94 149q5 7 13 9t33 2h38q21 0 26 -3t0 -11l-117 -150q-5 -5 -12.5 -7t-24.5 -2h-27q-17 0 -22 3z" />
    <glyph glyph-name="abreve.sc" horiz-adv-x="618" 
d="M600 11q0 -7 -10.5 -9t-40.5 -2h-11q-37 0 -47.5 2.5t-14.5 12.5l-50 133h-241l-51 -133q-4 -10 -14 -12.5t-45 -2.5h-9q-35 0 -44 3.5t-5 14.5l229 549q5 10 13.5 12.5t43.5 2.5h7q36 0 45 -2.5t13 -12.5l230 -548zM394 233l-88 233l-89 -233h177zM202.5 675
q-40.5 35 -42.5 97q0 7 7 9.5t29 2.5h14q19 0 24.5 -2.5t6.5 -9.5q11 -59 68 -59q59 0 68 59q1 7 7 9.5t25 2.5h14q22 0 28.5 -2.5t6.5 -9.5q-2 -62 -42.5 -97t-106.5 -35t-106.5 35z" />
    <glyph glyph-name="abreve.ss01.sc" horiz-adv-x="618" 
d="M600 11q0 -7 -10.5 -9t-40.5 -2h-11q-37 0 -47.5 2.5t-14.5 12.5l-50 133h-241l-51 -133q-4 -10 -14 -12.5t-45 -2.5h-9q-35 0 -44 3.5t-5 14.5l229 549q5 10 13.5 12.5t43.5 2.5h7q36 0 45 -2.5t13 -12.5l230 -548zM394 233l-88 233l-89 -233h177zM202.5 675
q-40.5 35 -42.5 97q0 7 7 9.5t29 2.5h14q19 0 24.5 -2.5t6.5 -9.5q11 -59 68 -59q59 0 68 59q1 7 7 9.5t25 2.5h14q22 0 28.5 -2.5t6.5 -9.5q-2 -62 -42.5 -97t-106.5 -35t-106.5 35z" />
    <glyph glyph-name="uni01CE.sc" horiz-adv-x="618" 
d="M600 11q0 -7 -10.5 -9t-40.5 -2h-11q-37 0 -47.5 2.5t-14.5 12.5l-50 133h-241l-51 -133q-4 -10 -14 -12.5t-45 -2.5h-9q-35 0 -44 3.5t-5 14.5l229 549q5 10 13.5 12.5t43.5 2.5h7q36 0 45 -2.5t13 -12.5l230 -548zM394 233l-88 233l-89 -233h177zM265 643q-11 3 -19 12
l-92 98q-4 4 -4 8q0 5 14 21l8 8q7 7 13 12t10 5q2 0 8 -4l105 -91l106 91q6 4 8 4q4 0 10 -5t13 -12l8 -8q14 -16 14 -21q0 -4 -4 -8l-92 -98q-8 -9 -19 -12t-35 -3h-17q-24 0 -35 3z" />
    <glyph glyph-name="uni01CE.ss01.sc" horiz-adv-x="618" 
d="M600 11q0 -7 -10.5 -9t-40.5 -2h-11q-37 0 -47.5 2.5t-14.5 12.5l-50 133h-241l-51 -133q-4 -10 -14 -12.5t-45 -2.5h-9q-35 0 -44 3.5t-5 14.5l229 549q5 10 13.5 12.5t43.5 2.5h7q36 0 45 -2.5t13 -12.5l230 -548zM394 233l-88 233l-89 -233h177zM265 643q-11 3 -19 12
l-92 98q-4 4 -4 8q0 5 14 21l8 8q7 7 13 12t10 5q2 0 8 -4l105 -91l106 91q6 4 8 4q4 0 10 -5t13 -12l8 -8q14 -16 14 -21q0 -4 -4 -8l-92 -98q-8 -9 -19 -12t-35 -3h-17q-24 0 -35 3z" />
    <glyph glyph-name="acircumflex.sc" horiz-adv-x="618" 
d="M600 11q0 -7 -10.5 -9t-40.5 -2h-11q-37 0 -47.5 2.5t-14.5 12.5l-50 133h-241l-51 -133q-4 -10 -14 -12.5t-45 -2.5h-9q-35 0 -44 3.5t-5 14.5l229 549q5 10 13.5 12.5t43.5 2.5h7q36 0 45 -2.5t13 -12.5l230 -548zM394 233l-88 233l-89 -233h177zM195 629q-4 0 -10 5
t-13 12l-8 8q-14 16 -14 21t4 9l92 97q8 9 19 12t35 3h17q24 0 35 -3t19 -12l92 -97q4 -4 4 -9t-14 -21l-8 -8q-7 -7 -13 -12t-10 -5q-2 0 -8 4l-106 91l-105 -91q-6 -4 -8 -4z" />
    <glyph glyph-name="acircumflex.ss01.sc" horiz-adv-x="618" 
d="M600 11q0 -7 -10.5 -9t-40.5 -2h-11q-37 0 -47.5 2.5t-14.5 12.5l-50 133h-241l-51 -133q-4 -10 -14 -12.5t-45 -2.5h-9q-35 0 -44 3.5t-5 14.5l229 549q5 10 13.5 12.5t43.5 2.5h7q36 0 45 -2.5t13 -12.5l230 -548zM394 233l-88 233l-89 -233h177zM195 629q-4 0 -10 5
t-13 12l-8 8q-14 16 -14 21t4 9l92 97q8 9 19 12t35 3h17q24 0 35 -3t19 -12l92 -97q4 -4 4 -9t-14 -21l-8 -8q-7 -7 -13 -12t-10 -5q-2 0 -8 4l-106 91l-105 -91q-6 -4 -8 -4z" />
    <glyph glyph-name="adieresis.sc" horiz-adv-x="618" 
d="M600 11q0 -7 -10.5 -9t-40.5 -2h-11q-37 0 -47.5 2.5t-14.5 12.5l-50 133h-241l-51 -133q-4 -10 -14 -12.5t-45 -2.5h-9q-35 0 -44 3.5t-5 14.5l229 549q5 10 13.5 12.5t43.5 2.5h7q36 0 45 -2.5t13 -12.5l230 -548zM394 233l-88 233l-89 -233h177zM155.5 669
q-18.5 18 -18.5 44q0 27 19 45.5t46 18.5q28 0 46.5 -18.5t18.5 -45.5q0 -26 -18.5 -44t-46.5 -18t-46.5 18zM368.5 669q-18.5 18 -18.5 44q0 27 18.5 45.5t45.5 18.5q28 0 47 -18.5t19 -45.5q0 -26 -19 -44t-47 -18q-27 0 -45.5 18z" />
    <glyph glyph-name="adieresis.ss01.sc" horiz-adv-x="618" 
d="M600 11q0 -7 -10.5 -9t-40.5 -2h-11q-37 0 -47.5 2.5t-14.5 12.5l-50 133h-241l-51 -133q-4 -10 -14 -12.5t-45 -2.5h-9q-35 0 -44 3.5t-5 14.5l229 549q5 10 13.5 12.5t43.5 2.5h7q36 0 45 -2.5t13 -12.5l230 -548zM394 233l-88 233l-89 -233h177zM155.5 669
q-18.5 18 -18.5 44q0 27 19 45.5t46 18.5q28 0 46.5 -18.5t18.5 -45.5q0 -26 -18.5 -44t-46.5 -18t-46.5 18zM368.5 669q-18.5 18 -18.5 44q0 27 18.5 45.5t45.5 18.5q28 0 47 -18.5t19 -45.5q0 -26 -19 -44t-47 -18q-27 0 -45.5 18z" />
    <glyph glyph-name="agrave.sc" horiz-adv-x="618" 
d="M600 11q0 -7 -10.5 -9t-40.5 -2h-11q-37 0 -47.5 2.5t-14.5 12.5l-50 133h-241l-51 -133q-4 -10 -14 -12.5t-45 -2.5h-9q-35 0 -44 3.5t-5 14.5l229 549q5 10 13.5 12.5t43.5 2.5h7q36 0 45 -2.5t13 -12.5l230 -548zM394 233l-88 233l-89 -233h177zM306.5 642
q-7.5 2 -12.5 7l-117 150q-5 8 0.5 11t26.5 3h38q24 0 32.5 -2.5t12.5 -8.5l94 -149q2 -4 2 -6q0 -7 -24 -7h-28q-17 0 -24.5 2z" />
    <glyph glyph-name="agrave.ss01.sc" horiz-adv-x="618" 
d="M600 11q0 -7 -10.5 -9t-40.5 -2h-11q-37 0 -47.5 2.5t-14.5 12.5l-50 133h-241l-51 -133q-4 -10 -14 -12.5t-45 -2.5h-9q-35 0 -44 3.5t-5 14.5l229 549q5 10 13.5 12.5t43.5 2.5h7q36 0 45 -2.5t13 -12.5l230 -548zM394 233l-88 233l-89 -233h177zM306.5 642
q-7.5 2 -12.5 7l-117 150q-5 8 0.5 11t26.5 3h38q24 0 32.5 -2.5t12.5 -8.5l94 -149q2 -4 2 -6q0 -7 -24 -7h-28q-17 0 -24.5 2z" />
    <glyph glyph-name="amacron.sc" horiz-adv-x="618" 
d="M600 11q0 -7 -10.5 -9t-40.5 -2h-11q-37 0 -47.5 2.5t-14.5 12.5l-50 133h-241l-51 -133q-4 -10 -14 -12.5t-45 -2.5h-9q-35 0 -44 3.5t-5 14.5l229 549q5 10 13.5 12.5t43.5 2.5h7q36 0 45 -2.5t13 -12.5l230 -548zM394 233l-88 233l-89 -233h177zM165 659q-2 8 -2 28
v11q0 21 2 28t9 7h268q7 0 9.5 -7t2.5 -28v-11q0 -20 -2.5 -28t-9.5 -8h-268q-7 0 -9 8z" />
    <glyph glyph-name="amacron.ss01.sc" horiz-adv-x="618" 
d="M600 11q0 -7 -10.5 -9t-40.5 -2h-11q-37 0 -47.5 2.5t-14.5 12.5l-50 133h-241l-51 -133q-4 -10 -14 -12.5t-45 -2.5h-9q-35 0 -44 3.5t-5 14.5l229 549q5 10 13.5 12.5t43.5 2.5h7q36 0 45 -2.5t13 -12.5l230 -548zM394 233l-88 233l-89 -233h177zM165 659q-2 8 -2 28
v11q0 21 2 28t9 7h268q7 0 9.5 -7t2.5 -28v-11q0 -20 -2.5 -28t-9.5 -8h-268q-7 0 -9 8z" />
    <glyph glyph-name="aogonek.sc" horiz-adv-x="618" 
d="M509 -43.5q-33 -32.5 -33 -73.5q0 -21 13 -32t34 -11q16 0 45 9q1 1 3 1q4 0 7.5 -6.5t7.5 -17.5l3 -10q4 -13 4 -21q0 -7 -6 -11q-17 -9 -39 -14.5t-42 -5.5q-51 0 -84 29t-33 81q0 37 24.5 73t65.5 61l-53 140h-241l-51 -133q-4 -10 -14 -12.5t-45 -2.5h-9
q-35 0 -44 3.5t-5 14.5l229 549q5 10 13.5 12.5t43.5 2.5h7q36 0 45 -2.5t13 -12.5l230 -548l2 -8q0 -6 -11 -9q-47 -13 -80 -45.5zM394 233l-88 233l-89 -233h177z" />
    <glyph glyph-name="aogonek.ss01.sc" horiz-adv-x="618" 
d="M509 -43.5q-33 -32.5 -33 -73.5q0 -21 13 -32t34 -11q16 0 45 9q1 1 3 1q4 0 7.5 -6.5t7.5 -17.5l3 -10q4 -13 4 -21q0 -7 -6 -11q-17 -9 -39 -14.5t-42 -5.5q-51 0 -84 29t-33 81q0 37 24.5 73t65.5 61l-53 140h-241l-51 -133q-4 -10 -14 -12.5t-45 -2.5h-9
q-35 0 -44 3.5t-5 14.5l229 549q5 10 13.5 12.5t43.5 2.5h7q36 0 45 -2.5t13 -12.5l230 -548l2 -8q0 -6 -11 -9q-47 -13 -80 -45.5zM394 233l-88 233l-89 -233h177z" />
    <glyph glyph-name="aring.sc" horiz-adv-x="618" 
d="M600 11q0 -7 -10.5 -9t-40.5 -2h-11q-37 0 -47.5 2.5t-14.5 12.5l-50 133h-241l-51 -133q-4 -10 -14 -12.5t-45 -2.5h-9q-35 0 -44 3.5t-5 14.5l232 557q-22 15 -35 37.5t-13 49.5q0 43 31.5 73t76.5 30t76 -29.5t31 -73.5q0 -28 -13.5 -51.5t-37.5 -37.5l233 -554z
M277.5 692.5q-12.5 -12.5 -12.5 -30.5q0 -19 12.5 -31t30.5 -12t30 12.5t12 30.5t-12 30.5t-30 12.5t-30.5 -12.5zM394 233l-88 233l-89 -233h177z" />
    <glyph glyph-name="aring.ss01.sc" horiz-adv-x="618" 
d="M600 11q0 -7 -10.5 -9t-40.5 -2h-11q-37 0 -47.5 2.5t-14.5 12.5l-50 133h-241l-51 -133q-4 -10 -14 -12.5t-45 -2.5h-9q-35 0 -44 3.5t-5 14.5l232 557q-22 15 -35 37.5t-13 49.5q0 43 31.5 73t76.5 30t76 -29.5t31 -73.5q0 -28 -13.5 -51.5t-37.5 -37.5l233 -554z
M277.5 692.5q-12.5 -12.5 -12.5 -30.5q0 -19 12.5 -31t30.5 -12t30 12.5t12 30.5t-12 30.5t-30 12.5t-30.5 -12.5zM394 233l-88 233l-89 -233h177z" />
    <glyph glyph-name="aringacute.sc" horiz-adv-x="618" 
d="M228 792q-5 3 -1 10l94 149q5 7 13 9t33 2h38q21 0 26 -3t0 -11l-117 -150q-5 -5 -12.5 -7t-24.5 -2h-27q-17 0 -22 3zM600 11q0 -7 -10.5 -9t-40.5 -2h-11q-37 0 -47.5 2.5t-14.5 12.5l-50 133h-241l-51 -133q-4 -10 -14 -12.5t-45 -2.5h-9q-35 0 -44 3.5t-5 14.5
l232 557q-22 15 -35 37.5t-13 49.5q0 43 31.5 73t76.5 30t76 -29.5t31 -73.5q0 -28 -13.5 -51.5t-37.5 -37.5l233 -554zM277.5 692.5q-12.5 -12.5 -12.5 -30.5q0 -19 12.5 -31t30.5 -12t30 12.5t12 30.5t-12 30.5t-30 12.5t-30.5 -12.5zM394 233l-88 233l-89 -233h177z" />
    <glyph glyph-name="aringacute.ss01.sc" horiz-adv-x="618" 
d="M228 792q-5 3 -1 10l94 149q5 7 13 9t33 2h38q21 0 26 -3t0 -11l-117 -150q-5 -5 -12.5 -7t-24.5 -2h-27q-17 0 -22 3zM600 11q0 -7 -10.5 -9t-40.5 -2h-11q-37 0 -47.5 2.5t-14.5 12.5l-50 133h-241l-51 -133q-4 -10 -14 -12.5t-45 -2.5h-9q-35 0 -44 3.5t-5 14.5
l232 557q-22 15 -35 37.5t-13 49.5q0 43 31.5 73t76.5 30t76 -29.5t31 -73.5q0 -28 -13.5 -51.5t-37.5 -37.5l233 -554zM277.5 692.5q-12.5 -12.5 -12.5 -30.5q0 -19 12.5 -31t30.5 -12t30 12.5t12 30.5t-12 30.5t-30 12.5t-30.5 -12.5zM394 233l-88 233l-89 -233h177z" />
    <glyph glyph-name="atilde.sc" horiz-adv-x="618" 
d="M600 11q0 -7 -10.5 -9t-40.5 -2h-11q-37 0 -47.5 2.5t-14.5 12.5l-50 133h-241l-51 -133q-4 -10 -14 -12.5t-45 -2.5h-9q-35 0 -44 3.5t-5 14.5l229 549q5 10 13.5 12.5t43.5 2.5h7q36 0 45 -2.5t13 -12.5l230 -548zM394 233l-88 233l-89 -233h177zM297 673
q-16 8 -26.5 12t-21.5 4q-14 0 -28 -8t-30 -24q-5 -5 -10 -2.5t-20 17.5l-6 6q-15 15 -15 21q0 5 4 10q20 26 48 43t59 17t71 -22q16 -8 26.5 -12t21.5 -4q14 0 28 8t30 24q4 4 10 1.5t20 -16.5l6 -6q15 -15 15 -22q0 -3 -4 -9q-21 -26 -49 -43t-58 -17q-31 0 -71 22z" />
    <glyph glyph-name="atilde.ss01.sc" horiz-adv-x="618" 
d="M600 11q0 -7 -10.5 -9t-40.5 -2h-11q-37 0 -47.5 2.5t-14.5 12.5l-50 133h-241l-51 -133q-4 -10 -14 -12.5t-45 -2.5h-9q-35 0 -44 3.5t-5 14.5l229 549q5 10 13.5 12.5t43.5 2.5h7q36 0 45 -2.5t13 -12.5l230 -548zM394 233l-88 233l-89 -233h177zM297 673
q-16 8 -26.5 12t-21.5 4q-14 0 -28 -8t-30 -24q-5 -5 -10 -2.5t-20 17.5l-6 6q-15 15 -15 21q0 5 4 10q20 26 48 43t59 17t71 -22q16 -8 26.5 -12t21.5 -4q14 0 28 8t30 24q4 4 10 1.5t20 -16.5l6 -6q15 -15 15 -22q0 -3 -4 -9q-21 -26 -49 -43t-58 -17q-31 0 -71 22z" />
    <glyph glyph-name="ae.sc" horiz-adv-x="913" 
d="M25 2q-11 2 -11 8q0 4 4 9l390 549q7 9 14.5 11.5t34.5 2.5h386q7 0 9 -7t2 -34v-8q0 -27 -2 -34t-9 -7h-271v-153h230q7 0 9 -6.5t2 -34.5v-8q0 -28 -2 -34.5t-9 -6.5h-230v-159h275q7 0 9 -6.5t2 -34.5v-8q0 -28 -2 -34.5t-9 -6.5h-351q-27 0 -34 2t-7 11v130h-226
l-89 -129q-6 -8 -17.5 -11t-42.5 -3h-18q-26 0 -37 2zM455 229v248l-85 -129l-84 -119h169z" />
    <glyph glyph-name="aeacute.sc" horiz-adv-x="913" 
d="M25 2q-11 2 -11 8q0 4 4 9l390 549q7 9 14.5 11.5t34.5 2.5h386q7 0 9 -7t2 -34v-8q0 -27 -2 -34t-9 -7h-271v-153h230q7 0 9 -6.5t2 -34.5v-8q0 -28 -2 -34.5t-9 -6.5h-230v-159h275q7 0 9 -6.5t2 -34.5v-8q0 -28 -2 -34.5t-9 -6.5h-351q-27 0 -34 2t-7 11v130h-226
l-89 -129q-6 -8 -17.5 -11t-42.5 -3h-18q-26 0 -37 2zM455 229v248l-85 -129l-84 -119h169zM506 643q-5 3 -1 10l94 149q5 7 13 9t33 2h38q21 0 26 -3t0 -11l-117 -150q-5 -5 -12.5 -7t-24.5 -2h-27q-17 0 -22 3z" />
    <glyph glyph-name="b.sc" horiz-adv-x="568" 
d="M492.5 257q29.5 -36 29.5 -92q0 -85 -71 -125t-193 -40h-141q-27 0 -34 2t-7 11v555q0 9 7.5 11.5t30.5 2.5h124q125 0 187.5 -30.5t62.5 -112.5q0 -47 -23 -79.5t-65 -50.5q63 -16 92.5 -52zM193 341h50q64 0 95.5 18.5t31.5 59.5q0 43 -29 58.5t-96 15.5h-52v-152z
M367.5 106q35.5 18 35.5 65q0 49 -35 67.5t-109 18.5h-66v-169h64q75 0 110.5 18z" />
    <glyph glyph-name="c.sc" horiz-adv-x="555" 
d="M115 68q-74 78 -74 216q0 93 35.5 163t102 107.5t155.5 37.5q100 0 178 -47q7 -5 7 -10q0 -9 -13 -29l-10 -16q-12 -19 -17.5 -23t-12.5 0q-56 31 -121 31q-88 0 -135.5 -54.5t-47.5 -155.5q0 -96 46 -150t135 -54q32 0 66 8t63 21q6 2 9 2q5 0 9 -6t11 -21l6 -14
q9 -22 9 -30q0 -7 -8 -12q-82 -42 -184 -42q-135 0 -209 78z" />
    <glyph glyph-name="cacute.loclPLK.sc" horiz-adv-x="555" 
d="M115 68q-74 78 -74 216q0 93 35.5 163t102 107.5t155.5 37.5q100 0 178 -47q7 -5 7 -10q0 -9 -13 -29l-10 -16q-12 -19 -17.5 -23t-12.5 0q-56 31 -121 31q-88 0 -135.5 -54.5t-47.5 -155.5q0 -96 46 -150t135 -54q32 0 66 8t63 21q6 2 9 2q5 0 9 -6t11 -21l6 -14
q9 -22 9 -30q0 -7 -8 -12q-82 -42 -184 -42q-135 0 -209 78zM250 650q-5 3 -1 10l94 149q5 7 13 9t33 2h38q21 0 26 -3t0 -11l-117 -150q-5 -5 -12.5 -7t-24.5 -2h-27q-17 0 -22 3z" />
    <glyph glyph-name="cacute.sc" horiz-adv-x="555" 
d="M115 68q-74 78 -74 216q0 93 35.5 163t102 107.5t155.5 37.5q100 0 178 -47q7 -5 7 -10q0 -9 -13 -29l-10 -16q-12 -19 -17.5 -23t-12.5 0q-56 31 -121 31q-88 0 -135.5 -54.5t-47.5 -155.5q0 -96 46 -150t135 -54q32 0 66 8t63 21q6 2 9 2q5 0 9 -6t11 -21l6 -14
q9 -22 9 -30q0 -7 -8 -12q-82 -42 -184 -42q-135 0 -209 78zM251 643q-5 3 -1 10l94 149q5 7 13 9t33 2h38q21 0 26 -3t0 -11l-117 -150q-5 -5 -12.5 -7t-24.5 -2h-27q-17 0 -22 3z" />
    <glyph glyph-name="ccaron.sc" horiz-adv-x="555" 
d="M115 68q-74 78 -74 216q0 93 35.5 163t102 107.5t155.5 37.5q100 0 178 -47q7 -5 7 -10q0 -9 -13 -29l-10 -16q-12 -19 -17.5 -23t-12.5 0q-56 31 -121 31q-88 0 -135.5 -54.5t-47.5 -155.5q0 -96 46 -150t135 -54q32 0 66 8t63 21q6 2 9 2q5 0 9 -6t11 -21l6 -14
q9 -22 9 -30q0 -7 -8 -12q-82 -42 -184 -42q-135 0 -209 78zM288 643q-11 3 -19 12l-92 98q-4 4 -4 8q0 5 14 21l8 8q7 7 13 12t10 5q2 0 8 -4l105 -91l106 91q6 4 8 4q4 0 10 -5t13 -12l8 -8q14 -16 14 -21q0 -4 -4 -8l-92 -98q-8 -9 -19 -12t-35 -3h-17q-24 0 -35 3z" />
    <glyph glyph-name="ccedilla.sc" horiz-adv-x="555" 
d="M507 74q9 -22 9 -30q0 -7 -8 -12q-71 -36 -160 -41l-4 -39q7 1 17 1q39 0 65.5 -24t26.5 -64q0 -43 -31 -72.5t-91 -29.5q-43 0 -76 13q-9 3 -9 10q0 5 5 20l3 10q4 15 7.5 19t11.5 2q30 -6 49 -6q46 0 46 34q0 33 -50 33q-26 0 -58 -6l14 101q-112 14 -172.5 90.5
t-60.5 200.5q0 93 35.5 163t102 107.5t155.5 37.5q100 0 178 -47q7 -5 7 -10q0 -9 -13 -29l-10 -16q-12 -19 -17.5 -23t-12.5 0q-56 31 -121 31q-88 0 -135.5 -54.5t-47.5 -155.5q0 -96 46 -150t135 -54q32 0 66 8t63 21q6 2 9 2q5 0 9 -6t11 -21z" />
    <glyph glyph-name="ccircumflex.sc" horiz-adv-x="555" 
d="M115 68q-74 78 -74 216q0 93 35.5 163t102 107.5t155.5 37.5q100 0 178 -47q7 -5 7 -10q0 -9 -13 -29l-10 -16q-12 -19 -17.5 -23t-12.5 0q-56 31 -121 31q-88 0 -135.5 -54.5t-47.5 -155.5q0 -96 46 -150t135 -54q32 0 66 8t63 21q6 2 9 2q5 0 9 -6t11 -21l6 -14
q9 -22 9 -30q0 -7 -8 -12q-82 -42 -184 -42q-135 0 -209 78zM218 629q-4 0 -10 5t-13 12l-8 8q-14 16 -14 21t4 9l92 97q8 9 19 12t35 3h17q24 0 35 -3t19 -12l92 -97q4 -4 4 -9t-14 -21l-8 -8q-7 -7 -13 -12t-10 -5q-2 0 -8 4l-106 91l-105 -91q-6 -4 -8 -4z" />
    <glyph glyph-name="cdotaccent.sc" horiz-adv-x="555" 
d="M115 68q-74 78 -74 216q0 93 35.5 163t102 107.5t155.5 37.5q100 0 178 -47q7 -5 7 -10q0 -9 -13 -29l-10 -16q-12 -19 -17.5 -23t-12.5 0q-56 31 -121 31q-88 0 -135.5 -54.5t-47.5 -155.5q0 -96 46 -150t135 -54q32 0 66 8t63 21q6 2 9 2q5 0 9 -6t11 -21l6 -14
q9 -22 9 -30q0 -7 -8 -12q-82 -42 -184 -42q-135 0 -209 78zM286.5 670.5q-19.5 19.5 -19.5 45.5q0 27 19.5 46t45.5 19q27 0 46 -19t19 -46q0 -26 -19 -45.5t-46 -19.5q-26 0 -45.5 19.5z" />
    <glyph glyph-name="d.sc" horiz-adv-x="634" 
d="M83 2q-7 2 -7 11v555q0 9 7.5 11.5t30.5 2.5h134q169 0 257 -69t88 -220q0 -153 -88.5 -223t-255.5 -70h-132q-27 0 -34 2zM251 89q112 0 167 48.5t55 154.5t-55.5 153.5t-165.5 47.5h-59v-404h58z" />
    <glyph glyph-name="eth.sc" horiz-adv-x="640" 
d="M510 513q88 -69 88 -220q0 -153 -88.5 -223t-255.5 -70h-132q-27 0 -34 2t-7 11v239h-54q-9 0 -12.5 7.5t-3.5 31.5v6q0 24 3.5 31.5t12.5 7.5h54v232q0 9 7.5 11.5t30.5 2.5h134q169 0 257 -69zM423 137.5q55 48.5 55 154.5t-55.5 153.5t-165.5 47.5h-59v-157h89
q9 0 12.5 -7t3.5 -32v-6q0 -25 -3.5 -32t-12.5 -7h-89v-163h58q112 0 167 48.5z" />
    <glyph glyph-name="dcaron.sc" horiz-adv-x="634" 
d="M83 2q-7 2 -7 11v555q0 9 7.5 11.5t30.5 2.5h134q169 0 257 -69t88 -220q0 -153 -88.5 -223t-255.5 -70h-132q-27 0 -34 2zM251 89q112 0 167 48.5t55 154.5t-55.5 153.5t-165.5 47.5h-59v-404h58zM274 643q-11 3 -19 12l-92 98q-4 4 -4 8q0 5 14 21l8 8q7 7 13 12t10 5
q2 0 8 -4l105 -91l106 91q6 4 8 4q4 0 10 -5t13 -12l8 -8q14 -16 14 -21q0 -4 -4 -8l-92 -98q-8 -9 -19 -12t-35 -3h-17q-24 0 -35 3z" />
    <glyph glyph-name="dcroat.sc" horiz-adv-x="640" 
d="M510 513q88 -69 88 -220q0 -153 -88.5 -223t-255.5 -70h-132q-27 0 -34 2t-7 11v239h-54q-9 0 -12.5 7.5t-3.5 31.5v6q0 24 3.5 31.5t12.5 7.5h54v232q0 9 7.5 11.5t30.5 2.5h134q169 0 257 -69zM423 137.5q55 48.5 55 154.5t-55.5 153.5t-165.5 47.5h-59v-157h89
q9 0 12.5 -7t3.5 -32v-6q0 -25 -3.5 -32t-12.5 -7h-89v-163h58q112 0 167 48.5z" />
    <glyph glyph-name="e.sc" horiz-adv-x="534" 
d="M83 2q-7 2 -7 11v555q0 9 7.5 11.5t30.5 2.5h350q7 0 9 -7t2 -34v-8q0 -27 -2 -34t-9 -7h-271v-153h231q6 0 8 -7t2 -34v-8q0 -27 -2 -34t-8 -7h-231v-159h275q7 0 9 -7t2 -34v-8q0 -27 -2 -34t-9 -7h-351q-27 0 -34 2z" />
    <glyph glyph-name="eacute.sc" horiz-adv-x="534" 
d="M83 2q-7 2 -7 11v555q0 9 7.5 11.5t30.5 2.5h350q7 0 9 -7t2 -34v-8q0 -27 -2 -34t-9 -7h-271v-153h231q6 0 8 -7t2 -34v-8q0 -27 -2 -34t-8 -7h-231v-159h275q7 0 9 -7t2 -34v-8q0 -27 -2 -34t-9 -7h-351q-27 0 -34 2zM198 643q-5 3 -1 10l94 149q5 7 13 9t33 2h38
q21 0 26 -3t0 -11l-117 -150q-5 -5 -12.5 -7t-24.5 -2h-27q-17 0 -22 3z" />
    <glyph glyph-name="ebreve.sc" horiz-adv-x="534" 
d="M83 2q-7 2 -7 11v555q0 9 7.5 11.5t30.5 2.5h350q7 0 9 -7t2 -34v-8q0 -27 -2 -34t-9 -7h-271v-153h231q6 0 8 -7t2 -34v-8q0 -27 -2 -34t-8 -7h-231v-159h275q7 0 9 -7t2 -34v-8q0 -27 -2 -34t-9 -7h-351q-27 0 -34 2zM172.5 675q-40.5 35 -42.5 97q0 7 7 9.5t29 2.5h14
q19 0 24.5 -2.5t6.5 -9.5q11 -59 68 -59q59 0 68 59q1 7 7 9.5t25 2.5h14q22 0 28.5 -2.5t6.5 -9.5q-2 -62 -42.5 -97t-106.5 -35t-106.5 35z" />
    <glyph glyph-name="ecaron.sc" horiz-adv-x="534" 
d="M83 2q-7 2 -7 11v555q0 9 7.5 11.5t30.5 2.5h350q7 0 9 -7t2 -34v-8q0 -27 -2 -34t-9 -7h-271v-153h231q6 0 8 -7t2 -34v-8q0 -27 -2 -34t-8 -7h-231v-159h275q7 0 9 -7t2 -34v-8q0 -27 -2 -34t-9 -7h-351q-27 0 -34 2zM235 643q-11 3 -19 12l-92 98q-4 4 -4 8q0 5 14 21
l8 8q7 7 13 12t10 5q2 0 8 -4l105 -91l106 91q6 4 8 4q4 0 10 -5t13 -12l8 -8q14 -16 14 -21q0 -4 -4 -8l-92 -98q-8 -9 -19 -12t-35 -3h-17q-24 0 -35 3z" />
    <glyph glyph-name="ecircumflex.sc" horiz-adv-x="534" 
d="M83 2q-7 2 -7 11v555q0 9 7.5 11.5t30.5 2.5h350q7 0 9 -7t2 -34v-8q0 -27 -2 -34t-9 -7h-271v-153h231q6 0 8 -7t2 -34v-8q0 -27 -2 -34t-8 -7h-231v-159h275q7 0 9 -7t2 -34v-8q0 -27 -2 -34t-9 -7h-351q-27 0 -34 2zM165 629q-4 0 -10 5t-13 12l-8 8q-14 16 -14 21
t4 9l92 97q8 9 19 12t35 3h17q24 0 35 -3t19 -12l92 -97q4 -4 4 -9t-14 -21l-8 -8q-7 -7 -13 -12t-10 -5q-2 0 -8 4l-106 91l-105 -91q-6 -4 -8 -4z" />
    <glyph glyph-name="edieresis.sc" horiz-adv-x="534" 
d="M83 2q-7 2 -7 11v555q0 9 7.5 11.5t30.5 2.5h350q7 0 9 -7t2 -34v-8q0 -27 -2 -34t-9 -7h-271v-153h231q6 0 8 -7t2 -34v-8q0 -27 -2 -34t-8 -7h-231v-159h275q7 0 9 -7t2 -34v-8q0 -27 -2 -34t-9 -7h-351q-27 0 -34 2zM125.5 669q-18.5 18 -18.5 44q0 27 19 45.5
t46 18.5q28 0 46.5 -18.5t18.5 -45.5q0 -26 -18.5 -44t-46.5 -18t-46.5 18zM338.5 669q-18.5 18 -18.5 44q0 27 18.5 45.5t45.5 18.5q28 0 47 -18.5t19 -45.5q0 -26 -19 -44t-47 -18q-27 0 -45.5 18z" />
    <glyph glyph-name="edotaccent.sc" horiz-adv-x="534" 
d="M83 2q-7 2 -7 11v555q0 9 7.5 11.5t30.5 2.5h350q7 0 9 -7t2 -34v-8q0 -27 -2 -34t-9 -7h-271v-153h231q6 0 8 -7t2 -34v-8q0 -27 -2 -34t-8 -7h-231v-159h275q7 0 9 -7t2 -34v-8q0 -27 -2 -34t-9 -7h-351q-27 0 -34 2zM233.5 670.5q-19.5 19.5 -19.5 45.5q0 27 19.5 46
t45.5 19q27 0 46 -19t19 -46q0 -26 -19 -45.5t-46 -19.5q-26 0 -45.5 19.5z" />
    <glyph glyph-name="egrave.sc" horiz-adv-x="534" 
d="M83 2q-7 2 -7 11v555q0 9 7.5 11.5t30.5 2.5h350q7 0 9 -7t2 -34v-8q0 -27 -2 -34t-9 -7h-271v-153h231q6 0 8 -7t2 -34v-8q0 -27 -2 -34t-8 -7h-231v-159h275q7 0 9 -7t2 -34v-8q0 -27 -2 -34t-9 -7h-351q-27 0 -34 2zM276.5 642q-7.5 2 -12.5 7l-117 150q-5 8 0.5 11
t26.5 3h38q24 0 32.5 -2.5t12.5 -8.5l94 -149q2 -4 2 -6q0 -7 -24 -7h-28q-17 0 -24.5 2z" />
    <glyph glyph-name="emacron.sc" horiz-adv-x="534" 
d="M83 2q-7 2 -7 11v555q0 9 7.5 11.5t30.5 2.5h350q7 0 9 -7t2 -34v-8q0 -27 -2 -34t-9 -7h-271v-153h231q6 0 8 -7t2 -34v-8q0 -27 -2 -34t-8 -7h-231v-159h275q7 0 9 -7t2 -34v-8q0 -27 -2 -34t-9 -7h-351q-27 0 -34 2zM135 659q-2 8 -2 28v11q0 21 2 28t9 7h268
q7 0 9.5 -7t2.5 -28v-11q0 -20 -2.5 -28t-9.5 -8h-268q-7 0 -9 8z" />
    <glyph glyph-name="eogonek.sc" horiz-adv-x="534" 
d="M477 83q2 -7 2 -34v-8q0 -25 -3 -32t-12 -9q-45 -7 -79 -39t-34 -74q0 -23 13 -35.5t35 -12.5q21 0 43 9q1 1 4 1q4 0 6.5 -5t7.5 -19l3 -10q4 -13 4 -21q0 -7 -6 -11q-17 -9 -39 -14.5t-42 -5.5q-51 0 -84 29.5t-33 80.5q0 37 22 71.5t59 55.5h-227q-27 0 -34 2t-7 11
v555q0 9 7.5 11.5t30.5 2.5h350q7 0 9 -7t2 -34v-8q0 -27 -2 -34t-9 -7h-271v-153h231q6 0 8 -7t2 -34v-8q0 -27 -2 -34t-8 -7h-231v-159h275q7 0 9 -7z" />
    <glyph glyph-name="f.sc" horiz-adv-x="499" 
d="M466 575q2 -7 2 -34v-8q0 -26 -2.5 -33.5t-8.5 -7.5h-264v-153h223q6 0 8.5 -7.5t2.5 -33.5v-8q0 -27 -2 -34t-9 -7h-223v-234q0 -7 -3.5 -10t-16 -4t-33.5 -1h-11q-21 0 -33.5 1t-16 4t-3.5 10v553q0 9 7.5 11.5t30.5 2.5h343q7 0 9 -7z" />
    <glyph glyph-name="f_f.liga.sc" horiz-adv-x="998" 
d="M466 575q2 -7 2 -34v-8q0 -26 -2.5 -33.5t-8.5 -7.5h-264v-153h223q6 0 8.5 -7.5t2.5 -33.5v-8q0 -27 -2 -34t-9 -7h-223v-234q0 -7 -3.5 -10t-16 -4t-33.5 -1h-11q-21 0 -33.5 1t-16 4t-3.5 10v553q0 9 7.5 11.5t30.5 2.5h343q7 0 9 -7zM965 575q2 -7 2 -34v-8
q0 -26 -2.5 -33.5t-8.5 -7.5h-264v-153h223q6 0 8.5 -7.5t2.5 -33.5v-8q0 -27 -2 -34t-9 -7h-223v-234q0 -7 -3.5 -10t-16 -4t-33.5 -1h-11q-21 0 -33.5 1t-16 4t-3.5 10v553q0 9 7.5 11.5t30.5 2.5h343q7 0 9 -7z" />
    <glyph glyph-name="f_f_i.liga.sc" horiz-adv-x="1267" 
d="M466 575q2 -7 2 -34v-8q0 -26 -2.5 -33.5t-8.5 -7.5h-264v-153h223q6 0 8.5 -7.5t2.5 -33.5v-8q0 -27 -2 -34t-9 -7h-223v-234q0 -7 -3.5 -10t-16 -4t-33.5 -1h-11q-21 0 -33.5 1t-16 4t-3.5 10v553q0 9 7.5 11.5t30.5 2.5h343q7 0 9 -7zM965 575q2 -7 2 -34v-8
q0 -26 -2.5 -33.5t-8.5 -7.5h-264v-153h223q6 0 8.5 -7.5t2.5 -33.5v-8q0 -27 -2 -34t-9 -7h-223v-234q0 -7 -3.5 -10t-16 -4t-33.5 -1h-11q-21 0 -33.5 1t-16 4t-3.5 10v553q0 9 7.5 11.5t30.5 2.5h343q7 0 9 -7zM1093.5 1q-12.5 1 -16 4t-3.5 10v552q0 7 3.5 10t16 4
t33.5 1h11q21 0 33.5 -1t16 -4t3.5 -10v-552q0 -7 -3.5 -10t-16 -4t-33.5 -1h-11q-21 0 -33.5 1z" />
    <glyph glyph-name="f_f_l.liga.sc" horiz-adv-x="1490" 
d="M466 575q2 -7 2 -34v-8q0 -26 -2.5 -33.5t-8.5 -7.5h-264v-153h223q6 0 8.5 -7.5t2.5 -33.5v-8q0 -27 -2 -34t-9 -7h-223v-234q0 -7 -3.5 -10t-16 -4t-33.5 -1h-11q-21 0 -33.5 1t-16 4t-3.5 10v553q0 9 7.5 11.5t30.5 2.5h343q7 0 9 -7zM965 575q2 -7 2 -34v-8
q0 -26 -2.5 -33.5t-8.5 -7.5h-264v-153h223q6 0 8.5 -7.5t2.5 -33.5v-8q0 -27 -2 -34t-9 -7h-223v-234q0 -7 -3.5 -10t-16 -4t-33.5 -1h-11q-21 0 -33.5 1t-16 4t-3.5 10v553q0 9 7.5 11.5t30.5 2.5h343q7 0 9 -7zM1081 2.5q-6 2.5 -6 13.5v551q0 7 3.5 10t16 4t33.5 1h11
q21 0 33.5 -1t16 -4t3.5 -10v-477h253q7 0 9 -7t2 -34v-8q0 -27 -2 -34t-9 -7h-331q-27 0 -33 2.5z" />
    <glyph glyph-name="fi.sc" horiz-adv-x="768" 
d="M466 575q2 -7 2 -34v-8q0 -26 -2.5 -33.5t-8.5 -7.5h-264v-153h223q6 0 8.5 -7.5t2.5 -33.5v-8q0 -27 -2 -34t-9 -7h-223v-234q0 -7 -3.5 -10t-16 -4t-33.5 -1h-11q-21 0 -33.5 1t-16 4t-3.5 10v553q0 9 7.5 11.5t30.5 2.5h343q7 0 9 -7zM594.5 1q-12.5 1 -16 4t-3.5 10
v552q0 7 3.5 10t16 4t33.5 1h11q21 0 33.5 -1t16 -4t3.5 -10v-552q0 -7 -3.5 -10t-16 -4t-33.5 -1h-11q-21 0 -33.5 1z" />
    <glyph glyph-name="fl.sc" horiz-adv-x="991" 
d="M466 575q2 -7 2 -34v-8q0 -26 -2.5 -33.5t-8.5 -7.5h-264v-153h223q6 0 8.5 -7.5t2.5 -33.5v-8q0 -27 -2 -34t-9 -7h-223v-234q0 -7 -3.5 -10t-16 -4t-33.5 -1h-11q-21 0 -33.5 1t-16 4t-3.5 10v553q0 9 7.5 11.5t30.5 2.5h343q7 0 9 -7zM582 2.5q-6 2.5 -6 13.5v551
q0 7 3.5 10t16 4t33.5 1h11q21 0 33.5 -1t16 -4t3.5 -10v-477h253q7 0 9 -7t2 -34v-8q0 -27 -2 -34t-9 -7h-331q-27 0 -33 2.5z" />
    <glyph glyph-name="g.sc" horiz-adv-x="628" 
d="M117.5 67.5q-76.5 77.5 -76.5 221.5q0 95 37.5 163t106 104t160.5 36q112 0 195 -51q8 -5 8 -12q0 -10 -13 -30l-11 -17q-8 -14 -12.5 -19t-9.5 -5t-12 4q-67 36 -136 36q-95 0 -143.5 -55t-48.5 -151q0 -104 47.5 -156.5t141.5 -52.5q48 0 94 11v141h-121q-6 0 -8 7.5
t-2 33.5v9q0 27 2 33t8 6h201q24 0 30 -2t6 -11v-262q0 -9 -2.5 -13.5t-11.5 -8.5q-37 -18 -93.5 -27.5t-115.5 -9.5q-144 0 -220.5 77.5z" />
    <glyph glyph-name="gbreve.sc" horiz-adv-x="628" 
d="M117.5 67.5q-76.5 77.5 -76.5 221.5q0 95 37.5 163t106 104t160.5 36q112 0 195 -51q8 -5 8 -12q0 -10 -13 -30l-11 -17q-8 -14 -12.5 -19t-9.5 -5t-12 4q-67 36 -136 36q-95 0 -143.5 -55t-48.5 -151q0 -104 47.5 -156.5t141.5 -52.5q48 0 94 11v141h-121q-6 0 -8 7.5
t-2 33.5v9q0 27 2 33t8 6h201q24 0 30 -2t6 -11v-262q0 -9 -2.5 -13.5t-11.5 -8.5q-37 -18 -93.5 -27.5t-115.5 -9.5q-144 0 -220.5 77.5zM238.5 675q-40.5 35 -42.5 97q0 7 7 9.5t29 2.5h14q19 0 24.5 -2.5t6.5 -9.5q11 -59 68 -59q59 0 68 59q1 7 7 9.5t25 2.5h14
q22 0 28.5 -2.5t6.5 -9.5q-2 -62 -42.5 -97t-106.5 -35t-106.5 35z" />
    <glyph glyph-name="gcircumflex.sc" horiz-adv-x="628" 
d="M117.5 67.5q-76.5 77.5 -76.5 221.5q0 95 37.5 163t106 104t160.5 36q112 0 195 -51q8 -5 8 -12q0 -10 -13 -30l-11 -17q-8 -14 -12.5 -19t-9.5 -5t-12 4q-67 36 -136 36q-95 0 -143.5 -55t-48.5 -151q0 -104 47.5 -156.5t141.5 -52.5q48 0 94 11v141h-121q-6 0 -8 7.5
t-2 33.5v9q0 27 2 33t8 6h201q24 0 30 -2t6 -11v-262q0 -9 -2.5 -13.5t-11.5 -8.5q-37 -18 -93.5 -27.5t-115.5 -9.5q-144 0 -220.5 77.5zM231 629q-4 0 -10 5t-13 12l-8 8q-14 16 -14 21t4 9l92 97q8 9 19 12t35 3h17q24 0 35 -3t19 -12l92 -97q4 -4 4 -9t-14 -21l-8 -8
q-7 -7 -13 -12t-10 -5q-2 0 -8 4l-106 91l-105 -91q-6 -4 -8 -4z" />
    <glyph glyph-name="gcommaaccent.sc" horiz-adv-x="628" 
d="M117.5 67.5q-76.5 77.5 -76.5 221.5q0 95 37.5 163t106 104t160.5 36q112 0 195 -51q8 -5 8 -12q0 -10 -13 -30l-11 -17q-8 -14 -12.5 -19t-9.5 -5t-12 4q-67 36 -136 36q-95 0 -143.5 -55t-48.5 -151q0 -104 47.5 -156.5t141.5 -52.5q48 0 94 11v141h-121q-6 0 -8 7.5
t-2 33.5v9q0 27 2 33t8 6h201q24 0 30 -2t6 -11v-262q0 -9 -2.5 -13.5t-11.5 -8.5q-37 -18 -93.5 -27.5t-115.5 -9.5q-144 0 -220.5 77.5zM296 -305q-5 0 -10 5l-13 11q-6 6 -6 9q0 5 4 9q23 27 33.5 50.5t10.5 39.5q0 11 -4 17.5t-12 17.5q-1 2 -6.5 9t-8 14.5t-2.5 16.5
q0 20 15.5 34.5t38.5 14.5q27 0 44 -19.5t17 -49.5q0 -46 -24 -91.5t-68 -83.5q-4 -4 -9 -4z" />
    <glyph glyph-name="gdotaccent.sc" horiz-adv-x="628" 
d="M117.5 67.5q-76.5 77.5 -76.5 221.5q0 95 37.5 163t106 104t160.5 36q112 0 195 -51q8 -5 8 -12q0 -10 -13 -30l-11 -17q-8 -14 -12.5 -19t-9.5 -5t-12 4q-67 36 -136 36q-95 0 -143.5 -55t-48.5 -151q0 -104 47.5 -156.5t141.5 -52.5q48 0 94 11v141h-121q-6 0 -8 7.5
t-2 33.5v9q0 27 2 33t8 6h201q24 0 30 -2t6 -11v-262q0 -9 -2.5 -13.5t-11.5 -8.5q-37 -18 -93.5 -27.5t-115.5 -9.5q-144 0 -220.5 77.5zM299.5 670.5q-19.5 19.5 -19.5 45.5q0 27 19.5 46t45.5 19q27 0 46 -19t19 -46q0 -26 -19 -45.5t-46 -19.5q-26 0 -45.5 19.5z" />
    <glyph glyph-name="h.sc" horiz-adv-x="649" 
d="M553.5 581q12.5 -1 16 -4t3.5 -10v-552q0 -7 -3.5 -10t-16 -4t-33.5 -1h-11q-21 0 -33.5 1t-16 4t-3.5 10v234h-263v-234q0 -7 -3.5 -10t-16 -4t-33.5 -1h-11q-21 0 -33.5 1t-16 4t-3.5 10v552q0 7 3.5 10t16 4t33.5 1h11q21 0 33.5 -1t16 -4t3.5 -10v-228h263v228
q0 7 3.5 10t16 4t33.5 1h11q21 0 33.5 -1z" />
    <glyph glyph-name="hbar.sc" horiz-adv-x="653" 
d="M631.5 497q3.5 -7 3.5 -32v-6q0 -25 -3.5 -32t-12.5 -7h-44v-405q0 -7 -3.5 -10t-16 -4t-33.5 -1h-11q-21 0 -33.5 1t-16 4t-3.5 10v234h-263v-234q0 -7 -3.5 -10t-16 -4t-33.5 -1h-11q-21 0 -33.5 1t-16 4t-3.5 10v405h-44q-9 0 -12.5 7.5t-3.5 31.5v6q0 24 3.5 31.5
t12.5 7.5h44v63q0 7 3.5 10t16 4t33.5 1h11q21 0 33.5 -1t16 -4t3.5 -10v-63h263v63q0 7 3.5 10t16 4t33.5 1h11q21 0 33.5 -1t16 -4t3.5 -10v-63h44q9 0 12.5 -7zM458 420h-263v-81h263v81z" />
    <glyph glyph-name="hcircumflex.sc" horiz-adv-x="649" 
d="M553.5 581q12.5 -1 16 -4t3.5 -10v-552q0 -7 -3.5 -10t-16 -4t-33.5 -1h-11q-21 0 -33.5 1t-16 4t-3.5 10v234h-263v-234q0 -7 -3.5 -10t-16 -4t-33.5 -1h-11q-21 0 -33.5 1t-16 4t-3.5 10v552q0 7 3.5 10t16 4t33.5 1h11q21 0 33.5 -1t16 -4t3.5 -10v-228h263v228
q0 7 3.5 10t16 4t33.5 1h11q21 0 33.5 -1zM211 629q-4 0 -10 5t-13 12l-8 8q-14 16 -14 21t4 9l92 97q8 9 19 12t35 3h17q24 0 35 -3t19 -12l92 -97q4 -4 4 -9t-14 -21l-8 -8q-7 -7 -13 -12t-10 -5q-2 0 -8 4l-106 91l-105 -91q-6 -4 -8 -4z" />
    <glyph glyph-name="i.sc" horiz-adv-x="269" 
d="M95.5 1q-12.5 1 -16 4t-3.5 10v552q0 7 3.5 10t16 4t33.5 1h11q21 0 33.5 -1t16 -4t3.5 -10v-552q0 -7 -3.5 -10t-16 -4t-33.5 -1h-11q-21 0 -33.5 1z" />
    <glyph glyph-name="dotlessi.sc" horiz-adv-x="269" 
d="M95.5 1q-12.5 1 -16 4t-3.5 10v552q0 7 3.5 10t16 4t33.5 1h11q21 0 33.5 -1t16 -4t3.5 -10v-552q0 -7 -3.5 -10t-16 -4t-33.5 -1h-11q-21 0 -33.5 1z" />
    <glyph glyph-name="iacute.sc" horiz-adv-x="269" 
d="M95.5 1q-12.5 1 -16 4t-3.5 10v552q0 7 3.5 10t16 4t33.5 1h11q21 0 33.5 -1t16 -4t3.5 -10v-552q0 -7 -3.5 -10t-16 -4t-33.5 -1h-11q-21 0 -33.5 1zM54 643q-5 3 -1 10l94 149q5 7 13 9t33 2h38q21 0 26 -3t0 -11l-117 -150q-5 -5 -12.5 -7t-24.5 -2h-27q-17 0 -22 3z
" />
    <glyph glyph-name="iacute_j.loclNLD.sc" horiz-adv-x="711" 
d="M95.5 1q-12.5 1 -16 4t-3.5 10v552q0 7 3.5 10t16 4t33.5 1h11q21 0 33.5 -1t16 -4t3.5 -10v-552q0 -7 -3.5 -10t-16 -4t-33.5 -1h-11q-21 0 -33.5 1zM54 643q-5 3 -1 10l94 149q5 7 13 9t33 2h38q21 0 26 -3t0 -11l-117 -150q-5 -5 -12.5 -7t-24.5 -2h-27q-17 0 -22 3z
M304 17q-7 3 -7 11q0 11 8 30l6 14q9 22 12.5 27t12.5 2q50 -18 91 -18q55 0 75 25.5t20 80.5v378q0 7 3.5 10t16 4t33.5 1h11q21 0 34 -1t16 -4t3 -10v-381q0 -99 -49.5 -147.5t-150.5 -48.5q-75 0 -135 27zM500 643q-5 3 -1 10l94 149q5 7 13 9t33 2h38q21 0 26 -3t0 -11
l-117 -150q-5 -5 -12.5 -7t-24.5 -2h-27q-17 0 -22 3z" />
    <glyph glyph-name="ibreve.sc" horiz-adv-x="269" 
d="M95.5 1q-12.5 1 -16 4t-3.5 10v552q0 7 3.5 10t16 4t33.5 1h11q21 0 33.5 -1t16 -4t3.5 -10v-552q0 -7 -3.5 -10t-16 -4t-33.5 -1h-11q-21 0 -33.5 1zM28.5 675q-40.5 35 -42.5 97q0 7 7 9.5t29 2.5h14q19 0 24.5 -2.5t6.5 -9.5q11 -59 68 -59q59 0 68 59q1 7 7 9.5
t25 2.5h14q22 0 28.5 -2.5t6.5 -9.5q-2 -62 -42.5 -97t-106.5 -35t-106.5 35z" />
    <glyph glyph-name="icircumflex.sc" horiz-adv-x="269" 
d="M95.5 1q-12.5 1 -16 4t-3.5 10v552q0 7 3.5 10t16 4t33.5 1h11q21 0 33.5 -1t16 -4t3.5 -10v-552q0 -7 -3.5 -10t-16 -4t-33.5 -1h-11q-21 0 -33.5 1zM21 629q-4 0 -10 5t-13 12l-8 8q-14 16 -14 21t4 9l92 97q8 9 19 12t35 3h17q24 0 35 -3t19 -12l92 -97q4 -4 4 -9
t-14 -21l-8 -8q-7 -7 -13 -12t-10 -5q-2 0 -8 4l-106 91l-105 -91q-6 -4 -8 -4z" />
    <glyph glyph-name="idieresis.sc" horiz-adv-x="269" 
d="M95.5 1q-12.5 1 -16 4t-3.5 10v552q0 7 3.5 10t16 4t33.5 1h11q21 0 33.5 -1t16 -4t3.5 -10v-552q0 -7 -3.5 -10t-16 -4t-33.5 -1h-11q-21 0 -33.5 1zM-18.5 669q-18.5 18 -18.5 44q0 27 19 45.5t46 18.5q28 0 46.5 -18.5t18.5 -45.5q0 -26 -18.5 -44t-46.5 -18t-46.5 18
zM194.5 669q-18.5 18 -18.5 44q0 27 18.5 45.5t45.5 18.5q28 0 47 -18.5t19 -45.5q0 -26 -19 -44t-47 -18q-27 0 -45.5 18z" />
    <glyph glyph-name="i.sc.loclTRK" horiz-adv-x="269" 
d="M95.5 1q-12.5 1 -16 4t-3.5 10v552q0 7 3.5 10t16 4t33.5 1h11q21 0 33.5 -1t16 -4t3.5 -10v-552q0 -7 -3.5 -10t-16 -4t-33.5 -1h-11q-21 0 -33.5 1zM89.5 670.5q-19.5 19.5 -19.5 45.5q0 27 19.5 46t45.5 19q27 0 46 -19t19 -46q0 -26 -19 -45.5t-46 -19.5
q-26 0 -45.5 19.5z" />
    <glyph glyph-name="igrave.sc" horiz-adv-x="269" 
d="M95.5 1q-12.5 1 -16 4t-3.5 10v552q0 7 3.5 10t16 4t33.5 1h11q21 0 33.5 -1t16 -4t3.5 -10v-552q0 -7 -3.5 -10t-16 -4t-33.5 -1h-11q-21 0 -33.5 1zM132.5 642q-7.5 2 -12.5 7l-117 150q-5 8 0.5 11t26.5 3h38q24 0 32.5 -2.5t12.5 -8.5l94 -149q2 -4 2 -6q0 -7 -24 -7
h-28q-17 0 -24.5 2z" />
    <glyph glyph-name="ij.sc" horiz-adv-x="711" 
d="M95.5 1q-12.5 1 -16 4t-3.5 10v552q0 7 3.5 10t16 4t33.5 1h11q21 0 33.5 -1t16 -4t3.5 -10v-552q0 -7 -3.5 -10t-16 -4t-33.5 -1h-11q-21 0 -33.5 1zM304 17q-7 3 -7 11q0 11 8 30l6 14q9 22 12.5 27t12.5 2q50 -18 91 -18q55 0 75 25.5t20 80.5v378q0 7 3.5 10t16 4
t33.5 1h11q21 0 34 -1t16 -4t3 -10v-381q0 -99 -49.5 -147.5t-150.5 -48.5q-75 0 -135 27z" />
    <glyph glyph-name="imacron.sc" horiz-adv-x="269" 
d="M95.5 1q-12.5 1 -16 4t-3.5 10v552q0 7 3.5 10t16 4t33.5 1h11q21 0 33.5 -1t16 -4t3.5 -10v-552q0 -7 -3.5 -10t-16 -4t-33.5 -1h-11q-21 0 -33.5 1zM-9 659q-2 8 -2 28v11q0 21 2 28t9 7h268q7 0 9.5 -7t2.5 -28v-11q0 -20 -2.5 -28t-9.5 -8h-268q-7 0 -9 8z" />
    <glyph glyph-name="iogonek.sc" horiz-adv-x="270" 
d="M197 -205q0 -7 -6 -11q-17 -9 -39.5 -14.5t-42.5 -5.5q-52 0 -86 29t-34 82q0 43 23.5 79t63.5 59v554q0 7 3.5 10t16 4t33.5 1h11q21 0 33.5 -1t16 -4t3.5 -10v-547v-3q0 -8 -3 -11.5t-14 -7.5q-43 -13 -70.5 -42.5t-27.5 -66.5q0 -24 13 -37t36 -13q19 0 45 10q1 1 3 1
q4 0 7.5 -6.5t7.5 -17.5l3 -10q4 -13 4 -21z" />
    <glyph glyph-name="itilde.sc" horiz-adv-x="269" 
d="M95.5 1q-12.5 1 -16 4t-3.5 10v552q0 7 3.5 10t16 4t33.5 1h11q21 0 33.5 -1t16 -4t3.5 -10v-552q0 -7 -3.5 -10t-16 -4t-33.5 -1h-11q-21 0 -33.5 1zM123 673q-16 8 -26.5 12t-21.5 4q-14 0 -28 -8t-30 -24q-5 -5 -10 -2.5t-20 17.5l-6 6q-15 15 -15 21q0 5 4 10
q20 26 48 43t59 17t71 -22q16 -8 26.5 -12t21.5 -4q14 0 28 8t30 24q4 4 10 1.5t20 -16.5l6 -6q15 -15 15 -22q0 -3 -4 -9q-21 -26 -49 -43t-58 -17q-31 0 -71 22z" />
    <glyph glyph-name="j.sc" horiz-adv-x="442" 
d="M35 17q-7 3 -7 11q0 11 8 30l6 14q9 22 12.5 27t12.5 2q50 -18 91 -18q55 0 75 25.5t20 80.5v378q0 7 3.5 10t16 4t33.5 1h11q21 0 34 -1t16 -4t3 -10v-381q0 -99 -49.5 -147.5t-150.5 -48.5q-75 0 -135 27z" />
    <glyph glyph-name="uni0237.sc" horiz-adv-x="442" 
d="M35 17q-7 3 -7 11q0 11 8 30l6 14q9 22 12.5 27t12.5 2q50 -18 91 -18q55 0 75 25.5t20 80.5v378q0 7 3.5 10t16 4t33.5 1h11q21 0 34 -1t16 -4t3 -10v-381q0 -99 -49.5 -147.5t-150.5 -48.5q-75 0 -135 27z" />
    <glyph glyph-name="jcircumflex.sc" horiz-adv-x="442" 
d="M35 17q-7 3 -7 11q0 11 8 30l6 14q9 22 12.5 27t12.5 2q50 -18 91 -18q55 0 75 25.5t20 80.5v378q0 7 3.5 10t16 4t33.5 1h11q21 0 34 -1t16 -4t3 -10v-381q0 -99 -49.5 -147.5t-150.5 -48.5q-75 0 -135 27zM198 629q-4 0 -10 5t-13 12l-8 8q-14 16 -14 21t4 9l92 97
q8 9 19 12t35 3h17q24 0 35 -3t19 -12l92 -97q4 -4 4 -9t-14 -21l-8 -8q-7 -7 -13 -12t-10 -5q-2 0 -8 4l-106 91l-105 -91q-6 -4 -8 -4z" />
    <glyph glyph-name="k.sc" horiz-adv-x="583" 
d="M556 9q0 -5 -8.5 -7t-31.5 -2h-24q-40 0 -50 1.5t-17 10.5l-174 253l-58 -47v-203q0 -7 -3.5 -10t-16 -4t-33.5 -1h-11q-21 0 -33.5 1t-16 4t-3.5 10v552q0 7 3.5 10t16 4t33.5 1h11q21 0 33.5 -1t16 -4t3.5 -10v-234l49 42q100 82 185 196q6 8 13.5 9.5t39.5 1.5h10
q27 0 38 -2t11 -7q0 -3 -3 -8q-29 -54 -81.5 -115t-119.5 -120l217 -311q4 -8 4 -10z" />
    <glyph glyph-name="kcommaaccent.sc" horiz-adv-x="583" 
d="M556 9q0 -5 -8.5 -7t-31.5 -2h-24q-40 0 -50 1.5t-17 10.5l-174 253l-58 -47v-203q0 -7 -3.5 -10t-16 -4t-33.5 -1h-11q-21 0 -33.5 1t-16 4t-3.5 10v552q0 7 3.5 10t16 4t33.5 1h11q21 0 33.5 -1t16 -4t3.5 -10v-234l49 42q100 82 185 196q6 8 13.5 9.5t39.5 1.5h10
q27 0 38 -2t11 -7q0 -3 -3 -8q-29 -54 -81.5 -115t-119.5 -120l217 -311q4 -8 4 -10zM265 -305q-5 0 -10 5l-13 11q-6 6 -6 9q0 5 4 9q23 27 33.5 50.5t10.5 39.5q0 11 -4 17.5t-12 17.5q-1 2 -6.5 9t-8 14.5t-2.5 16.5q0 20 15.5 34.5t38.5 14.5q27 0 44 -19.5t17 -49.5
q0 -46 -24 -91.5t-68 -83.5q-4 -4 -9 -4z" />
    <glyph glyph-name="l.sc" horiz-adv-x="492" 
d="M83 2.5q-6 2.5 -6 13.5v551q0 7 3.5 10t16 4t33.5 1h11q21 0 33.5 -1t16 -4t3.5 -10v-477h253q7 0 9 -7t2 -34v-8q0 -27 -2 -34t-9 -7h-331q-27 0 -33 2.5z" />
    <glyph glyph-name="lacute.sc" horiz-adv-x="492" 
d="M83 2.5q-6 2.5 -6 13.5v551q0 7 3.5 10t16 4t33.5 1h11q21 0 33.5 -1t16 -4t3.5 -10v-477h253q7 0 9 -7t2 -34v-8q0 -27 -2 -34t-9 -7h-331q-27 0 -33 2.5zM55 643q-5 3 -1 10l94 149q5 7 13 9t33 2h38q21 0 26 -3t0 -11l-117 -150q-5 -5 -12.5 -7t-24.5 -2h-27
q-17 0 -22 3z" />
    <glyph glyph-name="lcaron.sc" horiz-adv-x="492" 
d="M83 2.5q-6 2.5 -6 13.5v551q0 7 3.5 10t16 4t33.5 1h11q21 0 33.5 -1t16 -4t3.5 -10v-477h253q7 0 9 -7t2 -34v-8q0 -27 -2 -34t-9 -7h-331q-27 0 -33 2.5zM281 344q-5 0 -10 5l-13 11q-6 6 -6 9q0 5 4 9q23 27 33.5 50.5t10.5 39.5q0 11 -4 17.5t-12 17.5q-1 2 -6.5 9
t-8 14.5t-2.5 16.5q0 20 15.5 34.5t38.5 14.5q27 0 44 -19.5t17 -49.5q0 -46 -24 -91.5t-68 -83.5q-4 -4 -9 -4z" />
    <glyph glyph-name="lcommaaccent.sc" horiz-adv-x="492" 
d="M83 2.5q-6 2.5 -6 13.5v551q0 7 3.5 10t16 4t33.5 1h11q21 0 33.5 -1t16 -4t3.5 -10v-477h253q7 0 9 -7t2 -34v-8q0 -27 -2 -34t-9 -7h-331q-27 0 -33 2.5zM235 -305q-5 0 -10 5l-13 11q-6 6 -6 9q0 5 4 9q23 27 33.5 50.5t10.5 39.5q0 11 -4 17.5t-12 17.5q-1 2 -6.5 9
t-8 14.5t-2.5 16.5q0 20 15.5 34.5t38.5 14.5q27 0 44 -19.5t17 -49.5q0 -46 -24 -91.5t-68 -83.5q-4 -4 -9 -4z" />
    <glyph glyph-name="ldot.sc" horiz-adv-x="492" 
d="M83 2.5q-6 2.5 -6 13.5v551q0 7 3.5 10t16 4t33.5 1h11q21 0 33.5 -1t16 -4t3.5 -10v-477h253q7 0 9 -7t2 -34v-8q0 -27 -2 -34t-9 -7h-331q-27 0 -33 2.5zM321 267.5q-22 21.5 -22 52.5q0 32 22 54t54 22q33 0 55 -22t22 -54q0 -31 -22 -52.5t-55 -21.5q-32 0 -54 21.5z
" />
    <glyph glyph-name="lslash.sc" horiz-adv-x="496" 
d="M460 83q2 -7 2 -34v-8q0 -27 -2 -34t-9 -7h-331q-27 0 -33 2.5t-6 13.5v198l-52 -30q-6 -3 -10 -3q-9 0 -9 25v30q0 22 2.5 29t10.5 12l58 33v257q0 7 3.5 10t16 4t33.5 1h11q21 0 33.5 -1t16 -4t3.5 -10v-190l96 55q8 4 10 4q9 0 9 -32v-27q0 -20 -2 -26.5t-11 -11.5
l-102 -58v-191h253q7 0 9 -7z" />
    <glyph glyph-name="m.sc" horiz-adv-x="754" 
d="M84 1.5q-8 1.5 -8 9.5v556q0 10 9 13t41 3h30q32 0 42.5 -2t14.5 -10l87 -173q39 -79 80 -173q21 47 83 173l85 172q4 8 14.5 10.5t42.5 2.5h23q32 0 41 -3t9 -13v-556q0 -7 -9 -9t-43 -2h-6q-34 0 -42 1.5t-8 9.5v225l1 91q1 30 1 76q-43 -101 -77 -167l-64 -126
q-3 -7 -11 -9t-37 -2h-11q-30 0 -38 2t-11 9l-64 127q-50 100 -78 167q3 -52 3 -160v-233q0 -7 -9 -9t-43 -2h-6q-34 0 -42 1.5z" />
    <glyph glyph-name="n.sc" horiz-adv-x="666" 
d="M582 579.5q8 -2.5 8 -12.5v-552q0 -8 -2.5 -11t-14 -3.5t-29.5 -0.5h-7q-29 0 -37 2.5t-16 11.5l-208 269q-66 86 -94 126q2 -31 2 -89v-55v-250q0 -10 -8 -12.5t-40 -2.5h-11q-33 0 -41 2.5t-8 12.5v552q0 8 2.5 10.5t14 3.5t30.5 1h7q28 0 35.5 -2.5t16.5 -12.5
l219 -281q24 -33 42 -56l41 -56q-3 51 -3 145v248q0 10 8 12.5t41 2.5h11q33 0 41 -2.5z" />
    <glyph glyph-name="nacute.loclPLK.sc" horiz-adv-x="666" 
d="M582 579.5q8 -2.5 8 -12.5v-552q0 -8 -2.5 -11t-14 -3.5t-29.5 -0.5h-7q-29 0 -37 2.5t-16 11.5l-208 269q-66 86 -94 126q2 -31 2 -89v-55v-250q0 -10 -8 -12.5t-40 -2.5h-11q-33 0 -41 2.5t-8 12.5v552q0 8 2.5 10.5t14 3.5t30.5 1h7q28 0 35.5 -2.5t16.5 -12.5
l219 -281q24 -33 42 -56l41 -56q-3 51 -3 145v248q0 10 8 12.5t41 2.5h11q33 0 41 -2.5zM255 650q-5 3 -1 10l94 149q5 7 13 9t33 2h38q21 0 26 -3t0 -11l-117 -150q-5 -5 -12.5 -7t-24.5 -2h-27q-17 0 -22 3z" />
    <glyph glyph-name="nacute.sc" horiz-adv-x="666" 
d="M582 579.5q8 -2.5 8 -12.5v-552q0 -8 -2.5 -11t-14 -3.5t-29.5 -0.5h-7q-29 0 -37 2.5t-16 11.5l-208 269q-66 86 -94 126q2 -31 2 -89v-55v-250q0 -10 -8 -12.5t-40 -2.5h-11q-33 0 -41 2.5t-8 12.5v552q0 8 2.5 10.5t14 3.5t30.5 1h7q28 0 35.5 -2.5t16.5 -12.5
l219 -281q24 -33 42 -56l41 -56q-3 51 -3 145v248q0 10 8 12.5t41 2.5h11q33 0 41 -2.5zM256 643q-5 3 -1 10l94 149q5 7 13 9t33 2h38q21 0 26 -3t0 -11l-117 -150q-5 -5 -12.5 -7t-24.5 -2h-27q-17 0 -22 3z" />
    <glyph glyph-name="ncaron.sc" horiz-adv-x="666" 
d="M582 579.5q8 -2.5 8 -12.5v-552q0 -8 -2.5 -11t-14 -3.5t-29.5 -0.5h-7q-29 0 -37 2.5t-16 11.5l-208 269q-66 86 -94 126q2 -31 2 -89v-55v-250q0 -10 -8 -12.5t-40 -2.5h-11q-33 0 -41 2.5t-8 12.5v552q0 8 2.5 10.5t14 3.5t30.5 1h7q28 0 35.5 -2.5t16.5 -12.5
l219 -281q24 -33 42 -56l41 -56q-3 51 -3 145v248q0 10 8 12.5t41 2.5h11q33 0 41 -2.5zM293 643q-11 3 -19 12l-92 98q-4 4 -4 8q0 5 14 21l8 8q7 7 13 12t10 5q2 0 8 -4l105 -91l106 91q6 4 8 4q4 0 10 -5t13 -12l8 -8q14 -16 14 -21q0 -4 -4 -8l-92 -98q-8 -9 -19 -12
t-35 -3h-17q-24 0 -35 3z" />
    <glyph glyph-name="ncommaaccent.sc" horiz-adv-x="666" 
d="M582 579.5q8 -2.5 8 -12.5v-552q0 -8 -2.5 -11t-14 -3.5t-29.5 -0.5h-7q-29 0 -37 2.5t-16 11.5l-208 269q-66 86 -94 126q2 -31 2 -89v-55v-250q0 -10 -8 -12.5t-40 -2.5h-11q-33 0 -41 2.5t-8 12.5v552q0 8 2.5 10.5t14 3.5t30.5 1h7q28 0 35.5 -2.5t16.5 -12.5
l219 -281q24 -33 42 -56l41 -56q-3 51 -3 145v248q0 10 8 12.5t41 2.5h11q33 0 41 -2.5zM291 -305q-5 0 -10 5l-13 11q-6 6 -6 9q0 5 4 9q23 27 33.5 50.5t10.5 39.5q0 11 -4 17.5t-12 17.5q-1 2 -6.5 9t-8 14.5t-2.5 16.5q0 20 15.5 34.5t38.5 14.5q27 0 44 -19.5t17 -49.5
q0 -46 -24 -91.5t-68 -83.5q-4 -4 -9 -4z" />
    <glyph glyph-name="eng.sc" horiz-adv-x="666" 
d="M582 579.5q8 -2.5 8 -12.5v-531q0 -101 -42 -147t-122 -46q-21 0 -44 4t-37 10q-4 2 -6 4.5t-2 7.5q0 1 4 25l3 12q5 24 8.5 30.5t14.5 3.5q28 -6 46 -6q37 0 52 17t15 60v8l-204 264q-66 86 -94 126q2 -31 2 -89v-55v-250q0 -10 -8 -12.5t-40 -2.5h-11q-33 0 -41 2.5
t-8 12.5v552q0 8 2.5 10.5t14 3.5t30.5 1h7q28 0 35.5 -2.5t16.5 -12.5l219 -281q24 -33 42 -56l41 -56q-3 51 -3 145v248q0 10 8 12.5t41 2.5h11q33 0 41 -2.5z" />
    <glyph glyph-name="ntilde.sc" horiz-adv-x="666" 
d="M582 579.5q8 -2.5 8 -12.5v-552q0 -8 -2.5 -11t-14 -3.5t-29.5 -0.5h-7q-29 0 -37 2.5t-16 11.5l-208 269q-66 86 -94 126q2 -31 2 -89v-55v-250q0 -10 -8 -12.5t-40 -2.5h-11q-33 0 -41 2.5t-8 12.5v552q0 8 2.5 10.5t14 3.5t30.5 1h7q28 0 35.5 -2.5t16.5 -12.5
l219 -281q24 -33 42 -56l41 -56q-3 51 -3 145v248q0 10 8 12.5t41 2.5h11q33 0 41 -2.5zM325 673q-16 8 -26.5 12t-21.5 4q-14 0 -28 -8t-30 -24q-5 -5 -10 -2.5t-20 17.5l-6 6q-15 15 -15 21q0 5 4 10q20 26 48 43t59 17t71 -22q16 -8 26.5 -12t21.5 -4q14 0 28 8t30 24
q4 4 10 1.5t20 -16.5l6 -6q15 -15 15 -22q0 -3 -4 -9q-21 -26 -49 -43t-58 -17q-31 0 -71 22z" />
    <glyph glyph-name="o.sc" horiz-adv-x="663" 
d="M113.5 66q-72.5 76 -72.5 217q0 146 79 227.5t221 81.5q136 0 208.5 -76t72.5 -217q0 -146 -79 -227.5t-221 -81.5q-136 0 -208.5 76zM455.5 138q45.5 55 45.5 157q0 101 -41.5 152.5t-123.5 51.5q-84 0 -129 -55t-45 -157q0 -100 41.5 -152t121.5 -52q85 0 130.5 55z
" />
    <glyph glyph-name="oacute.loclPLK.sc" horiz-adv-x="663" 
d="M113.5 66q-72.5 76 -72.5 217q0 146 79 227.5t221 81.5q136 0 208.5 -76t72.5 -217q0 -146 -79 -227.5t-221 -81.5q-136 0 -208.5 76zM455.5 138q45.5 55 45.5 157q0 101 -41.5 152.5t-123.5 51.5q-84 0 -129 -55t-45 -157q0 -100 41.5 -152t121.5 -52q85 0 130.5 55z
M250 650q-5 3 -1 10l94 149q5 7 13 9t33 2h38q21 0 26 -3t0 -11l-117 -150q-5 -5 -12.5 -7t-24.5 -2h-27q-17 0 -22 3z" />
    <glyph glyph-name="oacute.sc" horiz-adv-x="663" 
d="M113.5 66q-72.5 76 -72.5 217q0 146 79 227.5t221 81.5q136 0 208.5 -76t72.5 -217q0 -146 -79 -227.5t-221 -81.5q-136 0 -208.5 76zM455.5 138q45.5 55 45.5 157q0 101 -41.5 152.5t-123.5 51.5q-84 0 -129 -55t-45 -157q0 -100 41.5 -152t121.5 -52q85 0 130.5 55z
M251 643q-5 3 -1 10l94 149q5 7 13 9t33 2h38q21 0 26 -3t0 -11l-117 -150q-5 -5 -12.5 -7t-24.5 -2h-27q-17 0 -22 3z" />
    <glyph glyph-name="obreve.sc" horiz-adv-x="663" 
d="M113.5 66q-72.5 76 -72.5 217q0 146 79 227.5t221 81.5q136 0 208.5 -76t72.5 -217q0 -146 -79 -227.5t-221 -81.5q-136 0 -208.5 76zM455.5 138q45.5 55 45.5 157q0 101 -41.5 152.5t-123.5 51.5q-84 0 -129 -55t-45 -157q0 -100 41.5 -152t121.5 -52q85 0 130.5 55z
M225.5 675q-40.5 35 -42.5 97q0 7 7 9.5t29 2.5h14q19 0 24.5 -2.5t6.5 -9.5q11 -59 68 -59q59 0 68 59q1 7 7 9.5t25 2.5h14q22 0 28.5 -2.5t6.5 -9.5q-2 -62 -42.5 -97t-106.5 -35t-106.5 35z" />
    <glyph glyph-name="ocircumflex.sc" horiz-adv-x="663" 
d="M113.5 66q-72.5 76 -72.5 217q0 146 79 227.5t221 81.5q136 0 208.5 -76t72.5 -217q0 -146 -79 -227.5t-221 -81.5q-136 0 -208.5 76zM455.5 138q45.5 55 45.5 157q0 101 -41.5 152.5t-123.5 51.5q-84 0 -129 -55t-45 -157q0 -100 41.5 -152t121.5 -52q85 0 130.5 55z
M218 629q-4 0 -10 5t-13 12l-8 8q-14 16 -14 21t4 9l92 97q8 9 19 12t35 3h17q24 0 35 -3t19 -12l92 -97q4 -4 4 -9t-14 -21l-8 -8q-7 -7 -13 -12t-10 -5q-2 0 -8 4l-106 91l-105 -91q-6 -4 -8 -4z" />
    <glyph glyph-name="odieresis.sc" horiz-adv-x="663" 
d="M113.5 66q-72.5 76 -72.5 217q0 146 79 227.5t221 81.5q136 0 208.5 -76t72.5 -217q0 -146 -79 -227.5t-221 -81.5q-136 0 -208.5 76zM455.5 138q45.5 55 45.5 157q0 101 -41.5 152.5t-123.5 51.5q-84 0 -129 -55t-45 -157q0 -100 41.5 -152t121.5 -52q85 0 130.5 55z
M178.5 669q-18.5 18 -18.5 44q0 27 19 45.5t46 18.5q28 0 46.5 -18.5t18.5 -45.5q0 -26 -18.5 -44t-46.5 -18t-46.5 18zM391.5 669q-18.5 18 -18.5 44q0 27 18.5 45.5t45.5 18.5q28 0 47 -18.5t19 -45.5q0 -26 -19 -44t-47 -18q-27 0 -45.5 18z" />
    <glyph glyph-name="ograve.sc" horiz-adv-x="663" 
d="M113.5 66q-72.5 76 -72.5 217q0 146 79 227.5t221 81.5q136 0 208.5 -76t72.5 -217q0 -146 -79 -227.5t-221 -81.5q-136 0 -208.5 76zM455.5 138q45.5 55 45.5 157q0 101 -41.5 152.5t-123.5 51.5q-84 0 -129 -55t-45 -157q0 -100 41.5 -152t121.5 -52q85 0 130.5 55z
M329.5 642q-7.5 2 -12.5 7l-117 150q-5 8 0.5 11t26.5 3h38q24 0 32.5 -2.5t12.5 -8.5l94 -149q2 -4 2 -6q0 -7 -24 -7h-28q-17 0 -24.5 2z" />
    <glyph glyph-name="ohungarumlaut.sc" horiz-adv-x="663" 
d="M113.5 66q-72.5 76 -72.5 217q0 146 79 227.5t221 81.5q136 0 208.5 -76t72.5 -217q0 -146 -79 -227.5t-221 -81.5q-136 0 -208.5 76zM455.5 138q45.5 55 45.5 157q0 101 -41.5 152.5t-123.5 51.5q-84 0 -129 -55t-45 -157q0 -100 41.5 -152t121.5 -52q85 0 130.5 55z
M165 642.5q-5 2.5 -1 9.5l84 145q4 6 12.5 8.5t31.5 2.5h35q21 0 26 -2.5t0 -10.5l-108 -146q-5 -5 -12 -7t-23 -2h-24q-16 0 -21 2.5zM352.5 642.5q-5.5 2.5 -1.5 9.5l84 145q4 6 12.5 8.5t31.5 2.5h35q20 0 25.5 -3t0.5 -10l-108 -146q-5 -5 -12 -7t-23 -2h-24
q-15 0 -20.5 2.5z" />
    <glyph glyph-name="omacron.sc" horiz-adv-x="663" 
d="M113.5 66q-72.5 76 -72.5 217q0 146 79 227.5t221 81.5q136 0 208.5 -76t72.5 -217q0 -146 -79 -227.5t-221 -81.5q-136 0 -208.5 76zM455.5 138q45.5 55 45.5 157q0 101 -41.5 152.5t-123.5 51.5q-84 0 -129 -55t-45 -157q0 -100 41.5 -152t121.5 -52q85 0 130.5 55z
M188 659q-2 8 -2 28v11q0 21 2 28t9 7h268q7 0 9.5 -7t2.5 -28v-11q0 -20 -2.5 -28t-9.5 -8h-268q-7 0 -9 8z" />
    </font>
</defs>
</svg>
