<?xml version="1.0" standalone="no"?>
<!DOCTYPE svg PUBLIC "-//W3C//DTD SVG 1.1//EN" "http://www.w3.org/Graphics/SVG/1.1/DTD/svg11.dtd" >
<svg xmlns="http://www.w3.org/2000/svg">
<metadata>
Copyright (c) 2016 by Fontsmith Ltd. All rights reserved. This font may not be altered in any way without prior permission of Fontsmith Ltd.
</metadata>
<defs>
<font id="TIMSansWeb-Bold" horiz-adv-x="350" >
  <font-face 
    font-family="TIM Sans Web"
    font-weight="700"
    font-stretch="normal"
    units-per-em="1000"
    panose-1="0 0 8 0 0 0 0 0 0 0"
    ascent="750"
    descent="-250"
    x-height="528"
    cap-height="720"
    bbox="-382.381 -318 2799 1127"
    underline-thickness="106"
    underline-position="-14"
    unicode-range="U+000D-FB02"
  />
<missing-glyph horiz-adv-x="694" 
d="M90 720h514v-720h-514v720zM522 669h-350l176 -263zM316 360l-174 262v-524zM553 622l-175 -262l175 -262v524zM522 52l-174 262l-176 -262h350z" />
    <glyph glyph-name="f_f.liga" unicode="ff" horiz-adv-x="740" 
d="M120 1.5q-14 1.5 -17.5 4.5t-3.5 9v406h-70q-8 0 -10.5 8.5t-2.5 41.5v7q0 33 2.5 41.5t10.5 8.5h70v24q0 108 56 166q51 52 144 52q58 0 110 -19q7 -3 7 -13q0 -13 -5 -33l-4 -17q-6 -25 -10.5 -33t-10.5 -6q-37 8 -64 8q-48 0 -67 -26t-19 -83v-20h222v24q0 108 56 166
q51 52 144 52q58 0 110 -19q7 -3 7 -13q0 -13 -5 -33l-4 -17q-6 -25 -10.5 -33t-10.5 -6q-37 8 -64 8q-48 0 -67 -26t-19 -83v-20h115q8 0 10.5 -8.5t2.5 -41.5v-7q0 -33 -2.5 -41.5t-10.5 -8.5h-115v-406q0 -9 -11.5 -12t-53.5 -3h-5q-32 0 -46 1.5t-17.5 4.5t-3.5 9v406
h-222v-406q0 -9 -11.5 -12t-53.5 -3h-5q-32 0 -46 1.5z" />
    <glyph glyph-name="f_f_i.liga" unicode="ffi" horiz-adv-x="999" 
d="M120 1.5q-14 1.5 -17.5 4.5t-3.5 9v406h-70q-8 0 -10.5 8.5t-2.5 41.5v7q0 33 2.5 41.5t10.5 8.5h70v24q0 108 56 166q51 52 144 52q58 0 110 -19q7 -3 7 -13q0 -13 -5 -33l-4 -17q-6 -25 -10.5 -33t-10.5 -6q-37 8 -64 8q-48 0 -67 -26t-19 -83v-20h222v14q0 98 57 158
q32 34 81.5 52t112.5 18q101 0 183 -41q10 -4 10 -13q0 -8 -9 -31l-9 -25q-9 -24 -14.5 -29.5t-14.5 -1.5q-64 28 -127 28q-69 0 -102 -33q-31 -31 -31 -92v-4h114q8 0 10.5 -8.5t2.5 -41.5v-7q0 -33 -2.5 -41.5t-10.5 -8.5h-114v-406q0 -9 -11.5 -12t-53.5 -3h-5
q-32 0 -46 1.5t-17.5 4.5t-3.5 9v406h-222v-406q0 -9 -11.5 -12t-53.5 -3h-5q-32 0 -46 1.5zM813 1.5q-14 1.5 -17.5 4.5t-3.5 9v498q0 6 3.5 9t17.5 4.5t46 1.5h5q42 0 53.5 -3t11.5 -12v-498q0 -9 -11.5 -12t-53.5 -3h-5q-32 0 -46 1.5z" />
    <glyph glyph-name="f_f_l.liga" unicode="ffl" horiz-adv-x="1028" 
d="M830 25q-17 17 -24.5 42.5t-7.5 62.5v347q0 59 -4 165q-29 15 -68 15q-67 0 -100 -33q-31 -31 -31 -92v-4h114q8 0 10.5 -8.5t2.5 -41.5v-7q0 -33 -2.5 -41.5t-10.5 -8.5h-114v-406q0 -9 -11.5 -12t-53.5 -3h-5q-32 0 -46 1.5t-17.5 4.5t-3.5 9v406h-222v-406
q0 -9 -11.5 -12t-53.5 -3h-5q-32 0 -46 1.5t-17.5 4.5t-3.5 9v406h-70q-8 0 -10.5 8.5t-2.5 41.5v7q0 33 2.5 41.5t10.5 8.5h70v24q0 108 56 166q51 52 144 52q58 0 110 -19q7 -3 7 -13q0 -13 -5 -33l-4 -17q-6 -25 -10.5 -33t-10.5 -6q-37 8 -64 8q-48 0 -67 -26t-19 -83
v-20h222v14q0 98 57 158q33 35 82.5 52.5t121.5 17.5q61 0 116 -15t80 -38q11 -9 13.5 -17t3.5 -27q3 -84 3 -217v-318q0 -18 7.5 -26t25.5 -8h12q7 0 8.5 -8t1.5 -36v-9q0 -27 -1.5 -34t-7.5 -10q-26 -12 -67 -12q-54 0 -84 30z" />
    <glyph glyph-name="fi" unicode="fi" horiz-adv-x="640" 
d="M120 1.5q-14 1.5 -17.5 4.5t-3.5 9v406h-76q-8 0 -10.5 8.5t-2.5 41.5v7q0 33 2.5 41.5t10.5 8.5h76v14q0 98 57 158q32 34 81.5 52t112.5 18q101 0 183 -41q10 -4 10 -13q0 -8 -9 -31l-9 -25q-9 -24 -14.5 -29.5t-14.5 -1.5q-64 28 -127 28q-69 0 -102 -33
q-31 -31 -31 -92v-4h114q8 0 10.5 -8.5t2.5 -41.5v-7q0 -33 -2.5 -41.5t-10.5 -8.5h-114v-406q0 -9 -11.5 -12t-53.5 -3h-5q-32 0 -46 1.5zM454 1.5q-14 1.5 -17.5 4.5t-3.5 9v498q0 6 3.5 9t17.5 4.5t46 1.5h5q42 0 53.5 -3t11.5 -12v-498q0 -9 -11.5 -12t-53.5 -3h-5
q-32 0 -46 1.5z" />
    <glyph glyph-name="fl" unicode="fl" horiz-adv-x="669" 
d="M471 25q-17 17 -24.5 42.5t-7.5 62.5v347q0 59 -4 165q-29 15 -68 15q-67 0 -100 -33q-31 -31 -31 -92v-4h114q8 0 10.5 -8.5t2.5 -41.5v-7q0 -33 -2.5 -41.5t-10.5 -8.5h-114v-406q0 -9 -11.5 -12t-53.5 -3h-5q-32 0 -46 1.5t-17.5 4.5t-3.5 9v406h-76q-8 0 -10.5 8.5
t-2.5 41.5v7q0 33 2.5 41.5t10.5 8.5h76v14q0 98 57 158q33 35 82.5 52.5t121.5 17.5q61 0 116 -15t80 -38q11 -9 13.5 -17t3.5 -27q3 -84 3 -217v-318q0 -18 7.5 -26t25.5 -8h12q7 0 8.5 -8t1.5 -36v-9q0 -27 -1.5 -34t-7.5 -10q-26 -12 -67 -12q-54 0 -84 30z" />
    <glyph glyph-name=".notdef" horiz-adv-x="694" 
d="M90 720h514v-720h-514v720zM522 669h-350l176 -263zM316 360l-174 262v-524zM553 622l-175 -262l175 -262v524zM522 52l-174 262l-176 -262h350z" />
    <glyph glyph-name=".null" horiz-adv-x="0" 
 />
    <glyph glyph-name="nonmarkingreturn" unicode="&#xd;" horiz-adv-x="254" 
 />
    <glyph glyph-name="space" unicode=" " horiz-adv-x="254" 
 />
    <glyph glyph-name="A" unicode="A" horiz-adv-x="714" 
d="M24 1.5q-12 1.5 -12 7.5l2 8l267 687q3 8 7 11t19 4t40 1h10q26 0 41.5 -1t20 -4t7.5 -11l274 -686q5 -11 -7 -14.5t-55 -3.5h-14q-44 0 -58 3t-18 14l-63 166h-266l-60 -166q-5 -11 -17.5 -14t-57.5 -3h-11q-37 0 -49 1.5zM444 293l-23 65q-53 150 -68 205
q-20 -63 -46 -137l-23 -65l-24 -68h184z" />
    <glyph glyph-name="Aacute" unicode="&#xc1;" horiz-adv-x="714" 
d="M24 1.5q-12 1.5 -12 7.5l2 8l267 687q3 8 7 11t19 4t40 1h10q26 0 41.5 -1t20 -4t7.5 -11l274 -686q5 -11 -7 -14.5t-55 -3.5h-14q-44 0 -58 3t-18 14l-63 166h-266l-60 -166q-5 -11 -17.5 -14t-57.5 -3h-11q-37 0 -49 1.5zM444 293l-23 65q-53 150 -68 205
q-20 -63 -46 -137l-23 -65l-24 -68h184zM267 791q-6 3 -1 12l106 163q4 7 13.5 9.5t36.5 2.5h48q32 0 32 -9q0 -2 -3 -7l-130 -163q-5 -6 -14 -8.5t-27 -2.5h-38q-17 0 -23 3z" />
    <glyph glyph-name="Abreve" unicode="&#x102;" horiz-adv-x="714" 
d="M24 1.5q-12 1.5 -12 7.5l2 8l267 687q3 8 7 11t19 4t40 1h10q26 0 41.5 -1t20 -4t7.5 -11l274 -686q5 -11 -7 -14.5t-55 -3.5h-14q-44 0 -58 3t-18 14l-63 166h-266l-60 -166q-5 -11 -17.5 -14t-57.5 -3h-11q-37 0 -49 1.5zM444 293l-23 65q-53 150 -68 205
q-20 -63 -46 -137l-23 -65l-24 -68h184zM242.5 834q-40.5 37 -44.5 104q0 9 8 11.5t35 2.5h15q22 0 29 -2.5t8 -9.5q10 -57 60 -57t60 57q1 7 8 9.5t29 2.5h15q27 0 35 -2.5t8 -11.5q-4 -67 -44.5 -104t-110.5 -37t-110.5 37z" />
    <glyph glyph-name="uni01CD" unicode="&#x1cd;" horiz-adv-x="714" 
d="M24 1.5q-12 1.5 -12 7.5l2 8l267 687q3 8 7 11t19 4t40 1h10q26 0 41.5 -1t20 -4t7.5 -11l274 -686q5 -11 -7 -14.5t-55 -3.5h-14q-44 0 -58 3t-18 14l-63 166h-266l-60 -166q-5 -11 -17.5 -14t-57.5 -3h-11q-37 0 -49 1.5zM444 293l-23 65q-53 150 -68 205
q-20 -63 -46 -137l-23 -65l-24 -68h184zM305.5 793q-12.5 3 -21.5 13l-91 97q-5 5 -5 10q0 8 17 25l10 10q9 9 15.5 14.5t11.5 5.5q3 0 10 -5l101 -88l101 88q7 5 10 5q5 0 11.5 -5.5t15.5 -14.5l10 -10q17 -17 17 -25q0 -5 -5 -10l-91 -97q-9 -10 -21.5 -13t-40.5 -3h-14
q-28 0 -40.5 3z" />
    <glyph glyph-name="Acircumflex" unicode="&#xc2;" horiz-adv-x="714" 
d="M24 1.5q-12 1.5 -12 7.5l2 8l267 687q3 8 7 11t19 4t40 1h10q26 0 41.5 -1t20 -4t7.5 -11l274 -686q5 -11 -7 -14.5t-55 -3.5h-14q-44 0 -58 3t-18 14l-63 166h-266l-60 -166q-5 -11 -17.5 -14t-57.5 -3h-11q-37 0 -49 1.5zM444 293l-23 65q-53 150 -68 205
q-20 -63 -46 -137l-23 -65l-24 -68h184zM242 790q-5 0 -11.5 5.5t-15.5 14.5l-10 10q-17 17 -17 25q0 5 5 10l91 97q9 10 21.5 13t40.5 3h14q28 0 40.5 -3t21.5 -13l91 -97q5 -5 5 -10q0 -8 -17 -25l-10 -10q-9 -9 -15.5 -14.5t-11.5 -5.5q-3 0 -10 5l-101 88l-101 -88
q-7 -5 -10 -5z" />
    <glyph glyph-name="Adieresis" unicode="&#xc4;" horiz-adv-x="714" 
d="M24 1.5q-12 1.5 -12 7.5l2 8l267 687q3 8 7 11t19 4t40 1h10q26 0 41.5 -1t20 -4t7.5 -11l274 -686q5 -11 -7 -14.5t-55 -3.5h-14q-44 0 -58 3t-18 14l-63 166h-266l-60 -166q-5 -11 -17.5 -14t-57.5 -3h-11q-37 0 -49 1.5zM444 293l-23 65q-53 150 -68 205
q-20 -63 -46 -137l-23 -65l-24 -68h184zM192 822q-21 20 -21 49q0 30 21 50.5t52 20.5q32 0 52.5 -20.5t20.5 -50.5q0 -29 -20.5 -49t-52.5 -20q-31 0 -52 20zM409 822q-20 20 -20 49q0 30 20 50.5t51 20.5q33 0 54 -20.5t21 -50.5q0 -29 -21 -49t-54 -20q-31 0 -51 20z" />
    <glyph glyph-name="Agrave" unicode="&#xc0;" horiz-adv-x="714" 
d="M24 1.5q-12 1.5 -12 7.5l2 8l267 687q3 8 7 11t19 4t40 1h10q26 0 41.5 -1t20 -4t7.5 -11l274 -686q5 -11 -7 -14.5t-55 -3.5h-14q-44 0 -58 3t-18 14l-63 166h-266l-60 -166q-5 -11 -17.5 -14t-57.5 -3h-11q-37 0 -49 1.5zM444 293l-23 65q-53 150 -68 205
q-20 -63 -46 -137l-23 -65l-24 -68h184zM351 790.5q-9 2.5 -14 8.5l-130 163q-3 5 -3 7q0 9 32 9h48q27 0 36.5 -2.5t13.5 -9.5l106 -163q2 -3 2 -7q0 -8 -26 -8h-38q-18 0 -27 2.5z" />
    <glyph glyph-name="Amacron" unicode="&#x100;" horiz-adv-x="714" 
d="M24 1.5q-12 1.5 -12 7.5l2 8l267 687q3 8 7 11t19 4t40 1h10q26 0 41.5 -1t20 -4t7.5 -11l274 -686q5 -11 -7 -14.5t-55 -3.5h-14q-44 0 -58 3t-18 14l-63 166h-266l-60 -166q-5 -11 -17.5 -14t-57.5 -3h-11q-37 0 -49 1.5zM444 293l-23 65q-53 150 -68 205
q-20 -63 -46 -137l-23 -65l-24 -68h184zM207.5 836.5q-2.5 8.5 -2.5 32.5v14q0 24 2.5 32.5t10.5 8.5h270q8 0 10.5 -8.5t2.5 -32.5v-14q0 -24 -2.5 -32.5t-10.5 -8.5h-270q-8 0 -10.5 8.5z" />
    <glyph glyph-name="Aogonek" unicode="&#x104;" horiz-adv-x="714" 
d="M509 -209q-35 31 -35 86q0 34 22.5 68.5t57.5 56.5l-69 181h-266l-60 -166q-5 -11 -17.5 -14t-57.5 -3h-11q-37 0 -49 1.5t-12 7.5l2 8l267 687q3 8 7 11t19 4t40 1h10q26 0 41.5 -1t20 -4t7.5 -11l274 -686q1 -2 1 -6q0 -6 -11 -9q-31 -7 -56.5 -23.5t-40.5 -37.5
q-18 -26 -18 -55q0 -18 11.5 -28t30.5 -10q20 0 42 10q6 3 10.5 -2t11.5 -25l4 -12q6 -18 6 -25q0 -8 -8 -14q-17 -9 -41 -15t-43 -6q-55 0 -90 31zM444 293l-23 65q-53 150 -68 205q-20 -63 -46 -137l-23 -65l-24 -68h184z" />
    <glyph glyph-name="Aring" unicode="&#xc5;" horiz-adv-x="714" 
d="M24 1.5q-12 1.5 -12 7.5l2 8l271 699q-21 15 -33.5 38t-12.5 50q0 45 33.5 77t80.5 32t80 -31.5t33 -77.5q0 -27 -12 -50t-33 -38l279 -698q5 -11 -7 -14.5t-55 -3.5h-14q-44 0 -58 3t-18 14l-63 166h-266l-60 -166q-5 -11 -17.5 -14t-57.5 -3h-11q-37 0 -49 1.5z
M380 775.5q11 11.5 11 28.5q0 16 -11 27.5t-27 11.5q-17 0 -28.5 -11t-11.5 -28t11.5 -28.5t28.5 -11.5q16 0 27 11.5zM444 293l-23 65q-53 150 -68 205q-20 -63 -46 -137l-23 -65l-24 -68h184z" />
    <glyph glyph-name="Aringacute" unicode="&#x1fa;" horiz-adv-x="714" 
d="M277 940q-6 3 -1 12l106 163q4 7 13.5 9.5t36.5 2.5h48q32 0 32 -9q0 -2 -3 -7l-130 -163q-5 -6 -14 -8.5t-27 -2.5h-38q-17 0 -23 3zM24 1.5q-12 1.5 -12 7.5l2 8l271 699q-21 15 -33.5 38t-12.5 50q0 45 33.5 77t80.5 32t80 -31.5t33 -77.5q0 -27 -12 -50t-33 -38
l279 -698q5 -11 -7 -14.5t-55 -3.5h-14q-44 0 -58 3t-18 14l-63 166h-266l-60 -166q-5 -11 -17.5 -14t-57.5 -3h-11q-37 0 -49 1.5zM380 775.5q11 11.5 11 28.5q0 16 -11 27.5t-27 11.5q-17 0 -28.5 -11t-11.5 -28t11.5 -28.5t28.5 -11.5q16 0 27 11.5zM444 293l-23 65
q-53 150 -68 205q-20 -63 -46 -137l-23 -65l-24 -68h184z" />
    <glyph glyph-name="Atilde" unicode="&#xc3;" horiz-adv-x="714" 
d="M24 1.5q-12 1.5 -12 7.5l2 8l267 687q3 8 7 11t19 4t40 1h10q26 0 41.5 -1t20 -4t7.5 -11l274 -686q5 -11 -7 -14.5t-55 -3.5h-14q-44 0 -58 3t-18 14l-63 166h-266l-60 -166q-5 -11 -17.5 -14t-57.5 -3h-11q-37 0 -49 1.5zM444 293l-23 65q-53 150 -68 205
q-20 -63 -46 -137l-23 -65l-24 -68h184zM376.5 818.5q-15.5 5.5 -37.5 16.5q-12 6 -23.5 10.5t-20.5 4.5q-27 0 -59 -32q-4 -4 -12 -1t-24 19l-4 4q-20 20 -20 28q0 3 4 9q54 67 115 67q19 0 34.5 -5.5t37.5 -16.5q11 -6 22.5 -10.5t20.5 -4.5q27 0 59 32q4 4 12 1t24 -19
l4 -4q20 -20 20 -28q0 -3 -4 -9q-54 -67 -115 -67q-18 0 -33.5 5.5z" />
    <glyph glyph-name="AE" unicode="&#xc6;" horiz-adv-x="1039" 
d="M10.5 4q-10.5 4 -3.5 13l447 687q7 11 16.5 13.5t40.5 2.5h453q8 0 11 -3t4.5 -13.5t1.5 -36.5v-8q0 -35 -3.5 -45t-13.5 -10h-304v-182h258q8 0 11 -3t4.5 -13.5t1.5 -36.5v-8q0 -35 -3.5 -45t-13.5 -10h-258v-190h308q8 0 11 -3t4.5 -13.5t1.5 -36.5v-8q0 -35 -3 -45
t-14 -10h-411q-21 0 -30 1t-11 4t-2 10v159h-256l-99 -157q-7 -10 -21 -13.5t-53 -3.5h-25q-39 0 -49.5 4zM514 283v300q-36 -65 -87 -143l-99 -157h186z" />
    <glyph glyph-name="AEacute" unicode="&#x1fc;" horiz-adv-x="1039" 
d="M10.5 4q-10.5 4 -3.5 13l447 687q7 11 16.5 13.5t40.5 2.5h453q8 0 11 -3t4.5 -13.5t1.5 -36.5v-8q0 -35 -3.5 -45t-13.5 -10h-304v-182h258q8 0 11 -3t4.5 -13.5t1.5 -36.5v-8q0 -35 -3.5 -45t-13.5 -10h-258v-190h308q8 0 11 -3t4.5 -13.5t1.5 -36.5v-8q0 -35 -3 -45
t-14 -10h-411q-21 0 -30 1t-11 4t-2 10v159h-256l-99 -157q-7 -10 -21 -13.5t-53 -3.5h-25q-39 0 -49.5 4zM514 283v300q-36 -65 -87 -143l-99 -157h186zM558 791q-6 3 -1 12l106 163q4 7 13.5 9.5t36.5 2.5h48q32 0 32 -9q0 -2 -3 -7l-130 -163q-5 -6 -14 -8.5t-27 -2.5
h-38q-17 0 -23 3z" />
    <glyph glyph-name="B" unicode="B" horiz-adv-x="652" 
d="M87 1q-9 1 -11 4t-2 10v690q0 7 2.5 10t13 4t27.5 1h170q134 0 205 -44t71 -136q0 -104 -103 -156q143 -39 143 -177q0 -107 -79.5 -157t-221.5 -50h-185q-21 0 -30 1zM288 425q64 0 96.5 22.5t32.5 71.5q0 47 -31 66.5t-96 19.5h-70v-180h68zM306 114q77 0 113 24t36 78
q0 55 -36 77t-113 22h-86v-201h86z" />
    <glyph glyph-name="C" unicode="C" horiz-adv-x="630" 
d="M190 33q-74 43 -113 125t-39 195q0 115 41.5 200t118 131t179.5 46q62 0 111.5 -14t95.5 -46q5 -4 8.5 -7.5t3.5 -8.5q0 -9 -17 -37l-14 -23q-11 -17 -16.5 -23.5t-10.5 -6.5q-2 0 -10 4q-68 40 -139 40q-97 0 -149 -65t-52 -186t51 -182.5t151 -61.5q64 0 146 33
q6 3 11 3q6 0 10.5 -6t12.5 -23l12 -25q2 -5 7.5 -17.5t5.5 -18.5q0 -5 -2.5 -8t-8.5 -6q-45 -24 -103.5 -39.5t-114.5 -15.5q-102 0 -176 43z" />
    <glyph glyph-name="Cacute" unicode="&#x106;" horiz-adv-x="630" 
d="M190 33q-74 43 -113 125t-39 195q0 115 41.5 200t118 131t179.5 46q62 0 111.5 -14t95.5 -46q5 -4 8.5 -7.5t3.5 -8.5q0 -9 -17 -37l-14 -23q-11 -17 -16.5 -23.5t-10.5 -6.5q-2 0 -10 4q-68 40 -139 40q-97 0 -149 -65t-52 -186t51 -182.5t151 -61.5q64 0 146 33
q6 3 11 3q6 0 10.5 -6t12.5 -23l12 -25q2 -5 7.5 -17.5t5.5 -18.5q0 -5 -2.5 -8t-8.5 -6q-45 -24 -103.5 -39.5t-114.5 -15.5q-102 0 -176 43zM287 791q-6 3 -1 12l106 163q4 7 13.5 9.5t36.5 2.5h48q32 0 32 -9q0 -2 -3 -7l-130 -163q-5 -6 -14 -8.5t-27 -2.5h-38
q-17 0 -23 3z" />
    <glyph glyph-name="Cacute.loclPLK" horiz-adv-x="630" 
d="M190 33q-74 43 -113 125t-39 195q0 115 41.5 200t118 131t179.5 46q62 0 111.5 -14t95.5 -46q5 -4 8.5 -7.5t3.5 -8.5q0 -9 -17 -37l-14 -23q-11 -17 -16.5 -23.5t-10.5 -6.5q-2 0 -10 4q-68 40 -139 40q-97 0 -149 -65t-52 -186t51 -182.5t151 -61.5q64 0 146 33
q6 3 11 3q6 0 10.5 -6t12.5 -23l12 -25q2 -5 7.5 -17.5t5.5 -18.5q0 -5 -2.5 -8t-8.5 -6q-45 -24 -103.5 -39.5t-114.5 -15.5q-102 0 -176 43zM309.5 791q-6.5 3 -4.5 12l48 163q2 8 10.5 10t35.5 2h46q24 0 31.5 -3.5t3.5 -12.5l-73 -163q-3 -6 -10.5 -8.5t-26.5 -2.5h-36
q-18 0 -24.5 3z" />
    <glyph glyph-name="Ccaron" unicode="&#x10c;" horiz-adv-x="630" 
d="M190 33q-74 43 -113 125t-39 195q0 115 41.5 200t118 131t179.5 46q62 0 111.5 -14t95.5 -46q5 -4 8.5 -7.5t3.5 -8.5q0 -9 -17 -37l-14 -23q-11 -17 -16.5 -23.5t-10.5 -6.5q-2 0 -10 4q-68 40 -139 40q-97 0 -149 -65t-52 -186t51 -182.5t151 -61.5q64 0 146 33
q6 3 11 3q6 0 10.5 -6t12.5 -23l12 -25q2 -5 7.5 -17.5t5.5 -18.5q0 -5 -2.5 -8t-8.5 -6q-45 -24 -103.5 -39.5t-114.5 -15.5q-102 0 -176 43zM325.5 793q-12.5 3 -21.5 13l-91 97q-5 5 -5 10q0 8 17 25l10 10q9 9 15.5 14.5t11.5 5.5q3 0 10 -5l101 -88l101 88q7 5 10 5
q5 0 11.5 -5.5t15.5 -14.5l10 -10q17 -17 17 -25q0 -5 -5 -10l-91 -97q-9 -10 -21.5 -13t-40.5 -3h-14q-28 0 -40.5 3z" />
    <glyph glyph-name="Ccedilla" unicode="&#xc7;" horiz-adv-x="630" 
d="M582 95q2 -5 7.5 -17.5t5.5 -18.5q0 -5 -2.5 -8t-8.5 -6q-42 -23 -96.5 -38t-108.5 -17l-2 -27q48 -2 77 -25t29 -69q0 -45 -32.5 -76.5t-94.5 -31.5q-47 0 -78 13q-4 2 -5.5 4t-1.5 7q0 9 4 24l3 11q5 18 9 23.5t13 2.5q21 -6 46 -6q20 0 29.5 8t9.5 21q0 30 -45 30
q-31 0 -60 -4l15 101q-122 21 -189.5 114t-67.5 243q0 115 41.5 200t118 131t179.5 46q62 0 111.5 -14t95.5 -46q5 -4 8.5 -7.5t3.5 -8.5q0 -9 -17 -37l-14 -23q-11 -17 -16.5 -23.5t-10.5 -6.5q-2 0 -10 4q-68 40 -139 40q-97 0 -149 -65t-52 -186t51 -182.5t151 -61.5
q64 0 146 33q6 3 11 3q6 0 10.5 -6t12.5 -23z" />
    <glyph glyph-name="Ccircumflex" unicode="&#x108;" horiz-adv-x="630" 
d="M190 33q-74 43 -113 125t-39 195q0 115 41.5 200t118 131t179.5 46q62 0 111.5 -14t95.5 -46q5 -4 8.5 -7.5t3.5 -8.5q0 -9 -17 -37l-14 -23q-11 -17 -16.5 -23.5t-10.5 -6.5q-2 0 -10 4q-68 40 -139 40q-97 0 -149 -65t-52 -186t51 -182.5t151 -61.5q64 0 146 33
q6 3 11 3q6 0 10.5 -6t12.5 -23l12 -25q2 -5 7.5 -17.5t5.5 -18.5q0 -5 -2.5 -8t-8.5 -6q-45 -24 -103.5 -39.5t-114.5 -15.5q-102 0 -176 43zM262 790q-5 0 -11.5 5.5t-15.5 14.5l-10 10q-17 17 -17 25q0 5 5 10l91 97q9 10 21.5 13t40.5 3h14q28 0 40.5 -3t21.5 -13
l91 -97q5 -5 5 -10q0 -8 -17 -25l-10 -10q-9 -9 -15.5 -14.5t-11.5 -5.5q-3 0 -10 5l-101 88l-101 -88q-7 -5 -10 -5z" />
    <glyph glyph-name="Cdotaccent" unicode="&#x10a;" horiz-adv-x="630" 
d="M190 33q-74 43 -113 125t-39 195q0 115 41.5 200t118 131t179.5 46q62 0 111.5 -14t95.5 -46q5 -4 8.5 -7.5t3.5 -8.5q0 -9 -17 -37l-14 -23q-11 -17 -16.5 -23.5t-10.5 -6.5q-2 0 -10 4q-68 40 -139 40q-97 0 -149 -65t-52 -186t51 -182.5t151 -61.5q64 0 146 33
q6 3 11 3q6 0 10.5 -6t12.5 -23l12 -25q2 -5 7.5 -17.5t5.5 -18.5q0 -5 -2.5 -8t-8.5 -6q-45 -24 -103.5 -39.5t-114.5 -15.5q-102 0 -176 43zM322 828.5q-22 21.5 -22 51.5t22 51t52 21t51 -21t21 -51t-21 -51.5t-51 -21.5t-52 21.5z" />
    <glyph glyph-name="D" unicode="D" horiz-adv-x="717" 
d="M87 1q-9 1 -11 4t-2 10v690q0 7 2 10t11 4t30 1h165q107 0 178.5 -21.5t119.5 -67.5t73.5 -116t25.5 -153q0 -93 -30.5 -167.5t-83.5 -119.5q-46 -39 -112.5 -57t-165.5 -18h-170q-21 0 -30 1zM284 116q120 0 176 47q70 59 70 198q0 121 -54 180q-59 63 -188 63h-68v-488
h64z" />
    <glyph glyph-name="Eth" unicode="&#xd0;" horiz-adv-x="727" 
d="M663.5 515q25.5 -70 25.5 -153q0 -93 -30.5 -167.5t-83.5 -119.5q-46 -39 -112.5 -57t-165.5 -18h-170q-21 0 -30 1t-11 4t-2 10v294h-64q-8 0 -11 9.5t-3 40.5v10q0 31 3 40.5t11 9.5h64v286q0 7 2 10t11 4t30 1h165q107 0 178.5 -21.5t119.5 -67.5t73.5 -116zM540 361
q0 122 -54 180q-59 63 -188 63h-68v-185h96q8 0 11 -9.5t3 -40.5v-10q0 -31 -3 -40.5t-11 -9.5h-96v-193h64q120 0 176 47q70 59 70 198z" />
    <glyph glyph-name="Dcaron" unicode="&#x10e;" horiz-adv-x="717" 
d="M87 1q-9 1 -11 4t-2 10v690q0 7 2 10t11 4t30 1h165q107 0 178.5 -21.5t119.5 -67.5t73.5 -116t25.5 -153q0 -93 -30.5 -167.5t-83.5 -119.5q-46 -39 -112.5 -57t-165.5 -18h-170q-21 0 -30 1zM284 116q120 0 176 47q70 59 70 198q0 121 -54 180q-59 63 -188 63h-68v-488
h64zM309.5 793q-12.5 3 -21.5 13l-91 97q-5 5 -5 10q0 8 17 25l10 10q9 9 15.5 14.5t11.5 5.5q3 0 10 -5l101 -88l101 88q7 5 10 5q5 0 11.5 -5.5t15.5 -14.5l10 -10q17 -17 17 -25q0 -5 -5 -10l-91 -97q-9 -10 -21.5 -13t-40.5 -3h-14q-28 0 -40.5 3z" />
    <glyph glyph-name="Dcroat" unicode="&#x110;" horiz-adv-x="727" 
d="M663.5 515q25.5 -70 25.5 -153q0 -93 -30.5 -167.5t-83.5 -119.5q-46 -39 -112.5 -57t-165.5 -18h-170q-21 0 -30 1t-11 4t-2 10v294h-64q-8 0 -11 9.5t-3 40.5v10q0 31 3 40.5t11 9.5h64v286q0 7 2 10t11 4t30 1h165q107 0 178.5 -21.5t119.5 -67.5t73.5 -116zM540 361
q0 122 -54 180q-59 63 -188 63h-68v-185h96q8 0 11 -9.5t3 -40.5v-10q0 -31 -3 -40.5t-11 -9.5h-96v-193h64q120 0 176 47q70 59 70 198z" />
    <glyph glyph-name="E" unicode="E" horiz-adv-x="603" 
d="M87 1q-9 1 -11 4t-2 10v690q0 7 2 10t11 4t30 1h411q8 0 11 -3t4.5 -13.5t1.5 -36.5v-8q0 -35 -3.5 -45t-13.5 -10h-308v-182h262q8 0 11 -3t4.5 -13.5t1.5 -36.5v-8q0 -35 -3.5 -45t-13.5 -10h-262v-190h312q8 0 11 -3t4.5 -13.5t1.5 -36.5v-8q0 -35 -3 -45t-14 -10
h-415q-21 0 -30 1z" />
    <glyph glyph-name="Eacute" unicode="&#xc9;" horiz-adv-x="603" 
d="M87 1q-9 1 -11 4t-2 10v690q0 7 2 10t11 4t30 1h411q8 0 11 -3t4.5 -13.5t1.5 -36.5v-8q0 -35 -3.5 -45t-13.5 -10h-308v-182h262q8 0 11 -3t4.5 -13.5t1.5 -36.5v-8q0 -35 -3.5 -45t-13.5 -10h-262v-190h312q8 0 11 -3t4.5 -13.5t1.5 -36.5v-8q0 -35 -3 -45t-14 -10
h-415q-21 0 -30 1zM232 791q-6 3 -1 12l106 163q4 7 13.5 9.5t36.5 2.5h48q32 0 32 -9q0 -2 -3 -7l-130 -163q-5 -6 -14 -8.5t-27 -2.5h-38q-17 0 -23 3z" />
    <glyph glyph-name="Ebreve" unicode="&#x114;" horiz-adv-x="603" 
d="M87 1q-9 1 -11 4t-2 10v690q0 7 2 10t11 4t30 1h411q8 0 11 -3t4.5 -13.5t1.5 -36.5v-8q0 -35 -3.5 -45t-13.5 -10h-308v-182h262q8 0 11 -3t4.5 -13.5t1.5 -36.5v-8q0 -35 -3.5 -45t-13.5 -10h-262v-190h312q8 0 11 -3t4.5 -13.5t1.5 -36.5v-8q0 -35 -3 -45t-14 -10
h-415q-21 0 -30 1zM207.5 834q-40.5 37 -44.5 104q0 9 8 11.5t35 2.5h15q22 0 29 -2.5t8 -9.5q10 -57 60 -57t60 57q1 7 8 9.5t29 2.5h15q27 0 35 -2.5t8 -11.5q-4 -67 -44.5 -104t-110.5 -37t-110.5 37z" />
    <glyph glyph-name="Ecaron" unicode="&#x11a;" horiz-adv-x="603" 
d="M87 1q-9 1 -11 4t-2 10v690q0 7 2 10t11 4t30 1h411q8 0 11 -3t4.5 -13.5t1.5 -36.5v-8q0 -35 -3.5 -45t-13.5 -10h-308v-182h262q8 0 11 -3t4.5 -13.5t1.5 -36.5v-8q0 -35 -3.5 -45t-13.5 -10h-262v-190h312q8 0 11 -3t4.5 -13.5t1.5 -36.5v-8q0 -35 -3 -45t-14 -10
h-415q-21 0 -30 1zM270.5 793q-12.5 3 -21.5 13l-91 97q-5 5 -5 10q0 8 17 25l10 10q9 9 15.5 14.5t11.5 5.5q3 0 10 -5l101 -88l101 88q7 5 10 5q5 0 11.5 -5.5t15.5 -14.5l10 -10q17 -17 17 -25q0 -5 -5 -10l-91 -97q-9 -10 -21.5 -13t-40.5 -3h-14q-28 0 -40.5 3z" />
    <glyph glyph-name="Ecircumflex" unicode="&#xca;" horiz-adv-x="603" 
d="M87 1q-9 1 -11 4t-2 10v690q0 7 2 10t11 4t30 1h411q8 0 11 -3t4.5 -13.5t1.5 -36.5v-8q0 -35 -3.5 -45t-13.5 -10h-308v-182h262q8 0 11 -3t4.5 -13.5t1.5 -36.5v-8q0 -35 -3.5 -45t-13.5 -10h-262v-190h312q8 0 11 -3t4.5 -13.5t1.5 -36.5v-8q0 -35 -3 -45t-14 -10
h-415q-21 0 -30 1zM207 790q-5 0 -11.5 5.5t-15.5 14.5l-10 10q-17 17 -17 25q0 5 5 10l91 97q9 10 21.5 13t40.5 3h14q28 0 40.5 -3t21.5 -13l91 -97q5 -5 5 -10q0 -8 -17 -25l-10 -10q-9 -9 -15.5 -14.5t-11.5 -5.5q-3 0 -10 5l-101 88l-101 -88q-7 -5 -10 -5z" />
    <glyph glyph-name="Edieresis" unicode="&#xcb;" horiz-adv-x="603" 
d="M87 1q-9 1 -11 4t-2 10v690q0 7 2 10t11 4t30 1h411q8 0 11 -3t4.5 -13.5t1.5 -36.5v-8q0 -35 -3.5 -45t-13.5 -10h-308v-182h262q8 0 11 -3t4.5 -13.5t1.5 -36.5v-8q0 -35 -3.5 -45t-13.5 -10h-262v-190h312q8 0 11 -3t4.5 -13.5t1.5 -36.5v-8q0 -35 -3 -45t-14 -10
h-415q-21 0 -30 1zM157 822q-21 20 -21 49q0 30 21 50.5t52 20.5q32 0 52.5 -20.5t20.5 -50.5q0 -29 -20.5 -49t-52.5 -20q-31 0 -52 20zM374 822q-20 20 -20 49q0 30 20 50.5t51 20.5q33 0 54 -20.5t21 -50.5q0 -29 -21 -49t-54 -20q-31 0 -51 20z" />
    <glyph glyph-name="Edotaccent" unicode="&#x116;" horiz-adv-x="603" 
d="M87 1q-9 1 -11 4t-2 10v690q0 7 2 10t11 4t30 1h411q8 0 11 -3t4.5 -13.5t1.5 -36.5v-8q0 -35 -3.5 -45t-13.5 -10h-308v-182h262q8 0 11 -3t4.5 -13.5t1.5 -36.5v-8q0 -35 -3.5 -45t-13.5 -10h-262v-190h312q8 0 11 -3t4.5 -13.5t1.5 -36.5v-8q0 -35 -3 -45t-14 -10
h-415q-21 0 -30 1zM267 828.5q-22 21.5 -22 51.5t22 51t52 21t51 -21t21 -51t-21 -51.5t-51 -21.5t-52 21.5z" />
    <glyph glyph-name="Egrave" unicode="&#xc8;" horiz-adv-x="603" 
d="M87 1q-9 1 -11 4t-2 10v690q0 7 2 10t11 4t30 1h411q8 0 11 -3t4.5 -13.5t1.5 -36.5v-8q0 -35 -3.5 -45t-13.5 -10h-308v-182h262q8 0 11 -3t4.5 -13.5t1.5 -36.5v-8q0 -35 -3.5 -45t-13.5 -10h-262v-190h312q8 0 11 -3t4.5 -13.5t1.5 -36.5v-8q0 -35 -3 -45t-14 -10
h-415q-21 0 -30 1zM316 790.5q-9 2.5 -14 8.5l-130 163q-3 5 -3 7q0 9 32 9h48q27 0 36.5 -2.5t13.5 -9.5l106 -163q2 -3 2 -7q0 -8 -26 -8h-38q-18 0 -27 2.5z" />
    <glyph glyph-name="Emacron" unicode="&#x112;" horiz-adv-x="603" 
d="M87 1q-9 1 -11 4t-2 10v690q0 7 2 10t11 4t30 1h411q8 0 11 -3t4.5 -13.5t1.5 -36.5v-8q0 -35 -3.5 -45t-13.5 -10h-308v-182h262q8 0 11 -3t4.5 -13.5t1.5 -36.5v-8q0 -35 -3.5 -45t-13.5 -10h-262v-190h312q8 0 11 -3t4.5 -13.5t1.5 -36.5v-8q0 -35 -3 -45t-14 -10
h-415q-21 0 -30 1zM172.5 836.5q-2.5 8.5 -2.5 32.5v14q0 24 2.5 32.5t10.5 8.5h270q8 0 10.5 -8.5t2.5 -32.5v-14q0 -24 -2.5 -32.5t-10.5 -8.5h-270q-8 0 -10.5 8.5z" />
    <glyph glyph-name="Eogonek" unicode="&#x118;" horiz-adv-x="599" 
d="M353 -209q-35 31 -35 86q0 36 22 69.5t58 53.5h-281q-21 0 -30 1t-11 4t-2 10v690q0 7 2 10t11 4t30 1h407q8 0 11 -3t4.5 -13.5t1.5 -36.5v-8q0 -35 -3.5 -45t-13.5 -10h-304v-182h258q8 0 11 -3t4.5 -13.5t1.5 -36.5v-8q0 -35 -3.5 -45t-13.5 -10h-258v-190h308
q8 0 11 -3t4.5 -13.5t1.5 -36.5v-8q0 -34 -3 -43.5t-14 -11.5q-45 -10 -77 -38.5t-32 -66.5q0 -22 11.5 -34t31.5 -12q19 0 41 10q6 3 10 -2t12 -25l4 -12q6 -18 6 -25q0 -8 -8 -14q-17 -9 -41 -15t-43 -6q-55 0 -90 31z" />
    <glyph glyph-name="F" unicode="F" horiz-adv-x="582" 
d="M97 0.5q-16 0.5 -19.5 3t-3.5 9.5v692q0 8 2 11t12.5 3.5t28.5 0.5h418q8 0 11 -3t4.5 -13.5t1.5 -36.5v-8q0 -35 -3.5 -45t-13.5 -10h-315v-182h269q8 0 11 -3t4.5 -13.5t1.5 -36.5v-8q0 -35 -3.5 -45t-13.5 -10h-269v-293q0 -6 -5 -8.5t-21 -3.5t-42 -1h-12
q-27 0 -43 0.5z" />
    <glyph glyph-name="G" unicode="G" horiz-adv-x="711" 
d="M124 87q-86 97 -86 273q0 113 42.5 196.5t123 128.5t191.5 45q133 0 228 -65q10 -6 10 -13q0 -8 -18 -38l-16 -26q-10 -16 -15.5 -22t-10.5 -6t-12 4q-38 22 -75 33t-80 11q-107 0 -162.5 -62.5t-55.5 -184.5q0 -124 52.5 -187t156.5 -63q48 0 102 13v164h-124
q-11 0 -14.5 9.5t-3.5 45.5v8q0 26 1.5 37t5 13.5t11.5 2.5h225q21 0 29.5 -1t11 -4.5t2.5 -11.5v-329q0 -10 -1.5 -13.5t-7.5 -6.5q-43 -21 -114.5 -34.5t-139.5 -13.5q-170 0 -256 97z" />
    <glyph glyph-name="Gbreve" unicode="&#x11e;" horiz-adv-x="711" 
d="M124 87q-86 97 -86 273q0 113 42.5 196.5t123 128.5t191.5 45q133 0 228 -65q10 -6 10 -13q0 -8 -18 -38l-16 -26q-10 -16 -15.5 -22t-10.5 -6t-12 4q-38 22 -75 33t-80 11q-107 0 -162.5 -62.5t-55.5 -184.5q0 -124 52.5 -187t156.5 -63q48 0 102 13v164h-124
q-11 0 -14.5 9.5t-3.5 45.5v8q0 26 1.5 37t5 13.5t11.5 2.5h225q21 0 29.5 -1t11 -4.5t2.5 -11.5v-329q0 -10 -1.5 -13.5t-7.5 -6.5q-43 -21 -114.5 -34.5t-139.5 -13.5q-170 0 -256 97zM279.5 834q-40.5 37 -44.5 104q0 9 8 11.5t35 2.5h15q22 0 29 -2.5t8 -9.5
q10 -57 60 -57t60 57q1 7 8 9.5t29 2.5h15q27 0 35 -2.5t8 -11.5q-4 -67 -44.5 -104t-110.5 -37t-110.5 37z" />
    <glyph glyph-name="Gcircumflex" unicode="&#x11c;" horiz-adv-x="711" 
d="M124 87q-86 97 -86 273q0 113 42.5 196.5t123 128.5t191.5 45q133 0 228 -65q10 -6 10 -13q0 -8 -18 -38l-16 -26q-10 -16 -15.5 -22t-10.5 -6t-12 4q-38 22 -75 33t-80 11q-107 0 -162.5 -62.5t-55.5 -184.5q0 -124 52.5 -187t156.5 -63q48 0 102 13v164h-124
q-11 0 -14.5 9.5t-3.5 45.5v8q0 26 1.5 37t5 13.5t11.5 2.5h225q21 0 29.5 -1t11 -4.5t2.5 -11.5v-329q0 -10 -1.5 -13.5t-7.5 -6.5q-43 -21 -114.5 -34.5t-139.5 -13.5q-170 0 -256 97zM279 790q-5 0 -11.5 5.5t-15.5 14.5l-10 10q-17 17 -17 25q0 5 5 10l91 97
q9 10 21.5 13t40.5 3h14q28 0 40.5 -3t21.5 -13l91 -97q5 -5 5 -10q0 -8 -17 -25l-10 -10q-9 -9 -15.5 -14.5t-11.5 -5.5q-3 0 -10 5l-101 88l-101 -88q-7 -5 -10 -5z" />
    <glyph glyph-name="Gcommaaccent" unicode="&#x122;" horiz-adv-x="711" 
d="M124 87q-86 97 -86 273q0 113 42.5 196.5t123 128.5t191.5 45q133 0 228 -65q10 -6 10 -13q0 -8 -18 -38l-16 -26q-10 -16 -15.5 -22t-10.5 -6t-12 4q-38 22 -75 33t-80 11q-107 0 -162.5 -62.5t-55.5 -184.5q0 -124 52.5 -187t156.5 -63q48 0 102 13v164h-124
q-11 0 -14.5 9.5t-3.5 45.5v8q0 26 1.5 37t5 13.5t11.5 2.5h225q21 0 29.5 -1t11 -4.5t2.5 -11.5v-329q0 -10 -1.5 -13.5t-7.5 -6.5q-43 -21 -114.5 -34.5t-139.5 -13.5q-170 0 -256 97zM315 -299q-6 4 -6 10q0 5 4 9q41 51 41 92q0 9 -3.5 16t-11.5 17q-9 11 -13.5 20
t-4.5 22q0 22 17 38t44 16q29 0 47.5 -21.5t18.5 -54.5q0 -46 -25 -92t-71 -86q-7 -5 -10 -5q-4 0 -11 5z" />
    <glyph glyph-name="Gdotaccent" unicode="&#x120;" horiz-adv-x="711" 
d="M124 87q-86 97 -86 273q0 113 42.5 196.5t123 128.5t191.5 45q133 0 228 -65q10 -6 10 -13q0 -8 -18 -38l-16 -26q-10 -16 -15.5 -22t-10.5 -6t-12 4q-38 22 -75 33t-80 11q-107 0 -162.5 -62.5t-55.5 -184.5q0 -124 52.5 -187t156.5 -63q48 0 102 13v164h-124
q-11 0 -14.5 9.5t-3.5 45.5v8q0 26 1.5 37t5 13.5t11.5 2.5h225q21 0 29.5 -1t11 -4.5t2.5 -11.5v-329q0 -10 -1.5 -13.5t-7.5 -6.5q-43 -21 -114.5 -34.5t-139.5 -13.5q-170 0 -256 97zM339 828.5q-22 21.5 -22 51.5t22 51t52 21t51 -21t21 -51t-21 -51.5t-51 -21.5
t-52 21.5z" />
    <glyph glyph-name="H" unicode="H" horiz-adv-x="732" 
d="M98 1q-16 1 -20 4t-4 10v690q0 7 4 10t20 4t42 1h12q26 0 42.5 -1t21 -4t4.5 -10v-283h292v283q0 7 4 10t20 4t42 1h12q26 0 42.5 -1t21 -4t4.5 -10v-690q0 -7 -4.5 -10t-21 -4t-42.5 -1h-12q-26 0 -42 1t-20 4t-4 10v291h-292v-291q0 -7 -4.5 -10t-21 -4t-42.5 -1h-12
q-26 0 -42 1z" />
    <glyph glyph-name="Hbar" unicode="&#x126;" horiz-adv-x="758" 
d="M747 619.5q3 -9.5 3 -40.5v-6q0 -31 -3 -40.5t-11 -9.5h-65v-508q0 -7 -4.5 -10t-21 -4t-42.5 -1h-12q-26 0 -42 1t-20 4t-4 10v291h-292v-291q0 -7 -4.5 -10t-21 -4t-42.5 -1h-12q-26 0 -42 1t-20 4t-4 10v508h-65q-8 0 -11 9.5t-3 40.5v6q0 31 3 40.5t11 9.5h65v76
q0 7 4 10t20 4t42 1h12q26 0 42.5 -1t21 -4t4.5 -10v-76h292v76q0 7 4 10t20 4t42 1h12q26 0 42.5 -1t21 -4t4.5 -10v-76h65q8 0 11 -9.5zM525 523h-292v-101h292v101z" />
    <glyph glyph-name="Hcircumflex" unicode="&#x124;" horiz-adv-x="732" 
d="M98 1q-16 1 -20 4t-4 10v690q0 7 4 10t20 4t42 1h12q26 0 42.5 -1t21 -4t4.5 -10v-283h292v283q0 7 4 10t20 4t42 1h12q26 0 42.5 -1t21 -4t4.5 -10v-690q0 -7 -4.5 -10t-21 -4t-42.5 -1h-12q-26 0 -42 1t-20 4t-4 10v291h-292v-291q0 -7 -4.5 -10t-21 -4t-42.5 -1h-12
q-26 0 -42 1zM256 790q-5 0 -11.5 5.5t-15.5 14.5l-10 10q-17 17 -17 25q0 5 5 10l91 97q9 10 21.5 13t40.5 3h14q28 0 40.5 -3t21.5 -13l91 -97q5 -5 5 -10q0 -8 -17 -25l-10 -10q-9 -9 -15.5 -14.5t-11.5 -5.5q-3 0 -10 5l-101 88l-101 -88q-7 -5 -10 -5z" />
    <glyph glyph-name="I" unicode="I" horiz-adv-x="300" 
d="M101 1q-16 1 -20 4t-4 10v690q0 7 4 10t20 4t42 1h12q26 0 42.5 -1t21 -4t4.5 -10v-690q0 -7 -4.5 -10t-21 -4t-42.5 -1h-12q-26 0 -42 1z" />
    <glyph glyph-name="IJ" unicode="&#x132;" horiz-adv-x="773" 
d="M101 1q-16 1 -20 4t-4 10v690q0 7 4 10t20 4t42 1h12q26 0 42.5 -1t21 -4t4.5 -10v-690q0 -7 -4.5 -10t-21 -4t-42.5 -1h-12q-26 0 -42 1zM404 -2.5q-38 7.5 -65 19.5q-9 5 -9 16q0 13 7 35l6 20q6 22 11.5 31t13.5 9l8 -2q47 -15 84 -15q50 0 71 25q15 17 20.5 41.5
t5.5 65.5v462q0 9 13 12t53 3h11q39 0 53.5 -3.5t14.5 -11.5v-464q0 -68 -13.5 -114t-41.5 -76q-55 -61 -168 -61q-37 0 -75 7.5z" />
    <glyph glyph-name="Iacute" unicode="&#xcd;" horiz-adv-x="300" 
d="M101 1q-16 1 -20 4t-4 10v690q0 7 4 10t20 4t42 1h12q26 0 42.5 -1t21 -4t4.5 -10v-690q0 -7 -4.5 -10t-21 -4t-42.5 -1h-12q-26 0 -42 1zM64 791q-6 3 -1 12l106 163q4 7 13.5 9.5t36.5 2.5h48q32 0 32 -9q0 -2 -3 -7l-130 -163q-5 -6 -14 -8.5t-27 -2.5h-38
q-17 0 -23 3z" />
    <glyph glyph-name="Iacute_J.loclNLD" horiz-adv-x="773" 
d="M101 1q-16 1 -20 4t-4 10v690q0 7 4 10t20 4t42 1h12q26 0 42.5 -1t21 -4t4.5 -10v-690q0 -7 -4.5 -10t-21 -4t-42.5 -1h-12q-26 0 -42 1zM64 791q-6 3 -1 12l106 163q4 7 13.5 9.5t36.5 2.5h48q32 0 32 -9q0 -2 -3 -7l-130 -163q-5 -6 -14 -8.5t-27 -2.5h-38
q-17 0 -23 3zM404 -2.5q-38 7.5 -65 19.5q-9 5 -9 16q0 13 7 35l6 20q6 22 11.5 31t13.5 9l8 -2q47 -15 84 -15q50 0 71 25q15 17 20.5 41.5t5.5 65.5v462q0 9 13 12t53 3h11q39 0 53.5 -3.5t14.5 -11.5v-464q0 -68 -13.5 -114t-41.5 -76q-55 -61 -168 -61q-37 0 -75 7.5z
M543 791q-6 3 -1 12l106 163q4 7 13.5 9.5t36.5 2.5h48q32 0 32 -9q0 -2 -3 -7l-130 -163q-5 -6 -14 -8.5t-27 -2.5h-38q-17 0 -23 3z" />
    <glyph glyph-name="Ibreve" unicode="&#x12c;" horiz-adv-x="300" 
d="M101 1q-16 1 -20 4t-4 10v690q0 7 4 10t20 4t42 1h12q26 0 42.5 -1t21 -4t4.5 -10v-690q0 -7 -4.5 -10t-21 -4t-42.5 -1h-12q-26 0 -42 1zM39.5 834q-40.5 37 -44.5 104q0 9 8 11.5t35 2.5h15q22 0 29 -2.5t8 -9.5q10 -57 60 -57t60 57q1 7 8 9.5t29 2.5h15q27 0 35 -2.5
t8 -11.5q-4 -67 -44.5 -104t-110.5 -37t-110.5 37z" />
    <glyph glyph-name="Icircumflex" unicode="&#xce;" horiz-adv-x="300" 
d="M101 1q-16 1 -20 4t-4 10v690q0 7 4 10t20 4t42 1h12q26 0 42.5 -1t21 -4t4.5 -10v-690q0 -7 -4.5 -10t-21 -4t-42.5 -1h-12q-26 0 -42 1zM39 790q-5 0 -11.5 5.5t-15.5 14.5l-10 10q-17 17 -17 25q0 5 5 10l91 97q9 10 21.5 13t40.5 3h14q28 0 40.5 -3t21.5 -13l91 -97
q5 -5 5 -10q0 -8 -17 -25l-10 -10q-9 -9 -15.5 -14.5t-11.5 -5.5q-3 0 -10 5l-101 88l-101 -88q-7 -5 -10 -5z" />
    <glyph glyph-name="Idieresis" unicode="&#xcf;" horiz-adv-x="300" 
d="M101 1q-16 1 -20 4t-4 10v690q0 7 4 10t20 4t42 1h12q26 0 42.5 -1t21 -4t4.5 -10v-690q0 -7 -4.5 -10t-21 -4t-42.5 -1h-12q-26 0 -42 1zM-11 822q-21 20 -21 49q0 30 21 50.5t52 20.5q32 0 52.5 -20.5t20.5 -50.5q0 -29 -20.5 -49t-52.5 -20q-31 0 -52 20zM206 822
q-20 20 -20 49q0 30 20 50.5t51 20.5q33 0 54 -20.5t21 -50.5q0 -29 -21 -49t-54 -20q-31 0 -51 20z" />
    <glyph glyph-name="Idotaccent" unicode="&#x130;" horiz-adv-x="300" 
d="M101 1q-16 1 -20 4t-4 10v690q0 7 4 10t20 4t42 1h12q26 0 42.5 -1t21 -4t4.5 -10v-690q0 -7 -4.5 -10t-21 -4t-42.5 -1h-12q-26 0 -42 1zM99 828.5q-22 21.5 -22 51.5t22 51t52 21t51 -21t21 -51t-21 -51.5t-51 -21.5t-52 21.5z" />
    <glyph glyph-name="Igrave" unicode="&#xcc;" horiz-adv-x="300" 
d="M101 1q-16 1 -20 4t-4 10v690q0 7 4 10t20 4t42 1h12q26 0 42.5 -1t21 -4t4.5 -10v-690q0 -7 -4.5 -10t-21 -4t-42.5 -1h-12q-26 0 -42 1zM148 790.5q-9 2.5 -14 8.5l-130 163q-3 5 -3 7q0 9 32 9h48q27 0 36.5 -2.5t13.5 -9.5l106 -163q2 -3 2 -7q0 -8 -26 -8h-38
q-18 0 -27 2.5z" />
    <glyph glyph-name="Imacron" unicode="&#x12a;" horiz-adv-x="300" 
d="M101 1q-16 1 -20 4t-4 10v690q0 7 4 10t20 4t42 1h12q26 0 42.5 -1t21 -4t4.5 -10v-690q0 -7 -4.5 -10t-21 -4t-42.5 -1h-12q-26 0 -42 1zM4.5 836.5q-2.5 8.5 -2.5 32.5v14q0 24 2.5 32.5t10.5 8.5h270q8 0 10.5 -8.5t2.5 -32.5v-14q0 -24 -2.5 -32.5t-10.5 -8.5h-270
q-8 0 -10.5 8.5z" />
    <glyph glyph-name="Iogonek" unicode="&#x12e;" horiz-adv-x="300" 
d="M54.5 -203.5q-35.5 30.5 -35.5 82.5q0 34 15.5 65.5t42.5 53.5v707q0 7 4 10t20 4t42 1h12q26 0 42.5 -1t21 -4t4.5 -10v-687q0 -8 -6 -12t-20 -9q-16 -5 -28.5 -11.5t-23.5 -19.5q-25 -28 -25 -63q0 -23 11 -35.5t31 -12.5q15 0 44 11q6 2 10.5 -3t11.5 -24l4 -12
q6 -18 6 -25q0 -8 -8 -14q-16 -10 -40 -16t-46 -6q-54 0 -89.5 30.5z" />
    <glyph glyph-name="Itilde" unicode="&#x128;" horiz-adv-x="300" 
d="M101 1q-16 1 -20 4t-4 10v690q0 7 4 10t20 4t42 1h12q26 0 42.5 -1t21 -4t4.5 -10v-690q0 -7 -4.5 -10t-21 -4t-42.5 -1h-12q-26 0 -42 1zM173.5 818.5q-15.5 5.5 -37.5 16.5q-12 6 -23.5 10.5t-20.5 4.5q-27 0 -59 -32q-4 -4 -12 -1t-24 19l-4 4q-20 20 -20 28q0 3 4 9
q54 67 115 67q19 0 34.5 -5.5t37.5 -16.5q11 -6 22.5 -10.5t20.5 -4.5q27 0 59 32q4 4 12 1t24 -19l4 -4q20 -20 20 -28q0 -3 -4 -9q-54 -67 -115 -67q-18 0 -33.5 5.5z" />
    <glyph glyph-name="J" unicode="J" horiz-adv-x="473" 
d="M104 -2.5q-38 7.5 -65 19.5q-9 5 -9 16q0 13 7 35l6 20q6 22 11.5 31t13.5 9l8 -2q47 -15 84 -15q50 0 71 25q15 17 20.5 41.5t5.5 65.5v462q0 9 13 12t53 3h11q39 0 53.5 -3.5t14.5 -11.5v-464q0 -68 -13.5 -114t-41.5 -76q-55 -61 -168 -61q-37 0 -75 7.5z" />
    <glyph glyph-name="Jcircumflex" unicode="&#x134;" horiz-adv-x="473" 
d="M104 -2.5q-38 7.5 -65 19.5q-9 5 -9 16q0 13 7 35l6 20q6 22 11.5 31t13.5 9l8 -2q47 -15 84 -15q50 0 71 25q15 17 20.5 41.5t5.5 65.5v462q0 9 13 12t53 3h11q39 0 53.5 -3.5t14.5 -11.5v-464q0 -68 -13.5 -114t-41.5 -76q-55 -61 -168 -61q-37 0 -75 7.5zM218 790
q-5 0 -11.5 5.5t-15.5 14.5l-10 10q-17 17 -17 25q0 5 5 10l91 97q9 10 21.5 13t40.5 3h14q28 0 40.5 -3t21.5 -13l91 -97q5 -5 5 -10q0 -8 -17 -25l-10 -10q-9 -9 -15.5 -14.5t-11.5 -5.5q-3 0 -10 5l-101 88l-101 -88q-7 -5 -10 -5z" />
    <glyph glyph-name="K" unicode="K" horiz-adv-x="667" 
d="M98 1q-16 1 -20 4t-4 10v690q0 7 4.5 10t20.5 4t41 1h12q44 0 56 -2.5t12 -12.5v-290l42 40q130 128 219 251q7 10 17 12t50 2h15q41 0 51.5 -3.5t6.5 -12.5q-59 -119 -241 -290l256 -396q3 -4 3 -8q0 -6 -11.5 -8t-42.5 -2h-33q-28 0 -45 1t-22 3.5t-9 9.5l-193 306
l-63 -59v-246q0 -10 -12.5 -12.5t-55.5 -2.5h-12q-26 0 -42 1z" />
    <glyph glyph-name="Kcommaaccent" unicode="&#x136;" horiz-adv-x="667" 
d="M98 1q-16 1 -20 4t-4 10v690q0 7 4.5 10t20.5 4t41 1h12q44 0 56 -2.5t12 -12.5v-290l42 40q130 128 219 251q7 10 17 12t50 2h15q41 0 51.5 -3.5t6.5 -12.5q-59 -119 -241 -290l256 -396q3 -4 3 -8q0 -6 -11.5 -8t-42.5 -2h-33q-28 0 -45 1t-22 3.5t-9 9.5l-193 306
l-63 -59v-246q0 -10 -12.5 -12.5t-55.5 -2.5h-12q-26 0 -42 1zM288 -299q-6 4 -6 10q0 5 4 9q41 51 41 92q0 9 -3.5 16t-11.5 17q-9 11 -13.5 20t-4.5 22q0 22 17 38t44 16q29 0 47.5 -21.5t18.5 -54.5q0 -46 -25 -92t-71 -86q-7 -5 -10 -5q-4 0 -11 5z" />
    <glyph glyph-name="L" unicode="L" horiz-adv-x="550" 
d="M89.5 1q-10.5 1 -13 4t-2.5 10v690q0 7 4.5 10t20.5 4t41 1h12q44 0 56 -2.5t12 -12.5v-589h283q8 0 11 -3t4.5 -13.5t1.5 -36.5v-8q0 -35 -3.5 -45t-13.5 -10h-386q-17 0 -27.5 1z" />
    <glyph glyph-name="Lacute" unicode="&#x139;" horiz-adv-x="550" 
d="M89.5 1q-10.5 1 -13 4t-2.5 10v690q0 7 4.5 10t20.5 4t41 1h12q44 0 56 -2.5t12 -12.5v-589h283q8 0 11 -3t4.5 -13.5t1.5 -36.5v-8q0 -35 -3.5 -45t-13.5 -10h-386q-17 0 -27.5 1zM93 791q-6 3 -1 12l106 163q4 7 13.5 9.5t36.5 2.5h48q32 0 32 -9q0 -2 -3 -7l-130 -163
q-5 -6 -14 -8.5t-27 -2.5h-38q-17 0 -23 3z" />
    <glyph glyph-name="Lcaron" unicode="&#x13d;" horiz-adv-x="550" 
d="M89.5 1q-10.5 1 -13 4t-2.5 10v690q0 7 4.5 10t20.5 4t41 1h12q44 0 56 -2.5t12 -12.5v-589h283q8 0 11 -3t4.5 -13.5t1.5 -36.5v-8q0 -35 -3.5 -45t-13.5 -10h-386q-17 0 -27.5 1zM295 490q-6 4 -6 10q0 5 4 9q41 51 41 92q0 9 -3.5 16t-11.5 17q-9 11 -13.5 20t-4.5 22
q0 22 17 38t44 16q29 0 47.5 -21.5t18.5 -54.5q0 -46 -25 -92t-71 -86q-7 -5 -10 -5q-4 0 -11 5z" />
    <glyph glyph-name="Lcommaaccent" unicode="&#x13b;" horiz-adv-x="550" 
d="M89.5 1q-10.5 1 -13 4t-2.5 10v690q0 7 4.5 10t20.5 4t41 1h12q44 0 56 -2.5t12 -12.5v-589h283q8 0 11 -3t4.5 -13.5t1.5 -36.5v-8q0 -35 -3.5 -45t-13.5 -10h-386q-17 0 -27.5 1zM243 -299q-6 4 -6 10q0 5 4 9q41 51 41 92q0 9 -3.5 16t-11.5 17q-9 11 -13.5 20
t-4.5 22q0 22 17 38t44 16q29 0 47.5 -21.5t18.5 -54.5q0 -46 -25 -92t-71 -86q-7 -5 -10 -5q-4 0 -11 5z" />
    <glyph glyph-name="Ldot" unicode="&#x13f;" horiz-adv-x="550" 
d="M89.5 1q-10.5 1 -13 4t-2.5 10v690q0 7 4.5 10t20.5 4t41 1h12q44 0 56 -2.5t12 -12.5v-589h283q8 0 11 -3t4.5 -13.5t1.5 -36.5v-8q0 -35 -3.5 -45t-13.5 -10h-386q-17 0 -27.5 1zM360 353.5q-22 21.5 -22 51.5t22 51t52 21t51 -21t21 -51t-21 -51.5t-51 -21.5t-52 21.5
z" />
    <glyph glyph-name="Lslash" unicode="&#x141;" horiz-adv-x="566" 
d="M530 113q3 -3 4.5 -13.5t1.5 -36.5v-8q0 -35 -3.5 -45t-13.5 -10h-386q-17 0 -27.5 1t-13 4t-2.5 10v259l-64 -35q-4 -3 -8 -3q-6 0 -8 9t-2 31v27q0 31 3 42t11 16l68 38v306q0 7 4.5 10t20.5 4t41 1h12q44 0 56 -2.5t12 -12.5v-226l125 69q4 3 8 3q6 0 8 -9t2 -31v-28
q0 -31 -3 -42t-11 -16l-129 -71v-238h283q8 0 11 -3z" />
    <glyph glyph-name="M" unicode="M" horiz-adv-x="870" 
d="M98 1q-16 1 -20 4t-4 10v689q0 10 12 13t51 3h44q41 0 54.5 -3.5t18.5 -13.5l90 -192q25 -51 80 -183l15 -36q49 116 98 219l90 192q5 10 18.5 13.5t54.5 3.5h33q39 0 51 -3t12 -13v-689q0 -7 -4.5 -10t-21 -4t-41.5 -1h-8q-26 0 -42 1t-20 4t-4 10l1 263q0 119 2 199
q-35 -92 -89 -208l-63 -133q-3 -6 -7.5 -9t-18.5 -4t-37 -1h-14q-39 0 -49.5 2.5t-15.5 11.5l-63 133q-52 109 -89 210q3 -60 3 -189v-275q0 -7 -4.5 -10t-21 -4t-42.5 -1h-7q-26 0 -42 1z" />
    <glyph glyph-name="N" unicode="N" horiz-adv-x="750" 
d="M97.5 1q-16.5 1 -20 3.5t-3.5 10.5v690q0 8 3 10.5t16.5 3.5t36.5 1h6q24 0 39 -1t20.5 -4t11.5 -11l198 -274q99 -138 141 -217q-5 103 -5 246v246q0 7 4 10t19.5 4t39.5 1h8q24 0 39.5 -1t20 -4t4.5 -10v-690q0 -7 -2.5 -10t-16.5 -4t-37 -1h-7q-39 0 -50 2.5t-19 13.5
l-198 274q-96 132 -141 208q5 -86 5 -237v-246q0 -7 -4 -10t-19.5 -4t-39.5 -1h-7q-26 0 -42.5 1z" />
    <glyph glyph-name="Nacute" unicode="&#x143;" horiz-adv-x="750" 
d="M97.5 1q-16.5 1 -20 3.5t-3.5 10.5v690q0 8 3 10.5t16.5 3.5t36.5 1h6q24 0 39 -1t20.5 -4t11.5 -11l198 -274q99 -138 141 -217q-5 103 -5 246v246q0 7 4 10t19.5 4t39.5 1h8q24 0 39.5 -1t20 -4t4.5 -10v-690q0 -7 -2.5 -10t-16.5 -4t-37 -1h-7q-39 0 -50 2.5t-19 13.5
l-198 274q-96 132 -141 208q5 -86 5 -237v-246q0 -7 -4 -10t-19.5 -4t-39.5 -1h-7q-26 0 -42.5 1zM290 791q-6 3 -1 12l106 163q4 7 13.5 9.5t36.5 2.5h48q32 0 32 -9q0 -2 -3 -7l-130 -163q-5 -6 -14 -8.5t-27 -2.5h-38q-17 0 -23 3z" />
    <glyph glyph-name="Nacute.loclPLK" horiz-adv-x="750" 
d="M97.5 1q-16.5 1 -20 3.5t-3.5 10.5v690q0 8 3 10.5t16.5 3.5t36.5 1h6q24 0 39 -1t20.5 -4t11.5 -11l198 -274q99 -138 141 -217q-5 103 -5 246v246q0 7 4 10t19.5 4t39.5 1h8q24 0 39.5 -1t20 -4t4.5 -10v-690q0 -7 -2.5 -10t-16.5 -4t-37 -1h-7q-39 0 -50 2.5t-19 13.5
l-198 274q-96 132 -141 208q5 -86 5 -237v-246q0 -7 -4 -10t-19.5 -4t-39.5 -1h-7q-26 0 -42.5 1zM312.5 791q-6.5 3 -4.5 12l48 163q2 8 10.5 10t35.5 2h46q24 0 31.5 -3.5t3.5 -12.5l-73 -163q-3 -6 -10.5 -8.5t-26.5 -2.5h-36q-18 0 -24.5 3z" />
    <glyph glyph-name="Ncaron" unicode="&#x147;" horiz-adv-x="750" 
d="M97.5 1q-16.5 1 -20 3.5t-3.5 10.5v690q0 8 3 10.5t16.5 3.5t36.5 1h6q24 0 39 -1t20.5 -4t11.5 -11l198 -274q99 -138 141 -217q-5 103 -5 246v246q0 7 4 10t19.5 4t39.5 1h8q24 0 39.5 -1t20 -4t4.5 -10v-690q0 -7 -2.5 -10t-16.5 -4t-37 -1h-7q-39 0 -50 2.5t-19 13.5
l-198 274q-96 132 -141 208q5 -86 5 -237v-246q0 -7 -4 -10t-19.5 -4t-39.5 -1h-7q-26 0 -42.5 1zM328.5 793q-12.5 3 -21.5 13l-91 97q-5 5 -5 10q0 8 17 25l10 10q9 9 15.5 14.5t11.5 5.5q3 0 10 -5l101 -88l101 88q7 5 10 5q5 0 11.5 -5.5t15.5 -14.5l10 -10
q17 -17 17 -25q0 -5 -5 -10l-91 -97q-9 -10 -21.5 -13t-40.5 -3h-14q-28 0 -40.5 3z" />
    <glyph glyph-name="Ncommaaccent" unicode="&#x145;" horiz-adv-x="750" 
d="M97.5 1q-16.5 1 -20 3.5t-3.5 10.5v690q0 8 3 10.5t16.5 3.5t36.5 1h6q24 0 39 -1t20.5 -4t11.5 -11l198 -274q99 -138 141 -217q-5 103 -5 246v246q0 7 4 10t19.5 4t39.5 1h8q24 0 39.5 -1t20 -4t4.5 -10v-690q0 -7 -2.5 -10t-16.5 -4t-37 -1h-7q-39 0 -50 2.5t-19 13.5
l-198 274q-96 132 -141 208q5 -86 5 -237v-246q0 -7 -4 -10t-19.5 -4t-39.5 -1h-7q-26 0 -42.5 1zM311 -299q-6 4 -6 10q0 5 4 9q41 51 41 92q0 9 -3.5 16t-11.5 17q-9 11 -13.5 20t-4.5 22q0 22 17 38t44 16q29 0 47.5 -21.5t18.5 -54.5q0 -46 -25 -92t-71 -86
q-7 -5 -10 -5q-4 0 -11 5z" />
    <glyph glyph-name="Eng" unicode="&#x14a;" horiz-adv-x="750" 
d="M427.5 -177.5q-28.5 5.5 -42.5 13.5q-9 4 -9 14q0 7 6 36l4 17q6 25 10.5 31t16.5 3q27 -6 54 -6q38 0 54 22t18 70l-193 267q-96 132 -141 208q5 -86 5 -237v-246q0 -7 -4 -10t-19.5 -4t-39.5 -1h-7q-26 0 -42.5 1t-20 3.5t-3.5 10.5v690q0 8 3 10.5t16.5 3.5t36.5 1h6
q24 0 39 -1t20.5 -4t11.5 -11l198 -274q99 -138 141 -217q-5 103 -5 246v246q0 7 4 10t19.5 4t39.5 1h8q24 0 39.5 -1t20 -4t4.5 -10v-650q0 -238 -192 -238q-28 0 -56.5 5.5z" />
    <glyph glyph-name="Ntilde" unicode="&#xd1;" horiz-adv-x="750" 
d="M97.5 1q-16.5 1 -20 3.5t-3.5 10.5v690q0 8 3 10.5t16.5 3.5t36.5 1h6q24 0 39 -1t20.5 -4t11.5 -11l198 -274q99 -138 141 -217q-5 103 -5 246v246q0 7 4 10t19.5 4t39.5 1h8q24 0 39.5 -1t20 -4t4.5 -10v-690q0 -7 -2.5 -10t-16.5 -4t-37 -1h-7q-39 0 -50 2.5t-19 13.5
l-198 274q-96 132 -141 208q5 -86 5 -237v-246q0 -7 -4 -10t-19.5 -4t-39.5 -1h-7q-26 0 -42.5 1zM399.5 818.5q-15.5 5.5 -37.5 16.5q-12 6 -23.5 10.5t-20.5 4.5q-27 0 -59 -32q-4 -4 -12 -1t-24 19l-4 4q-20 20 -20 28q0 3 4 9q54 67 115 67q19 0 34.5 -5.5t37.5 -16.5
q11 -6 22.5 -10.5t20.5 -4.5q27 0 59 32q4 4 12 1t24 -19l4 -4q20 -20 20 -28q0 -3 -4 -9q-54 -67 -115 -67q-18 0 -33.5 5.5z" />
    <glyph glyph-name="O" unicode="O" horiz-adv-x="749" 
d="M121.5 82.5q-83.5 92.5 -83.5 267.5q0 178 89.5 279t258.5 101q158 0 241.5 -92.5t83.5 -267.5q0 -177 -89.5 -278.5t-258.5 -101.5q-158 0 -241.5 92.5zM511 176q50 65 50 190q0 122 -44 182.5t-134 60.5q-96 0 -145.5 -65t-49.5 -190q0 -123 44 -183t134 -60
q95 0 145 65z" />
    <glyph glyph-name="Oacute" unicode="&#xd3;" horiz-adv-x="749" 
d="M121.5 82.5q-83.5 92.5 -83.5 267.5q0 178 89.5 279t258.5 101q158 0 241.5 -92.5t83.5 -267.5q0 -177 -89.5 -278.5t-258.5 -101.5q-158 0 -241.5 92.5zM511 176q50 65 50 190q0 122 -44 182.5t-134 60.5q-96 0 -145.5 -65t-49.5 -190q0 -123 44 -183t134 -60
q95 0 145 65zM300 791q-6 3 -1 12l106 163q4 7 13.5 9.5t36.5 2.5h48q32 0 32 -9q0 -2 -3 -7l-130 -163q-5 -6 -14 -8.5t-27 -2.5h-38q-17 0 -23 3z" />
    <glyph glyph-name="Oacute.loclPLK" horiz-adv-x="749" 
d="M121.5 82.5q-83.5 92.5 -83.5 267.5q0 178 89.5 279t258.5 101q158 0 241.5 -92.5t83.5 -267.5q0 -177 -89.5 -278.5t-258.5 -101.5q-158 0 -241.5 92.5zM511 176q50 65 50 190q0 122 -44 182.5t-134 60.5q-96 0 -145.5 -65t-49.5 -190q0 -123 44 -183t134 -60
q95 0 145 65zM322.5 791q-6.5 3 -4.5 12l48 163q2 8 10.5 10t35.5 2h46q24 0 31.5 -3.5t3.5 -12.5l-73 -163q-3 -6 -10.5 -8.5t-26.5 -2.5h-36q-18 0 -24.5 3z" />
    <glyph glyph-name="Obreve" unicode="&#x14e;" horiz-adv-x="749" 
d="M121.5 82.5q-83.5 92.5 -83.5 267.5q0 178 89.5 279t258.5 101q158 0 241.5 -92.5t83.5 -267.5q0 -177 -89.5 -278.5t-258.5 -101.5q-158 0 -241.5 92.5zM511 176q50 65 50 190q0 122 -44 182.5t-134 60.5q-96 0 -145.5 -65t-49.5 -190q0 -123 44 -183t134 -60
q95 0 145 65zM275.5 834q-40.5 37 -44.5 104q0 9 8 11.5t35 2.5h15q22 0 29 -2.5t8 -9.5q10 -57 60 -57t60 57q1 7 8 9.5t29 2.5h15q27 0 35 -2.5t8 -11.5q-4 -67 -44.5 -104t-110.5 -37t-110.5 37z" />
    <glyph glyph-name="Ocircumflex" unicode="&#xd4;" horiz-adv-x="749" 
d="M121.5 82.5q-83.5 92.5 -83.5 267.5q0 178 89.5 279t258.5 101q158 0 241.5 -92.5t83.5 -267.5q0 -177 -89.5 -278.5t-258.5 -101.5q-158 0 -241.5 92.5zM511 176q50 65 50 190q0 122 -44 182.5t-134 60.5q-96 0 -145.5 -65t-49.5 -190q0 -123 44 -183t134 -60
q95 0 145 65zM275 790q-5 0 -11.5 5.5t-15.5 14.5l-10 10q-17 17 -17 25q0 5 5 10l91 97q9 10 21.5 13t40.5 3h14q28 0 40.5 -3t21.5 -13l91 -97q5 -5 5 -10q0 -8 -17 -25l-10 -10q-9 -9 -15.5 -14.5t-11.5 -5.5q-3 0 -10 5l-101 88l-101 -88q-7 -5 -10 -5z" />
    <glyph glyph-name="Odieresis" unicode="&#xd6;" horiz-adv-x="749" 
d="M121.5 82.5q-83.5 92.5 -83.5 267.5q0 178 89.5 279t258.5 101q158 0 241.5 -92.5t83.5 -267.5q0 -177 -89.5 -278.5t-258.5 -101.5q-158 0 -241.5 92.5zM511 176q50 65 50 190q0 122 -44 182.5t-134 60.5q-96 0 -145.5 -65t-49.5 -190q0 -123 44 -183t134 -60
q95 0 145 65zM225 822q-21 20 -21 49q0 30 21 50.5t52 20.5q32 0 52.5 -20.5t20.5 -50.5q0 -29 -20.5 -49t-52.5 -20q-31 0 -52 20zM442 822q-20 20 -20 49q0 30 20 50.5t51 20.5q33 0 54 -20.5t21 -50.5q0 -29 -21 -49t-54 -20q-31 0 -51 20z" />
    <glyph glyph-name="Ograve" unicode="&#xd2;" horiz-adv-x="749" 
d="M121.5 82.5q-83.5 92.5 -83.5 267.5q0 178 89.5 279t258.5 101q158 0 241.5 -92.5t83.5 -267.5q0 -177 -89.5 -278.5t-258.5 -101.5q-158 0 -241.5 92.5zM511 176q50 65 50 190q0 122 -44 182.5t-134 60.5q-96 0 -145.5 -65t-49.5 -190q0 -123 44 -183t134 -60
q95 0 145 65zM384 790.5q-9 2.5 -14 8.5l-130 163q-3 5 -3 7q0 9 32 9h48q27 0 36.5 -2.5t13.5 -9.5l106 -163q2 -3 2 -7q0 -8 -26 -8h-38q-18 0 -27 2.5z" />
    <glyph glyph-name="Ohungarumlaut" unicode="&#x150;" horiz-adv-x="749" 
d="M121.5 82.5q-83.5 92.5 -83.5 267.5q0 178 89.5 279t258.5 101q158 0 241.5 -92.5t83.5 -267.5q0 -177 -89.5 -278.5t-258.5 -101.5q-158 0 -241.5 92.5zM511 176q50 65 50 190q0 122 -44 182.5t-134 60.5q-96 0 -145.5 -65t-49.5 -190q0 -123 44 -183t134 -60
q95 0 145 65zM200.5 798q-5.5 3 -0.5 11l92 157q4 7 13.5 9.5t34.5 2.5h43q22 0 27.5 -3.5t0.5 -11.5l-116 -157q-5 -7 -13 -9t-26 -2h-33q-17 0 -22.5 3zM400.5 798q-5.5 3 -0.5 11l92 157q4 7 13.5 9.5t34.5 2.5h43q22 0 27.5 -3.5t0.5 -11.5l-116 -157q-5 -7 -13 -9
t-26 -2h-33q-17 0 -22.5 3z" />
    <glyph glyph-name="Omacron" unicode="&#x14c;" horiz-adv-x="749" 
d="M121.5 82.5q-83.5 92.5 -83.5 267.5q0 178 89.5 279t258.5 101q158 0 241.5 -92.5t83.5 -267.5q0 -177 -89.5 -278.5t-258.5 -101.5q-158 0 -241.5 92.5zM511 176q50 65 50 190q0 122 -44 182.5t-134 60.5q-96 0 -145.5 -65t-49.5 -190q0 -123 44 -183t134 -60
q95 0 145 65zM240.5 836.5q-2.5 8.5 -2.5 32.5v14q0 24 2.5 32.5t10.5 8.5h270q8 0 10.5 -8.5t2.5 -32.5v-14q0 -24 -2.5 -32.5t-10.5 -8.5h-270q-8 0 -10.5 8.5z" />
    <glyph glyph-name="Oslash" unicode="&#xd8;" horiz-adv-x="749" 
d="M711 370q0 -177 -89.5 -278.5t-258.5 -101.5q-70 0 -126 18l-32 -59q-6 -11 -14 -11q-10 0 -35 13l-10 5q-20 11 -27.5 16.5t-7.5 10.5q0 2 2 8l36 65q-111 91 -111 294q0 178 89.5 279t258.5 101q66 0 120 -17l31 57q6 11 16 11q11 0 33 -12l10 -5q21 -10 28.5 -16
t7.5 -11q0 -4 -3 -9l-33 -61q115 -90 115 -297zM221 189l224 411q-29 9 -62 9q-96 0 -145.5 -65t-49.5 -190q0 -106 33 -165zM511 176q50 65 50 190q0 111 -36 171l-226 -416q27 -10 67 -10q95 0 145 65z" />
    <glyph glyph-name="Oslashacute" unicode="&#x1fe;" horiz-adv-x="749" 
d="M711 370q0 -177 -89.5 -278.5t-258.5 -101.5q-70 0 -126 18l-32 -59q-6 -11 -14 -11q-10 0 -35 13l-10 5q-20 11 -27.5 16.5t-7.5 10.5q0 2 2 8l36 65q-111 91 -111 294q0 178 89.5 279t258.5 101q66 0 120 -17l31 57q6 11 16 11q11 0 33 -12l10 -5q21 -10 28.5 -16
t7.5 -11q0 -4 -3 -9l-33 -61q115 -90 115 -297zM221 189l224 411q-29 9 -62 9q-96 0 -145.5 -65t-49.5 -190q0 -106 33 -165zM511 176q50 65 50 190q0 111 -36 171l-226 -416q27 -10 67 -10q95 0 145 65zM289 791q-6 3 -1 12l106 163q4 7 13.5 9.5t36.5 2.5h48q32 0 32 -9
q0 -2 -3 -7l-130 -163q-5 -6 -14 -8.5t-27 -2.5h-38q-17 0 -23 3z" />
    <glyph glyph-name="Otilde" unicode="&#xd5;" horiz-adv-x="749" 
d="M121.5 82.5q-83.5 92.5 -83.5 267.5q0 178 89.5 279t258.5 101q158 0 241.5 -92.5t83.5 -267.5q0 -177 -89.5 -278.5t-258.5 -101.5q-158 0 -241.5 92.5zM511 176q50 65 50 190q0 122 -44 182.5t-134 60.5q-96 0 -145.5 -65t-49.5 -190q0 -123 44 -183t134 -60
q95 0 145 65zM409.5 818.5q-15.5 5.5 -37.5 16.5q-12 6 -23.5 10.5t-20.5 4.5q-27 0 -59 -32q-4 -4 -12 -1t-24 19l-4 4q-20 20 -20 28q0 3 4 9q54 67 115 67q19 0 34.5 -5.5t37.5 -16.5q11 -6 22.5 -10.5t20.5 -4.5q27 0 59 32q4 4 12 1t24 -19l4 -4q20 -20 20 -28
q0 -3 -4 -9q-54 -67 -115 -67q-18 0 -33.5 5.5z" />
    <glyph glyph-name="OE" unicode="&#x152;" horiz-adv-x="1024" 
d="M127.5 88q-89.5 98 -89.5 272q0 114 42.5 197.5t120.5 128t182 44.5q33 0 66.5 -2t44.5 -3q57 -5 109 -5h346q8 0 11 -3t4.5 -13.5t1.5 -36.5v-8q0 -35 -3.5 -45t-13.5 -10h-304v-182h258q8 0 11 -3t4.5 -13.5t1.5 -36.5v-8q0 -35 -3.5 -45t-13.5 -10h-258v-190h308
q8 0 11 -3t4.5 -13.5t1.5 -36.5v-8q0 -35 -3 -45t-14 -10h-350q-52 0 -109 -5q-11 -1 -44.5 -3t-66.5 -2q-166 0 -255.5 98zM499 115v490q-54 4 -96 4q-216 0 -216 -255q0 -124 53 -183.5t163 -59.5q56 0 96 4z" />
    <glyph glyph-name="P" unicode="P" horiz-adv-x="611" 
d="M98 1q-16 1 -20 4t-4 10v690q0 7 2.5 10t13 4t27.5 1h133q106 0 176.5 -20t109 -69.5t38.5 -137.5q0 -117 -76.5 -178t-209.5 -61l-68 2v-241q0 -7 -4.5 -10t-21 -4t-42.5 -1h-12q-26 0 -42 1zM389 400q38 31 38 91q0 63 -41 88t-117 25h-49v-232q25 -3 60 -3
q71 0 109 31z" />
    <glyph glyph-name="Thorn" unicode="&#xde;" horiz-adv-x="619" 
d="M98 1q-16 1 -20 4t-4 10v690q0 7 4 10t20 4t42 1h12q26 0 42.5 -1t21 -4t4.5 -10v-117h33q109 0 179.5 -20t108 -69.5t37.5 -137.5q0 -114 -75 -176.5t-211 -62.5q-40 0 -72 2v-109q0 -7 -4.5 -10t-21 -4t-42.5 -1h-12q-26 0 -42 1zM394 268.5q38 31.5 38 92.5
q0 57 -39.5 84t-120.5 27h-52v-232q21 -3 63 -3q73 0 111 31.5z" />
    <glyph glyph-name="Q" unicode="Q" horiz-adv-x="749" 
d="M395 -53q-27 26 -43.5 34.5t-47.5 12.5q-130 16 -198 107t-68 249q0 178 89.5 279t258.5 101q158 0 241.5 -92.5t83.5 -267.5q0 -136 -52.5 -228t-154.5 -129q28 -17 51 -40l75 -72q7 -7 7 -12q0 -6 -6 -14.5t-22 -23.5l-17 -17q-19 -19 -28.5 -26t-15.5 -7t-12 6z
M511 176q50 65 50 190q0 122 -44 182.5t-134 60.5q-96 0 -145.5 -65t-49.5 -190q0 -123 44 -183t134 -60q95 0 145 65z" />
    <glyph glyph-name="R" unicode="R" horiz-adv-x="660" 
d="M639 11q0 -11 -41 -11h-63q-30 0 -43.5 3t-19.5 12l-134 205q-23 35 -39.5 45.5t-52.5 10.5h-26v-261q0 -7 -4.5 -10t-21 -4t-42.5 -1h-12q-26 0 -42 1t-20 4t-4 10v690q0 10 7 12.5t36 2.5h152q156 0 231.5 -50t75.5 -159q0 -76 -36 -129.5t-107 -81.5q23 -17 49 -56
l153 -224q4 -6 4 -9zM391 418q39 28 39 85q0 58 -37.5 79.5t-108.5 21.5h-64v-214h63q69 0 108 28z" />
    <glyph glyph-name="Racute" unicode="&#x154;" horiz-adv-x="660" 
d="M639 11q0 -11 -41 -11h-63q-30 0 -43.5 3t-19.5 12l-134 205q-23 35 -39.5 45.5t-52.5 10.5h-26v-261q0 -7 -4.5 -10t-21 -4t-42.5 -1h-12q-26 0 -42 1t-20 4t-4 10v690q0 10 7 12.5t36 2.5h152q156 0 231.5 -50t75.5 -159q0 -76 -36 -129.5t-107 -81.5q23 -17 49 -56
l153 -224q4 -6 4 -9zM391 418q39 28 39 85q0 58 -37.5 79.5t-108.5 21.5h-64v-214h63q69 0 108 28zM245 791q-6 3 -1 12l106 163q4 7 13.5 9.5t36.5 2.5h48q32 0 32 -9q0 -2 -3 -7l-130 -163q-5 -6 -14 -8.5t-27 -2.5h-38q-17 0 -23 3z" />
    <glyph glyph-name="Rcaron" unicode="&#x158;" horiz-adv-x="660" 
d="M639 11q0 -11 -41 -11h-63q-30 0 -43.5 3t-19.5 12l-134 205q-23 35 -39.5 45.5t-52.5 10.5h-26v-261q0 -7 -4.5 -10t-21 -4t-42.5 -1h-12q-26 0 -42 1t-20 4t-4 10v690q0 10 7 12.5t36 2.5h152q156 0 231.5 -50t75.5 -159q0 -76 -36 -129.5t-107 -81.5q23 -17 49 -56
l153 -224q4 -6 4 -9zM391 418q39 28 39 85q0 58 -37.5 79.5t-108.5 21.5h-64v-214h63q69 0 108 28zM283.5 793q-12.5 3 -21.5 13l-91 97q-5 5 -5 10q0 8 17 25l10 10q9 9 15.5 14.5t11.5 5.5q3 0 10 -5l101 -88l101 88q7 5 10 5q5 0 11.5 -5.5t15.5 -14.5l10 -10
q17 -17 17 -25q0 -5 -5 -10l-91 -97q-9 -10 -21.5 -13t-40.5 -3h-14q-28 0 -40.5 3z" />
    <glyph glyph-name="Rcommaaccent" unicode="&#x156;" horiz-adv-x="660" 
d="M639 11q0 -11 -41 -11h-63q-30 0 -43.5 3t-19.5 12l-134 205q-23 35 -39.5 45.5t-52.5 10.5h-26v-261q0 -7 -4.5 -10t-21 -4t-42.5 -1h-12q-26 0 -42 1t-20 4t-4 10v690q0 10 7 12.5t36 2.5h152q156 0 231.5 -50t75.5 -159q0 -76 -36 -129.5t-107 -81.5q23 -17 49 -56
l153 -224q4 -6 4 -9zM391 418q39 28 39 85q0 58 -37.5 79.5t-108.5 21.5h-64v-214h63q69 0 108 28zM278 -299q-6 4 -6 10q0 5 4 9q41 51 41 92q0 9 -3.5 16t-11.5 17q-9 11 -13.5 20t-4.5 22q0 22 17 38t44 16q29 0 47.5 -21.5t18.5 -54.5q0 -46 -25 -92t-71 -86
q-7 -5 -10 -5q-4 0 -11 5z" />
    <glyph glyph-name="S" unicode="S" horiz-adv-x="591" 
d="M152.5 8q-60.5 18 -104.5 50q-10 8 -10 18q0 12 13 37l12 24q10 18 16.5 26t13.5 8q5 0 9 -3q92 -57 174 -57q53 0 86.5 23.5t33.5 61.5q0 27 -16.5 46.5t-42.5 34t-74 35.5q-60 27 -99 51t-64.5 62.5t-25.5 94.5q0 61 31.5 108.5t87.5 74.5t128 27q56 0 106 -13.5
t89 -39.5q10 -7 10 -17q0 -9 -14 -39l-10 -20q-10 -20 -15.5 -27.5t-11.5 -7.5q-1 0 -9 4q-37 21 -69.5 31.5t-67.5 10.5q-48 0 -79.5 -23t-31.5 -57q0 -23 16.5 -41t38.5 -29.5t72 -35.5q65 -30 104.5 -55t65 -66t25.5 -101q0 -97 -67.5 -155.5t-192.5 -58.5
q-67 0 -127.5 18z" />
    <glyph glyph-name="Sacute" unicode="&#x15a;" horiz-adv-x="591" 
d="M152.5 8q-60.5 18 -104.5 50q-10 8 -10 18q0 12 13 37l12 24q10 18 16.5 26t13.5 8q5 0 9 -3q92 -57 174 -57q53 0 86.5 23.5t33.5 61.5q0 27 -16.5 46.5t-42.5 34t-74 35.5q-60 27 -99 51t-64.5 62.5t-25.5 94.5q0 61 31.5 108.5t87.5 74.5t128 27q56 0 106 -13.5
t89 -39.5q10 -7 10 -17q0 -9 -14 -39l-10 -20q-10 -20 -15.5 -27.5t-11.5 -7.5q-1 0 -9 4q-37 21 -69.5 31.5t-67.5 10.5q-48 0 -79.5 -23t-31.5 -57q0 -23 16.5 -41t38.5 -29.5t72 -35.5q65 -30 104.5 -55t65 -66t25.5 -101q0 -97 -67.5 -155.5t-192.5 -58.5
q-67 0 -127.5 18zM236 791q-6 3 -1 12l106 163q4 7 13.5 9.5t36.5 2.5h48q32 0 32 -9q0 -2 -3 -7l-130 -163q-5 -6 -14 -8.5t-27 -2.5h-38q-17 0 -23 3z" />
    <glyph glyph-name="Sacute.loclPLK" horiz-adv-x="591" 
d="M152.5 8q-60.5 18 -104.5 50q-10 8 -10 18q0 12 13 37l12 24q10 18 16.5 26t13.5 8q5 0 9 -3q92 -57 174 -57q53 0 86.5 23.5t33.5 61.5q0 27 -16.5 46.5t-42.5 34t-74 35.5q-60 27 -99 51t-64.5 62.5t-25.5 94.5q0 61 31.5 108.5t87.5 74.5t128 27q56 0 106 -13.5
t89 -39.5q10 -7 10 -17q0 -9 -14 -39l-10 -20q-10 -20 -15.5 -27.5t-11.5 -7.5q-1 0 -9 4q-37 21 -69.5 31.5t-67.5 10.5q-48 0 -79.5 -23t-31.5 -57q0 -23 16.5 -41t38.5 -29.5t72 -35.5q65 -30 104.5 -55t65 -66t25.5 -101q0 -97 -67.5 -155.5t-192.5 -58.5
q-67 0 -127.5 18zM258.5 791q-6.5 3 -4.5 12l48 163q2 8 10.5 10t35.5 2h46q24 0 31.5 -3.5t3.5 -12.5l-73 -163q-3 -6 -10.5 -8.5t-26.5 -2.5h-36q-18 0 -24.5 3z" />
    <glyph glyph-name="Scaron" unicode="&#x160;" horiz-adv-x="591" 
d="M152.5 8q-60.5 18 -104.5 50q-10 8 -10 18q0 12 13 37l12 24q10 18 16.5 26t13.5 8q5 0 9 -3q92 -57 174 -57q53 0 86.5 23.5t33.5 61.5q0 27 -16.5 46.5t-42.5 34t-74 35.5q-60 27 -99 51t-64.5 62.5t-25.5 94.5q0 61 31.5 108.5t87.5 74.5t128 27q56 0 106 -13.5
t89 -39.5q10 -7 10 -17q0 -9 -14 -39l-10 -20q-10 -20 -15.5 -27.5t-11.5 -7.5q-1 0 -9 4q-37 21 -69.5 31.5t-67.5 10.5q-48 0 -79.5 -23t-31.5 -57q0 -23 16.5 -41t38.5 -29.5t72 -35.5q65 -30 104.5 -55t65 -66t25.5 -101q0 -97 -67.5 -155.5t-192.5 -58.5
q-67 0 -127.5 18zM274.5 793q-12.5 3 -21.5 13l-91 97q-5 5 -5 10q0 8 17 25l10 10q9 9 15.5 14.5t11.5 5.5q3 0 10 -5l101 -88l101 88q7 5 10 5q5 0 11.5 -5.5t15.5 -14.5l10 -10q17 -17 17 -25q0 -5 -5 -10l-91 -97q-9 -10 -21.5 -13t-40.5 -3h-14q-28 0 -40.5 3z" />
    <glyph glyph-name="Scedilla" unicode="&#x15e;" horiz-adv-x="591" 
d="M485.5 60.5q-54.5 -56.5 -157.5 -68.5l-3 -29q48 -2 77 -25t29 -69q0 -45 -32.5 -76.5t-94.5 -31.5q-47 0 -78 13q-4 2 -5.5 4t-1.5 7q0 9 4 24l3 11q5 18 9 23.5t13 2.5q21 -6 46 -6q20 0 29.5 8t9.5 21q0 30 -45 30q-31 0 -60 -4l14 97q-57 5 -107 21.5t-87 44.5
q-10 8 -10 18q0 12 13 37l12 24q10 18 16.5 26t13.5 8q5 0 9 -3q92 -57 174 -57q53 0 86.5 23.5t33.5 61.5q0 27 -16.5 46.5t-42.5 34t-74 35.5q-60 27 -99 51t-64.5 62.5t-25.5 94.5q0 61 31.5 108.5t87.5 74.5t128 27q56 0 106 -13.5t89 -39.5q10 -7 10 -17q0 -9 -14 -39
l-10 -20q-10 -20 -15.5 -27.5t-11.5 -7.5q-1 0 -9 4q-37 21 -69.5 31.5t-67.5 10.5q-48 0 -79.5 -23t-31.5 -57q0 -23 16.5 -41t38.5 -29.5t72 -35.5q65 -30 104.5 -55t65 -66t25.5 -101q0 -87 -54.5 -143.5z" />
    <glyph glyph-name="Scircumflex" unicode="&#x15c;" horiz-adv-x="591" 
d="M152.5 8q-60.5 18 -104.5 50q-10 8 -10 18q0 12 13 37l12 24q10 18 16.5 26t13.5 8q5 0 9 -3q92 -57 174 -57q53 0 86.5 23.5t33.5 61.5q0 27 -16.5 46.5t-42.5 34t-74 35.5q-60 27 -99 51t-64.5 62.5t-25.5 94.5q0 61 31.5 108.5t87.5 74.5t128 27q56 0 106 -13.5
t89 -39.5q10 -7 10 -17q0 -9 -14 -39l-10 -20q-10 -20 -15.5 -27.5t-11.5 -7.5q-1 0 -9 4q-37 21 -69.5 31.5t-67.5 10.5q-48 0 -79.5 -23t-31.5 -57q0 -23 16.5 -41t38.5 -29.5t72 -35.5q65 -30 104.5 -55t65 -66t25.5 -101q0 -97 -67.5 -155.5t-192.5 -58.5
q-67 0 -127.5 18zM211 790q-5 0 -11.5 5.5t-15.5 14.5l-10 10q-17 17 -17 25q0 5 5 10l91 97q9 10 21.5 13t40.5 3h14q28 0 40.5 -3t21.5 -13l91 -97q5 -5 5 -10q0 -8 -17 -25l-10 -10q-9 -9 -15.5 -14.5t-11.5 -5.5q-3 0 -10 5l-101 88l-101 -88q-7 -5 -10 -5z" />
    <glyph glyph-name="Scommaaccent" unicode="&#x218;" horiz-adv-x="591" 
d="M152.5 8q-60.5 18 -104.5 50q-10 8 -10 18q0 12 13 37l12 24q10 18 16.5 26t13.5 8q5 0 9 -3q92 -57 174 -57q53 0 86.5 23.5t33.5 61.5q0 27 -16.5 46.5t-42.5 34t-74 35.5q-60 27 -99 51t-64.5 62.5t-25.5 94.5q0 61 31.5 108.5t87.5 74.5t128 27q56 0 106 -13.5
t89 -39.5q10 -7 10 -17q0 -9 -14 -39l-10 -20q-10 -20 -15.5 -27.5t-11.5 -7.5q-1 0 -9 4q-37 21 -69.5 31.5t-67.5 10.5q-48 0 -79.5 -23t-31.5 -57q0 -23 16.5 -41t38.5 -29.5t72 -35.5q65 -30 104.5 -55t65 -66t25.5 -101q0 -97 -67.5 -155.5t-192.5 -58.5
q-67 0 -127.5 18zM221 -299q-6 4 -6 10q0 5 4 9q41 51 41 92q0 9 -3.5 16t-11.5 17q-9 11 -13.5 20t-4.5 22q0 22 17 38t44 16q29 0 47.5 -21.5t18.5 -54.5q0 -46 -25 -92t-71 -86q-7 -5 -10 -5q-4 0 -11 5z" />
    <glyph glyph-name="T" unicode="T" horiz-adv-x="588" 
d="M245 1q-16 1 -20 4t-4 10v589h-184q-10 0 -13.5 9.5t-3.5 45.5v8q0 27 1.5 37.5t4.5 13t11 2.5h514q8 0 11 -2.5t4.5 -13t1.5 -37.5v-8q0 -36 -3.5 -45.5t-13.5 -9.5h-184v-589q0 -7 -4.5 -10t-21 -4t-41.5 -1h-13q-26 0 -42 1z" />
    <glyph glyph-name="Tbar" unicode="&#x166;" horiz-adv-x="588" 
d="M562 717.5q3 -2.5 4.5 -13t1.5 -37.5v-8q0 -36 -3.5 -45.5t-13.5 -9.5h-184v-189h101q8 0 11 -9.5t3 -40.5v-6q0 -31 -3 -40.5t-11 -9.5h-101v-294q0 -7 -4.5 -10t-21 -4t-41.5 -1h-13q-26 0 -42 1t-20 4t-4 10v294h-101q-8 0 -11 9.5t-3 40.5v6q0 31 3 40.5t11 9.5h101
v189h-184q-10 0 -13.5 9.5t-3.5 45.5v8q0 27 1.5 37.5t4.5 13t11 2.5h514q8 0 11 -2.5z" />
    <glyph glyph-name="Tcaron" unicode="&#x164;" horiz-adv-x="588" 
d="M245 1q-16 1 -20 4t-4 10v589h-184q-10 0 -13.5 9.5t-3.5 45.5v8q0 27 1.5 37.5t4.5 13t11 2.5h514q8 0 11 -2.5t4.5 -13t1.5 -37.5v-8q0 -36 -3.5 -45.5t-13.5 -9.5h-184v-589q0 -7 -4.5 -10t-21 -4t-41.5 -1h-13q-26 0 -42 1zM246.5 793q-12.5 3 -21.5 13l-91 97
q-5 5 -5 10q0 8 17 25l10 10q9 9 15.5 14.5t11.5 5.5q3 0 10 -5l101 -88l101 88q7 5 10 5q5 0 11.5 -5.5t15.5 -14.5l10 -10q17 -17 17 -25q0 -5 -5 -10l-91 -97q-9 -10 -21.5 -13t-40.5 -3h-14q-28 0 -40.5 3z" />
    <glyph glyph-name="uni0162" unicode="&#x162;" horiz-adv-x="588" 
d="M245 1q-16 1 -20 4t-4 10v589h-184q-10 0 -13.5 9.5t-3.5 45.5v8q0 27 1.5 37.5t4.5 13t11 2.5h514q8 0 11 -2.5t4.5 -13t1.5 -37.5v-8q0 -36 -3.5 -45.5t-13.5 -9.5h-184v-589q0 -7 -4.5 -10t-21 -4t-41.5 -1h-13q-26 0 -42 1zM230 -299q-6 4 -6 10q0 5 4 9q41 51 41 92
q0 9 -3.5 16t-11.5 17q-9 11 -13.5 20t-4.5 22q0 22 17 38t44 16q29 0 47.5 -21.5t18.5 -54.5q0 -46 -25 -92t-71 -86q-7 -5 -10 -5q-4 0 -11 5z" />
    <glyph glyph-name="uni021A" unicode="&#x21a;" horiz-adv-x="588" 
d="M245 1q-16 1 -20 4t-4 10v589h-184q-10 0 -13.5 9.5t-3.5 45.5v8q0 27 1.5 37.5t4.5 13t11 2.5h514q8 0 11 -2.5t4.5 -13t1.5 -37.5v-8q0 -36 -3.5 -45.5t-13.5 -9.5h-184v-589q0 -7 -4.5 -10t-21 -4t-41.5 -1h-13q-26 0 -42 1zM230 -299q-6 4 -6 10q0 5 4 9q41 51 41 92
q0 9 -3.5 16t-11.5 17q-9 11 -13.5 20t-4.5 22q0 22 17 38t44 16q29 0 47.5 -21.5t18.5 -54.5q0 -46 -25 -92t-71 -86q-7 -5 -10 -5q-4 0 -11 5z" />
    <glyph glyph-name="U" unicode="U" horiz-adv-x="737" 
d="M142.5 58q-71.5 68 -71.5 213v434q0 7 4 10t20 4t42 1h12q43 0 55 -2.5t12 -12.5v-433q0 -84 36.5 -122.5t116.5 -38.5t117.5 39t37.5 122v433q0 7 4 10t20 4t42 1h9q43 0 55 -2.5t12 -12.5v-434q0 -145 -71 -213t-226 -68t-226.5 68z" />
    <glyph glyph-name="Uacute" unicode="&#xda;" horiz-adv-x="737" 
d="M142.5 58q-71.5 68 -71.5 213v434q0 7 4 10t20 4t42 1h12q43 0 55 -2.5t12 -12.5v-433q0 -84 36.5 -122.5t116.5 -38.5t117.5 39t37.5 122v433q0 7 4 10t20 4t42 1h9q43 0 55 -2.5t12 -12.5v-434q0 -145 -71 -213t-226 -68t-226.5 68zM282 791q-6 3 -1 12l106 163
q4 7 13.5 9.5t36.5 2.5h48q32 0 32 -9q0 -2 -3 -7l-130 -163q-5 -6 -14 -8.5t-27 -2.5h-38q-17 0 -23 3z" />
    <glyph glyph-name="Ubreve" unicode="&#x16c;" horiz-adv-x="737" 
d="M142.5 58q-71.5 68 -71.5 213v434q0 7 4 10t20 4t42 1h12q43 0 55 -2.5t12 -12.5v-433q0 -84 36.5 -122.5t116.5 -38.5t117.5 39t37.5 122v433q0 7 4 10t20 4t42 1h9q43 0 55 -2.5t12 -12.5v-434q0 -145 -71 -213t-226 -68t-226.5 68zM257.5 834q-40.5 37 -44.5 104
q0 9 8 11.5t35 2.5h15q22 0 29 -2.5t8 -9.5q10 -57 60 -57t60 57q1 7 8 9.5t29 2.5h15q27 0 35 -2.5t8 -11.5q-4 -67 -44.5 -104t-110.5 -37t-110.5 37z" />
    <glyph glyph-name="Ucircumflex" unicode="&#xdb;" horiz-adv-x="737" 
d="M142.5 58q-71.5 68 -71.5 213v434q0 7 4 10t20 4t42 1h12q43 0 55 -2.5t12 -12.5v-433q0 -84 36.5 -122.5t116.5 -38.5t117.5 39t37.5 122v433q0 7 4 10t20 4t42 1h9q43 0 55 -2.5t12 -12.5v-434q0 -145 -71 -213t-226 -68t-226.5 68zM257 790q-5 0 -11.5 5.5t-15.5 14.5
l-10 10q-17 17 -17 25q0 5 5 10l91 97q9 10 21.5 13t40.5 3h14q28 0 40.5 -3t21.5 -13l91 -97q5 -5 5 -10q0 -8 -17 -25l-10 -10q-9 -9 -15.5 -14.5t-11.5 -5.5q-3 0 -10 5l-101 88l-101 -88q-7 -5 -10 -5z" />
    <glyph glyph-name="Udieresis" unicode="&#xdc;" horiz-adv-x="737" 
d="M142.5 58q-71.5 68 -71.5 213v434q0 7 4 10t20 4t42 1h12q43 0 55 -2.5t12 -12.5v-433q0 -84 36.5 -122.5t116.5 -38.5t117.5 39t37.5 122v433q0 7 4 10t20 4t42 1h9q43 0 55 -2.5t12 -12.5v-434q0 -145 -71 -213t-226 -68t-226.5 68zM207 822q-21 20 -21 49
q0 30 21 50.5t52 20.5q32 0 52.5 -20.5t20.5 -50.5q0 -29 -20.5 -49t-52.5 -20q-31 0 -52 20zM424 822q-20 20 -20 49q0 30 20 50.5t51 20.5q33 0 54 -20.5t21 -50.5q0 -29 -21 -49t-54 -20q-31 0 -51 20z" />
    <glyph glyph-name="Ugrave" unicode="&#xd9;" horiz-adv-x="737" 
d="M142.5 58q-71.5 68 -71.5 213v434q0 7 4 10t20 4t42 1h12q43 0 55 -2.5t12 -12.5v-433q0 -84 36.5 -122.5t116.5 -38.5t117.5 39t37.5 122v433q0 7 4 10t20 4t42 1h9q43 0 55 -2.5t12 -12.5v-434q0 -145 -71 -213t-226 -68t-226.5 68zM366 790.5q-9 2.5 -14 8.5l-130 163
q-3 5 -3 7q0 9 32 9h48q27 0 36.5 -2.5t13.5 -9.5l106 -163q2 -3 2 -7q0 -8 -26 -8h-38q-18 0 -27 2.5z" />
    <glyph glyph-name="Uhungarumlaut" unicode="&#x170;" horiz-adv-x="737" 
d="M142.5 58q-71.5 68 -71.5 213v434q0 7 4 10t20 4t42 1h12q43 0 55 -2.5t12 -12.5v-433q0 -84 36.5 -122.5t116.5 -38.5t117.5 39t37.5 122v433q0 7 4 10t20 4t42 1h9q43 0 55 -2.5t12 -12.5v-434q0 -145 -71 -213t-226 -68t-226.5 68zM182.5 798q-5.5 3 -0.5 11l92 157
q4 7 13.5 9.5t34.5 2.5h43q22 0 27.5 -3.5t0.5 -11.5l-116 -157q-5 -7 -13 -9t-26 -2h-33q-17 0 -22.5 3zM382.5 798q-5.5 3 -0.5 11l92 157q4 7 13.5 9.5t34.5 2.5h43q22 0 27.5 -3.5t0.5 -11.5l-116 -157q-5 -7 -13 -9t-26 -2h-33q-17 0 -22.5 3z" />
    <glyph glyph-name="Umacron" unicode="&#x16a;" horiz-adv-x="737" 
d="M142.5 58q-71.5 68 -71.5 213v434q0 7 4 10t20 4t42 1h12q43 0 55 -2.5t12 -12.5v-433q0 -84 36.5 -122.5t116.5 -38.5t117.5 39t37.5 122v433q0 7 4 10t20 4t42 1h9q43 0 55 -2.5t12 -12.5v-434q0 -145 -71 -213t-226 -68t-226.5 68zM222.5 836.5q-2.5 8.5 -2.5 32.5v14
q0 24 2.5 32.5t10.5 8.5h270q8 0 10.5 -8.5t2.5 -32.5v-14q0 -24 -2.5 -32.5t-10.5 -8.5h-270q-8 0 -10.5 8.5z" />
    <glyph glyph-name="Uogonek" unicode="&#x172;" horiz-adv-x="737" 
d="M351 -209q-36 31 -36 86q0 30 17.5 61t45.5 52h-9q-155 0 -226.5 68t-71.5 213v434q0 7 4 10t20 4t42 1h12q43 0 55 -2.5t12 -12.5v-433q0 -84 36.5 -122.5t116.5 -38.5t117.5 39t37.5 122v433q0 7 4 10t20 4t42 1h9q43 0 55 -2.5t12 -12.5v-413q0 -83 -16.5 -137
t-51.5 -91q-11 -12 -31.5 -26.5t-42.5 -28.5q-57 -36 -81 -60q-27 -29 -27 -57q0 -19 11 -31t31 -12q19 0 42 10q6 2 10.5 -3t11.5 -24l4 -12q6 -18 6 -25q0 -8 -8 -14q-40 -21 -84 -21q-53 0 -89 31z" />
    <glyph glyph-name="Uring" unicode="&#x16e;" horiz-adv-x="737" 
d="M142.5 58q-71.5 68 -71.5 213v434q0 7 4 10t20 4t42 1h12q43 0 55 -2.5t12 -12.5v-433q0 -84 36.5 -122.5t116.5 -38.5t117.5 39t37.5 122v433q0 7 4 10t20 4t42 1h9q43 0 55 -2.5t12 -12.5v-434q0 -145 -71 -213t-226 -68t-226.5 68zM287.5 823q-33.5 32 -33.5 78
q0 45 33.5 77t80.5 32t80 -31.5t33 -77.5t-33 -78t-80 -32t-80.5 32zM395 872.5q11 11.5 11 28.5q0 16 -11 27.5t-27 11.5q-17 0 -28.5 -11t-11.5 -28t11.5 -28.5t28.5 -11.5q16 0 27 11.5z" />
    <glyph glyph-name="Utilde" unicode="&#x168;" horiz-adv-x="737" 
d="M142.5 58q-71.5 68 -71.5 213v434q0 7 4 10t20 4t42 1h12q43 0 55 -2.5t12 -12.5v-433q0 -84 36.5 -122.5t116.5 -38.5t117.5 39t37.5 122v433q0 7 4 10t20 4t42 1h9q43 0 55 -2.5t12 -12.5v-434q0 -145 -71 -213t-226 -68t-226.5 68zM391.5 818.5q-15.5 5.5 -37.5 16.5
q-12 6 -23.5 10.5t-20.5 4.5q-27 0 -59 -32q-4 -4 -12 -1t-24 19l-4 4q-20 20 -20 28q0 3 4 9q54 67 115 67q19 0 34.5 -5.5t37.5 -16.5q11 -6 22.5 -10.5t20.5 -4.5q27 0 59 32q4 4 12 1t24 -19l4 -4q20 -20 20 -28q0 -3 -4 -9q-54 -67 -115 -67q-18 0 -33.5 5.5z" />
    <glyph glyph-name="V" unicode="V" horiz-adv-x="692" 
d="M295.5 1q-16.5 1 -22.5 5t-9 13l-242 684q-3 8 0.5 11.5t16 4.5t42.5 1h18q34 0 48 -1t19 -4.5t8 -11.5l108 -336q42 -130 71 -238q29 122 68 240l109 334q3 8 8 11.5t18 4.5t43 1h4q33 0 48 -1.5t19 -5t1 -10.5l-230 -682q-3 -10 -10 -14t-22.5 -5.5t-50.5 -1.5h-6
q-40 0 -56.5 1z" />
    <glyph glyph-name="W" unicode="W" horiz-adv-x="1033" 
d="M260.5 1q-16.5 1 -21 4t-7.5 12l-209 686q-3 8 1 11.5t21 4.5t45 1h16q31 0 44.5 -1t18.5 -4.5t7 -11.5l97 -354q32 -117 47 -191q16 100 37 184l90 361q2 9 7 12t21.5 4t43.5 1h10q26 0 43 -1t23 -4.5t8 -11.5l86 -338q25 -101 45 -223q21 115 46 215l90 346q2 9 6.5 12
t21 4t43.5 1h6q25 0 41.5 -1t21 -4.5t1.5 -11.5l-199 -686q-3 -8 -8.5 -11.5t-22 -4.5t-42.5 -1h-14q-30 0 -49 1t-25 4.5t-8 11.5l-75 280q-28 101 -48 221q-21 -127 -47 -225l-73 -276q-2 -8 -7 -11.5t-22 -4.5t-43 -1h-23q-28 0 -44.5 1z" />
    <glyph glyph-name="Wacute" unicode="&#x1e82;" horiz-adv-x="1033" 
d="M260.5 1q-16.5 1 -21 4t-7.5 12l-209 686q-3 8 1 11.5t21 4.5t45 1h16q31 0 44.5 -1t18.5 -4.5t7 -11.5l97 -354q32 -117 47 -191q16 100 37 184l90 361q2 9 7 12t21.5 4t43.5 1h10q26 0 43 -1t23 -4.5t8 -11.5l86 -338q25 -101 45 -223q21 115 46 215l90 346q2 9 6.5 12
t21 4t43.5 1h6q25 0 41.5 -1t21 -4.5t1.5 -11.5l-199 -686q-3 -8 -8.5 -11.5t-22 -4.5t-42.5 -1h-14q-30 0 -49 1t-25 4.5t-8 11.5l-75 280q-28 101 -48 221q-21 -127 -47 -225l-73 -276q-2 -8 -7 -11.5t-22 -4.5t-43 -1h-23q-28 0 -44.5 1zM438 791q-6 3 -1 12l106 163
q4 7 13.5 9.5t36.5 2.5h48q32 0 32 -9q0 -2 -3 -7l-130 -163q-5 -6 -14 -8.5t-27 -2.5h-38q-17 0 -23 3z" />
    <glyph glyph-name="Wcircumflex" unicode="&#x174;" horiz-adv-x="1033" 
d="M260.5 1q-16.5 1 -21 4t-7.5 12l-209 686q-3 8 1 11.5t21 4.5t45 1h16q31 0 44.5 -1t18.5 -4.5t7 -11.5l97 -354q32 -117 47 -191q16 100 37 184l90 361q2 9 7 12t21.5 4t43.5 1h10q26 0 43 -1t23 -4.5t8 -11.5l86 -338q25 -101 45 -223q21 115 46 215l90 346q2 9 6.5 12
t21 4t43.5 1h6q25 0 41.5 -1t21 -4.5t1.5 -11.5l-199 -686q-3 -8 -8.5 -11.5t-22 -4.5t-42.5 -1h-14q-30 0 -49 1t-25 4.5t-8 11.5l-75 280q-28 101 -48 221q-21 -127 -47 -225l-73 -276q-2 -8 -7 -11.5t-22 -4.5t-43 -1h-23q-28 0 -44.5 1zM413 790q-5 0 -11.5 5.5
t-15.5 14.5l-10 10q-17 17 -17 25q0 5 5 10l91 97q9 10 21.5 13t40.5 3h14q28 0 40.5 -3t21.5 -13l91 -97q5 -5 5 -10q0 -8 -17 -25l-10 -10q-9 -9 -15.5 -14.5t-11.5 -5.5q-3 0 -10 5l-101 88l-101 -88q-7 -5 -10 -5z" />
    <glyph glyph-name="Wdieresis" unicode="&#x1e84;" horiz-adv-x="1033" 
d="M260.5 1q-16.5 1 -21 4t-7.5 12l-209 686q-3 8 1 11.5t21 4.5t45 1h16q31 0 44.5 -1t18.5 -4.5t7 -11.5l97 -354q32 -117 47 -191q16 100 37 184l90 361q2 9 7 12t21.5 4t43.5 1h10q26 0 43 -1t23 -4.5t8 -11.5l86 -338q25 -101 45 -223q21 115 46 215l90 346q2 9 6.5 12
t21 4t43.5 1h6q25 0 41.5 -1t21 -4.5t1.5 -11.5l-199 -686q-3 -8 -8.5 -11.5t-22 -4.5t-42.5 -1h-14q-30 0 -49 1t-25 4.5t-8 11.5l-75 280q-28 101 -48 221q-21 -127 -47 -225l-73 -276q-2 -8 -7 -11.5t-22 -4.5t-43 -1h-23q-28 0 -44.5 1zM363 822q-21 20 -21 49
q0 30 21 50.5t52 20.5q32 0 52.5 -20.5t20.5 -50.5q0 -29 -20.5 -49t-52.5 -20q-31 0 -52 20zM580 822q-20 20 -20 49q0 30 20 50.5t51 20.5q33 0 54 -20.5t21 -50.5q0 -29 -21 -49t-54 -20q-31 0 -51 20z" />
    <glyph glyph-name="Wgrave" unicode="&#x1e80;" horiz-adv-x="1033" 
d="M260.5 1q-16.5 1 -21 4t-7.5 12l-209 686q-3 8 1 11.5t21 4.5t45 1h16q31 0 44.5 -1t18.5 -4.5t7 -11.5l97 -354q32 -117 47 -191q16 100 37 184l90 361q2 9 7 12t21.5 4t43.5 1h10q26 0 43 -1t23 -4.5t8 -11.5l86 -338q25 -101 45 -223q21 115 46 215l90 346q2 9 6.5 12
t21 4t43.5 1h6q25 0 41.5 -1t21 -4.5t1.5 -11.5l-199 -686q-3 -8 -8.5 -11.5t-22 -4.5t-42.5 -1h-14q-30 0 -49 1t-25 4.5t-8 11.5l-75 280q-28 101 -48 221q-21 -127 -47 -225l-73 -276q-2 -8 -7 -11.5t-22 -4.5t-43 -1h-23q-28 0 -44.5 1zM522 790.5q-9 2.5 -14 8.5
l-130 163q-3 5 -3 7q0 9 32 9h48q27 0 36.5 -2.5t13.5 -9.5l106 -163q2 -3 2 -7q0 -8 -26 -8h-38q-18 0 -27 2.5z" />
    <glyph glyph-name="X" unicode="X" horiz-adv-x="659" 
d="M16 3.5q-9 3.5 -3 12.5l164 243l27 40q40 59 49 71q-35 47 -76 112l-141 217q-4 5 -4 10q0 6 11 8.5t40 2.5h45q40 0 51.5 -3t17.5 -12l91 -138q31 -47 56 -93q16 30 61 107l73 123q6 10 17 13t50 3h46q32 0 40 -4t2 -13l-140 -209q-53 -80 -85 -124q23 -27 71 -101
l163 -251q3 -4 3 -8q0 -5 -11.5 -7.5t-40.5 -2.5h-46q-40 0 -51 2.5t-16 10.5l-97 148q-36 53 -65 107l-51 -87l-100 -168q-5 -9 -15.5 -11t-49.5 -2h-46q-31 0 -40 3.5z" />
    <glyph glyph-name="Y" unicode="Y" horiz-adv-x="645" 
d="M272 1q-16 1 -20 4t-4 10v265l-232 423q-4 9 7.5 13t56.5 4h23q45 0 57.5 -2.5t17.5 -13.5l85 -162q50 -94 69 -143q24 60 66 146l79 158q4 8 9 11.5t17.5 4.5t41.5 1h30q38 0 47.5 -3.5t4.5 -13.5l-233 -423v-265q0 -7 -4.5 -10t-21 -4t-42.5 -1h-12q-26 0 -42 1z" />
    <glyph glyph-name="Yacute" unicode="&#xdd;" horiz-adv-x="645" 
d="M272 1q-16 1 -20 4t-4 10v265l-232 423q-4 9 7.5 13t56.5 4h23q45 0 57.5 -2.5t17.5 -13.5l85 -162q50 -94 69 -143q24 60 66 146l79 158q4 8 9 11.5t17.5 4.5t41.5 1h30q38 0 47.5 -3.5t4.5 -13.5l-233 -423v-265q0 -7 -4.5 -10t-21 -4t-42.5 -1h-12q-26 0 -42 1z
M242 791q-6 3 -1 12l106 163q4 7 13.5 9.5t36.5 2.5h48q32 0 32 -9q0 -2 -3 -7l-130 -163q-5 -6 -14 -8.5t-27 -2.5h-38q-17 0 -23 3z" />
    <glyph glyph-name="Ycircumflex" unicode="&#x176;" horiz-adv-x="645" 
d="M272 1q-16 1 -20 4t-4 10v265l-232 423q-4 9 7.5 13t56.5 4h23q45 0 57.5 -2.5t17.5 -13.5l85 -162q50 -94 69 -143q24 60 66 146l79 158q4 8 9 11.5t17.5 4.5t41.5 1h30q38 0 47.5 -3.5t4.5 -13.5l-233 -423v-265q0 -7 -4.5 -10t-21 -4t-42.5 -1h-12q-26 0 -42 1z
M217 790q-5 0 -11.5 5.5t-15.5 14.5l-10 10q-17 17 -17 25q0 5 5 10l91 97q9 10 21.5 13t40.5 3h14q28 0 40.5 -3t21.5 -13l91 -97q5 -5 5 -10q0 -8 -17 -25l-10 -10q-9 -9 -15.5 -14.5t-11.5 -5.5q-3 0 -10 5l-101 88l-101 -88q-7 -5 -10 -5z" />
    <glyph glyph-name="Ydieresis" unicode="&#x178;" horiz-adv-x="645" 
d="M272 1q-16 1 -20 4t-4 10v265l-232 423q-4 9 7.5 13t56.5 4h23q45 0 57.5 -2.5t17.5 -13.5l85 -162q50 -94 69 -143q24 60 66 146l79 158q4 8 9 11.5t17.5 4.5t41.5 1h30q38 0 47.5 -3.5t4.5 -13.5l-233 -423v-265q0 -7 -4.5 -10t-21 -4t-42.5 -1h-12q-26 0 -42 1z
M167 822q-21 20 -21 49q0 30 21 50.5t52 20.5q32 0 52.5 -20.5t20.5 -50.5q0 -29 -20.5 -49t-52.5 -20q-31 0 -52 20zM384 822q-20 20 -20 49q0 30 20 50.5t51 20.5q33 0 54 -20.5t21 -50.5q0 -29 -21 -49t-54 -20q-31 0 -51 20z" />
    <glyph glyph-name="Ygrave" unicode="&#x1ef2;" horiz-adv-x="645" 
d="M272 1q-16 1 -20 4t-4 10v265l-232 423q-4 9 7.5 13t56.5 4h23q45 0 57.5 -2.5t17.5 -13.5l85 -162q50 -94 69 -143q24 60 66 146l79 158q4 8 9 11.5t17.5 4.5t41.5 1h30q38 0 47.5 -3.5t4.5 -13.5l-233 -423v-265q0 -7 -4.5 -10t-21 -4t-42.5 -1h-12q-26 0 -42 1z
M326 790.5q-9 2.5 -14 8.5l-130 163q-3 5 -3 7q0 9 32 9h48q27 0 36.5 -2.5t13.5 -9.5l106 -163q2 -3 2 -7q0 -8 -26 -8h-38q-18 0 -27 2.5z" />
    <glyph glyph-name="Z" unicode="Z" horiz-adv-x="617" 
d="M51 2.5q-7 2.5 -7 12.5v52q0 21 4.5 34.5t18.5 34.5l320 468h-309q-10 0 -13.5 9.5t-3.5 45.5v8q0 27 1.5 37.5t4.5 13t11 2.5h440q17 0 27 -1t12.5 -4t2.5 -10v-52q0 -21 -4.5 -36t-17.5 -33l-320 -468h337q8 0 11 -2.5t4.5 -13t1.5 -37.5v-8q0 -36 -3.5 -45.5
t-13.5 -9.5h-468q-29 0 -36 2.5z" />
    <glyph glyph-name="Zacute" unicode="&#x179;" horiz-adv-x="617" 
d="M51 2.5q-7 2.5 -7 12.5v52q0 21 4.5 34.5t18.5 34.5l320 468h-309q-10 0 -13.5 9.5t-3.5 45.5v8q0 27 1.5 37.5t4.5 13t11 2.5h440q17 0 27 -1t12.5 -4t2.5 -10v-52q0 -21 -4.5 -36t-17.5 -33l-320 -468h337q8 0 11 -2.5t4.5 -13t1.5 -37.5v-8q0 -36 -3.5 -45.5
t-13.5 -9.5h-468q-29 0 -36 2.5zM223 791q-6 3 -1 12l106 163q4 7 13.5 9.5t36.5 2.5h48q32 0 32 -9q0 -2 -3 -7l-130 -163q-5 -6 -14 -8.5t-27 -2.5h-38q-17 0 -23 3z" />
    <glyph glyph-name="Zacute.loclPLK" horiz-adv-x="617" 
d="M51 2.5q-7 2.5 -7 12.5v52q0 21 4.5 34.5t18.5 34.5l320 468h-309q-10 0 -13.5 9.5t-3.5 45.5v8q0 27 1.5 37.5t4.5 13t11 2.5h440q17 0 27 -1t12.5 -4t2.5 -10v-52q0 -21 -4.5 -36t-17.5 -33l-320 -468h337q8 0 11 -2.5t4.5 -13t1.5 -37.5v-8q0 -36 -3.5 -45.5
t-13.5 -9.5h-468q-29 0 -36 2.5zM245.5 791q-6.5 3 -4.5 12l48 163q2 8 10.5 10t35.5 2h46q24 0 31.5 -3.5t3.5 -12.5l-73 -163q-3 -6 -10.5 -8.5t-26.5 -2.5h-36q-18 0 -24.5 3z" />
    <glyph glyph-name="Zcaron" unicode="&#x17d;" horiz-adv-x="617" 
d="M51 2.5q-7 2.5 -7 12.5v52q0 21 4.5 34.5t18.5 34.5l320 468h-309q-10 0 -13.5 9.5t-3.5 45.5v8q0 27 1.5 37.5t4.5 13t11 2.5h440q17 0 27 -1t12.5 -4t2.5 -10v-52q0 -21 -4.5 -36t-17.5 -33l-320 -468h337q8 0 11 -2.5t4.5 -13t1.5 -37.5v-8q0 -36 -3.5 -45.5
t-13.5 -9.5h-468q-29 0 -36 2.5zM261.5 793q-12.5 3 -21.5 13l-91 97q-5 5 -5 10q0 8 17 25l10 10q9 9 15.5 14.5t11.5 5.5q3 0 10 -5l101 -88l101 88q7 5 10 5q5 0 11.5 -5.5t15.5 -14.5l10 -10q17 -17 17 -25q0 -5 -5 -10l-91 -97q-9 -10 -21.5 -13t-40.5 -3h-14
q-28 0 -40.5 3z" />
    <glyph glyph-name="Zdotaccent" unicode="&#x17b;" horiz-adv-x="617" 
d="M51 2.5q-7 2.5 -7 12.5v52q0 21 4.5 34.5t18.5 34.5l320 468h-309q-10 0 -13.5 9.5t-3.5 45.5v8q0 27 1.5 37.5t4.5 13t11 2.5h440q17 0 27 -1t12.5 -4t2.5 -10v-52q0 -21 -4.5 -36t-17.5 -33l-320 -468h337q8 0 11 -2.5t4.5 -13t1.5 -37.5v-8q0 -36 -3.5 -45.5
t-13.5 -9.5h-468q-29 0 -36 2.5zM258 828.5q-22 21.5 -22 51.5t22 51t52 21t51 -21t21 -51t-21 -51.5t-51 -21.5t-52 21.5z" />
    <glyph glyph-name="a" unicode="a" horiz-adv-x="577" 
d="M94 60.5q-57 70.5 -57 193.5q0 88 29.5 152.5t80 98t111.5 33.5q39 0 73.5 -16.5t52.5 -42.5l4 36q1 8 11 10.5t48 2.5h6q37 0 47.5 -2.5t10.5 -11.5q0 -36 -1 -64l-1 -152v-61q0 -124 7 -219q1 -8 -2 -11.5t-15 -5t-40 -1.5h-5q-36 0 -47 2.5t-14 10.5q-2 4 -7 34
q-22 -25 -60.5 -41t-76.5 -16q-98 0 -155 70.5zM327 113q20 8 31 22q14 18 14 56v180q-14 22 -37.5 35t-49.5 13q-107 0 -107 -161q0 -73 24 -113t81 -40q24 0 44 8z" />
    <glyph glyph-name="a.ss01" horiz-adv-x="576" 
d="M546.5 96q1.5 -8 1.5 -36v-9q0 -27 -1.5 -34t-7.5 -10q-26 -12 -67 -12q-54 0 -84 30q-11 11 -19 28q-22 -28 -60 -45.5t-88 -17.5q-55 0 -97.5 22t-66 59.5t-23.5 83.5q0 78 56.5 117t148.5 39h118v15q0 49 -23 72.5t-73 23.5q-60 0 -142 -36q-6 -3 -11 -3q-6 0 -13 9
t-18 32l-8 17q-10 20 -10 31q0 10 11 16q43 23 97 36.5t106 13.5q112 0 166.5 -54.5t54.5 -157.5v-188q0 -18 7.5 -26t25.5 -8h11q7 0 8.5 -8zM332.5 132q22.5 31 24.5 82h-116q-69 0 -69 -49q0 -29 22.5 -46.5t59.5 -17.5q56 0 78.5 31z" />
    <glyph glyph-name="aacute" unicode="&#xe1;" horiz-adv-x="577" 
d="M94 60.5q-57 70.5 -57 193.5q0 88 29.5 152.5t80 98t111.5 33.5q39 0 73.5 -16.5t52.5 -42.5l4 36q1 8 11 10.5t48 2.5h6q37 0 47.5 -2.5t10.5 -11.5q0 -36 -1 -64l-1 -152v-61q0 -124 7 -219q1 -8 -2 -11.5t-15 -5t-40 -1.5h-5q-36 0 -47 2.5t-14 10.5q-2 4 -7 34
q-22 -25 -60.5 -41t-76.5 -16q-98 0 -155 70.5zM327 113q20 8 31 22q14 18 14 56v180q-14 22 -37.5 35t-49.5 13q-107 0 -107 -161q0 -73 24 -113t81 -40q24 0 44 8zM183 599q-6 3 -1 12l106 163q4 7 13.5 9.5t36.5 2.5h48q32 0 32 -9q0 -2 -3 -7l-130 -163q-5 -6 -14 -8.5
t-27 -2.5h-38q-17 0 -23 3z" />
    <glyph glyph-name="aacute.ss01" horiz-adv-x="576" 
d="M546.5 96q1.5 -8 1.5 -36v-9q0 -27 -1.5 -34t-7.5 -10q-26 -12 -67 -12q-54 0 -84 30q-11 11 -19 28q-22 -28 -60 -45.5t-88 -17.5q-55 0 -97.5 22t-66 59.5t-23.5 83.5q0 78 56.5 117t148.5 39h118v15q0 49 -23 72.5t-73 23.5q-60 0 -142 -36q-6 -3 -11 -3q-6 0 -13 9
t-18 32l-8 17q-10 20 -10 31q0 10 11 16q43 23 97 36.5t106 13.5q112 0 166.5 -54.5t54.5 -157.5v-188q0 -18 7.5 -26t25.5 -8h11q7 0 8.5 -8zM332.5 132q22.5 31 24.5 82h-116q-69 0 -69 -49q0 -29 22.5 -46.5t59.5 -17.5q56 0 78.5 31zM181 599q-6 3 -1 12l106 163
q4 7 13.5 9.5t36.5 2.5h48q32 0 32 -9q0 -2 -3 -7l-130 -163q-5 -6 -14 -8.5t-27 -2.5h-38q-17 0 -23 3z" />
    <glyph glyph-name="abreve" unicode="&#x103;" horiz-adv-x="577" 
d="M94 60.5q-57 70.5 -57 193.5q0 88 29.5 152.5t80 98t111.5 33.5q39 0 73.5 -16.5t52.5 -42.5l4 36q1 8 11 10.5t48 2.5h6q37 0 47.5 -2.5t10.5 -11.5q0 -36 -1 -64l-1 -152v-61q0 -124 7 -219q1 -8 -2 -11.5t-15 -5t-40 -1.5h-5q-36 0 -47 2.5t-14 10.5q-2 4 -7 34
q-22 -25 -60.5 -41t-76.5 -16q-98 0 -155 70.5zM327 113q20 8 31 22q14 18 14 56v180q-14 22 -37.5 35t-49.5 13q-107 0 -107 -161q0 -73 24 -113t81 -40q24 0 44 8zM168.5 644q-40.5 37 -44.5 104q0 9 8 11.5t35 2.5h15q22 0 29 -2.5t8 -9.5q10 -57 60 -57t60 57q1 7 8 9.5
t29 2.5h15q27 0 35 -2.5t8 -11.5q-4 -67 -44.5 -104t-110.5 -37t-110.5 37z" />
    <glyph glyph-name="abreve.ss01" horiz-adv-x="576" 
d="M546.5 96q1.5 -8 1.5 -36v-9q0 -27 -1.5 -34t-7.5 -10q-26 -12 -67 -12q-54 0 -84 30q-11 11 -19 28q-22 -28 -60 -45.5t-88 -17.5q-55 0 -97.5 22t-66 59.5t-23.5 83.5q0 78 56.5 117t148.5 39h118v15q0 49 -23 72.5t-73 23.5q-60 0 -142 -36q-6 -3 -11 -3q-6 0 -13 9
t-18 32l-8 17q-10 20 -10 31q0 10 11 16q43 23 97 36.5t106 13.5q112 0 166.5 -54.5t54.5 -157.5v-188q0 -18 7.5 -26t25.5 -8h11q7 0 8.5 -8zM332.5 132q22.5 31 24.5 82h-116q-69 0 -69 -49q0 -29 22.5 -46.5t59.5 -17.5q56 0 78.5 31zM166.5 644q-40.5 37 -44.5 104
q0 9 8 11.5t35 2.5h15q22 0 29 -2.5t8 -9.5q10 -57 60 -57t60 57q1 7 8 9.5t29 2.5h15q27 0 35 -2.5t8 -11.5q-4 -67 -44.5 -104t-110.5 -37t-110.5 37z" />
    <glyph glyph-name="uni01CE" unicode="&#x1ce;" horiz-adv-x="577" 
d="M94 60.5q-57 70.5 -57 193.5q0 88 29.5 152.5t80 98t111.5 33.5q39 0 73.5 -16.5t52.5 -42.5l4 36q1 8 11 10.5t48 2.5h6q37 0 47.5 -2.5t10.5 -11.5q0 -36 -1 -64l-1 -152v-61q0 -124 7 -219q1 -8 -2 -11.5t-15 -5t-40 -1.5h-5q-36 0 -47 2.5t-14 10.5q-2 4 -7 34
q-22 -25 -60.5 -41t-76.5 -16q-98 0 -155 70.5zM327 113q20 8 31 22q14 18 14 56v180q-14 22 -37.5 35t-49.5 13q-107 0 -107 -161q0 -73 24 -113t81 -40q24 0 44 8zM231.5 601q-12.5 3 -21.5 13l-91 97q-5 5 -5 10q0 8 17 25l10 10q9 9 15.5 14.5t11.5 5.5q3 0 10 -5
l101 -88l101 88q7 5 10 5q5 0 11.5 -5.5t15.5 -14.5l10 -10q17 -17 17 -25q0 -5 -5 -10l-91 -97q-9 -10 -21.5 -13t-40.5 -3h-14q-28 0 -40.5 3z" />
    <glyph glyph-name="uni01CE.ss01" horiz-adv-x="576" 
d="M546.5 96q1.5 -8 1.5 -36v-9q0 -27 -1.5 -34t-7.5 -10q-26 -12 -67 -12q-54 0 -84 30q-11 11 -19 28q-22 -28 -60 -45.5t-88 -17.5q-55 0 -97.5 22t-66 59.5t-23.5 83.5q0 78 56.5 117t148.5 39h118v15q0 49 -23 72.5t-73 23.5q-60 0 -142 -36q-6 -3 -11 -3q-6 0 -13 9
t-18 32l-8 17q-10 20 -10 31q0 10 11 16q43 23 97 36.5t106 13.5q112 0 166.5 -54.5t54.5 -157.5v-188q0 -18 7.5 -26t25.5 -8h11q7 0 8.5 -8zM332.5 132q22.5 31 24.5 82h-116q-69 0 -69 -49q0 -29 22.5 -46.5t59.5 -17.5q56 0 78.5 31zM229.5 601q-12.5 3 -21.5 13l-91 97
q-5 5 -5 10q0 8 17 25l10 10q9 9 15.5 14.5t11.5 5.5q3 0 10 -5l101 -88l101 88q7 5 10 5q5 0 11.5 -5.5t15.5 -14.5l10 -10q17 -17 17 -25q0 -5 -5 -10l-91 -97q-9 -10 -21.5 -13t-40.5 -3h-14q-28 0 -40.5 3z" />
    <glyph glyph-name="acircumflex" unicode="&#xe2;" horiz-adv-x="577" 
d="M94 60.5q-57 70.5 -57 193.5q0 88 29.5 152.5t80 98t111.5 33.5q39 0 73.5 -16.5t52.5 -42.5l4 36q1 8 11 10.5t48 2.5h6q37 0 47.5 -2.5t10.5 -11.5q0 -36 -1 -64l-1 -152v-61q0 -124 7 -219q1 -8 -2 -11.5t-15 -5t-40 -1.5h-5q-36 0 -47 2.5t-14 10.5q-2 4 -7 34
q-22 -25 -60.5 -41t-76.5 -16q-98 0 -155 70.5zM327 113q20 8 31 22q14 18 14 56v180q-14 22 -37.5 35t-49.5 13q-107 0 -107 -161q0 -73 24 -113t81 -40q24 0 44 8zM168 598q-5 0 -11.5 5.5t-15.5 14.5l-10 10q-17 17 -17 25q0 5 5 10l91 97q9 10 21.5 13t40.5 3h14
q28 0 40.5 -3t21.5 -13l91 -97q5 -5 5 -10q0 -8 -17 -25l-10 -10q-9 -9 -15.5 -14.5t-11.5 -5.5q-3 0 -10 5l-101 88l-101 -88q-7 -5 -10 -5z" />
    <glyph glyph-name="acircumflex.ss01" horiz-adv-x="576" 
d="M546.5 96q1.5 -8 1.5 -36v-9q0 -27 -1.5 -34t-7.5 -10q-26 -12 -67 -12q-54 0 -84 30q-11 11 -19 28q-22 -28 -60 -45.5t-88 -17.5q-55 0 -97.5 22t-66 59.5t-23.5 83.5q0 78 56.5 117t148.5 39h118v15q0 49 -23 72.5t-73 23.5q-60 0 -142 -36q-6 -3 -11 -3q-6 0 -13 9
t-18 32l-8 17q-10 20 -10 31q0 10 11 16q43 23 97 36.5t106 13.5q112 0 166.5 -54.5t54.5 -157.5v-188q0 -18 7.5 -26t25.5 -8h11q7 0 8.5 -8zM332.5 132q22.5 31 24.5 82h-116q-69 0 -69 -49q0 -29 22.5 -46.5t59.5 -17.5q56 0 78.5 31zM166 598q-5 0 -11.5 5.5t-15.5 14.5
l-10 10q-17 17 -17 25q0 5 5 10l91 97q9 10 21.5 13t40.5 3h14q28 0 40.5 -3t21.5 -13l91 -97q5 -5 5 -10q0 -8 -17 -25l-10 -10q-9 -9 -15.5 -14.5t-11.5 -5.5q-3 0 -10 5l-101 88l-101 -88q-7 -5 -10 -5z" />
    <glyph glyph-name="adieresis" unicode="&#xe4;" horiz-adv-x="577" 
d="M94 60.5q-57 70.5 -57 193.5q0 88 29.5 152.5t80 98t111.5 33.5q39 0 73.5 -16.5t52.5 -42.5l4 36q1 8 11 10.5t48 2.5h6q37 0 47.5 -2.5t10.5 -11.5q0 -36 -1 -64l-1 -152v-61q0 -124 7 -219q1 -8 -2 -11.5t-15 -5t-40 -1.5h-5q-36 0 -47 2.5t-14 10.5q-2 4 -7 34
q-22 -25 -60.5 -41t-76.5 -16q-98 0 -155 70.5zM327 113q20 8 31 22q14 18 14 56v180q-14 22 -37.5 35t-49.5 13q-107 0 -107 -161q0 -73 24 -113t81 -40q24 0 44 8zM118 630q-21 20 -21 49q0 30 21 50.5t52 20.5q32 0 52.5 -20.5t20.5 -50.5q0 -29 -20.5 -49t-52.5 -20
q-31 0 -52 20zM335 630q-20 20 -20 49q0 30 20 50.5t51 20.5q33 0 54 -20.5t21 -50.5q0 -29 -21 -49t-54 -20q-31 0 -51 20z" />
    <glyph glyph-name="adieresis.ss01" horiz-adv-x="576" 
d="M546.5 96q1.5 -8 1.5 -36v-9q0 -27 -1.5 -34t-7.5 -10q-26 -12 -67 -12q-54 0 -84 30q-11 11 -19 28q-22 -28 -60 -45.5t-88 -17.5q-55 0 -97.5 22t-66 59.5t-23.5 83.5q0 78 56.5 117t148.5 39h118v15q0 49 -23 72.5t-73 23.5q-60 0 -142 -36q-6 -3 -11 -3q-6 0 -13 9
t-18 32l-8 17q-10 20 -10 31q0 10 11 16q43 23 97 36.5t106 13.5q112 0 166.5 -54.5t54.5 -157.5v-188q0 -18 7.5 -26t25.5 -8h11q7 0 8.5 -8zM332.5 132q22.5 31 24.5 82h-116q-69 0 -69 -49q0 -29 22.5 -46.5t59.5 -17.5q56 0 78.5 31zM116 630q-21 20 -21 49
q0 30 21 50.5t52 20.5q32 0 52.5 -20.5t20.5 -50.5q0 -29 -20.5 -49t-52.5 -20q-31 0 -52 20zM333 630q-20 20 -20 49q0 30 20 50.5t51 20.5q33 0 54 -20.5t21 -50.5q0 -29 -21 -49t-54 -20q-31 0 -51 20z" />
    <glyph glyph-name="agrave" unicode="&#xe0;" horiz-adv-x="577" 
d="M94 60.5q-57 70.5 -57 193.5q0 88 29.5 152.5t80 98t111.5 33.5q39 0 73.5 -16.5t52.5 -42.5l4 36q1 8 11 10.5t48 2.5h6q37 0 47.5 -2.5t10.5 -11.5q0 -36 -1 -64l-1 -152v-61q0 -124 7 -219q1 -8 -2 -11.5t-15 -5t-40 -1.5h-5q-36 0 -47 2.5t-14 10.5q-2 4 -7 34
q-22 -25 -60.5 -41t-76.5 -16q-98 0 -155 70.5zM327 113q20 8 31 22q14 18 14 56v180q-14 22 -37.5 35t-49.5 13q-107 0 -107 -161q0 -73 24 -113t81 -40q24 0 44 8zM287 598.5q-9 2.5 -14 8.5l-130 163q-3 5 -3 7q0 9 32 9h48q27 0 36.5 -2.5t13.5 -9.5l106 -163q2 -3 2 -7
q0 -8 -26 -8h-38q-18 0 -27 2.5z" />
    <glyph glyph-name="agrave.ss01" horiz-adv-x="576" 
d="M546.5 96q1.5 -8 1.5 -36v-9q0 -27 -1.5 -34t-7.5 -10q-26 -12 -67 -12q-54 0 -84 30q-11 11 -19 28q-22 -28 -60 -45.5t-88 -17.5q-55 0 -97.5 22t-66 59.5t-23.5 83.5q0 78 56.5 117t148.5 39h118v15q0 49 -23 72.5t-73 23.5q-60 0 -142 -36q-6 -3 -11 -3q-6 0 -13 9
t-18 32l-8 17q-10 20 -10 31q0 10 11 16q43 23 97 36.5t106 13.5q112 0 166.5 -54.5t54.5 -157.5v-188q0 -18 7.5 -26t25.5 -8h11q7 0 8.5 -8zM332.5 132q22.5 31 24.5 82h-116q-69 0 -69 -49q0 -29 22.5 -46.5t59.5 -17.5q56 0 78.5 31zM285 598.5q-9 2.5 -14 8.5l-130 163
q-3 5 -3 7q0 9 32 9h48q27 0 36.5 -2.5t13.5 -9.5l106 -163q2 -3 2 -7q0 -8 -26 -8h-38q-18 0 -27 2.5z" />
    <glyph glyph-name="amacron" unicode="&#x101;" horiz-adv-x="577" 
d="M94 60.5q-57 70.5 -57 193.5q0 88 29.5 152.5t80 98t111.5 33.5q39 0 73.5 -16.5t52.5 -42.5l4 36q1 8 11 10.5t48 2.5h6q37 0 47.5 -2.5t10.5 -11.5q0 -36 -1 -64l-1 -152v-61q0 -124 7 -219q1 -8 -2 -11.5t-15 -5t-40 -1.5h-5q-36 0 -47 2.5t-14 10.5q-2 4 -7 34
q-22 -25 -60.5 -41t-76.5 -16q-98 0 -155 70.5zM327 113q20 8 31 22q14 18 14 56v180q-14 22 -37.5 35t-49.5 13q-107 0 -107 -161q0 -73 24 -113t81 -40q24 0 44 8zM133.5 647.5q-2.5 8.5 -2.5 32.5v14q0 24 2.5 32.5t10.5 8.5h270q8 0 10.5 -8.5t2.5 -32.5v-14
q0 -24 -2.5 -32.5t-10.5 -8.5h-270q-8 0 -10.5 8.5z" />
    <glyph glyph-name="amacron.ss01" horiz-adv-x="576" 
d="M546.5 96q1.5 -8 1.5 -36v-9q0 -27 -1.5 -34t-7.5 -10q-26 -12 -67 -12q-54 0 -84 30q-11 11 -19 28q-22 -28 -60 -45.5t-88 -17.5q-55 0 -97.5 22t-66 59.5t-23.5 83.5q0 78 56.5 117t148.5 39h118v15q0 49 -23 72.5t-73 23.5q-60 0 -142 -36q-6 -3 -11 -3q-6 0 -13 9
t-18 32l-8 17q-10 20 -10 31q0 10 11 16q43 23 97 36.5t106 13.5q112 0 166.5 -54.5t54.5 -157.5v-188q0 -18 7.5 -26t25.5 -8h11q7 0 8.5 -8zM332.5 132q22.5 31 24.5 82h-116q-69 0 -69 -49q0 -29 22.5 -46.5t59.5 -17.5q56 0 78.5 31zM131.5 647.5q-2.5 8.5 -2.5 32.5v14
q0 24 2.5 32.5t10.5 8.5h270q8 0 10.5 -8.5t2.5 -32.5v-14q0 -24 -2.5 -32.5t-10.5 -8.5h-270q-8 0 -10.5 8.5z" />
    <glyph glyph-name="aogonek" unicode="&#x105;" horiz-adv-x="577" 
d="M324.5 -208q-34.5 32 -34.5 85q0 42 24.5 75.5t76.5 64.5q-3 11 -5 30q-22 -25 -60.5 -41t-76.5 -16q-98 0 -155 70.5t-57 193.5q0 88 29.5 152.5t80 98t111.5 33.5q39 0 73.5 -16.5t52.5 -42.5l4 36q1 8 11 10.5t48 2.5h6q37 0 47.5 -2.5t10.5 -11.5q0 -36 -1 -64
l-1 -152v-61q0 -139 7 -219v-4q0 -4 -2 -6.5t-9 -4.5q-48 -11 -81 -40.5t-33 -68.5q0 -22 11.5 -33.5t30.5 -11.5q16 0 40 8q8 2 13 -2t11 -23l4 -12q6 -18 6 -26t-8 -13q-17 -9 -40 -15t-43 -6q-57 0 -91.5 32zM327 113q20 8 31 22q14 18 14 56v180q-14 22 -37.5 35
t-49.5 13q-107 0 -107 -161q0 -73 24 -113t81 -40q24 0 44 8z" />
    <glyph glyph-name="aogonek.ss01" horiz-adv-x="576" 
d="M355.5 -208q-34.5 32 -34.5 85q0 39 21.5 71.5t66.5 60.5q-13 8 -21 16q-11 11 -19 28q-22 -28 -60 -45.5t-88 -17.5q-55 0 -97.5 22t-66 59.5t-23.5 83.5q0 78 56.5 117t148.5 39h118v15q0 49 -23 72.5t-73 23.5q-60 0 -142 -36q-6 -3 -11 -3q-6 0 -13 9t-18 32l-8 17
q-10 20 -10 31q0 10 11 16q43 23 97 36.5t106 13.5q112 0 166.5 -54.5t54.5 -157.5v-188q0 -18 7.5 -26t25.5 -8h11q7 0 8.5 -8t1.5 -36v-41q0 -8 -2.5 -11t-9.5 -5q-48 -11 -81 -40.5t-33 -68.5q0 -22 11.5 -33.5t30.5 -11.5q16 0 40 8q8 2 13 -2t11 -23l4 -12q6 -18 6 -26
t-8 -13q-17 -9 -40 -15t-43 -6q-57 0 -91.5 32zM332.5 132q22.5 31 24.5 82h-116q-69 0 -69 -49q0 -29 22.5 -46.5t59.5 -17.5q56 0 78.5 31z" />
    <glyph glyph-name="aring" unicode="&#xe5;" horiz-adv-x="577" 
d="M94 60.5q-57 70.5 -57 193.5q0 88 29.5 152.5t80 98t111.5 33.5q39 0 73.5 -16.5t52.5 -42.5l4 36q1 8 11 10.5t48 2.5h6q37 0 47.5 -2.5t10.5 -11.5q0 -36 -1 -64l-1 -152v-61q0 -124 7 -219q1 -8 -2 -11.5t-15 -5t-40 -1.5h-5q-36 0 -47 2.5t-14 10.5q-2 4 -7 34
q-22 -25 -60.5 -41t-76.5 -16q-98 0 -155 70.5zM327 113q20 8 31 22q14 18 14 56v180q-14 22 -37.5 35t-49.5 13q-107 0 -107 -161q0 -73 24 -113t81 -40q24 0 44 8zM198.5 623q-33.5 32 -33.5 78q0 45 33.5 77t80.5 32t80 -31.5t33 -77.5t-33 -78t-80 -32t-80.5 32z
M306 672.5q11 11.5 11 28.5q0 16 -11 27.5t-27 11.5q-17 0 -28.5 -11t-11.5 -28t11.5 -28.5t28.5 -11.5q16 0 27 11.5z" />
    <glyph glyph-name="aring.ss01" horiz-adv-x="576" 
d="M546.5 96q1.5 -8 1.5 -36v-9q0 -27 -1.5 -34t-7.5 -10q-26 -12 -67 -12q-54 0 -84 30q-11 11 -19 28q-22 -28 -60 -45.5t-88 -17.5q-55 0 -97.5 22t-66 59.5t-23.5 83.5q0 78 56.5 117t148.5 39h118v15q0 49 -23 72.5t-73 23.5q-60 0 -142 -36q-6 -3 -11 -3q-6 0 -13 9
t-18 32l-8 17q-10 20 -10 31q0 10 11 16q43 23 97 36.5t106 13.5q112 0 166.5 -54.5t54.5 -157.5v-188q0 -18 7.5 -26t25.5 -8h11q7 0 8.5 -8zM332.5 132q22.5 31 24.5 82h-116q-69 0 -69 -49q0 -29 22.5 -46.5t59.5 -17.5q56 0 78.5 31zM196.5 623q-33.5 32 -33.5 78
q0 45 33.5 77t80.5 32t80 -31.5t33 -77.5t-33 -78t-80 -32t-80.5 32zM304 672.5q11 11.5 11 28.5q0 16 -11 27.5t-27 11.5q-17 0 -28.5 -11t-11.5 -28t11.5 -28.5t28.5 -11.5q16 0 27 11.5z" />
    <glyph glyph-name="aringacute" unicode="&#x1fb;" horiz-adv-x="577" 
d="M94 60.5q-57 70.5 -57 193.5q0 88 29.5 152.5t80 98t111.5 33.5q39 0 73.5 -16.5t52.5 -42.5l4 36q1 8 11 10.5t48 2.5h6q37 0 47.5 -2.5t10.5 -11.5q0 -36 -1 -64l-1 -152v-61q0 -124 7 -219q1 -8 -2 -11.5t-15 -5t-40 -1.5h-5q-36 0 -47 2.5t-14 10.5q-2 4 -7 34
q-22 -25 -60.5 -41t-76.5 -16q-98 0 -155 70.5zM327 113q20 8 31 22q14 18 14 56v180q-14 22 -37.5 35t-49.5 13q-107 0 -107 -161q0 -73 24 -113t81 -40q24 0 44 8zM208.5 613q-33.5 32 -33.5 78q0 45 33.5 77t80.5 32t80 -31.5t33 -77.5t-33 -78t-80 -32t-80.5 32z
M316 662.5q11 11.5 11 28.5q0 16 -11 27.5t-27 11.5q-17 0 -28.5 -11t-11.5 -28t11.5 -28.5t28.5 -11.5q16 0 27 11.5zM176 831q-6 3 -1 12l106 163q4 7 13.5 9.5t36.5 2.5h48q32 0 32 -9q0 -2 -3 -7l-130 -163q-5 -6 -14 -8.5t-27 -2.5h-38q-17 0 -23 3z" />
    <glyph glyph-name="aringacute.ss01" horiz-adv-x="576" 
d="M546.5 96q1.5 -8 1.5 -36v-9q0 -27 -1.5 -34t-7.5 -10q-26 -12 -67 -12q-54 0 -84 30q-11 11 -19 28q-22 -28 -60 -45.5t-88 -17.5q-55 0 -97.5 22t-66 59.5t-23.5 83.5q0 78 56.5 117t148.5 39h118v15q0 49 -23 72.5t-73 23.5q-60 0 -142 -36q-6 -3 -11 -3q-6 0 -13 9
t-18 32l-8 17q-10 20 -10 31q0 10 11 16q43 23 97 36.5t106 13.5q112 0 166.5 -54.5t54.5 -157.5v-188q0 -18 7.5 -26t25.5 -8h11q7 0 8.5 -8zM332.5 132q22.5 31 24.5 82h-116q-69 0 -69 -49q0 -29 22.5 -46.5t59.5 -17.5q56 0 78.5 31zM196.5 613q-33.5 32 -33.5 78
q0 45 33.5 77t80.5 32t80 -31.5t33 -77.5t-33 -78t-80 -32t-80.5 32zM304 662.5q11 11.5 11 28.5q0 16 -11 27.5t-27 11.5q-17 0 -28.5 -11t-11.5 -28t11.5 -28.5t28.5 -11.5q16 0 27 11.5zM181 829q-6 3 -1 12l106 163q4 7 13.5 9.5t36.5 2.5h48q32 0 32 -9q0 -2 -3 -7
l-130 -163q-5 -6 -14 -8.5t-27 -2.5h-38q-17 0 -23 3z" />
    <glyph glyph-name="atilde" unicode="&#xe3;" horiz-adv-x="577" 
d="M94 60.5q-57 70.5 -57 193.5q0 88 29.5 152.5t80 98t111.5 33.5q39 0 73.5 -16.5t52.5 -42.5l4 36q1 8 11 10.5t48 2.5h6q37 0 47.5 -2.5t10.5 -11.5q0 -36 -1 -64l-1 -152v-61q0 -124 7 -219q1 -8 -2 -11.5t-15 -5t-40 -1.5h-5q-36 0 -47 2.5t-14 10.5q-2 4 -7 34
q-22 -25 -60.5 -41t-76.5 -16q-98 0 -155 70.5zM327 113q20 8 31 22q14 18 14 56v180q-14 22 -37.5 35t-49.5 13q-107 0 -107 -161q0 -73 24 -113t81 -40q24 0 44 8zM302.5 625.5q-15.5 5.5 -37.5 16.5q-12 6 -23.5 10.5t-20.5 4.5q-27 0 -59 -32q-4 -4 -12 -1t-24 19l-4 4
q-20 20 -20 28q0 3 4 9q54 67 115 67q19 0 34.5 -5.5t37.5 -16.5q11 -6 22.5 -10.5t20.5 -4.5q27 0 59 32q4 4 12 1t24 -19l4 -4q20 -20 20 -28q0 -3 -4 -9q-54 -67 -115 -67q-18 0 -33.5 5.5z" />
    <glyph glyph-name="atilde.ss01" horiz-adv-x="576" 
d="M546.5 96q1.5 -8 1.5 -36v-9q0 -27 -1.5 -34t-7.5 -10q-26 -12 -67 -12q-54 0 -84 30q-11 11 -19 28q-22 -28 -60 -45.5t-88 -17.5q-55 0 -97.5 22t-66 59.5t-23.5 83.5q0 78 56.5 117t148.5 39h118v15q0 49 -23 72.5t-73 23.5q-60 0 -142 -36q-6 -3 -11 -3q-6 0 -13 9
t-18 32l-8 17q-10 20 -10 31q0 10 11 16q43 23 97 36.5t106 13.5q112 0 166.5 -54.5t54.5 -157.5v-188q0 -18 7.5 -26t25.5 -8h11q7 0 8.5 -8zM332.5 132q22.5 31 24.5 82h-116q-69 0 -69 -49q0 -29 22.5 -46.5t59.5 -17.5q56 0 78.5 31zM300.5 625.5q-15.5 5.5 -37.5 16.5
q-12 6 -23.5 10.5t-20.5 4.5q-27 0 -59 -32q-4 -4 -12 -1t-24 19l-4 4q-20 20 -20 28q0 3 4 9q54 67 115 67q19 0 34.5 -5.5t37.5 -16.5q11 -6 22.5 -10.5t20.5 -4.5q27 0 59 32q4 4 12 1t24 -19l4 -4q20 -20 20 -28q0 -3 -4 -9q-54 -67 -115 -67q-18 0 -33.5 5.5z" />
    <glyph glyph-name="ae" unicode="&#xe6;" horiz-adv-x="867" 
d="M146.5 2.5q-36.5 12.5 -62.5 36.5q-50 47 -50 122q0 83 58 127t156 44q49 0 99 -16v28q0 40 -24 61.5t-71 21.5q-31 0 -68 -9t-69 -24q-6 -2 -8 -2q-6 0 -12 7.5t-14 26.5l-6 14q-11 27 -11 34q0 6 6 10q39 25 93.5 39.5t102.5 14.5q113 0 167 -57q65 57 160 57
q111 0 171 -74t60 -195q0 -30 -2 -41t-8 -11h-324q8 -54 41.5 -82t90.5 -28q65 0 141 32q8 4 13.5 -1.5t13.5 -27.5l9 -25q9 -24 9 -33q0 -5 -3 -8t-7 -6q-38 -22 -90.5 -35t-103.5 -13q-60 0 -108 18.5t-81 53.5q-36 -34 -86 -53t-107 -19q-39 0 -75.5 12.5zM687 315
q-5 49 -29 78.5t-64 29.5q-41 0 -67.5 -28.5t-36.5 -79.5h197zM313.5 115q30.5 12 50.5 32q-12 33 -15 71q-44 14 -85 14q-43 0 -68 -16.5t-25 -50.5q0 -31 24 -46.5t55 -15.5q33 0 63.5 12z" />
    <glyph glyph-name="aeacute" unicode="&#x1fd;" horiz-adv-x="867" 
d="M146.5 2.5q-36.5 12.5 -62.5 36.5q-50 47 -50 122q0 83 58 127t156 44q49 0 99 -16v28q0 40 -24 61.5t-71 21.5q-31 0 -68 -9t-69 -24q-6 -2 -8 -2q-6 0 -12 7.5t-14 26.5l-6 14q-11 27 -11 34q0 6 6 10q39 25 93.5 39.5t102.5 14.5q113 0 167 -57q65 57 160 57
q111 0 171 -74t60 -195q0 -30 -2 -41t-8 -11h-324q8 -54 41.5 -82t90.5 -28q65 0 141 32q8 4 13.5 -1.5t13.5 -27.5l9 -25q9 -24 9 -33q0 -5 -3 -8t-7 -6q-38 -22 -90.5 -35t-103.5 -13q-60 0 -108 18.5t-81 53.5q-36 -34 -86 -53t-107 -19q-39 0 -75.5 12.5zM687 315
q-5 49 -29 78.5t-64 29.5q-41 0 -67.5 -28.5t-36.5 -79.5h197zM313.5 115q30.5 12 50.5 32q-12 33 -15 71q-44 14 -85 14q-43 0 -68 -16.5t-25 -50.5q0 -31 24 -46.5t55 -15.5q33 0 63.5 12zM358 599q-6 3 -1 12l106 163q4 7 13.5 9.5t36.5 2.5h48q32 0 32 -9q0 -2 -3 -7
l-130 -163q-5 -6 -14 -8.5t-27 -2.5h-38q-17 0 -23 3z" />
    <glyph glyph-name="b" unicode="b" horiz-adv-x="578" 
d="M161.5 2q-54.5 12 -83.5 29q-8 5 -10 10t-2 16v688q0 6 3.5 9t17.5 4.5t46 1.5h5q42 0 53.5 -3t11.5 -12v-255q51 48 131 48q95 0 151 -71t56 -195q0 -144 -74 -218q-32 -32 -83.5 -48t-116.5 -16q-51 0 -105.5 12zM366 142q34 42 34 130q0 82 -33 120q-25 29 -73 29
q-22 0 -44 -6.5t-33 -18.5q-8 -9 -11 -21.5t-3 -32.5v-227q27 -10 67 -10q66 0 96 37z" />
    <glyph glyph-name="c" unicode="c" horiz-adv-x="499" 
d="M192.5 5.5q-44.5 15.5 -76.5 44.5q-38 35 -58.5 89t-20.5 121q0 64 19 117t54 90q69 71 188 71q48 0 92 -15.5t78 -43.5q7 -6 7 -12q0 -9 -15 -38l-10 -19q-16 -33 -28 -33q-3 0 -8 3q-29 20 -54.5 29.5t-56.5 9.5q-55 0 -90 -38t-35 -114t33 -117t98 -41q29 0 54.5 7
t56.5 22q9 4 14 -2t18 -35l6 -14q12 -28 12 -36q0 -6 -7 -11q-33 -22 -78 -36t-94 -14q-54 0 -98.5 15.5z" />
    <glyph glyph-name="cacute" unicode="&#x107;" horiz-adv-x="499" 
d="M192.5 5.5q-44.5 15.5 -76.5 44.5q-38 35 -58.5 89t-20.5 121q0 64 19 117t54 90q69 71 188 71q48 0 92 -15.5t78 -43.5q7 -6 7 -12q0 -9 -15 -38l-10 -19q-16 -33 -28 -33q-3 0 -8 3q-29 20 -54.5 29.5t-56.5 9.5q-55 0 -90 -38t-35 -114t33 -117t98 -41q29 0 54.5 7
t56.5 22q9 4 14 -2t18 -35l6 -14q12 -28 12 -36q0 -6 -7 -11q-33 -22 -78 -36t-94 -14q-54 0 -98.5 15.5zM194 599q-6 3 -1 12l106 163q4 7 13.5 9.5t36.5 2.5h48q32 0 32 -9q0 -2 -3 -7l-130 -163q-5 -6 -14 -8.5t-27 -2.5h-38q-17 0 -23 3z" />
    <glyph glyph-name="cacute.loclPLK" horiz-adv-x="499" 
d="M192.5 5.5q-44.5 15.5 -76.5 44.5q-38 35 -58.5 89t-20.5 121q0 64 19 117t54 90q69 71 188 71q48 0 92 -15.5t78 -43.5q7 -6 7 -12q0 -9 -15 -38l-10 -19q-16 -33 -28 -33q-3 0 -8 3q-29 20 -54.5 29.5t-56.5 9.5q-55 0 -90 -38t-35 -114t33 -117t98 -41q29 0 54.5 7
t56.5 22q9 4 14 -2t18 -35l6 -14q12 -28 12 -36q0 -6 -7 -11q-33 -22 -78 -36t-94 -14q-54 0 -98.5 15.5zM237.5 599q-6.5 3 -4.5 12l48 163q2 8 10.5 10t35.5 2h44q24 0 31.5 -3.5t3.5 -12.5l-73 -163q-3 -6 -10.5 -8.5t-26.5 -2.5h-34q-18 0 -24.5 3z" />
    <glyph glyph-name="ccaron" unicode="&#x10d;" horiz-adv-x="499" 
d="M192.5 5.5q-44.5 15.5 -76.5 44.5q-38 35 -58.5 89t-20.5 121q0 64 19 117t54 90q69 71 188 71q48 0 92 -15.5t78 -43.5q7 -6 7 -12q0 -9 -15 -38l-10 -19q-16 -33 -28 -33q-3 0 -8 3q-29 20 -54.5 29.5t-56.5 9.5q-55 0 -90 -38t-35 -114t33 -117t98 -41q29 0 54.5 7
t56.5 22q9 4 14 -2t18 -35l6 -14q12 -28 12 -36q0 -6 -7 -11q-33 -22 -78 -36t-94 -14q-54 0 -98.5 15.5zM242.5 601q-12.5 3 -21.5 13l-91 97q-5 5 -5 10q0 8 17 25l10 10q9 9 15.5 14.5t11.5 5.5q3 0 10 -5l101 -88l101 88q7 5 10 5q5 0 11.5 -5.5t15.5 -14.5l10 -10
q17 -17 17 -25q0 -5 -5 -10l-91 -97q-9 -10 -21.5 -13t-40.5 -3h-14q-28 0 -40.5 3z" />
    <glyph glyph-name="ccedilla" unicode="&#xe7;" horiz-adv-x="499" 
d="M458 87q12 -28 12 -36q0 -6 -7 -11q-32 -21 -73.5 -35t-87.5 -15l-2 -27q48 -2 77 -25t29 -69q0 -45 -32.5 -76.5t-94.5 -31.5q-47 0 -78 13q-4 2 -5.5 4t-1.5 7q0 9 4 24l3 11q5 18 9 23.5t13 2.5q21 -6 46 -6q20 0 29.5 8t9.5 21q0 30 -45 30q-31 0 -60 -4l15 103
q-61 14 -102 52q-38 35 -58.5 89t-20.5 121q0 64 19 117t54 90q69 71 188 71q48 0 92 -15.5t78 -43.5q7 -6 7 -12q0 -9 -15 -38l-10 -19q-16 -33 -28 -33q-3 0 -8 3q-29 20 -54.5 29.5t-56.5 9.5q-55 0 -90 -38t-35 -114t33 -117t98 -41q29 0 54.5 7t56.5 22q9 4 14 -2
t18 -35z" />
    <glyph glyph-name="ccircumflex" unicode="&#x109;" horiz-adv-x="499" 
d="M192.5 5.5q-44.5 15.5 -76.5 44.5q-38 35 -58.5 89t-20.5 121q0 64 19 117t54 90q69 71 188 71q48 0 92 -15.5t78 -43.5q7 -6 7 -12q0 -9 -15 -38l-10 -19q-16 -33 -28 -33q-3 0 -8 3q-29 20 -54.5 29.5t-56.5 9.5q-55 0 -90 -38t-35 -114t33 -117t98 -41q29 0 54.5 7
t56.5 22q9 4 14 -2t18 -35l6 -14q12 -28 12 -36q0 -6 -7 -11q-33 -22 -78 -36t-94 -14q-54 0 -98.5 15.5zM179 598q-5 0 -11.5 5.5t-15.5 14.5l-10 10q-17 17 -17 25q0 5 5 10l91 97q9 10 21.5 13t40.5 3h14q28 0 40.5 -3t21.5 -13l91 -97q5 -5 5 -10q0 -8 -17 -25l-10 -10
q-9 -9 -15.5 -14.5t-11.5 -5.5q-3 0 -10 5l-101 88l-101 -88q-7 -5 -10 -5z" />
    <glyph glyph-name="cdotaccent" unicode="&#x10b;" horiz-adv-x="499" 
d="M192.5 5.5q-44.5 15.5 -76.5 44.5q-38 35 -58.5 89t-20.5 121q0 64 19 117t54 90q69 71 188 71q48 0 92 -15.5t78 -43.5q7 -6 7 -12q0 -9 -15 -38l-10 -19q-16 -33 -28 -33q-3 0 -8 3q-29 20 -54.5 29.5t-56.5 9.5q-55 0 -90 -38t-35 -114t33 -117t98 -41q29 0 54.5 7
t56.5 22q9 4 14 -2t18 -35l6 -14q12 -28 12 -36q0 -6 -7 -11q-33 -22 -78 -36t-94 -14q-54 0 -98.5 15.5zM239 640.5q-22 21.5 -22 51.5t22 51t52 21t51 -21t21 -51t-21 -51.5t-51 -21.5t-52 21.5z" />
    <glyph glyph-name="d" unicode="d" horiz-adv-x="591" 
d="M93.5 61.5q-56.5 71.5 -56.5 194.5q0 87 27.5 150.5t77.5 97.5t115 34q68 0 119 -45v252q0 6 3.5 9t17.5 4.5t46 1.5h5q42 0 53.5 -3t11.5 -12v-611q0 -16 6.5 -22t22.5 -6q9 0 11 -7t2 -34v-11q0 -26 -2 -35t-7 -11q-31 -12 -72 -12q-32 0 -54.5 13.5t-32.5 36.5
q-25 -27 -61.5 -41.5t-77.5 -14.5q-98 0 -154.5 71.5zM330 114q21 7 32 19q8 9 11 21.5t3 32.5v187q-38 46 -90 46q-108 0 -108 -164q0 -81 34 -120q25 -29 75 -29q22 0 43 7z" />
    <glyph glyph-name="eth" unicode="&#xf0;" horiz-adv-x="584" 
d="M148.5 22.5q-53.5 32.5 -82.5 91t-29 136.5q0 79 31 136.5t82.5 88t112.5 30.5q55 0 98 -24q-20 44 -46 79l-105 -28q-6 -2 -9.5 3.5t-9.5 24.5l-4 14q-5 18 -5 22q0 6 7 9l69 19q-29 27 -71 51q-6 3 -6 10q0 11 18 37l13 19q17 25 29 25q5 0 11 -3q85 -42 143 -102
l117 32q6 2 9.5 -3t9.5 -25l4 -14q4 -13 4 -22q0 -7 -6 -9l-84 -23q89 -125 89 -287q0 -146 -67.5 -233t-196.5 -87q-72 0 -125.5 32.5zM368 154q27 50 27 163q0 22 -3 44q-48 35 -100 35q-55 0 -85 -38t-30 -111q0 -70 27.5 -106.5t75.5 -36.5q61 0 88 50z" />
    <glyph glyph-name="dcaron" unicode="&#x10f;" horiz-adv-x="680" 
d="M93.5 61.5q-56.5 71.5 -56.5 194.5q0 87 27.5 150.5t77.5 97.5t115 34q68 0 119 -45v252q0 6 3.5 9t17.5 4.5t46 1.5h5q42 0 53.5 -3t11.5 -12v-611q0 -16 6.5 -22t22.5 -6q9 0 11 -7t2 -34v-11q0 -26 -2 -35t-7 -11q-31 -12 -72 -12q-32 0 -54.5 13.5t-32.5 36.5
q-25 -27 -61.5 -41.5t-77.5 -14.5q-98 0 -154.5 71.5zM330 114q21 7 32 19q8 9 11 21.5t3 32.5v187q-38 46 -90 46q-108 0 -108 -164q0 -81 34 -120q25 -29 75 -29q22 0 43 7zM557 490q-6 4 -6 10q0 5 4 9q41 51 41 92q0 9 -3.5 16t-11.5 17q-9 11 -13.5 20t-4.5 22
q0 22 17 38t44 16q29 0 47.5 -21.5t18.5 -54.5q0 -46 -25 -92t-71 -86q-7 -5 -10 -5q-4 0 -11 5z" />
    <glyph glyph-name="dcroat" unicode="&#x111;" horiz-adv-x="591" 
d="M93.5 61.5q-56.5 71.5 -56.5 194.5q0 87 27.5 150.5t77.5 97.5t115 34q68 0 119 -45v104h-130q-8 0 -11 9t-3 40t3 40t11 9h130v50q0 6 3.5 9t17.5 4.5t46 1.5h5q42 0 53.5 -3t11.5 -12v-50h60q8 0 11 -9t3 -40t-3 -40t-11 -9h-60v-463q0 -16 6.5 -22t22.5 -6q9 0 11 -7
t2 -34v-11q0 -26 -2 -35t-7 -11q-31 -12 -72 -12q-32 0 -54.5 13.5t-32.5 36.5q-25 -27 -61.5 -41.5t-77.5 -14.5q-98 0 -154.5 71.5zM330 114q21 7 32 19q8 9 11 21.5t3 32.5v187q-38 46 -90 46q-108 0 -108 -164q0 -81 34 -120q25 -29 75 -29q22 0 43 7z" />
    <glyph glyph-name="e" unicode="e" horiz-adv-x="557" 
d="M106 61q-69 71 -69 197q0 82 30 145.5t85.5 99t130.5 35.5q111 0 171 -74t60 -195q0 -30 -2 -41t-8 -11h-324q8 -54 41.5 -82t90.5 -28q65 0 141 32q8 4 13.5 -1.5t13.5 -27.5l9 -25q9 -24 9 -33q0 -5 -3 -8t-7 -6q-38 -22 -90.5 -35t-103.5 -13q-119 0 -188 71zM377 315
q-5 49 -29 78.5t-64 29.5q-41 0 -67.5 -28.5t-36.5 -79.5h197z" />
    <glyph glyph-name="eacute" unicode="&#xe9;" horiz-adv-x="557" 
d="M106 61q-69 71 -69 197q0 82 30 145.5t85.5 99t130.5 35.5q111 0 171 -74t60 -195q0 -30 -2 -41t-8 -11h-324q8 -54 41.5 -82t90.5 -28q65 0 141 32q8 4 13.5 -1.5t13.5 -27.5l9 -25q9 -24 9 -33q0 -5 -3 -8t-7 -6q-38 -22 -90.5 -35t-103.5 -13q-119 0 -188 71zM377 315
q-5 49 -29 78.5t-64 29.5q-41 0 -67.5 -28.5t-36.5 -79.5h197zM188 599q-6 3 -1 12l106 163q4 7 13.5 9.5t36.5 2.5h48q32 0 32 -9q0 -2 -3 -7l-130 -163q-5 -6 -14 -8.5t-27 -2.5h-38q-17 0 -23 3z" />
    <glyph glyph-name="ebreve" unicode="&#x115;" horiz-adv-x="557" 
d="M106 61q-69 71 -69 197q0 82 30 145.5t85.5 99t130.5 35.5q111 0 171 -74t60 -195q0 -30 -2 -41t-8 -11h-324q8 -54 41.5 -82t90.5 -28q65 0 141 32q8 4 13.5 -1.5t13.5 -27.5l9 -25q9 -24 9 -33q0 -5 -3 -8t-7 -6q-38 -22 -90.5 -35t-103.5 -13q-119 0 -188 71zM377 315
q-5 49 -29 78.5t-64 29.5q-41 0 -67.5 -28.5t-36.5 -79.5h197zM173.5 644q-40.5 37 -44.5 104q0 9 8 11.5t35 2.5h15q22 0 29 -2.5t8 -9.5q10 -57 60 -57t60 57q1 7 8 9.5t29 2.5h15q27 0 35 -2.5t8 -11.5q-4 -67 -44.5 -104t-110.5 -37t-110.5 37z" />
    <glyph glyph-name="ecaron" unicode="&#x11b;" horiz-adv-x="557" 
d="M106 61q-69 71 -69 197q0 82 30 145.5t85.5 99t130.5 35.5q111 0 171 -74t60 -195q0 -30 -2 -41t-8 -11h-324q8 -54 41.5 -82t90.5 -28q65 0 141 32q8 4 13.5 -1.5t13.5 -27.5l9 -25q9 -24 9 -33q0 -5 -3 -8t-7 -6q-38 -22 -90.5 -35t-103.5 -13q-119 0 -188 71zM377 315
q-5 49 -29 78.5t-64 29.5q-41 0 -67.5 -28.5t-36.5 -79.5h197zM236.5 601q-12.5 3 -21.5 13l-91 97q-5 5 -5 10q0 8 17 25l10 10q9 9 15.5 14.5t11.5 5.5q3 0 10 -5l101 -88l101 88q7 5 10 5q5 0 11.5 -5.5t15.5 -14.5l10 -10q17 -17 17 -25q0 -5 -5 -10l-91 -97
q-9 -10 -21.5 -13t-40.5 -3h-14q-28 0 -40.5 3z" />
    <glyph glyph-name="ecircumflex" unicode="&#xea;" horiz-adv-x="557" 
d="M106 61q-69 71 -69 197q0 82 30 145.5t85.5 99t130.5 35.5q111 0 171 -74t60 -195q0 -30 -2 -41t-8 -11h-324q8 -54 41.5 -82t90.5 -28q65 0 141 32q8 4 13.5 -1.5t13.5 -27.5l9 -25q9 -24 9 -33q0 -5 -3 -8t-7 -6q-38 -22 -90.5 -35t-103.5 -13q-119 0 -188 71zM377 315
q-5 49 -29 78.5t-64 29.5q-41 0 -67.5 -28.5t-36.5 -79.5h197zM173 598q-5 0 -11.5 5.5t-15.5 14.5l-10 10q-17 17 -17 25q0 5 5 10l91 97q9 10 21.5 13t40.5 3h14q28 0 40.5 -3t21.5 -13l91 -97q5 -5 5 -10q0 -8 -17 -25l-10 -10q-9 -9 -15.5 -14.5t-11.5 -5.5q-3 0 -10 5
l-101 88l-101 -88q-7 -5 -10 -5z" />
    <glyph glyph-name="edieresis" unicode="&#xeb;" horiz-adv-x="557" 
d="M106 61q-69 71 -69 197q0 82 30 145.5t85.5 99t130.5 35.5q111 0 171 -74t60 -195q0 -30 -2 -41t-8 -11h-324q8 -54 41.5 -82t90.5 -28q65 0 141 32q8 4 13.5 -1.5t13.5 -27.5l9 -25q9 -24 9 -33q0 -5 -3 -8t-7 -6q-38 -22 -90.5 -35t-103.5 -13q-119 0 -188 71zM377 315
q-5 49 -29 78.5t-64 29.5q-41 0 -67.5 -28.5t-36.5 -79.5h197zM123 630q-21 20 -21 49q0 30 21 50.5t52 20.5q32 0 52.5 -20.5t20.5 -50.5q0 -29 -20.5 -49t-52.5 -20q-31 0 -52 20zM340 630q-20 20 -20 49q0 30 20 50.5t51 20.5q33 0 54 -20.5t21 -50.5q0 -29 -21 -49
t-54 -20q-31 0 -51 20z" />
    <glyph glyph-name="edotaccent" unicode="&#x117;" horiz-adv-x="557" 
d="M106 61q-69 71 -69 197q0 82 30 145.5t85.5 99t130.5 35.5q111 0 171 -74t60 -195q0 -30 -2 -41t-8 -11h-324q8 -54 41.5 -82t90.5 -28q65 0 141 32q8 4 13.5 -1.5t13.5 -27.5l9 -25q9 -24 9 -33q0 -5 -3 -8t-7 -6q-38 -22 -90.5 -35t-103.5 -13q-119 0 -188 71zM377 315
q-5 49 -29 78.5t-64 29.5q-41 0 -67.5 -28.5t-36.5 -79.5h197zM233 640.5q-22 21.5 -22 51.5t22 51t52 21t51 -21t21 -51t-21 -51.5t-51 -21.5t-52 21.5z" />
    <glyph glyph-name="egrave" unicode="&#xe8;" horiz-adv-x="557" 
d="M106 61q-69 71 -69 197q0 82 30 145.5t85.5 99t130.5 35.5q111 0 171 -74t60 -195q0 -30 -2 -41t-8 -11h-324q8 -54 41.5 -82t90.5 -28q65 0 141 32q8 4 13.5 -1.5t13.5 -27.5l9 -25q9 -24 9 -33q0 -5 -3 -8t-7 -6q-38 -22 -90.5 -35t-103.5 -13q-119 0 -188 71zM377 315
q-5 49 -29 78.5t-64 29.5q-41 0 -67.5 -28.5t-36.5 -79.5h197zM292 598.5q-9 2.5 -14 8.5l-130 163q-3 5 -3 7q0 9 32 9h48q27 0 36.5 -2.5t13.5 -9.5l106 -163q2 -3 2 -7q0 -8 -26 -8h-38q-18 0 -27 2.5z" />
    <glyph glyph-name="emacron" unicode="&#x113;" horiz-adv-x="557" 
d="M106 61q-69 71 -69 197q0 82 30 145.5t85.5 99t130.5 35.5q111 0 171 -74t60 -195q0 -30 -2 -41t-8 -11h-324q8 -54 41.5 -82t90.5 -28q65 0 141 32q8 4 13.5 -1.5t13.5 -27.5l9 -25q9 -24 9 -33q0 -5 -3 -8t-7 -6q-38 -22 -90.5 -35t-103.5 -13q-119 0 -188 71zM377 315
q-5 49 -29 78.5t-64 29.5q-41 0 -67.5 -28.5t-36.5 -79.5h197zM138.5 647.5q-2.5 8.5 -2.5 32.5v14q0 24 2.5 32.5t10.5 8.5h270q8 0 10.5 -8.5t2.5 -32.5v-14q0 -24 -2.5 -32.5t-10.5 -8.5h-270q-8 0 -10.5 8.5z" />
    <glyph glyph-name="eogonek" unicode="&#x119;" horiz-adv-x="557" 
d="M293 -209q-35 31 -35 86q0 63 56 113h-20q-119 0 -188 71t-69 197q0 82 30 145.5t85.5 99t130.5 35.5q111 0 171 -74t60 -195q0 -30 -2 -41t-8 -11h-324q8 -54 41.5 -82t90.5 -28q65 0 141 32q9 4 14 -1.5t13 -27.5l9 -25q9 -25 9 -33q0 -5 -2 -8t-8 -6
q-62 -34 -95.5 -69t-33.5 -73q0 -21 12 -34t32 -13q16 0 39 9q8 3 12 -1.5t11 -24.5l4 -12q6 -18 6 -26t-8 -13q-16 -9 -40 -15t-44 -6q-55 0 -90 31zM377 315q-5 49 -29 78.5t-64 29.5q-41 0 -67.5 -28.5t-36.5 -79.5h197z" />
    <glyph glyph-name="f" unicode="f" horiz-adv-x="381" 
d="M120 1.5q-14 1.5 -17.5 4.5t-3.5 9v406h-70q-8 0 -10.5 8.5t-2.5 41.5v7q0 33 2.5 41.5t10.5 8.5h70v24q0 108 56 166q51 52 144 52q58 0 110 -19q7 -3 7 -13q0 -13 -5 -33l-4 -17q-6 -25 -10.5 -33t-10.5 -6q-37 8 -64 8q-48 0 -67 -26t-19 -83v-20h115q8 0 10.5 -8.5
t2.5 -41.5v-7q0 -33 -2.5 -41.5t-10.5 -8.5h-115v-406q0 -9 -11.5 -12t-53.5 -3h-5q-32 0 -46 1.5z" />
    <glyph glyph-name="g" unicode="g" horiz-adv-x="580" 
d="M180 -221.5q-46 11.5 -77 29.5q-8 5 -8 13q0 12 11 38l7 17q11 25 17 32.5t14 3.5q63 -29 118 -29q58 0 86.5 33.5t28.5 111.5v15q-53 -45 -128 -45q-99 0 -155.5 69.5t-56.5 192.5q0 87 28.5 149.5t78 95.5t112.5 33q39 0 73 -16.5t60 -45.5q1 10 3.5 22t4.5 19
q3 6 10 8.5t37 2.5h10q30 0 39 -2t12 -10q6 -17 7.5 -69t1.5 -142v-262q0 -143 -61 -210q-60 -66 -183 -66q-44 0 -90 11.5zM331 121q21 7 32 19q8 9 11 21.5t3 32.5v165q-16 30 -40 45.5t-51 15.5q-51 0 -79.5 -40.5t-28.5 -119.5q0 -72 27.5 -109t82.5 -37q22 0 43 7z" />
    <glyph glyph-name="gbreve" unicode="&#x11f;" horiz-adv-x="580" 
d="M180 -221.5q-46 11.5 -77 29.5q-8 5 -8 13q0 12 11 38l7 17q11 25 17 32.5t14 3.5q63 -29 118 -29q58 0 86.5 33.5t28.5 111.5v15q-53 -45 -128 -45q-99 0 -155.5 69.5t-56.5 192.5q0 87 28.5 149.5t78 95.5t112.5 33q39 0 73 -16.5t60 -45.5q1 10 3.5 22t4.5 19
q3 6 10 8.5t37 2.5h10q30 0 39 -2t12 -10q6 -17 7.5 -69t1.5 -142v-262q0 -143 -61 -210q-60 -66 -183 -66q-44 0 -90 11.5zM331 121q21 7 32 19q8 9 11 21.5t3 32.5v165q-16 30 -40 45.5t-51 15.5q-51 0 -79.5 -40.5t-28.5 -119.5q0 -72 27.5 -109t82.5 -37q22 0 43 7z
M179.5 644q-40.5 37 -44.5 104q0 9 8 11.5t35 2.5h15q22 0 29 -2.5t8 -9.5q10 -57 60 -57t60 57q1 7 8 9.5t29 2.5h15q27 0 35 -2.5t8 -11.5q-4 -67 -44.5 -104t-110.5 -37t-110.5 37z" />
    <glyph glyph-name="gcircumflex" unicode="&#x11d;" horiz-adv-x="580" 
d="M180 -221.5q-46 11.5 -77 29.5q-8 5 -8 13q0 12 11 38l7 17q11 25 17 32.5t14 3.5q63 -29 118 -29q58 0 86.5 33.5t28.5 111.5v15q-53 -45 -128 -45q-99 0 -155.5 69.5t-56.5 192.5q0 87 28.5 149.5t78 95.5t112.5 33q39 0 73 -16.5t60 -45.5q1 10 3.5 22t4.5 19
q3 6 10 8.5t37 2.5h10q30 0 39 -2t12 -10q6 -17 7.5 -69t1.5 -142v-262q0 -143 -61 -210q-60 -66 -183 -66q-44 0 -90 11.5zM331 121q21 7 32 19q8 9 11 21.5t3 32.5v165q-16 30 -40 45.5t-51 15.5q-51 0 -79.5 -40.5t-28.5 -119.5q0 -72 27.5 -109t82.5 -37q22 0 43 7z
M179 598q-5 0 -11.5 5.5t-15.5 14.5l-10 10q-17 17 -17 25q0 5 5 10l91 97q9 10 21.5 13t40.5 3h14q28 0 40.5 -3t21.5 -13l91 -97q5 -5 5 -10q0 -8 -17 -25l-10 -10q-9 -9 -15.5 -14.5t-11.5 -5.5q-3 0 -10 5l-101 88l-101 -88q-7 -5 -10 -5z" />
    <glyph glyph-name="gcommaaccent" unicode="&#x123;" horiz-adv-x="580" 
d="M237.5 629.5q-18.5 21.5 -18.5 54.5q0 46 25 92t71 86q7 5 10 5q4 0 11 -5l16 -14q6 -4 6 -10q0 -5 -4 -9q-41 -51 -41 -92q0 -9 3.5 -16t11.5 -17q9 -11 13.5 -20t4.5 -22q0 -22 -17 -38t-44 -16q-29 0 -47.5 21.5zM180 -221.5q-46 11.5 -77 29.5q-8 5 -8 13q0 12 11 38
l7 17q11 25 17 32.5t14 3.5q63 -29 118 -29q58 0 86.5 33.5t28.5 111.5v15q-53 -45 -128 -45q-99 0 -155.5 69.5t-56.5 192.5q0 87 28.5 149.5t78 95.5t112.5 33q39 0 73 -16.5t60 -45.5q1 10 3.5 22t4.5 19q3 6 10 8.5t37 2.5h10q30 0 39 -2t12 -10q6 -17 7.5 -69t1.5 -142
v-262q0 -143 -61 -210q-60 -66 -183 -66q-44 0 -90 11.5zM331 121q21 7 32 19q8 9 11 21.5t3 32.5v165q-16 30 -40 45.5t-51 15.5q-51 0 -79.5 -40.5t-28.5 -119.5q0 -72 27.5 -109t82.5 -37q22 0 43 7z" />
    <glyph glyph-name="gdotaccent" unicode="&#x121;" horiz-adv-x="580" 
d="M180 -221.5q-46 11.5 -77 29.5q-8 5 -8 13q0 12 11 38l7 17q11 25 17 32.5t14 3.5q63 -29 118 -29q58 0 86.5 33.5t28.5 111.5v15q-53 -45 -128 -45q-99 0 -155.5 69.5t-56.5 192.5q0 87 28.5 149.5t78 95.5t112.5 33q39 0 73 -16.5t60 -45.5q1 10 3.5 22t4.5 19
q3 6 10 8.5t37 2.5h10q30 0 39 -2t12 -10q6 -17 7.5 -69t1.5 -142v-262q0 -143 -61 -210q-60 -66 -183 -66q-44 0 -90 11.5zM331 121q21 7 32 19q8 9 11 21.5t3 32.5v165q-16 30 -40 45.5t-51 15.5q-51 0 -79.5 -40.5t-28.5 -119.5q0 -72 27.5 -109t82.5 -37q22 0 43 7z
M239 640.5q-22 21.5 -22 51.5t22 51t52 21t51 -21t21 -51t-21 -51.5t-51 -21.5t-52 21.5z" />
    <glyph glyph-name="h" unicode="h" horiz-adv-x="587" 
d="M87 1.5q-14 1.5 -17.5 4.5t-3.5 9v730q0 6 3.5 9t17.5 4.5t46 1.5h5q42 0 53.5 -3t11.5 -12v-260q25 25 59.5 39t75.5 14q45 0 80.5 -14t58.5 -40q25 -28 36 -66t11 -95v-308q0 -9 -11.5 -12t-53.5 -3h-5q-32 0 -46 1.5t-17.5 4.5t-3.5 9v270q0 52 -4 73t-16 35
q-10 11 -27.5 17t-39.5 6q-41 0 -67 -16q-15 -9 -20.5 -21t-7.5 -32q-2 -23 -2 -98v-234q0 -9 -11.5 -12t-53.5 -3h-5q-32 0 -46 1.5z" />
    <glyph glyph-name="hbar" unicode="&#x127;" horiz-adv-x="587" 
d="M87 1.5q-14 1.5 -17.5 4.5t-3.5 9v582h-60q-8 0 -11 9t-3 40t3 40t11 9h60v50q0 6 3.5 9t17.5 4.5t46 1.5h5q42 0 53.5 -3t11.5 -12v-50h130q8 0 11 -9t3 -40t-3 -40t-11 -9h-130v-112q25 25 59.5 39t75.5 14q45 0 80.5 -14t58.5 -40q25 -28 36 -66t11 -95v-308
q0 -9 -11.5 -12t-53.5 -3h-5q-32 0 -46 1.5t-17.5 4.5t-3.5 9v270q0 52 -4 73t-16 35q-10 11 -27.5 17t-39.5 6q-41 0 -67 -16q-15 -9 -20.5 -21t-7.5 -32q-2 -23 -2 -98v-234q0 -9 -11.5 -12t-53.5 -3h-5q-32 0 -46 1.5z" />
    <glyph glyph-name="hcircumflex" unicode="&#x125;" horiz-adv-x="587" 
d="M87 1.5q-14 1.5 -17.5 4.5t-3.5 9v730q0 6 3.5 9t17.5 4.5t46 1.5h5q42 0 53.5 -3t11.5 -12v-260q25 25 59.5 39t75.5 14q45 0 80.5 -14t58.5 -40q25 -28 36 -66t11 -95v-308q0 -9 -11.5 -12t-53.5 -3h-5q-32 0 -46 1.5t-17.5 4.5t-3.5 9v270q0 52 -4 73t-16 35
q-10 11 -27.5 17t-39.5 6q-41 0 -67 -16q-15 -9 -20.5 -21t-7.5 -32q-2 -23 -2 -98v-234q0 -9 -11.5 -12t-53.5 -3h-5q-32 0 -46 1.5zM24 766q-5 0 -11.5 5.5t-15.5 14.5l-10 10q-17 17 -17 25q0 5 5 10l91 97q9 10 21.5 13t40.5 3h14q28 0 40.5 -3t21.5 -13l91 -97
q5 -5 5 -10q0 -8 -17 -25l-10 -10q-9 -9 -15.5 -14.5t-11.5 -5.5q-3 0 -10 5l-101 88l-101 -88q-7 -5 -10 -5z" />
    <glyph glyph-name="i" unicode="i" horiz-adv-x="277" 
d="M76.5 632.5q-24.5 24.5 -24.5 57.5q0 34 24.5 58t59.5 24q36 0 60 -24t24 -58q0 -33 -24 -57.5t-60 -24.5q-35 0 -59.5 24.5zM91 1.5q-14 1.5 -17.5 4.5t-3.5 9v498q0 6 3.5 9t17.5 4.5t46 1.5h5q42 0 53.5 -3t11.5 -12v-498q0 -9 -11.5 -12t-53.5 -3h-5q-32 0 -46 1.5z
" />
    <glyph glyph-name="dotlessi" unicode="&#x131;" horiz-adv-x="277" 
d="M91 1.5q-14 1.5 -17.5 4.5t-3.5 9v498q0 6 3.5 9t17.5 4.5t46 1.5h5q42 0 53.5 -3t11.5 -12v-498q0 -9 -11.5 -12t-53.5 -3h-5q-32 0 -46 1.5z" />
    <glyph glyph-name="iacute" unicode="&#xed;" horiz-adv-x="277" 
d="M91 1.5q-14 1.5 -17.5 4.5t-3.5 9v498q0 6 3.5 9t17.5 4.5t46 1.5h5q42 0 53.5 -3t11.5 -12v-498q0 -9 -11.5 -12t-53.5 -3h-5q-32 0 -46 1.5zM43 599q-6 3 -1 12l106 163q4 7 13.5 9.5t36.5 2.5h48q32 0 32 -9q0 -2 -3 -7l-130 -163q-5 -6 -14 -8.5t-27 -2.5h-38
q-17 0 -23 3z" />
    <glyph glyph-name="iacute_j.loclNLD" horiz-adv-x="568" 
d="M91 1.5q-14 1.5 -17.5 4.5t-3.5 9v498q0 6 3.5 9t17.5 4.5t46 1.5h5q42 0 53.5 -3t11.5 -12v-498q0 -9 -11.5 -12t-53.5 -3h-5q-32 0 -46 1.5zM43 599q-6 3 -1 12l106 163q4 7 13.5 9.5t36.5 2.5h48q32 0 32 -9q0 -2 -3 -7l-130 -163q-5 -6 -14 -8.5t-27 -2.5h-38
q-17 0 -23 3zM249.5 -227.5q-28.5 5.5 -42.5 13.5q-9 4 -9 14q0 7 6 36l4 17q6 25 10.5 31t16.5 3q27 -6 54 -6q40 0 56 24.5t16 79.5v528q0 6 3.5 9t17.5 4.5t46 1.5h5q42 0 53.5 -3t11.5 -12v-508q0 -238 -192 -238q-28 0 -56.5 5.5zM334 599q-6 3 -1 12l106 163
q4 7 13.5 9.5t36.5 2.5h48q32 0 32 -9q0 -2 -3 -7l-130 -163q-5 -6 -14 -8.5t-27 -2.5h-38q-17 0 -23 3z" />
    <glyph glyph-name="ibreve" unicode="&#x12d;" horiz-adv-x="277" 
d="M91 1.5q-14 1.5 -17.5 4.5t-3.5 9v498q0 6 3.5 9t17.5 4.5t46 1.5h5q42 0 53.5 -3t11.5 -12v-498q0 -9 -11.5 -12t-53.5 -3h-5q-32 0 -46 1.5zM28.5 644q-40.5 37 -44.5 104q0 9 8 11.5t35 2.5h15q22 0 29 -2.5t8 -9.5q10 -57 60 -57t60 57q1 7 8 9.5t29 2.5h15
q27 0 35 -2.5t8 -11.5q-4 -67 -44.5 -104t-110.5 -37t-110.5 37z" />
    <glyph glyph-name="icircumflex" unicode="&#xee;" horiz-adv-x="277" 
d="M91 1.5q-14 1.5 -17.5 4.5t-3.5 9v498q0 6 3.5 9t17.5 4.5t46 1.5h5q42 0 53.5 -3t11.5 -12v-498q0 -9 -11.5 -12t-53.5 -3h-5q-32 0 -46 1.5zM28 598q-5 0 -11.5 5.5t-15.5 14.5l-10 10q-17 17 -17 25q0 5 5 10l91 97q9 10 21.5 13t40.5 3h14q28 0 40.5 -3t21.5 -13
l91 -97q5 -5 5 -10q0 -8 -17 -25l-10 -10q-9 -9 -15.5 -14.5t-11.5 -5.5q-3 0 -10 5l-101 88l-101 -88q-7 -5 -10 -5z" />
    <glyph glyph-name="idieresis" unicode="&#xef;" horiz-adv-x="277" 
d="M91 1.5q-14 1.5 -17.5 4.5t-3.5 9v498q0 6 3.5 9t17.5 4.5t46 1.5h5q42 0 53.5 -3t11.5 -12v-498q0 -9 -11.5 -12t-53.5 -3h-5q-32 0 -46 1.5zM-22 630q-21 20 -21 49q0 30 21 50.5t52 20.5q32 0 52.5 -20.5t20.5 -50.5q0 -29 -20.5 -49t-52.5 -20q-31 0 -52 20zM195 630
q-20 20 -20 49q0 30 20 50.5t51 20.5q33 0 54 -20.5t21 -50.5q0 -29 -21 -49t-54 -20q-31 0 -51 20z" />
    <glyph glyph-name="i.loclTRK" horiz-adv-x="277" 
d="M91 1.5q-14 1.5 -17.5 4.5t-3.5 9v498q0 6 3.5 9t17.5 4.5t46 1.5h5q42 0 53.5 -3t11.5 -12v-498q0 -9 -11.5 -12t-53.5 -3h-5q-32 0 -46 1.5zM88 640.5q-22 21.5 -22 51.5t22 51t52 21t51 -21t21 -51t-21 -51.5t-51 -21.5t-52 21.5z" />
    <glyph glyph-name="igrave" unicode="&#xec;" horiz-adv-x="277" 
d="M91 1.5q-14 1.5 -17.5 4.5t-3.5 9v498q0 6 3.5 9t17.5 4.5t46 1.5h5q42 0 53.5 -3t11.5 -12v-498q0 -9 -11.5 -12t-53.5 -3h-5q-32 0 -46 1.5zM147 598.5q-9 2.5 -14 8.5l-130 163q-3 5 -3 7q0 9 32 9h48q27 0 36.5 -2.5t13.5 -9.5l106 -163q2 -3 2 -7q0 -8 -26 -8h-38
q-18 0 -27 2.5z" />
    <glyph glyph-name="ij" unicode="&#x133;" horiz-adv-x="568" 
d="M76.5 632.5q-24.5 24.5 -24.5 57.5q0 34 24.5 58t59.5 24q36 0 60 -24t24 -58q0 -33 -24 -57.5t-60 -24.5q-35 0 -59.5 24.5zM91 1.5q-14 1.5 -17.5 4.5t-3.5 9v498q0 6 3.5 9t17.5 4.5t46 1.5h5q42 0 53.5 -3t11.5 -12v-498q0 -9 -11.5 -12t-53.5 -3h-5q-32 0 -46 1.5z
M367.5 632.5q-24.5 24.5 -24.5 57.5q0 34 24.5 58t59.5 24q36 0 60 -24t24 -58q0 -33 -24 -57.5t-60 -24.5q-35 0 -59.5 24.5zM249.5 -227.5q-28.5 5.5 -42.5 13.5q-9 4 -9 14q0 7 6 36l4 17q6 25 10.5 31t16.5 3q27 -6 54 -6q40 0 56 24.5t16 79.5v528q0 6 3.5 9t17.5 4.5
t46 1.5h5q42 0 53.5 -3t11.5 -12v-508q0 -238 -192 -238q-28 0 -56.5 5.5z" />
    <glyph glyph-name="imacron" unicode="&#x12b;" horiz-adv-x="277" 
d="M91 1.5q-14 1.5 -17.5 4.5t-3.5 9v498q0 6 3.5 9t17.5 4.5t46 1.5h5q42 0 53.5 -3t11.5 -12v-498q0 -9 -11.5 -12t-53.5 -3h-5q-32 0 -46 1.5zM-6.5 647.5q-2.5 8.5 -2.5 32.5v14q0 24 2.5 32.5t10.5 8.5h270q8 0 10.5 -8.5t2.5 -32.5v-14q0 -24 -2.5 -32.5t-10.5 -8.5
h-270q-8 0 -10.5 8.5z" />
    <glyph glyph-name="iogonek" unicode="&#x12f;" horiz-adv-x="277" 
d="M76.5 632.5q-24.5 24.5 -24.5 57.5q0 34 24.5 58t59.5 24q36 0 60 -24t24 -58q0 -33 -24 -57.5t-60 -24.5q-35 0 -59.5 24.5zM38.5 -203.5q-35.5 30.5 -35.5 82.5q0 36 18 68t49 54v512q0 6 3.5 9t17.5 4.5t46 1.5h5q42 0 53.5 -3t11.5 -12v-495q0 -8 -6 -12t-20 -9
q-16 -5 -28.5 -11.5t-23.5 -19.5q-25 -28 -25 -63q0 -23 11 -35.5t31 -12.5q15 0 44 11q6 2 10.5 -3t11.5 -24l4 -12q6 -18 6 -25q0 -8 -8 -14q-16 -10 -40 -16t-46 -6q-54 0 -89.5 30.5z" />
    <glyph glyph-name="itilde" unicode="&#x129;" horiz-adv-x="277" 
d="M91 1.5q-14 1.5 -17.5 4.5t-3.5 9v498q0 6 3.5 9t17.5 4.5t46 1.5h5q42 0 53.5 -3t11.5 -12v-498q0 -9 -11.5 -12t-53.5 -3h-5q-32 0 -46 1.5zM162.5 625.5q-15.5 5.5 -37.5 16.5q-12 6 -23.5 10.5t-20.5 4.5q-27 0 -59 -32q-4 -4 -12 -1t-24 19l-4 4q-20 20 -20 28
q0 3 4 9q54 67 115 67q19 0 34.5 -5.5t37.5 -16.5q11 -6 22.5 -10.5t20.5 -4.5q27 0 59 32q4 4 12 1t24 -19l4 -4q20 -20 20 -28q0 -3 -4 -9q-54 -67 -115 -67q-18 0 -33.5 5.5z" />
    <glyph glyph-name="j" unicode="j" horiz-adv-x="291" 
d="M90.5 632.5q-24.5 24.5 -24.5 57.5q0 34 24.5 58t59.5 24q36 0 60 -24t24 -58q0 -33 -24 -57.5t-60 -24.5q-35 0 -59.5 24.5zM-27.5 -227.5q-28.5 5.5 -42.5 13.5q-9 4 -9 14q0 7 6 36l4 17q6 25 10.5 31t16.5 3q27 -6 54 -6q40 0 56 24.5t16 79.5v528q0 6 3.5 9
t17.5 4.5t46 1.5h5q42 0 53.5 -3t11.5 -12v-508q0 -238 -192 -238q-28 0 -56.5 5.5z" />
    <glyph glyph-name="uni0237" unicode="&#x237;" horiz-adv-x="291" 
d="M-27.5 -227.5q-28.5 5.5 -42.5 13.5q-9 4 -9 14q0 7 6 36l4 17q6 25 10.5 31t16.5 3q27 -6 54 -6q40 0 56 24.5t16 79.5v528q0 6 3.5 9t17.5 4.5t46 1.5h5q42 0 53.5 -3t11.5 -12v-508q0 -238 -192 -238q-28 0 -56.5 5.5z" />
    <glyph glyph-name="jcircumflex" unicode="&#x135;" horiz-adv-x="291" 
d="M-27.5 -227.5q-28.5 5.5 -42.5 13.5q-9 4 -9 14q0 7 6 36l4 17q6 25 10.5 31t16.5 3q27 -6 54 -6q40 0 56 24.5t16 79.5v528q0 6 3.5 9t17.5 4.5t46 1.5h5q42 0 53.5 -3t11.5 -12v-508q0 -238 -192 -238q-28 0 -56.5 5.5zM42 598q-5 0 -11.5 5.5t-15.5 14.5l-10 10
q-17 17 -17 25q0 5 5 10l91 97q9 10 21.5 13t40.5 3h14q28 0 40.5 -3t21.5 -13l91 -97q5 -5 5 -10q0 -8 -17 -25l-10 -10q-9 -9 -15.5 -14.5t-11.5 -5.5q-3 0 -10 5l-101 88l-101 -88q-7 -5 -10 -5z" />
    <glyph glyph-name="k" unicode="k" horiz-adv-x="530" 
d="M87 1.5q-14 1.5 -17.5 4.5t-3.5 9v730q0 6 3.5 9t17.5 4.5t46 1.5h5q42 0 53.5 -3t11.5 -12v-412q68 67 156 182q6 8 17 10.5t49 2.5h16q37 0 47.5 -4t6.5 -13q-22 -47 -69.5 -107.5t-102.5 -111.5l200 -271q15 -21 -62 -21h-13q-49 0 -62 2.5t-20 12.5l-163 224v-224
q0 -9 -11.5 -12t-53.5 -3h-5q-32 0 -46 1.5z" />
    <glyph glyph-name="kcommaaccent" unicode="&#x137;" horiz-adv-x="530" 
d="M87 1.5q-14 1.5 -17.5 4.5t-3.5 9v730q0 6 3.5 9t17.5 4.5t46 1.5h5q42 0 53.5 -3t11.5 -12v-412q68 67 156 182q6 8 17 10.5t49 2.5h16q37 0 47.5 -4t6.5 -13q-22 -47 -69.5 -107.5t-102.5 -111.5l200 -271q15 -21 -62 -21h-13q-49 0 -62 2.5t-20 12.5l-163 224v-224
q0 -9 -11.5 -12t-53.5 -3h-5q-32 0 -46 1.5zM217 -299q-6 4 -6 10q0 5 4 9q41 51 41 92q0 9 -3.5 16t-11.5 17q-9 11 -13.5 20t-4.5 22q0 22 17 38t44 16q29 0 47.5 -21.5t18.5 -54.5q0 -46 -25 -92t-71 -86q-7 -5 -10 -5q-4 0 -11 5z" />
    <glyph glyph-name="kgreenlandic" unicode="&#x138;" horiz-adv-x="530" 
d="M87 1.5q-14 1.5 -17.5 4.5t-3.5 9v498q0 6 3.5 9t17.5 4.5t46 1.5h5q42 0 53.5 -3t11.5 -12v-180q68 67 156 182q6 8 17 10.5t49 2.5h16q37 0 47.5 -4t6.5 -13q-22 -47 -69.5 -107.5t-102.5 -111.5l200 -271q15 -21 -62 -21h-13q-49 0 -62 2.5t-20 12.5l-163 224v-224
q0 -9 -11.5 -12t-53.5 -3h-5q-32 0 -46 1.5z" />
    <glyph glyph-name="l" unicode="l" horiz-adv-x="298" 
d="M100 25q-17 17 -24.5 42.5t-7.5 62.5v347q0 67 -3 153.5t-5 116.5q-1 6 2.5 8.5t19.5 3.5t43 1h5q41 0 52.5 -2.5t13.5 -10.5q9 -43 9 -291v-318q0 -18 7.5 -26t25.5 -8h12q7 0 8.5 -8t1.5 -36v-9q0 -27 -1.5 -34t-7.5 -10q-26 -12 -67 -12q-54 0 -84 30z" />
    <glyph glyph-name="lacute" unicode="&#x13a;" horiz-adv-x="298" 
d="M100 25q-17 17 -24.5 42.5t-7.5 62.5v347q0 67 -3 153.5t-5 116.5q-1 6 2.5 8.5t19.5 3.5t43 1h5q41 0 52.5 -2.5t13.5 -10.5q9 -43 9 -291v-318q0 -18 7.5 -26t25.5 -8h12q7 0 8.5 -8t1.5 -36v-9q0 -27 -1.5 -34t-7.5 -10q-26 -12 -67 -12q-54 0 -84 30zM45 802
q-6 3 -1 12l106 163q4 7 13.5 9.5t36.5 2.5h48q32 0 32 -9q0 -2 -3 -7l-130 -163q-5 -6 -14 -8.5t-27 -2.5h-38q-17 0 -23 3z" />
    <glyph glyph-name="lcaron" unicode="&#x13e;" horiz-adv-x="372" 
d="M100 25q-17 17 -24.5 42.5t-7.5 62.5v347q0 67 -3 153.5t-5 116.5q-1 6 2.5 8.5t19.5 3.5t43 1h5q41 0 52.5 -2.5t13.5 -10.5q9 -43 9 -291v-318q0 -18 7.5 -26t25.5 -8h12q7 0 8.5 -8t1.5 -36v-9q0 -27 -1.5 -34t-7.5 -10q-26 -12 -67 -12q-54 0 -84 30zM249 490
q-6 4 -6 10q0 5 4 9q41 51 41 92q0 9 -3.5 16t-11.5 17q-9 11 -13.5 20t-4.5 22q0 22 17 38t44 16q29 0 47.5 -21.5t18.5 -54.5q0 -46 -25 -92t-71 -86q-7 -5 -10 -5q-4 0 -11 5z" />
    <glyph glyph-name="lcommaaccent" unicode="&#x13c;" horiz-adv-x="298" 
d="M100 25q-17 17 -24.5 42.5t-7.5 62.5v347q0 67 -3 153.5t-5 116.5q-1 6 2.5 8.5t19.5 3.5t43 1h5q41 0 52.5 -2.5t13.5 -10.5q9 -43 9 -291v-318q0 -18 7.5 -26t25.5 -8h12q7 0 8.5 -8t1.5 -36v-9q0 -27 -1.5 -34t-7.5 -10q-26 -12 -67 -12q-54 0 -84 30zM88 -299
q-6 4 -6 10q0 5 4 9q41 51 41 92q0 9 -3.5 16t-11.5 17q-9 11 -13.5 20t-4.5 22q0 22 17 38t44 16q29 0 47.5 -21.5t18.5 -54.5q0 -46 -25 -92t-71 -86q-7 -5 -10 -5q-4 0 -11 5z" />
    <glyph glyph-name="ldot" unicode="&#x140;" horiz-adv-x="412" 
d="M100 25q-17 17 -24.5 42.5t-7.5 62.5v347q0 67 -3 153.5t-5 116.5q-1 6 2.5 8.5t19.5 3.5t43 1h5q41 0 52.5 -2.5t13.5 -10.5q9 -43 9 -291v-318q0 -18 7.5 -26t25.5 -8h12q7 0 8.5 -8t1.5 -36v-9q0 -27 -1.5 -34t-7.5 -10q-26 -12 -67 -12q-54 0 -84 30zM281 319.5
q-22 21.5 -22 51.5t22 51t52 21t51 -21t21 -51t-21 -51.5t-51 -21.5t-52 21.5z" />
    <glyph glyph-name="lslash" unicode="&#x142;" horiz-adv-x="387" 
d="M159 25q-17 17 -24.5 42.5t-7.5 62.5v146l-85 -46q-4 -3 -8 -3q-6 0 -8 9t-2 31v27q0 31 3 42t11 16l89 49v76q0 67 -3 153.5t-5 116.5q-1 6 2.5 8.5t19.5 3.5t43 1h5q41 0 52.5 -2.5t13.5 -10.5q7 -40 9 -271l85 47q4 3 8 3q6 0 8 -9t2 -31v-28q0 -31 -3 -42t-11 -16
l-89 -49v-213q0 -18 7.5 -26t25.5 -8h12q7 0 8.5 -8t1.5 -36v-9q0 -27 -1.5 -34t-7.5 -10q-26 -12 -67 -12q-54 0 -84 30z" />
    <glyph glyph-name="m" unicode="m" horiz-adv-x="890" 
d="M89 1.5q-14 1.5 -17.5 4.5t-3.5 9v276q0 125 -7 219q-1 8 2.5 11.5t16 5t41.5 1.5h5q37 0 48 -2.5t14 -10.5q4 -11 8 -43q26 30 63 48t78 18q48 0 89 -20.5t61 -58.5q30 38 71 58.5t88 20.5q43 0 77 -14t57 -40q25 -28 36 -66t11 -95v-308q0 -9 -11.5 -12t-53.5 -3h-5
q-32 0 -46 1.5t-17.5 4.5t-3.5 9v270q0 52 -4 73t-16 35q-20 23 -63 23q-36 0 -61 -15q-15 -9 -20.5 -21t-7.5 -32q-2 -23 -2 -98v-235q0 -9 -11.5 -12t-53.5 -3h-5q-32 0 -46 1.5t-17.5 4.5t-3.5 9v270q0 52 -4 73t-16 35q-20 23 -63 23q-36 0 -61 -15q-15 -9 -20.5 -21
t-7.5 -32q-2 -23 -2 -98v-235q0 -9 -11.5 -12t-53.5 -3h-5q-32 0 -46 1.5z" />
    <glyph glyph-name="n" unicode="n" horiz-adv-x="589" 
d="M89 1.5q-14 1.5 -17.5 4.5t-3.5 9v276q0 125 -7 219q-1 8 2.5 11.5t16 5t41.5 1.5h5q37 0 48 -2.5t14 -10.5t7 -40q25 29 63 46t82 17q45 0 80.5 -14t58.5 -40q25 -28 36 -66t11 -95v-308q0 -9 -11.5 -12t-53.5 -3h-5q-32 0 -46 1.5t-17.5 4.5t-3.5 9v270q0 52 -4 73
t-16 35q-10 11 -27.5 17t-39.5 6q-41 0 -67 -16q-15 -9 -20.5 -21t-7.5 -32q-2 -23 -2 -98v-234q0 -9 -11.5 -12t-53.5 -3h-5q-32 0 -46 1.5z" />
    <glyph glyph-name="nacute" unicode="&#x144;" horiz-adv-x="589" 
d="M89 1.5q-14 1.5 -17.5 4.5t-3.5 9v276q0 125 -7 219q-1 8 2.5 11.5t16 5t41.5 1.5h5q37 0 48 -2.5t14 -10.5t7 -40q25 29 63 46t82 17q45 0 80.5 -14t58.5 -40q25 -28 36 -66t11 -95v-308q0 -9 -11.5 -12t-53.5 -3h-5q-32 0 -46 1.5t-17.5 4.5t-3.5 9v270q0 52 -4 73
t-16 35q-10 11 -27.5 17t-39.5 6q-41 0 -67 -16q-15 -9 -20.5 -21t-7.5 -32q-2 -23 -2 -98v-234q0 -9 -11.5 -12t-53.5 -3h-5q-32 0 -46 1.5zM225 599q-6 3 -1 12l106 163q4 7 13.5 9.5t36.5 2.5h48q32 0 32 -9q0 -2 -3 -7l-130 -163q-5 -6 -14 -8.5t-27 -2.5h-38
q-17 0 -23 3z" />
    <glyph glyph-name="nacute.loclPLK" horiz-adv-x="589" 
d="M89 1.5q-14 1.5 -17.5 4.5t-3.5 9v276q0 125 -7 219q-1 8 2.5 11.5t16 5t41.5 1.5h5q37 0 48 -2.5t14 -10.5t7 -40q25 29 63 46t82 17q45 0 80.5 -14t58.5 -40q25 -28 36 -66t11 -95v-308q0 -9 -11.5 -12t-53.5 -3h-5q-32 0 -46 1.5t-17.5 4.5t-3.5 9v270q0 52 -4 73
t-16 35q-10 11 -27.5 17t-39.5 6q-41 0 -67 -16q-15 -9 -20.5 -21t-7.5 -32q-2 -23 -2 -98v-234q0 -9 -11.5 -12t-53.5 -3h-5q-32 0 -46 1.5zM268.5 599q-6.5 3 -4.5 12l48 163q2 8 10.5 10t35.5 2h44q24 0 31.5 -3.5t3.5 -12.5l-73 -163q-3 -6 -10.5 -8.5t-26.5 -2.5h-34
q-18 0 -24.5 3z" />
    <glyph glyph-name="napostrophe" unicode="&#x149;" horiz-adv-x="719" 
d="M219 1.5q-14 1.5 -17.5 4.5t-3.5 9v276q0 125 -7 219q-1 8 2.5 11.5t16 5t41.5 1.5h5q37 0 48 -2.5t14 -10.5t7 -40q25 29 63 46t82 17q45 0 80.5 -14t58.5 -40q25 -28 36 -66t11 -95v-308q0 -9 -11.5 -12t-53.5 -3h-5q-32 0 -46 1.5t-17.5 4.5t-3.5 9v270q0 52 -4 73
t-16 35q-10 11 -27.5 17t-39.5 6q-41 0 -67 -16q-15 -9 -20.5 -21t-7.5 -32q-2 -23 -2 -98v-234q0 -9 -11.5 -12t-53.5 -3h-5q-32 0 -46 1.5zM33 387q-5 0 -15 8l-18 16q-10 10 -10 14q0 5 6 12q55 71 55 121q0 15 -5.5 25.5t-16.5 22.5q-11 13 -17 24t-6 28q0 28 22 50
t55 22q39 0 64 -27.5t25 -71.5q0 -60 -33 -121t-92 -116q-9 -7 -14 -7z" />
    <glyph glyph-name="ncaron" unicode="&#x148;" horiz-adv-x="589" 
d="M89 1.5q-14 1.5 -17.5 4.5t-3.5 9v276q0 125 -7 219q-1 8 2.5 11.5t16 5t41.5 1.5h5q37 0 48 -2.5t14 -10.5t7 -40q25 29 63 46t82 17q45 0 80.5 -14t58.5 -40q25 -28 36 -66t11 -95v-308q0 -9 -11.5 -12t-53.5 -3h-5q-32 0 -46 1.5t-17.5 4.5t-3.5 9v270q0 52 -4 73
t-16 35q-10 11 -27.5 17t-39.5 6q-41 0 -67 -16q-15 -9 -20.5 -21t-7.5 -32q-2 -23 -2 -98v-234q0 -9 -11.5 -12t-53.5 -3h-5q-32 0 -46 1.5zM273.5 601q-12.5 3 -21.5 13l-91 97q-5 5 -5 10q0 8 17 25l10 10q9 9 15.5 14.5t11.5 5.5q3 0 10 -5l101 -88l101 88q7 5 10 5
q5 0 11.5 -5.5t15.5 -14.5l10 -10q17 -17 17 -25q0 -5 -5 -10l-91 -97q-9 -10 -21.5 -13t-40.5 -3h-14q-28 0 -40.5 3z" />
    <glyph glyph-name="ncommaaccent" unicode="&#x146;" horiz-adv-x="589" 
d="M89 1.5q-14 1.5 -17.5 4.5t-3.5 9v276q0 125 -7 219q-1 8 2.5 11.5t16 5t41.5 1.5h5q37 0 48 -2.5t14 -10.5t7 -40q25 29 63 46t82 17q45 0 80.5 -14t58.5 -40q25 -28 36 -66t11 -95v-308q0 -9 -11.5 -12t-53.5 -3h-5q-32 0 -46 1.5t-17.5 4.5t-3.5 9v270q0 52 -4 73
t-16 35q-10 11 -27.5 17t-39.5 6q-41 0 -67 -16q-15 -9 -20.5 -21t-7.5 -32q-2 -23 -2 -98v-234q0 -9 -11.5 -12t-53.5 -3h-5q-32 0 -46 1.5zM231 -299q-6 4 -6 10q0 5 4 9q41 51 41 92q0 9 -3.5 16t-11.5 17q-9 11 -13.5 20t-4.5 22q0 22 17 38t44 16q29 0 47.5 -21.5
t18.5 -54.5q0 -46 -25 -92t-71 -86q-7 -5 -10 -5q-4 0 -11 5z" />
    <glyph glyph-name="eng" unicode="&#x14b;" horiz-adv-x="589" 
d="M277.5 -177.5q-28.5 5.5 -42.5 13.5q-9 4 -9 14q0 7 6 36l4 17q6 25 10.5 31t16.5 3q27 -6 54 -6q40 0 56 24.5t16 79.5v250q0 52 -4 73t-16 35q-10 11 -27.5 17t-39.5 6q-41 0 -67 -16q-15 -9 -20.5 -21t-7.5 -32q-2 -23 -2 -98v-234q0 -9 -11.5 -12t-53.5 -3h-5
q-32 0 -46 1.5t-17.5 4.5t-3.5 9v276q0 125 -7 219q-1 8 2.5 11.5t16 5t41.5 1.5h5q37 0 48 -2.5t14 -10.5t7 -40q25 29 63 46t82 17q45 0 80.5 -14t58.5 -40q25 -28 36 -66t11 -95v-268q0 -238 -192 -238q-28 0 -56.5 5.5z" />
    <glyph glyph-name="ntilde" unicode="&#xf1;" horiz-adv-x="589" 
d="M89 1.5q-14 1.5 -17.5 4.5t-3.5 9v276q0 125 -7 219q-1 8 2.5 11.5t16 5t41.5 1.5h5q37 0 48 -2.5t14 -10.5t7 -40q25 29 63 46t82 17q45 0 80.5 -14t58.5 -40q25 -28 36 -66t11 -95v-308q0 -9 -11.5 -12t-53.5 -3h-5q-32 0 -46 1.5t-17.5 4.5t-3.5 9v270q0 52 -4 73
t-16 35q-10 11 -27.5 17t-39.5 6q-41 0 -67 -16q-15 -9 -20.5 -21t-7.5 -32q-2 -23 -2 -98v-234q0 -9 -11.5 -12t-53.5 -3h-5q-32 0 -46 1.5zM344.5 625.5q-15.5 5.5 -37.5 16.5q-12 6 -23.5 10.5t-20.5 4.5q-27 0 -59 -32q-4 -4 -12 -1t-24 19l-4 4q-20 20 -20 28q0 3 4 9
q54 67 115 67q19 0 34.5 -5.5t37.5 -16.5q11 -6 22.5 -10.5t20.5 -4.5q27 0 59 32q4 4 12 1t24 -19l4 -4q20 -20 20 -28q0 -3 -4 -9q-54 -67 -115 -67q-18 0 -33.5 5.5z" />
    <glyph glyph-name="o" unicode="o" horiz-adv-x="571" 
d="M100.5 58q-63.5 68 -63.5 196q0 136 66 210t191 74q113 0 176.5 -68t63.5 -196q0 -136 -66 -210t-191 -74q-113 0 -176.5 68zM393 268q0 152 -102 152q-113 0 -113 -160q0 -152 102 -152q113 0 113 160z" />
    <glyph glyph-name="oacute" unicode="&#xf3;" horiz-adv-x="571" 
d="M100.5 58q-63.5 68 -63.5 196q0 136 66 210t191 74q113 0 176.5 -68t63.5 -196q0 -136 -66 -210t-191 -74q-113 0 -176.5 68zM393 268q0 152 -102 152q-113 0 -113 -160q0 -152 102 -152q113 0 113 160zM196 599q-6 3 -1 12l106 163q4 7 13.5 9.5t36.5 2.5h48q32 0 32 -9
q0 -2 -3 -7l-130 -163q-5 -6 -14 -8.5t-27 -2.5h-38q-17 0 -23 3z" />
    <glyph glyph-name="oacute.loclPLK" horiz-adv-x="571" 
d="M100.5 58q-63.5 68 -63.5 196q0 136 66 210t191 74q113 0 176.5 -68t63.5 -196q0 -136 -66 -210t-191 -74q-113 0 -176.5 68zM393 268q0 152 -102 152q-113 0 -113 -160q0 -152 102 -152q113 0 113 160zM239.5 599q-6.5 3 -4.5 12l48 163q2 8 10.5 10t35.5 2h44
q24 0 31.5 -3.5t3.5 -12.5l-73 -163q-3 -6 -10.5 -8.5t-26.5 -2.5h-34q-18 0 -24.5 3z" />
    <glyph glyph-name="obreve" unicode="&#x14f;" horiz-adv-x="571" 
d="M100.5 58q-63.5 68 -63.5 196q0 136 66 210t191 74q113 0 176.5 -68t63.5 -196q0 -136 -66 -210t-191 -74q-113 0 -176.5 68zM393 268q0 152 -102 152q-113 0 -113 -160q0 -152 102 -152q113 0 113 160zM181.5 644q-40.5 37 -44.5 104q0 9 8 11.5t35 2.5h15q22 0 29 -2.5
t8 -9.5q10 -57 60 -57t60 57q1 7 8 9.5t29 2.5h15q27 0 35 -2.5t8 -11.5q-4 -67 -44.5 -104t-110.5 -37t-110.5 37z" />
    <glyph glyph-name="ocircumflex" unicode="&#xf4;" horiz-adv-x="571" 
d="M100.5 58q-63.5 68 -63.5 196q0 136 66 210t191 74q113 0 176.5 -68t63.5 -196q0 -136 -66 -210t-191 -74q-113 0 -176.5 68zM393 268q0 152 -102 152q-113 0 -113 -160q0 -152 102 -152q113 0 113 160zM181 598q-5 0 -11.5 5.5t-15.5 14.5l-10 10q-17 17 -17 25
q0 5 5 10l91 97q9 10 21.5 13t40.5 3h14q28 0 40.5 -3t21.5 -13l91 -97q5 -5 5 -10q0 -8 -17 -25l-10 -10q-9 -9 -15.5 -14.5t-11.5 -5.5q-3 0 -10 5l-101 88l-101 -88q-7 -5 -10 -5z" />
    <glyph glyph-name="odieresis" unicode="&#xf6;" horiz-adv-x="571" 
d="M100.5 58q-63.5 68 -63.5 196q0 136 66 210t191 74q113 0 176.5 -68t63.5 -196q0 -136 -66 -210t-191 -74q-113 0 -176.5 68zM393 268q0 152 -102 152q-113 0 -113 -160q0 -152 102 -152q113 0 113 160zM131 630q-21 20 -21 49q0 30 21 50.5t52 20.5q32 0 52.5 -20.5
t20.5 -50.5q0 -29 -20.5 -49t-52.5 -20q-31 0 -52 20zM348 630q-20 20 -20 49q0 30 20 50.5t51 20.5q33 0 54 -20.5t21 -50.5q0 -29 -21 -49t-54 -20q-31 0 -51 20z" />
    <glyph glyph-name="ograve" unicode="&#xf2;" horiz-adv-x="571" 
d="M100.5 58q-63.5 68 -63.5 196q0 136 66 210t191 74q113 0 176.5 -68t63.5 -196q0 -136 -66 -210t-191 -74q-113 0 -176.5 68zM393 268q0 152 -102 152q-113 0 -113 -160q0 -152 102 -152q113 0 113 160zM300 598.5q-9 2.5 -14 8.5l-130 163q-3 5 -3 7q0 9 32 9h48
q27 0 36.5 -2.5t13.5 -9.5l106 -163q2 -3 2 -7q0 -8 -26 -8h-38q-18 0 -27 2.5z" />
    <glyph glyph-name="ohungarumlaut" unicode="&#x151;" horiz-adv-x="571" 
d="M100.5 58q-63.5 68 -63.5 196q0 136 66 210t191 74q113 0 176.5 -68t63.5 -196q0 -136 -66 -210t-191 -74q-113 0 -176.5 68zM393 268q0 152 -102 152q-113 0 -113 -160q0 -152 102 -152q113 0 113 160zM108.5 606q-5.5 3 -0.5 11l92 157q4 7 13.5 9.5t34.5 2.5h43
q22 0 27.5 -3.5t0.5 -11.5l-116 -157q-5 -7 -13 -9t-26 -2h-33q-17 0 -22.5 3zM308.5 606q-5.5 3 -0.5 11l92 157q4 7 13.5 9.5t34.5 2.5h43q22 0 27.5 -3.5t0.5 -11.5l-116 -157q-5 -7 -13 -9t-26 -2h-33q-17 0 -22.5 3z" />
    <glyph glyph-name="omacron" unicode="&#x14d;" horiz-adv-x="571" 
d="M100.5 58q-63.5 68 -63.5 196q0 136 66 210t191 74q113 0 176.5 -68t63.5 -196q0 -136 -66 -210t-191 -74q-113 0 -176.5 68zM393 268q0 152 -102 152q-113 0 -113 -160q0 -152 102 -152q113 0 113 160zM146.5 647.5q-2.5 8.5 -2.5 32.5v14q0 24 2.5 32.5t10.5 8.5h270
q8 0 10.5 -8.5t2.5 -32.5v-14q0 -24 -2.5 -32.5t-10.5 -8.5h-270q-8 0 -10.5 8.5z" />
    <glyph glyph-name="oslash" unicode="&#xf8;" horiz-adv-x="571" 
d="M161 -73q-9 0 -36 13l-13 6q-20 9 -28 15t-8 12q0 4 3 9l33 63q-75 69 -75 209q0 136 66 210t191 74q38 0 78 -10l32 59q6 11 13 11q9 0 36 -13l13 -6q20 -9 28 -15t8 -12q0 -4 -3 -9l-36 -66q71 -68 71 -203q0 -136 -66 -210t-191 -74q-36 0 -71 8l-32 -60
q-6 -11 -13 -11zM312 418q-12 2 -21 2q-113 0 -113 -160q0 -44 9 -76zM393 268q0 38 -7 65l-120 -224q4 -1 14 -1q113 0 113 160z" />
    <glyph glyph-name="oslashacute" unicode="&#x1ff;" horiz-adv-x="571" 
d="M161 -73q-9 0 -36 13l-13 6q-20 9 -28 15t-8 12q0 4 3 9l33 63q-75 69 -75 209q0 136 66 210t191 74q38 0 78 -10l32 59q6 11 13 11q9 0 36 -13l13 -6q20 -9 28 -15t8 -12q0 -4 -3 -9l-36 -66q71 -68 71 -203q0 -136 -66 -210t-191 -74q-36 0 -71 8l-32 -60
q-6 -11 -13 -11zM312 418q-12 2 -21 2q-113 0 -113 -160q0 -44 9 -76zM393 268q0 38 -7 65l-120 -224q4 -1 14 -1q113 0 113 160zM190 599q-6 3 -1 12l106 163q4 7 13.5 9.5t36.5 2.5h48q32 0 32 -9q0 -2 -3 -7l-130 -163q-5 -6 -14 -8.5t-27 -2.5h-38q-17 0 -23 3z" />
    <glyph glyph-name="otilde" unicode="&#xf5;" horiz-adv-x="571" 
d="M100.5 58q-63.5 68 -63.5 196q0 136 66 210t191 74q113 0 176.5 -68t63.5 -196q0 -136 -66 -210t-191 -74q-113 0 -176.5 68zM393 268q0 152 -102 152q-113 0 -113 -160q0 -152 102 -152q113 0 113 160zM315.5 625.5q-15.5 5.5 -37.5 16.5q-12 6 -23.5 10.5t-20.5 4.5
q-27 0 -59 -32q-4 -4 -12 -1t-24 19l-4 4q-20 20 -20 28q0 3 4 9q54 67 115 67q19 0 34.5 -5.5t37.5 -16.5q11 -6 22.5 -10.5t20.5 -4.5q27 0 59 32q4 4 12 1t24 -19l4 -4q20 -20 20 -28q0 -3 -4 -9q-54 -67 -115 -67q-18 0 -33.5 5.5z" />
    <glyph glyph-name="oe" unicode="&#x153;" horiz-adv-x="913" 
d="M100.5 58q-63.5 68 -63.5 196q0 136 66 210t191 74q113 0 175 -67q32 32 75 49.5t95 17.5q111 0 171 -74t60 -195q0 -30 -2 -41t-8 -11h-324q8 -54 41.5 -82t90.5 -28q65 0 141 32q8 4 13.5 -1.5t13.5 -27.5l9 -25q9 -24 9 -33q0 -5 -3 -8t-7 -6q-38 -22 -90.5 -35
t-103.5 -13q-118 0 -187 69q-66 -69 -186 -69q-113 0 -176.5 68zM733 315q-5 49 -29 78.5t-64 29.5q-41 0 -67.5 -28.5t-36.5 -79.5h197zM393 268q0 152 -102 152q-113 0 -113 -160q0 -152 102 -152q113 0 113 160z" />
    <glyph glyph-name="p" unicode="p" horiz-adv-x="581" 
d="M89 -221.5q-14 1.5 -17.5 4.5t-3.5 9v499q0 125 -7 219q-1 8 2.5 11.5t16 5t41.5 1.5h5q37 0 48 -2.5t14 -10.5t7 -40q25 29 62 46t80 17q62 0 109 -32.5t72.5 -92.5t25.5 -141q0 -87 -27.5 -150.5t-77.5 -97.5t-116 -34q-34 0 -65 10t-53 29v-237q0 -9 -11.5 -12
t-53.5 -3h-5q-32 0 -46 1.5zM375.5 149.5q27.5 42.5 27.5 122.5q0 82 -33 120q-25 29 -75 29q-22 0 -43.5 -7t-32.5 -19q-8 -9 -11 -21.5t-3 -32.5v-196q18 -18 41.5 -28t47.5 -10q54 0 81.5 42.5z" />
    <glyph glyph-name="thorn" unicode="&#xfe;" horiz-adv-x="579" 
d="M87 -221.5q-14 1.5 -17.5 4.5t-3.5 9v953q0 6 3.5 9t17.5 4.5t46 1.5h5q42 0 53.5 -3t11.5 -12v-259q25 25 59 38.5t73 13.5q62 0 109 -32.5t72.5 -92.5t25.5 -141q0 -87 -27.5 -150.5t-77.5 -97.5t-116 -34q-34 0 -65 10t-53 29v-237q0 -9 -11.5 -12t-53.5 -3h-5
q-32 0 -46 1.5zM373.5 149.5q27.5 42.5 27.5 122.5q0 82 -33 120q-25 29 -75 29q-22 0 -43.5 -7t-32.5 -19q-8 -9 -11 -21.5t-3 -32.5v-196q18 -18 41.5 -28t47.5 -10q54 0 81.5 42.5z" />
    <glyph glyph-name="q" unicode="q" horiz-adv-x="577" 
d="M418.5 -222q-15.5 1 -20 4t-6.5 10q-7 31 -13 98t-6 148q-51 -48 -125 -48q-98 0 -154.5 71.5t-56.5 194.5q0 85 33 148.5t95.5 98.5t149.5 35q47 0 99 -14t83 -33q8 -5 10.5 -10t2.5 -15v-397q0 -77 5.5 -152t13.5 -125q1 -6 -2 -9t-16.5 -4.5t-43.5 -1.5h-8
q-25 0 -40.5 1zM327.5 113.5q20.5 6.5 31.5 18.5q8 9 11 21.5t3 32.5v228q-30 9 -64 9q-65 0 -98 -48t-33 -119q0 -81 34 -120q25 -29 73 -29q22 0 42.5 6.5z" />
    <glyph glyph-name="r" unicode="r" horiz-adv-x="395" 
d="M89 1.5q-14 1.5 -17.5 4.5t-3.5 9v276q0 125 -7 219q-1 8 2.5 11.5t16 5t41.5 1.5h6q37 0 48 -2.5t13 -10.5q2 -7 6.5 -41t5.5 -62q25 63 58 94.5t80 31.5q17 0 26 -4q6 -2 7.5 -10t1.5 -40v-14q0 -22 -1 -34.5t-4 -15.5t-9 -4q-41 -4 -69 -21t-48 -47q-19 -29 -28 -74
t-9 -115v-144q0 -9 -11.5 -12t-53.5 -3h-5q-32 0 -46 1.5z" />
    <glyph glyph-name="racute" unicode="&#x155;" horiz-adv-x="395" 
d="M89 1.5q-14 1.5 -17.5 4.5t-3.5 9v276q0 125 -7 219q-1 8 2.5 11.5t16 5t41.5 1.5h6q37 0 48 -2.5t13 -10.5q2 -7 6.5 -41t5.5 -62q25 63 58 94.5t80 31.5q17 0 26 -4q6 -2 7.5 -10t1.5 -40v-14q0 -22 -1 -34.5t-4 -15.5t-9 -4q-41 -4 -69 -21t-48 -47q-19 -29 -28 -74
t-9 -115v-144q0 -9 -11.5 -12t-53.5 -3h-5q-32 0 -46 1.5zM132 599q-6 3 -1 12l106 163q4 7 13.5 9.5t36.5 2.5h48q32 0 32 -9q0 -2 -3 -7l-130 -163q-5 -6 -14 -8.5t-27 -2.5h-38q-17 0 -23 3z" />
    <glyph glyph-name="rcaron" unicode="&#x159;" horiz-adv-x="395" 
d="M89 1.5q-14 1.5 -17.5 4.5t-3.5 9v276q0 125 -7 219q-1 8 2.5 11.5t16 5t41.5 1.5h6q37 0 48 -2.5t13 -10.5q2 -7 6.5 -41t5.5 -62q25 63 58 94.5t80 31.5q17 0 26 -4q6 -2 7.5 -10t1.5 -40v-14q0 -22 -1 -34.5t-4 -15.5t-9 -4q-41 -4 -69 -21t-48 -47q-19 -29 -28 -74
t-9 -115v-144q0 -9 -11.5 -12t-53.5 -3h-5q-32 0 -46 1.5zM180.5 601q-12.5 3 -21.5 13l-91 97q-5 5 -5 10q0 8 17 25l10 10q9 9 15.5 14.5t11.5 5.5q3 0 10 -5l101 -88l101 88q7 5 10 5q5 0 11.5 -5.5t15.5 -14.5l10 -10q17 -17 17 -25q0 -5 -5 -10l-91 -97
q-9 -10 -21.5 -13t-40.5 -3h-14q-28 0 -40.5 3z" />
    <glyph glyph-name="rcommaaccent" unicode="&#x157;" horiz-adv-x="395" 
d="M89 1.5q-14 1.5 -17.5 4.5t-3.5 9v276q0 125 -7 219q-1 8 2.5 11.5t16 5t41.5 1.5h6q37 0 48 -2.5t13 -10.5q2 -7 6.5 -41t5.5 -62q25 63 58 94.5t80 31.5q17 0 26 -4q6 -2 7.5 -10t1.5 -40v-14q0 -22 -1 -34.5t-4 -15.5t-9 -4q-41 -4 -69 -21t-48 -47q-19 -29 -28 -74
t-9 -115v-144q0 -9 -11.5 -12t-53.5 -3h-5q-32 0 -46 1.5zM67 -299q-6 4 -6 10q0 5 4 9q41 51 41 92q0 9 -3.5 16t-11.5 17q-9 11 -13.5 20t-4.5 22q0 22 17 38t44 16q29 0 47.5 -21.5t18.5 -54.5q0 -46 -25 -92t-71 -86q-7 -5 -10 -5q-4 0 -11 5z" />
    <glyph glyph-name="s" unicode="s" horiz-adv-x="478" 
d="M121 6.5q-49 16.5 -81 43.5q-5 5 -5 10q0 10 14 35l10 18q13 23 21 30t16 1q30 -20 63.5 -31.5t64.5 -11.5q39 0 61.5 13t22.5 34q0 20 -21 31.5t-65 23.5q-53 15 -86.5 31t-58.5 48.5t-25 86.5q0 51 27 89.5t74 59t106 20.5q99 0 165 -50q6 -4 6 -10q0 -7 -18 -39
l-9 -14q-18 -32 -28 -32q-4 0 -8 3q-51 32 -102 32q-45 0 -65 -17q-14 -12 -14 -29q0 -19 20.5 -30.5t66.5 -25.5q51 -15 85 -31t59 -47.5t25 -81.5q0 -34 -13.5 -66t-37.5 -55q-57 -55 -165 -55q-56 0 -105 16.5z" />
    <glyph glyph-name="sacute" unicode="&#x15b;" horiz-adv-x="478" 
d="M121 6.5q-49 16.5 -81 43.5q-5 5 -5 10q0 10 14 35l10 18q13 23 21 30t16 1q30 -20 63.5 -31.5t64.5 -11.5q39 0 61.5 13t22.5 34q0 20 -21 31.5t-65 23.5q-53 15 -86.5 31t-58.5 48.5t-25 86.5q0 51 27 89.5t74 59t106 20.5q99 0 165 -50q6 -4 6 -10q0 -7 -18 -39
l-9 -14q-18 -32 -28 -32q-4 0 -8 3q-51 32 -102 32q-45 0 -65 -17q-14 -12 -14 -29q0 -19 20.5 -30.5t66.5 -25.5q51 -15 85 -31t59 -47.5t25 -81.5q0 -34 -13.5 -66t-37.5 -55q-57 -55 -165 -55q-56 0 -105 16.5zM159 599q-6 3 -1 12l106 163q4 7 13.5 9.5t36.5 2.5h48
q32 0 32 -9q0 -2 -3 -7l-130 -163q-5 -6 -14 -8.5t-27 -2.5h-38q-17 0 -23 3z" />
    <glyph glyph-name="sacute.loclPLK" horiz-adv-x="478" 
d="M121 6.5q-49 16.5 -81 43.5q-5 5 -5 10q0 10 14 35l10 18q13 23 21 30t16 1q30 -20 63.5 -31.5t64.5 -11.5q39 0 61.5 13t22.5 34q0 20 -21 31.5t-65 23.5q-53 15 -86.5 31t-58.5 48.5t-25 86.5q0 51 27 89.5t74 59t106 20.5q99 0 165 -50q6 -4 6 -10q0 -7 -18 -39
l-9 -14q-18 -32 -28 -32q-4 0 -8 3q-51 32 -102 32q-45 0 -65 -17q-14 -12 -14 -29q0 -19 20.5 -30.5t66.5 -25.5q51 -15 85 -31t59 -47.5t25 -81.5q0 -34 -13.5 -66t-37.5 -55q-57 -55 -165 -55q-56 0 -105 16.5zM202.5 599q-6.5 3 -4.5 12l48 163q2 8 10.5 10t35.5 2h44
q24 0 31.5 -3.5t3.5 -12.5l-73 -163q-3 -6 -10.5 -8.5t-26.5 -2.5h-34q-18 0 -24.5 3z" />
    <glyph glyph-name="scaron" unicode="&#x161;" horiz-adv-x="478" 
d="M121 6.5q-49 16.5 -81 43.5q-5 5 -5 10q0 10 14 35l10 18q13 23 21 30t16 1q30 -20 63.5 -31.5t64.5 -11.5q39 0 61.5 13t22.5 34q0 20 -21 31.5t-65 23.5q-53 15 -86.5 31t-58.5 48.5t-25 86.5q0 51 27 89.5t74 59t106 20.5q99 0 165 -50q6 -4 6 -10q0 -7 -18 -39
l-9 -14q-18 -32 -28 -32q-4 0 -8 3q-51 32 -102 32q-45 0 -65 -17q-14 -12 -14 -29q0 -19 20.5 -30.5t66.5 -25.5q51 -15 85 -31t59 -47.5t25 -81.5q0 -34 -13.5 -66t-37.5 -55q-57 -55 -165 -55q-56 0 -105 16.5zM207.5 601q-12.5 3 -21.5 13l-91 97q-5 5 -5 10q0 8 17 25
l10 10q9 9 15.5 14.5t11.5 5.5q3 0 10 -5l101 -88l101 88q7 5 10 5q5 0 11.5 -5.5t15.5 -14.5l10 -10q17 -17 17 -25q0 -5 -5 -10l-91 -97q-9 -10 -21.5 -13t-40.5 -3h-14q-28 0 -40.5 3z" />
    <glyph glyph-name="scedilla" unicode="&#x15f;" horiz-adv-x="478" 
d="M206.5 351.5q20.5 -11.5 66.5 -25.5q51 -15 85 -31t59 -47.5t25 -81.5q0 -34 -13.5 -66t-37.5 -55q-45 -43 -119 -52l-3 -30q48 -2 77 -25t29 -69q0 -45 -32.5 -76.5t-94.5 -31.5q-47 0 -78 13q-4 2 -5.5 4t-1.5 7q0 9 4 24l3 11q5 18 9 23.5t13 2.5q21 -6 46 -6
q20 0 29.5 8t9.5 21q0 30 -45 30q-31 0 -60 -4l14 97q-44 5 -82 20.5t-64 37.5q-5 5 -5 10q0 10 14 35l10 18q13 23 21 30t16 1q30 -20 63.5 -31.5t64.5 -11.5q39 0 61.5 13t22.5 34q0 20 -21 31.5t-65 23.5q-53 15 -86.5 31t-58.5 48.5t-25 86.5q0 51 27 89.5t74 59
t106 20.5q99 0 165 -50q6 -4 6 -10q0 -7 -18 -39l-9 -14q-18 -32 -28 -32q-4 0 -8 3q-51 32 -102 32q-45 0 -65 -17q-14 -12 -14 -29q0 -19 20.5 -30.5z" />
    <glyph glyph-name="scircumflex" unicode="&#x15d;" horiz-adv-x="478" 
d="M121 6.5q-49 16.5 -81 43.5q-5 5 -5 10q0 10 14 35l10 18q13 23 21 30t16 1q30 -20 63.5 -31.5t64.5 -11.5q39 0 61.5 13t22.5 34q0 20 -21 31.5t-65 23.5q-53 15 -86.5 31t-58.5 48.5t-25 86.5q0 51 27 89.5t74 59t106 20.5q99 0 165 -50q6 -4 6 -10q0 -7 -18 -39
l-9 -14q-18 -32 -28 -32q-4 0 -8 3q-51 32 -102 32q-45 0 -65 -17q-14 -12 -14 -29q0 -19 20.5 -30.5t66.5 -25.5q51 -15 85 -31t59 -47.5t25 -81.5q0 -34 -13.5 -66t-37.5 -55q-57 -55 -165 -55q-56 0 -105 16.5zM144 598q-5 0 -11.5 5.5t-15.5 14.5l-10 10q-17 17 -17 25
q0 5 5 10l91 97q9 10 21.5 13t40.5 3h14q28 0 40.5 -3t21.5 -13l91 -97q5 -5 5 -10q0 -8 -17 -25l-10 -10q-9 -9 -15.5 -14.5t-11.5 -5.5q-3 0 -10 5l-101 88l-101 -88q-7 -5 -10 -5z" />
    <glyph glyph-name="scommaaccent" unicode="&#x219;" horiz-adv-x="478" 
d="M121 6.5q-49 16.5 -81 43.5q-5 5 -5 10q0 10 14 35l10 18q13 23 21 30t16 1q30 -20 63.5 -31.5t64.5 -11.5q39 0 61.5 13t22.5 34q0 20 -21 31.5t-65 23.5q-53 15 -86.5 31t-58.5 48.5t-25 86.5q0 51 27 89.5t74 59t106 20.5q99 0 165 -50q6 -4 6 -10q0 -7 -18 -39
l-9 -14q-18 -32 -28 -32q-4 0 -8 3q-51 32 -102 32q-45 0 -65 -17q-14 -12 -14 -29q0 -19 20.5 -30.5t66.5 -25.5q51 -15 85 -31t59 -47.5t25 -81.5q0 -34 -13.5 -66t-37.5 -55q-57 -55 -165 -55q-56 0 -105 16.5zM165 -299q-6 4 -6 10q0 5 4 9q41 51 41 92q0 9 -3.5 16
t-11.5 17q-9 11 -13.5 20t-4.5 22q0 22 17 38t44 16q29 0 47.5 -21.5t18.5 -54.5q0 -46 -25 -92t-71 -86q-7 -5 -10 -5q-4 0 -11 5z" />
    <glyph glyph-name="germandbls" unicode="&#xdf;" horiz-adv-x="688" 
d="M337.5 6q-46.5 16 -78.5 44q-5 5 -5 10q0 10 14 35l10 18q13 23 21 30t16 1q65 -43 123 -43q40 0 61 13t21 34q0 19 -19 30.5t-62 27.5q-46 17 -76 32.5t-52 45t-22 75.5q0 45 21.5 73.5t61.5 59.5q32 26 48.5 46t16.5 48q0 34 -29 54t-76 20q-56 0 -89 -33
q-21 -22 -30.5 -54t-9.5 -78v-480q0 -9 -11.5 -12t-53.5 -3h-5q-32 0 -46 1.5t-17.5 4.5t-3.5 9v488q0 70 18.5 117.5t52.5 80.5q35 34 84 51.5t110 17.5q70 0 126.5 -22.5t88.5 -63.5t32 -94q0 -47 -25.5 -79.5t-69.5 -66.5q-30 -24 -42.5 -37.5t-12.5 -29.5
q0 -20 19 -31.5t60 -25.5q45 -16 74.5 -31.5t51 -45.5t21.5 -77q0 -56 -30 -95.5t-78.5 -60t-105.5 -20.5q-56 0 -102.5 16z" />
    <glyph glyph-name="longs" unicode="&#x17f;" horiz-adv-x="337" 
d="M120 1.5q-14 1.5 -17.5 4.5t-3.5 9v406h-70q-8 0 -10.5 8.5t-2.5 41.5v7q0 33 2.5 41.5t10.5 8.5h70v24q0 108 56 166q51 52 144 52q58 0 110 -19q7 -3 7 -13q0 -13 -5 -33l-4 -17q-6 -25 -10.5 -33t-10.5 -6q-37 8 -64 8q-48 0 -67 -26t-19 -83v-533q0 -9 -11.5 -12
t-53.5 -3h-5q-32 0 -46 1.5z" />
    <glyph glyph-name="t" unicode="t" horiz-adv-x="409" 
d="M141 31q-21 21 -31 53.5t-10 81.5v255h-79q-7 0 -10 8.5t-3 31.5v7q0 37 13 40q42 12 65.5 29.5t35 46t16.5 76.5q1 8 9.5 10t35.5 2h9q28 0 36.5 -3t8.5 -12v-129h119q8 0 10.5 -8.5t2.5 -41.5v-7q0 -33 -2.5 -41.5t-10.5 -8.5h-119v-247q0 -22 4 -35t13 -21
q16 -14 44 -14q22 0 52 10q8 2 13 -5.5t13 -34.5l3 -10q8 -27 8 -35q0 -9 -10 -14q-24 -12 -54.5 -18.5t-60.5 -6.5q-80 0 -121 41z" />
    <glyph glyph-name="tbar" unicode="&#x167;" horiz-adv-x="405" 
d="M387 29q0 -9 -10 -14q-24 -12 -54.5 -18.5t-60.5 -6.5q-80 0 -121 41q-21 21 -31 53.5t-10 81.5v55h-68q-8 0 -11 9t-3 40t3 40t11 9h68v102h-79q-7 0 -10 8.5t-3 31.5v7q0 37 13 40q42 12 65.5 29.5t35 46t16.5 76.5q1 8 9.5 10t35.5 2h9q28 0 36.5 -3t8.5 -12v-129h119
q8 0 10.5 -8.5t2.5 -41.5v-7q0 -33 -2.5 -41.5t-10.5 -8.5h-119v-102h97q8 0 11 -9t3 -40t-3 -40t-11 -9h-97v-47q0 -22 4 -35t13 -21q16 -14 44 -14q22 0 52 10q8 2 13 -5.5t13 -34.5l3 -10q8 -27 8 -35z" />
    <glyph glyph-name="tcaron" unicode="&#x165;" horiz-adv-x="405" 
d="M141 31q-21 21 -31 53.5t-10 81.5v255h-79q-7 0 -10 8.5t-3 31.5v7q0 37 13 40q42 12 65.5 29.5t35 46t16.5 76.5q1 8 9.5 10t35.5 2h9q28 0 36.5 -3t8.5 -12v-129h119q8 0 10.5 -8.5t2.5 -41.5v-7q0 -33 -2.5 -41.5t-10.5 -8.5h-119v-247q0 -22 4 -35t13 -21
q16 -14 44 -14q22 0 52 10q8 2 13 -5.5t13 -34.5l3 -10q8 -27 8 -35q0 -9 -10 -14q-24 -12 -54.5 -18.5t-60.5 -6.5q-80 0 -121 41zM291 610q-6 4 -6 10q0 5 4 9q41 51 41 92q0 9 -3.5 16t-11.5 17q-9 11 -13.5 20t-4.5 22q0 22 17 38t44 16q29 0 47.5 -21.5t18.5 -54.5
q0 -46 -25 -92t-71 -86q-7 -5 -10 -5q-4 0 -11 5z" />
    <glyph glyph-name="uni0163" unicode="&#x163;" horiz-adv-x="409" 
d="M141 31q-21 21 -31 53.5t-10 81.5v255h-79q-7 0 -10 8.5t-3 31.5v7q0 37 13 40q42 12 65.5 29.5t35 46t16.5 76.5q1 8 9.5 10t35.5 2h9q28 0 36.5 -3t8.5 -12v-129h119q8 0 10.5 -8.5t2.5 -41.5v-7q0 -33 -2.5 -41.5t-10.5 -8.5h-119v-247q0 -22 4 -35t13 -21
q16 -14 44 -14q22 0 52 10q8 2 13 -5.5t13 -34.5l3 -10q8 -27 8 -35q0 -9 -10 -14q-24 -12 -54.5 -18.5t-60.5 -6.5q-80 0 -121 41zM173 -299q-6 4 -6 10q0 5 4 9q41 51 41 92q0 9 -3.5 16t-11.5 17q-9 11 -13.5 20t-4.5 22q0 22 17 38t44 16q29 0 47.5 -21.5t18.5 -54.5
q0 -46 -25 -92t-71 -86q-7 -5 -10 -5q-4 0 -11 5z" />
    <glyph glyph-name="uni021B" unicode="&#x21b;" horiz-adv-x="409" 
d="M141 31q-21 21 -31 53.5t-10 81.5v255h-79q-7 0 -10 8.5t-3 31.5v7q0 37 13 40q42 12 65.5 29.5t35 46t16.5 76.5q1 8 9.5 10t35.5 2h9q28 0 36.5 -3t8.5 -12v-129h119q8 0 10.5 -8.5t2.5 -41.5v-7q0 -33 -2.5 -41.5t-10.5 -8.5h-119v-247q0 -22 4 -35t13 -21
q16 -14 44 -14q22 0 52 10q8 2 13 -5.5t13 -34.5l3 -10q8 -27 8 -35q0 -9 -10 -14q-24 -12 -54.5 -18.5t-60.5 -6.5q-80 0 -121 41zM173 -299q-6 4 -6 10q0 5 4 9q41 51 41 92q0 9 -3.5 16t-11.5 17q-9 11 -13.5 20t-4.5 22q0 22 17 38t44 16q29 0 47.5 -21.5t18.5 -54.5
q0 -46 -25 -92t-71 -86q-7 -5 -10 -5q-4 0 -11 5z" />
    <glyph glyph-name="u" unicode="u" horiz-adv-x="587" 
d="M110 44q-25 28 -36 66t-11 95v308q0 6 3.5 9t17.5 4.5t46 1.5h5q42 0 53.5 -3t11.5 -12v-270q0 -52 4 -73t16 -35q20 -23 66 -23q40 0 66 16q15 9 20.5 21t7.5 32q2 23 2 98v234q0 6 3.5 9t17.5 4.5t46 1.5h5q42 0 53.5 -3t11.5 -12v-276q0 -124 7 -219q1 -8 -2.5 -11.5
t-16 -5t-41.5 -1.5h-5q-37 0 -48 2.5t-14 10.5t-7 40q-25 -29 -62 -46t-82 -17q-90 0 -138 54z" />
    <glyph glyph-name="uacute" unicode="&#xfa;" horiz-adv-x="587" 
d="M110 44q-25 28 -36 66t-11 95v308q0 6 3.5 9t17.5 4.5t46 1.5h5q42 0 53.5 -3t11.5 -12v-270q0 -52 4 -73t16 -35q20 -23 66 -23q40 0 66 16q15 9 20.5 21t7.5 32q2 23 2 98v234q0 6 3.5 9t17.5 4.5t46 1.5h5q42 0 53.5 -3t11.5 -12v-276q0 -124 7 -219q1 -8 -2.5 -11.5
t-16 -5t-41.5 -1.5h-5q-37 0 -48 2.5t-14 10.5t-7 40q-25 -29 -62 -46t-82 -17q-90 0 -138 54zM197 599q-6 3 -1 12l106 163q4 7 13.5 9.5t36.5 2.5h48q32 0 32 -9q0 -2 -3 -7l-130 -163q-5 -6 -14 -8.5t-27 -2.5h-38q-17 0 -23 3z" />
    <glyph glyph-name="ubreve" unicode="&#x16d;" horiz-adv-x="587" 
d="M110 44q-25 28 -36 66t-11 95v308q0 6 3.5 9t17.5 4.5t46 1.5h5q42 0 53.5 -3t11.5 -12v-270q0 -52 4 -73t16 -35q20 -23 66 -23q40 0 66 16q15 9 20.5 21t7.5 32q2 23 2 98v234q0 6 3.5 9t17.5 4.5t46 1.5h5q42 0 53.5 -3t11.5 -12v-276q0 -124 7 -219q1 -8 -2.5 -11.5
t-16 -5t-41.5 -1.5h-5q-37 0 -48 2.5t-14 10.5t-7 40q-25 -29 -62 -46t-82 -17q-90 0 -138 54zM182.5 644q-40.5 37 -44.5 104q0 9 8 11.5t35 2.5h15q22 0 29 -2.5t8 -9.5q10 -57 60 -57t60 57q1 7 8 9.5t29 2.5h15q27 0 35 -2.5t8 -11.5q-4 -67 -44.5 -104t-110.5 -37
t-110.5 37z" />
    <glyph glyph-name="ucircumflex" unicode="&#xfb;" horiz-adv-x="587" 
d="M110 44q-25 28 -36 66t-11 95v308q0 6 3.5 9t17.5 4.5t46 1.5h5q42 0 53.5 -3t11.5 -12v-270q0 -52 4 -73t16 -35q20 -23 66 -23q40 0 66 16q15 9 20.5 21t7.5 32q2 23 2 98v234q0 6 3.5 9t17.5 4.5t46 1.5h5q42 0 53.5 -3t11.5 -12v-276q0 -124 7 -219q1 -8 -2.5 -11.5
t-16 -5t-41.5 -1.5h-5q-37 0 -48 2.5t-14 10.5t-7 40q-25 -29 -62 -46t-82 -17q-90 0 -138 54zM182 598q-5 0 -11.5 5.5t-15.5 14.5l-10 10q-17 17 -17 25q0 5 5 10l91 97q9 10 21.5 13t40.5 3h14q28 0 40.5 -3t21.5 -13l91 -97q5 -5 5 -10q0 -8 -17 -25l-10 -10
q-9 -9 -15.5 -14.5t-11.5 -5.5q-3 0 -10 5l-101 88l-101 -88q-7 -5 -10 -5z" />
    <glyph glyph-name="udieresis" unicode="&#xfc;" horiz-adv-x="587" 
d="M110 44q-25 28 -36 66t-11 95v308q0 6 3.5 9t17.5 4.5t46 1.5h5q42 0 53.5 -3t11.5 -12v-270q0 -52 4 -73t16 -35q20 -23 66 -23q40 0 66 16q15 9 20.5 21t7.5 32q2 23 2 98v234q0 6 3.5 9t17.5 4.5t46 1.5h5q42 0 53.5 -3t11.5 -12v-276q0 -124 7 -219q1 -8 -2.5 -11.5
t-16 -5t-41.5 -1.5h-5q-37 0 -48 2.5t-14 10.5t-7 40q-25 -29 -62 -46t-82 -17q-90 0 -138 54zM132 630q-21 20 -21 49q0 30 21 50.5t52 20.5q32 0 52.5 -20.5t20.5 -50.5q0 -29 -20.5 -49t-52.5 -20q-31 0 -52 20zM349 630q-20 20 -20 49q0 30 20 50.5t51 20.5
q33 0 54 -20.5t21 -50.5q0 -29 -21 -49t-54 -20q-31 0 -51 20z" />
    <glyph glyph-name="ugrave" unicode="&#xf9;" horiz-adv-x="587" 
d="M110 44q-25 28 -36 66t-11 95v308q0 6 3.5 9t17.5 4.5t46 1.5h5q42 0 53.5 -3t11.5 -12v-270q0 -52 4 -73t16 -35q20 -23 66 -23q40 0 66 16q15 9 20.5 21t7.5 32q2 23 2 98v234q0 6 3.5 9t17.5 4.5t46 1.5h5q42 0 53.5 -3t11.5 -12v-276q0 -124 7 -219q1 -8 -2.5 -11.5
t-16 -5t-41.5 -1.5h-5q-37 0 -48 2.5t-14 10.5t-7 40q-25 -29 -62 -46t-82 -17q-90 0 -138 54zM301 598.5q-9 2.5 -14 8.5l-130 163q-3 5 -3 7q0 9 32 9h48q27 0 36.5 -2.5t13.5 -9.5l106 -163q2 -3 2 -7q0 -8 -26 -8h-38q-18 0 -27 2.5z" />
    <glyph glyph-name="uhungarumlaut" unicode="&#x171;" horiz-adv-x="587" 
d="M110 44q-25 28 -36 66t-11 95v308q0 6 3.5 9t17.5 4.5t46 1.5h5q42 0 53.5 -3t11.5 -12v-270q0 -52 4 -73t16 -35q20 -23 66 -23q40 0 66 16q15 9 20.5 21t7.5 32q2 23 2 98v234q0 6 3.5 9t17.5 4.5t46 1.5h5q42 0 53.5 -3t11.5 -12v-276q0 -124 7 -219q1 -8 -2.5 -11.5
t-16 -5t-41.5 -1.5h-5q-37 0 -48 2.5t-14 10.5t-7 40q-25 -29 -62 -46t-82 -17q-90 0 -138 54zM109.5 606q-5.5 3 -0.5 11l92 157q4 7 13.5 9.5t34.5 2.5h43q22 0 27.5 -3.5t0.5 -11.5l-116 -157q-5 -7 -13 -9t-26 -2h-33q-17 0 -22.5 3zM309.5 606q-5.5 3 -0.5 11l92 157
q4 7 13.5 9.5t34.5 2.5h43q22 0 27.5 -3.5t0.5 -11.5l-116 -157q-5 -7 -13 -9t-26 -2h-33q-17 0 -22.5 3z" />
    <glyph glyph-name="umacron" unicode="&#x16b;" horiz-adv-x="587" 
d="M110 44q-25 28 -36 66t-11 95v308q0 6 3.5 9t17.5 4.5t46 1.5h5q42 0 53.5 -3t11.5 -12v-270q0 -52 4 -73t16 -35q20 -23 66 -23q40 0 66 16q15 9 20.5 21t7.5 32q2 23 2 98v234q0 6 3.5 9t17.5 4.5t46 1.5h5q42 0 53.5 -3t11.5 -12v-276q0 -124 7 -219q1 -8 -2.5 -11.5
t-16 -5t-41.5 -1.5h-5q-37 0 -48 2.5t-14 10.5t-7 40q-25 -29 -62 -46t-82 -17q-90 0 -138 54zM147.5 647.5q-2.5 8.5 -2.5 32.5v14q0 24 2.5 32.5t10.5 8.5h270q8 0 10.5 -8.5t2.5 -32.5v-14q0 -24 -2.5 -32.5t-10.5 -8.5h-270q-8 0 -10.5 8.5z" />
    <glyph glyph-name="uogonek" unicode="&#x173;" horiz-adv-x="587" 
d="M334.5 -208q-34.5 32 -34.5 85q0 41 23.5 74.5t74.5 63.5q-2 7 -3.5 19.5t-2.5 18.5q-25 -29 -62 -46t-82 -17q-90 0 -138 54q-25 28 -36 66t-11 95v308q0 6 3.5 9t17.5 4.5t46 1.5h5q42 0 53.5 -3t11.5 -12v-270q0 -52 4 -73t16 -35q20 -23 66 -23q40 0 66 16
q15 9 20.5 21t7.5 32q2 23 2 98v234q0 6 3.5 9t17.5 4.5t46 1.5h5q42 0 53.5 -3t11.5 -12v-276q0 -143 7 -219v-4q0 -4 -2 -6.5t-9 -4.5q-48 -11 -81 -40.5t-33 -68.5q0 -22 11.5 -33.5t30.5 -11.5q16 0 40 8q8 2 13 -2t11 -23l4 -12q6 -18 6 -26t-8 -13q-17 -9 -40 -15
t-43 -6q-57 0 -91.5 32z" />
    <glyph glyph-name="uring" unicode="&#x16f;" horiz-adv-x="587" 
d="M110 44q-25 28 -36 66t-11 95v308q0 6 3.5 9t17.5 4.5t46 1.5h5q42 0 53.5 -3t11.5 -12v-270q0 -52 4 -73t16 -35q20 -23 66 -23q40 0 66 16q15 9 20.5 21t7.5 32q2 23 2 98v234q0 6 3.5 9t17.5 4.5t46 1.5h5q42 0 53.5 -3t11.5 -12v-276q0 -124 7 -219q1 -8 -2.5 -11.5
t-16 -5t-41.5 -1.5h-5q-37 0 -48 2.5t-14 10.5t-7 40q-25 -29 -62 -46t-82 -17q-90 0 -138 54zM212.5 623q-33.5 32 -33.5 78q0 45 33.5 77t80.5 32t80 -31.5t33 -77.5t-33 -78t-80 -32t-80.5 32zM320 672.5q11 11.5 11 28.5q0 16 -11 27.5t-27 11.5q-17 0 -28.5 -11
t-11.5 -28t11.5 -28.5t28.5 -11.5q16 0 27 11.5z" />
    <glyph glyph-name="utilde" unicode="&#x169;" horiz-adv-x="587" 
d="M110 44q-25 28 -36 66t-11 95v308q0 6 3.5 9t17.5 4.5t46 1.5h5q42 0 53.5 -3t11.5 -12v-270q0 -52 4 -73t16 -35q20 -23 66 -23q40 0 66 16q15 9 20.5 21t7.5 32q2 23 2 98v234q0 6 3.5 9t17.5 4.5t46 1.5h5q42 0 53.5 -3t11.5 -12v-276q0 -124 7 -219q1 -8 -2.5 -11.5
t-16 -5t-41.5 -1.5h-5q-37 0 -48 2.5t-14 10.5t-7 40q-25 -29 -62 -46t-82 -17q-90 0 -138 54zM316.5 625.5q-15.5 5.5 -37.5 16.5q-12 6 -23.5 10.5t-20.5 4.5q-27 0 -59 -32q-4 -4 -12 -1t-24 19l-4 4q-20 20 -20 28q0 3 4 9q54 67 115 67q19 0 34.5 -5.5t37.5 -16.5
q11 -6 22.5 -10.5t20.5 -4.5q27 0 59 32q4 4 12 1t24 -19l4 -4q20 -20 20 -28q0 -3 -4 -9q-54 -67 -115 -67q-18 0 -33.5 5.5z" />
    <glyph glyph-name="v" unicode="v" horiz-adv-x="524" 
d="M200.5 2.5q-12.5 2.5 -15.5 10.5l-179 497q-2 7 1 10.5t18 5.5t47 2h9q39 0 52.5 -3t16.5 -12l68 -208q36 -109 50 -166q27 70 60.5 184t49.5 190q2 9 12.5 12t50.5 3h6q68 0 64 -15q-22 -114 -76.5 -259t-107.5 -242q-3 -6 -16.5 -9t-50.5 -3h-9q-38 0 -50.5 2.5z" />
    <glyph glyph-name="w" unicode="w" horiz-adv-x="791" 
d="M164.5 2.5q-13.5 2.5 -15.5 10.5l-141 496q-2 8 1 11.5t17.5 5.5t46.5 2h3q41 0 54 -3.5t15 -12.5l48 -187q11 -44 23.5 -107t15.5 -91q4 26 19 87.5t28 107.5l52 190q3 10 15 13t52 3h9q38 0 49.5 -3t14.5 -11l49 -188q27 -102 43 -196q24 76 46 179.5t38 202.5
q1 7 5 10t17 4.5t43 1.5h4q37 0 48 -3t10 -13q-18 -112 -55.5 -248t-83.5 -250q-4 -10 -16.5 -12t-57.5 -2h-8q-48 0 -61 2.5t-15 10.5l-45 164q-17 62 -27 107t-14 84q-8 -82 -41 -192l-48 -163q-2 -7 -16 -10t-56 -3h-10q-42 0 -55.5 2.5z" />
    <glyph glyph-name="wacute" unicode="&#x1e83;" horiz-adv-x="791" 
d="M164.5 2.5q-13.5 2.5 -15.5 10.5l-141 496q-2 8 1 11.5t17.5 5.5t46.5 2h3q41 0 54 -3.5t15 -12.5l48 -187q11 -44 23.5 -107t15.5 -91q4 26 19 87.5t28 107.5l52 190q3 10 15 13t52 3h9q38 0 49.5 -3t14.5 -11l49 -188q27 -102 43 -196q24 76 46 179.5t38 202.5
q1 7 5 10t17 4.5t43 1.5h4q37 0 48 -3t10 -13q-18 -112 -55.5 -248t-83.5 -250q-4 -10 -16.5 -12t-57.5 -2h-8q-48 0 -61 2.5t-15 10.5l-45 164q-17 62 -27 107t-14 84q-8 -82 -41 -192l-48 -163q-2 -7 -16 -10t-56 -3h-10q-42 0 -55.5 2.5zM306 599q-6 3 -1 12l106 163
q4 7 13.5 9.5t36.5 2.5h48q32 0 32 -9q0 -2 -3 -7l-130 -163q-5 -6 -14 -8.5t-27 -2.5h-38q-17 0 -23 3z" />
    <glyph glyph-name="wcircumflex" unicode="&#x175;" horiz-adv-x="791" 
d="M164.5 2.5q-13.5 2.5 -15.5 10.5l-141 496q-2 8 1 11.5t17.5 5.5t46.5 2h3q41 0 54 -3.5t15 -12.5l48 -187q11 -44 23.5 -107t15.5 -91q4 26 19 87.5t28 107.5l52 190q3 10 15 13t52 3h9q38 0 49.5 -3t14.5 -11l49 -188q27 -102 43 -196q24 76 46 179.5t38 202.5
q1 7 5 10t17 4.5t43 1.5h4q37 0 48 -3t10 -13q-18 -112 -55.5 -248t-83.5 -250q-4 -10 -16.5 -12t-57.5 -2h-8q-48 0 -61 2.5t-15 10.5l-45 164q-17 62 -27 107t-14 84q-8 -82 -41 -192l-48 -163q-2 -7 -16 -10t-56 -3h-10q-42 0 -55.5 2.5zM291 598q-5 0 -11.5 5.5
t-15.5 14.5l-10 10q-17 17 -17 25q0 5 5 10l91 97q9 10 21.5 13t40.5 3h14q28 0 40.5 -3t21.5 -13l91 -97q5 -5 5 -10q0 -8 -17 -25l-10 -10q-9 -9 -15.5 -14.5t-11.5 -5.5q-3 0 -10 5l-101 88l-101 -88q-7 -5 -10 -5z" />
    <glyph glyph-name="wdieresis" unicode="&#x1e85;" horiz-adv-x="791" 
d="M164.5 2.5q-13.5 2.5 -15.5 10.5l-141 496q-2 8 1 11.5t17.5 5.5t46.5 2h3q41 0 54 -3.5t15 -12.5l48 -187q11 -44 23.5 -107t15.5 -91q4 26 19 87.5t28 107.5l52 190q3 10 15 13t52 3h9q38 0 49.5 -3t14.5 -11l49 -188q27 -102 43 -196q24 76 46 179.5t38 202.5
q1 7 5 10t17 4.5t43 1.5h4q37 0 48 -3t10 -13q-18 -112 -55.5 -248t-83.5 -250q-4 -10 -16.5 -12t-57.5 -2h-8q-48 0 -61 2.5t-15 10.5l-45 164q-17 62 -27 107t-14 84q-8 -82 -41 -192l-48 -163q-2 -7 -16 -10t-56 -3h-10q-42 0 -55.5 2.5zM241 630q-21 20 -21 49
q0 30 21 50.5t52 20.5q32 0 52.5 -20.5t20.5 -50.5q0 -29 -20.5 -49t-52.5 -20q-31 0 -52 20zM458 630q-20 20 -20 49q0 30 20 50.5t51 20.5q33 0 54 -20.5t21 -50.5q0 -29 -21 -49t-54 -20q-31 0 -51 20z" />
    <glyph glyph-name="wgrave" unicode="&#x1e81;" horiz-adv-x="791" 
d="M164.5 2.5q-13.5 2.5 -15.5 10.5l-141 496q-2 8 1 11.5t17.5 5.5t46.5 2h3q41 0 54 -3.5t15 -12.5l48 -187q11 -44 23.5 -107t15.5 -91q4 26 19 87.5t28 107.5l52 190q3 10 15 13t52 3h9q38 0 49.5 -3t14.5 -11l49 -188q27 -102 43 -196q24 76 46 179.5t38 202.5
q1 7 5 10t17 4.5t43 1.5h4q37 0 48 -3t10 -13q-18 -112 -55.5 -248t-83.5 -250q-4 -10 -16.5 -12t-57.5 -2h-8q-48 0 -61 2.5t-15 10.5l-45 164q-17 62 -27 107t-14 84q-8 -82 -41 -192l-48 -163q-2 -7 -16 -10t-56 -3h-10q-42 0 -55.5 2.5zM410 598.5q-9 2.5 -14 8.5
l-130 163q-3 5 -3 7q0 9 32 9h48q27 0 36.5 -2.5t13.5 -9.5l106 -163q2 -3 2 -7q0 -8 -26 -8h-38q-18 0 -27 2.5z" />
    <glyph glyph-name="x" unicode="x" horiz-adv-x="510" 
d="M16.5 4.5q-12.5 4.5 -5.5 14.5l169 251q-34 43 -63 88l-102 151q-4 6 -4 9q0 6 12.5 8t45.5 2h17q45 0 61.5 -3.5t22.5 -12.5l38 -58q21 -33 50 -81q13 26 47 81l34 58q6 10 18 13t52 3h10q42 0 54.5 -4.5t5.5 -14.5l-88 -133q-32 -50 -70 -103q36 -46 67 -90l113 -166
q7 -11 -5.5 -14t-58.5 -3h-16q-42 0 -55 3t-20 13l-45 68l-12 18q-8 12 -22 34t-22 37l-41 -71l-11 -19l-40 -67q-6 -10 -18 -13t-52 -3h-12q-42 0 -54.5 4.5z" />
    <glyph glyph-name="y" unicode="y" horiz-adv-x="532" 
d="M28 -226q-30 7 -46 18q-6 4 -6 12q0 6 8 35l4 14q8 26 13.5 34t16.5 4q32 -10 62 -10q43 0 71 24.5t53 91.5l-180 513q-3 10 8 14t55 4h13q42 0 53.5 -3t14.5 -12l62 -196q32 -102 45 -180q14 73 44 178l58 198q3 9 14 12t49 3h13q43 0 53.5 -4t7.5 -14l-171 -501
q-30 -88 -63.5 -140t-79 -77t-110.5 -25q-32 0 -62 7z" />
    <glyph glyph-name="yacute" unicode="&#xfd;" horiz-adv-x="532" 
d="M28 -226q-30 7 -46 18q-6 4 -6 12q0 6 8 35l4 14q8 26 13.5 34t16.5 4q32 -10 62 -10q43 0 71 24.5t53 91.5l-180 513q-3 10 8 14t55 4h13q42 0 53.5 -3t14.5 -12l62 -196q32 -102 45 -180q14 73 44 178l58 198q3 9 14 12t49 3h13q43 0 53.5 -4t7.5 -14l-171 -501
q-30 -88 -63.5 -140t-79 -77t-110.5 -25q-32 0 -62 7zM182 599q-6 3 -1 12l106 163q4 7 13.5 9.5t36.5 2.5h48q32 0 32 -9q0 -2 -3 -7l-130 -163q-5 -6 -14 -8.5t-27 -2.5h-38q-17 0 -23 3z" />
    <glyph glyph-name="ycircumflex" unicode="&#x177;" horiz-adv-x="532" 
d="M28 -226q-30 7 -46 18q-6 4 -6 12q0 6 8 35l4 14q8 26 13.5 34t16.5 4q32 -10 62 -10q43 0 71 24.5t53 91.5l-180 513q-3 10 8 14t55 4h13q42 0 53.5 -3t14.5 -12l62 -196q32 -102 45 -180q14 73 44 178l58 198q3 9 14 12t49 3h13q43 0 53.5 -4t7.5 -14l-171 -501
q-30 -88 -63.5 -140t-79 -77t-110.5 -25q-32 0 -62 7zM167 598q-5 0 -11.5 5.5t-15.5 14.5l-10 10q-17 17 -17 25q0 5 5 10l91 97q9 10 21.5 13t40.5 3h14q28 0 40.5 -3t21.5 -13l91 -97q5 -5 5 -10q0 -8 -17 -25l-10 -10q-9 -9 -15.5 -14.5t-11.5 -5.5q-3 0 -10 5l-101 88
l-101 -88q-7 -5 -10 -5z" />
    <glyph glyph-name="ydieresis" unicode="&#xff;" horiz-adv-x="532" 
d="M28 -226q-30 7 -46 18q-6 4 -6 12q0 6 8 35l4 14q8 26 13.5 34t16.5 4q32 -10 62 -10q43 0 71 24.5t53 91.5l-180 513q-3 10 8 14t55 4h13q42 0 53.5 -3t14.5 -12l62 -196q32 -102 45 -180q14 73 44 178l58 198q3 9 14 12t49 3h13q43 0 53.5 -4t7.5 -14l-171 -501
q-30 -88 -63.5 -140t-79 -77t-110.5 -25q-32 0 -62 7zM117 630q-21 20 -21 49q0 30 21 50.5t52 20.5q32 0 52.5 -20.5t20.5 -50.5q0 -29 -20.5 -49t-52.5 -20q-31 0 -52 20zM334 630q-20 20 -20 49q0 30 20 50.5t51 20.5q33 0 54 -20.5t21 -50.5q0 -29 -21 -49t-54 -20
q-31 0 -51 20z" />
    <glyph glyph-name="ygrave" unicode="&#x1ef3;" horiz-adv-x="532" 
d="M28 -226q-30 7 -46 18q-6 4 -6 12q0 6 8 35l4 14q8 26 13.5 34t16.5 4q32 -10 62 -10q43 0 71 24.5t53 91.5l-180 513q-3 10 8 14t55 4h13q42 0 53.5 -3t14.5 -12l62 -196q32 -102 45 -180q14 73 44 178l58 198q3 9 14 12t49 3h13q43 0 53.5 -4t7.5 -14l-171 -501
q-30 -88 -63.5 -140t-79 -77t-110.5 -25q-32 0 -62 7zM286 598.5q-9 2.5 -14 8.5l-130 163q-3 5 -3 7q0 9 32 9h48q27 0 36.5 -2.5t13.5 -9.5l106 -163q2 -3 2 -7q0 -8 -26 -8h-38q-18 0 -27 2.5z" />
    <glyph glyph-name="z" unicode="z" horiz-adv-x="480" 
d="M43.5 2.5q-6.5 2.5 -6.5 11.5v36q0 16 3 26.5t12 23.5l219 322h-208q-8 0 -10.5 8.5t-2.5 42.5v4q0 34 2.5 42.5t10.5 8.5h343q23 0 29.5 -2.5t6.5 -11.5v-36q0 -16 -3 -26.5t-12 -23.5l-217 -322h225q8 0 10.5 -8.5t2.5 -42.5v-4q0 -34 -2.5 -42.5t-10.5 -8.5h-362
q-23 0 -29.5 2.5z" />
    <glyph glyph-name="zacute" unicode="&#x17a;" horiz-adv-x="480" 
d="M43.5 2.5q-6.5 2.5 -6.5 11.5v36q0 16 3 26.5t12 23.5l219 322h-208q-8 0 -10.5 8.5t-2.5 42.5v4q0 34 2.5 42.5t10.5 8.5h343q23 0 29.5 -2.5t6.5 -11.5v-36q0 -16 -3 -26.5t-12 -23.5l-217 -322h225q8 0 10.5 -8.5t2.5 -42.5v-4q0 -34 -2.5 -42.5t-10.5 -8.5h-362
q-23 0 -29.5 2.5zM164 599q-6 3 -1 12l106 163q4 7 13.5 9.5t36.5 2.5h48q32 0 32 -9q0 -2 -3 -7l-130 -163q-5 -6 -14 -8.5t-27 -2.5h-38q-17 0 -23 3z" />
    <glyph glyph-name="zacute.loclPLK" horiz-adv-x="480" 
d="M43.5 2.5q-6.5 2.5 -6.5 11.5v36q0 16 3 26.5t12 23.5l219 322h-208q-8 0 -10.5 8.5t-2.5 42.5v4q0 34 2.5 42.5t10.5 8.5h343q23 0 29.5 -2.5t6.5 -11.5v-36q0 -16 -3 -26.5t-12 -23.5l-217 -322h225q8 0 10.5 -8.5t2.5 -42.5v-4q0 -34 -2.5 -42.5t-10.5 -8.5h-362
q-23 0 -29.5 2.5zM207.5 599q-6.5 3 -4.5 12l48 163q2 8 10.5 10t35.5 2h44q24 0 31.5 -3.5t3.5 -12.5l-73 -163q-3 -6 -10.5 -8.5t-26.5 -2.5h-34q-18 0 -24.5 3z" />
    <glyph glyph-name="zcaron" unicode="&#x17e;" horiz-adv-x="480" 
d="M43.5 2.5q-6.5 2.5 -6.5 11.5v36q0 16 3 26.5t12 23.5l219 322h-208q-8 0 -10.5 8.5t-2.5 42.5v4q0 34 2.5 42.5t10.5 8.5h343q23 0 29.5 -2.5t6.5 -11.5v-36q0 -16 -3 -26.5t-12 -23.5l-217 -322h225q8 0 10.5 -8.5t2.5 -42.5v-4q0 -34 -2.5 -42.5t-10.5 -8.5h-362
q-23 0 -29.5 2.5zM212.5 601q-12.5 3 -21.5 13l-91 97q-5 5 -5 10q0 8 17 25l10 10q9 9 15.5 14.5t11.5 5.5q3 0 10 -5l101 -88l101 88q7 5 10 5q5 0 11.5 -5.5t15.5 -14.5l10 -10q17 -17 17 -25q0 -5 -5 -10l-91 -97q-9 -10 -21.5 -13t-40.5 -3h-14q-28 0 -40.5 3z" />
    <glyph glyph-name="zdotaccent" unicode="&#x17c;" horiz-adv-x="480" 
d="M43.5 2.5q-6.5 2.5 -6.5 11.5v36q0 16 3 26.5t12 23.5l219 322h-208q-8 0 -10.5 8.5t-2.5 42.5v4q0 34 2.5 42.5t10.5 8.5h343q23 0 29.5 -2.5t6.5 -11.5v-36q0 -16 -3 -26.5t-12 -23.5l-217 -322h225q8 0 10.5 -8.5t2.5 -42.5v-4q0 -34 -2.5 -42.5t-10.5 -8.5h-362
q-23 0 -29.5 2.5zM209 640.5q-22 21.5 -22 51.5t22 51t52 21t51 -21t21 -51t-21 -51.5t-51 -21.5t-52 21.5z" />
    <glyph glyph-name="a.sc" horiz-adv-x="624" 
d="M611 14q0 -8 -13.5 -11t-47.5 -3h-11q-41 0 -55 3.5t-18 14.5l-47 127h-220l-48 -127q-5 -12 -16.5 -15t-52.5 -3h-11q-34 0 -46.5 2.5t-12.5 10.5q0 5 2 9l227 543q3 8 7.5 11.5t16.5 4.5t41 1h8q40 0 50.5 -3t15.5 -14l229 -542q2 -6 2 -9zM382 244l-72 196l-74 -196
h146z" />
    <glyph glyph-name="a.ss01.sc" horiz-adv-x="624" 
d="M611 14q0 -8 -13.5 -11t-47.5 -3h-11q-41 0 -55 3.5t-18 14.5l-47 127h-220l-48 -127q-5 -12 -16.5 -15t-52.5 -3h-11q-34 0 -46.5 2.5t-12.5 10.5q0 5 2 9l227 543q3 8 7.5 11.5t16.5 4.5t41 1h8q40 0 50.5 -3t15.5 -14l229 -542q2 -6 2 -9zM382 244l-72 196l-74 -196
h146z" />
    <glyph glyph-name="aacute.sc" horiz-adv-x="624" 
d="M611 14q0 -8 -13.5 -11t-47.5 -3h-11q-41 0 -55 3.5t-18 14.5l-47 127h-220l-48 -127q-5 -12 -16.5 -15t-52.5 -3h-11q-34 0 -46.5 2.5t-12.5 10.5q0 5 2 9l227 543q3 8 7.5 11.5t16.5 4.5t41 1h8q40 0 50.5 -3t15.5 -14l229 -542q2 -6 2 -9zM382 244l-72 196l-74 -196
h146zM216 643q-6 3 -1 12l106 163q4 7 13.5 9.5t36.5 2.5h48q32 0 32 -9q0 -2 -3 -7l-130 -163q-5 -6 -14 -8.5t-27 -2.5h-38q-17 0 -23 3z" />
    <glyph glyph-name="aacute.ss01.sc" horiz-adv-x="624" 
d="M611 14q0 -8 -13.5 -11t-47.5 -3h-11q-41 0 -55 3.5t-18 14.5l-47 127h-220l-48 -127q-5 -12 -16.5 -15t-52.5 -3h-11q-34 0 -46.5 2.5t-12.5 10.5q0 5 2 9l227 543q3 8 7.5 11.5t16.5 4.5t41 1h8q40 0 50.5 -3t15.5 -14l229 -542q2 -6 2 -9zM382 244l-72 196l-74 -196
h146zM216 643q-6 3 -1 12l106 163q4 7 13.5 9.5t36.5 2.5h48q32 0 32 -9q0 -2 -3 -7l-130 -163q-5 -6 -14 -8.5t-27 -2.5h-38q-17 0 -23 3z" />
    <glyph glyph-name="abreve.sc" horiz-adv-x="624" 
d="M611 14q0 -8 -13.5 -11t-47.5 -3h-11q-41 0 -55 3.5t-18 14.5l-47 127h-220l-48 -127q-5 -12 -16.5 -15t-52.5 -3h-11q-34 0 -46.5 2.5t-12.5 10.5q0 5 2 9l227 543q3 8 7.5 11.5t16.5 4.5t41 1h8q40 0 50.5 -3t15.5 -14l229 -542q2 -6 2 -9zM382 244l-72 196l-74 -196
h146zM201.5 677q-40.5 37 -44.5 104q0 9 8 11.5t35 2.5h15q22 0 29 -2.5t8 -9.5q10 -57 60 -57t60 57q1 7 8 9.5t29 2.5h15q27 0 35 -2.5t8 -11.5q-4 -67 -44.5 -104t-110.5 -37t-110.5 37z" />
    <glyph glyph-name="abreve.ss01.sc" horiz-adv-x="624" 
d="M611 14q0 -8 -13.5 -11t-47.5 -3h-11q-41 0 -55 3.5t-18 14.5l-47 127h-220l-48 -127q-5 -12 -16.5 -15t-52.5 -3h-11q-34 0 -46.5 2.5t-12.5 10.5q0 5 2 9l227 543q3 8 7.5 11.5t16.5 4.5t41 1h8q40 0 50.5 -3t15.5 -14l229 -542q2 -6 2 -9zM382 244l-72 196l-74 -196
h146zM201.5 677q-40.5 37 -44.5 104q0 9 8 11.5t35 2.5h15q22 0 29 -2.5t8 -9.5q10 -57 60 -57t60 57q1 7 8 9.5t29 2.5h15q27 0 35 -2.5t8 -11.5q-4 -67 -44.5 -104t-110.5 -37t-110.5 37z" />
    <glyph glyph-name="uni01CE.sc" horiz-adv-x="624" 
d="M611 14q0 -8 -13.5 -11t-47.5 -3h-11q-41 0 -55 3.5t-18 14.5l-47 127h-220l-48 -127q-5 -12 -16.5 -15t-52.5 -3h-11q-34 0 -46.5 2.5t-12.5 10.5q0 5 2 9l227 543q3 8 7.5 11.5t16.5 4.5t41 1h8q40 0 50.5 -3t15.5 -14l229 -542q2 -6 2 -9zM382 244l-72 196l-74 -196
h146zM264.5 643q-12.5 3 -21.5 13l-91 97q-5 5 -5 10q0 8 17 25l10 10q9 9 15.5 14.5t11.5 5.5q3 0 10 -5l101 -88l101 88q7 5 10 5q5 0 11.5 -5.5t15.5 -14.5l10 -10q17 -17 17 -25q0 -5 -5 -10l-91 -97q-9 -10 -21.5 -13t-40.5 -3h-14q-28 0 -40.5 3z" />
    <glyph glyph-name="uni01CE.ss01.sc" horiz-adv-x="624" 
d="M611 14q0 -8 -13.5 -11t-47.5 -3h-11q-41 0 -55 3.5t-18 14.5l-47 127h-220l-48 -127q-5 -12 -16.5 -15t-52.5 -3h-11q-34 0 -46.5 2.5t-12.5 10.5q0 5 2 9l227 543q3 8 7.5 11.5t16.5 4.5t41 1h8q40 0 50.5 -3t15.5 -14l229 -542q2 -6 2 -9zM382 244l-72 196l-74 -196
h146zM264.5 643q-12.5 3 -21.5 13l-91 97q-5 5 -5 10q0 8 17 25l10 10q9 9 15.5 14.5t11.5 5.5q3 0 10 -5l101 -88l101 88q7 5 10 5q5 0 11.5 -5.5t15.5 -14.5l10 -10q17 -17 17 -25q0 -5 -5 -10l-91 -97q-9 -10 -21.5 -13t-40.5 -3h-14q-28 0 -40.5 3z" />
    <glyph glyph-name="acircumflex.sc" horiz-adv-x="624" 
d="M611 14q0 -8 -13.5 -11t-47.5 -3h-11q-41 0 -55 3.5t-18 14.5l-47 127h-220l-48 -127q-5 -12 -16.5 -15t-52.5 -3h-11q-34 0 -46.5 2.5t-12.5 10.5q0 5 2 9l227 543q3 8 7.5 11.5t16.5 4.5t41 1h8q40 0 50.5 -3t15.5 -14l229 -542q2 -6 2 -9zM382 244l-72 196l-74 -196
h146zM201 630q-5 0 -11.5 5.5t-15.5 14.5l-10 10q-17 17 -17 25q0 5 5 10l91 97q9 10 21.5 13t40.5 3h14q28 0 40.5 -3t21.5 -13l91 -97q5 -5 5 -10q0 -8 -17 -25l-10 -10q-9 -9 -15.5 -14.5t-11.5 -5.5q-3 0 -10 5l-101 88l-101 -88q-7 -5 -10 -5z" />
    <glyph glyph-name="acircumflex.ss01.sc" horiz-adv-x="624" 
d="M611 14q0 -8 -13.5 -11t-47.5 -3h-11q-41 0 -55 3.5t-18 14.5l-47 127h-220l-48 -127q-5 -12 -16.5 -15t-52.5 -3h-11q-34 0 -46.5 2.5t-12.5 10.5q0 5 2 9l227 543q3 8 7.5 11.5t16.5 4.5t41 1h8q40 0 50.5 -3t15.5 -14l229 -542q2 -6 2 -9zM382 244l-72 196l-74 -196
h146zM201 630q-5 0 -11.5 5.5t-15.5 14.5l-10 10q-17 17 -17 25q0 5 5 10l91 97q9 10 21.5 13t40.5 3h14q28 0 40.5 -3t21.5 -13l91 -97q5 -5 5 -10q0 -8 -17 -25l-10 -10q-9 -9 -15.5 -14.5t-11.5 -5.5q-3 0 -10 5l-101 88l-101 -88q-7 -5 -10 -5z" />
    <glyph glyph-name="adieresis.sc" horiz-adv-x="624" 
d="M611 14q0 -8 -13.5 -11t-47.5 -3h-11q-41 0 -55 3.5t-18 14.5l-47 127h-220l-48 -127q-5 -12 -16.5 -15t-52.5 -3h-11q-34 0 -46.5 2.5t-12.5 10.5q0 5 2 9l227 543q3 8 7.5 11.5t16.5 4.5t41 1h8q40 0 50.5 -3t15.5 -14l229 -542q2 -6 2 -9zM382 244l-72 196l-74 -196
h146zM151 671q-21 20 -21 49q0 30 21 50.5t52 20.5q32 0 52.5 -20.5t20.5 -50.5q0 -29 -20.5 -49t-52.5 -20q-31 0 -52 20zM368 671q-20 20 -20 49q0 30 20 50.5t51 20.5q33 0 54 -20.5t21 -50.5q0 -29 -21 -49t-54 -20q-31 0 -51 20z" />
    <glyph glyph-name="adieresis.ss01.sc" horiz-adv-x="624" 
d="M611 14q0 -8 -13.5 -11t-47.5 -3h-11q-41 0 -55 3.5t-18 14.5l-47 127h-220l-48 -127q-5 -12 -16.5 -15t-52.5 -3h-11q-34 0 -46.5 2.5t-12.5 10.5q0 5 2 9l227 543q3 8 7.5 11.5t16.5 4.5t41 1h8q40 0 50.5 -3t15.5 -14l229 -542q2 -6 2 -9zM382 244l-72 196l-74 -196
h146zM151 671q-21 20 -21 49q0 30 21 50.5t52 20.5q32 0 52.5 -20.5t20.5 -50.5q0 -29 -20.5 -49t-52.5 -20q-31 0 -52 20zM368 671q-20 20 -20 49q0 30 20 50.5t51 20.5q33 0 54 -20.5t21 -50.5q0 -29 -21 -49t-54 -20q-31 0 -51 20z" />
    <glyph glyph-name="agrave.sc" horiz-adv-x="624" 
d="M611 14q0 -8 -13.5 -11t-47.5 -3h-11q-41 0 -55 3.5t-18 14.5l-47 127h-220l-48 -127q-5 -12 -16.5 -15t-52.5 -3h-11q-34 0 -46.5 2.5t-12.5 10.5q0 5 2 9l227 543q3 8 7.5 11.5t16.5 4.5t41 1h8q40 0 50.5 -3t15.5 -14l229 -542q2 -6 2 -9zM382 244l-72 196l-74 -196
h146zM320 642.5q-9 2.5 -14 8.5l-130 163q-3 5 -3 7q0 9 32 9h48q27 0 36.5 -2.5t13.5 -9.5l106 -163q2 -3 2 -7q0 -8 -26 -8h-38q-18 0 -27 2.5z" />
    <glyph glyph-name="agrave.ss01.sc" horiz-adv-x="624" 
d="M611 14q0 -8 -13.5 -11t-47.5 -3h-11q-41 0 -55 3.5t-18 14.5l-47 127h-220l-48 -127q-5 -12 -16.5 -15t-52.5 -3h-11q-34 0 -46.5 2.5t-12.5 10.5q0 5 2 9l227 543q3 8 7.5 11.5t16.5 4.5t41 1h8q40 0 50.5 -3t15.5 -14l229 -542q2 -6 2 -9zM382 244l-72 196l-74 -196
h146zM320 642.5q-9 2.5 -14 8.5l-130 163q-3 5 -3 7q0 9 32 9h48q27 0 36.5 -2.5t13.5 -9.5l106 -163q2 -3 2 -7q0 -8 -26 -8h-38q-18 0 -27 2.5z" />
    <glyph glyph-name="amacron.sc" horiz-adv-x="624" 
d="M611 14q0 -8 -13.5 -11t-47.5 -3h-11q-41 0 -55 3.5t-18 14.5l-47 127h-220l-48 -127q-5 -12 -16.5 -15t-52.5 -3h-11q-34 0 -46.5 2.5t-12.5 10.5q0 5 2 9l227 543q3 8 7.5 11.5t16.5 4.5t41 1h8q40 0 50.5 -3t15.5 -14l229 -542q2 -6 2 -9zM382 244l-72 196l-74 -196
h146zM166.5 659.5q-2.5 8.5 -2.5 32.5v14q0 24 2.5 32.5t10.5 8.5h270q8 0 10.5 -8.5t2.5 -32.5v-14q0 -24 -2.5 -32.5t-10.5 -8.5h-270q-8 0 -10.5 8.5z" />
    <glyph glyph-name="amacron.ss01.sc" horiz-adv-x="624" 
d="M611 14q0 -8 -13.5 -11t-47.5 -3h-11q-41 0 -55 3.5t-18 14.5l-47 127h-220l-48 -127q-5 -12 -16.5 -15t-52.5 -3h-11q-34 0 -46.5 2.5t-12.5 10.5q0 5 2 9l227 543q3 8 7.5 11.5t16.5 4.5t41 1h8q40 0 50.5 -3t15.5 -14l229 -542q2 -6 2 -9zM382 244l-72 196l-74 -196
h146zM166.5 659.5q-2.5 8.5 -2.5 32.5v14q0 24 2.5 32.5t10.5 8.5h270q8 0 10.5 -8.5t2.5 -32.5v-14q0 -24 -2.5 -32.5t-10.5 -8.5h-270q-8 0 -10.5 8.5z" />
    <glyph glyph-name="aogonek.sc" horiz-adv-x="624" 
d="M517.5 -40.5q-33.5 -30.5 -33.5 -69.5q0 -20 11.5 -30.5t30.5 -10.5q20 0 42 10q6 3 10 -2t12 -25l4 -12q6 -18 6 -26t-8 -13q-16 -10 -40 -15.5t-44 -5.5q-55 0 -90 30t-35 83q0 37 23 72.5t63 62.5l-55 137h-215l-49 -127q-5 -11 -16.5 -14.5t-52.5 -3.5h-11
q-36 0 -47.5 2t-11.5 11l2 9l227 543q4 8 8 11.5t16 4.5t41 1h8q40 0 50.5 -3t15.5 -14l231 -545q2 -4 2 -6q0 -6 -14 -11q-47 -13 -80.5 -43.5zM377 244l-68 196l-72 -196h140z" />
    <glyph glyph-name="aogonek.ss01.sc" horiz-adv-x="624" 
d="M517.5 -40.5q-33.5 -30.5 -33.5 -69.5q0 -20 11.5 -30.5t30.5 -10.5q20 0 42 10q6 3 10 -2t12 -25l4 -12q6 -18 6 -26t-8 -13q-16 -10 -40 -15.5t-44 -5.5q-55 0 -90 30t-35 83q0 37 23 72.5t63 62.5l-55 137h-215l-49 -127q-5 -11 -16.5 -14.5t-52.5 -3.5h-11
q-36 0 -47.5 2t-11.5 11l2 9l227 543q4 8 8 11.5t16 4.5t41 1h8q40 0 50.5 -3t15.5 -14l231 -545q2 -4 2 -6q0 -6 -14 -11q-47 -13 -80.5 -43.5zM377 244l-68 196l-72 -196h140z" />
    <glyph glyph-name="aring.sc" horiz-adv-x="624" 
d="M611 14q0 -8 -13.5 -11t-47.5 -3h-11q-41 0 -55 3.5t-18 14.5l-47 127h-220l-48 -127q-5 -12 -16.5 -15t-52.5 -3h-11q-34 0 -46.5 2.5t-12.5 10.5q0 5 2 9l230 550q-21 15 -33.5 38t-12.5 50q0 45 33.5 77t80.5 32t80 -31.5t33 -77.5q0 -28 -13 -51.5t-35 -38.5
l232 -547q2 -6 2 -9zM283.5 688q-11.5 -11 -11.5 -28t11.5 -28.5t28.5 -11.5q16 0 27 11.5t11 28.5q0 16 -11 27.5t-27 11.5q-17 0 -28.5 -11zM382 244l-72 196l-74 -196h146z" />
    <glyph glyph-name="aring.ss01.sc" horiz-adv-x="624" 
d="M611 14q0 -8 -13.5 -11t-47.5 -3h-11q-41 0 -55 3.5t-18 14.5l-47 127h-220l-48 -127q-5 -12 -16.5 -15t-52.5 -3h-11q-34 0 -46.5 2.5t-12.5 10.5q0 5 2 9l230 550q-21 15 -33.5 38t-12.5 50q0 45 33.5 77t80.5 32t80 -31.5t33 -77.5q0 -28 -13 -51.5t-35 -38.5
l232 -547q2 -6 2 -9zM283.5 688q-11.5 -11 -11.5 -28t11.5 -28.5t28.5 -11.5q16 0 27 11.5t11 28.5q0 16 -11 27.5t-27 11.5q-17 0 -28.5 -11zM382 244l-72 196l-74 -196h146z" />
    <glyph glyph-name="aringacute.sc" horiz-adv-x="624" 
d="M216 797q-6 3 -1 12l106 163q4 7 13.5 9.5t36.5 2.5h48q32 0 32 -9q0 -2 -3 -7l-130 -163q-5 -6 -14 -8.5t-27 -2.5h-38q-17 0 -23 3zM611 14q0 -8 -13.5 -11t-47.5 -3h-11q-41 0 -55 3.5t-18 14.5l-47 127h-220l-48 -127q-5 -12 -16.5 -15t-52.5 -3h-11q-34 0 -46.5 2.5
t-12.5 10.5q0 5 2 9l230 550q-21 15 -33.5 38t-12.5 50q0 45 33.5 77t80.5 32t80 -31.5t33 -77.5q0 -28 -13 -51.5t-35 -38.5l232 -547q2 -6 2 -9zM283.5 688q-11.5 -11 -11.5 -28t11.5 -28.5t28.5 -11.5q16 0 27 11.5t11 28.5q0 16 -11 27.5t-27 11.5q-17 0 -28.5 -11z
M382 244l-72 196l-74 -196h146z" />
    <glyph glyph-name="aringacute.ss01.sc" horiz-adv-x="624" 
d="M216 797q-6 3 -1 12l106 163q4 7 13.5 9.5t36.5 2.5h48q32 0 32 -9q0 -2 -3 -7l-130 -163q-5 -6 -14 -8.5t-27 -2.5h-38q-17 0 -23 3zM611 14q0 -8 -13.5 -11t-47.5 -3h-11q-41 0 -55 3.5t-18 14.5l-47 127h-220l-48 -127q-5 -12 -16.5 -15t-52.5 -3h-11q-34 0 -46.5 2.5
t-12.5 10.5q0 5 2 9l230 550q-21 15 -33.5 38t-12.5 50q0 45 33.5 77t80.5 32t80 -31.5t33 -77.5q0 -28 -13 -51.5t-35 -38.5l232 -547q2 -6 2 -9zM283.5 688q-11.5 -11 -11.5 -28t11.5 -28.5t28.5 -11.5q16 0 27 11.5t11 28.5q0 16 -11 27.5t-27 11.5q-17 0 -28.5 -11z
M382 244l-72 196l-74 -196h146z" />
    <glyph glyph-name="atilde.sc" horiz-adv-x="624" 
d="M611 14q0 -8 -13.5 -11t-47.5 -3h-11q-41 0 -55 3.5t-18 14.5l-47 127h-220l-48 -127q-5 -12 -16.5 -15t-52.5 -3h-11q-34 0 -46.5 2.5t-12.5 10.5q0 5 2 9l227 543q3 8 7.5 11.5t16.5 4.5t41 1h8q40 0 50.5 -3t15.5 -14l229 -542q2 -6 2 -9zM382 244l-72 196l-74 -196
h146zM335.5 656.5q-15.5 5.5 -37.5 16.5q-12 6 -23.5 10.5t-20.5 4.5q-27 0 -59 -32q-4 -4 -12 -1t-24 19l-4 4q-20 20 -20 28q0 3 4 9q54 67 115 67q19 0 34.5 -5.5t37.5 -16.5q11 -6 22.5 -10.5t20.5 -4.5q27 0 59 32q4 4 12 1t24 -19l4 -4q20 -20 20 -28q0 -3 -4 -9
q-54 -67 -115 -67q-18 0 -33.5 5.5z" />
    <glyph glyph-name="atilde.ss01.sc" horiz-adv-x="624" 
d="M611 14q0 -8 -13.5 -11t-47.5 -3h-11q-41 0 -55 3.5t-18 14.5l-47 127h-220l-48 -127q-5 -12 -16.5 -15t-52.5 -3h-11q-34 0 -46.5 2.5t-12.5 10.5q0 5 2 9l227 543q3 8 7.5 11.5t16.5 4.5t41 1h8q40 0 50.5 -3t15.5 -14l229 -542q2 -6 2 -9zM382 244l-72 196l-74 -196
h146zM335.5 656.5q-15.5 5.5 -37.5 16.5q-12 6 -23.5 10.5t-20.5 4.5q-27 0 -59 -32q-4 -4 -12 -1t-24 19l-4 4q-20 20 -20 28q0 3 4 9q54 67 115 67q19 0 34.5 -5.5t37.5 -16.5q11 -6 22.5 -10.5t20.5 -4.5q27 0 59 32q4 4 12 1t24 -19l4 -4q20 -20 20 -28q0 -3 -4 -9
q-54 -67 -115 -67q-18 0 -33.5 5.5z" />
    <glyph glyph-name="ae.sc" horiz-adv-x="939" 
d="M30 2.5q-12 2.5 -12 9.5q0 3 5 11l393 543q8 11 16.5 13.5t39.5 2.5h396q8 0 10.5 -8t2.5 -41v-7q0 -33 -2.5 -41t-10.5 -8h-258v-131h219q8 0 10.5 -8t2.5 -41v-7q0 -33 -2.5 -41t-10.5 -8h-219v-136h262q8 0 10.5 -8t2.5 -41v-7q0 -33 -2.5 -41t-10.5 -8h-357
q-18 0 -28.5 1t-13 4t-2.5 13v119h-220l-84 -120q-8 -11 -21 -14t-50 -3h-23q-31 0 -43 2.5zM471 236v224q-41 -70 -83 -128l-69 -96h152z" />
    <glyph glyph-name="aeacute.sc" horiz-adv-x="939" 
d="M30 2.5q-12 2.5 -12 9.5q0 3 5 11l393 543q8 11 16.5 13.5t39.5 2.5h396q8 0 10.5 -8t2.5 -41v-7q0 -33 -2.5 -41t-10.5 -8h-258v-131h219q8 0 10.5 -8t2.5 -41v-7q0 -33 -2.5 -41t-10.5 -8h-219v-136h262q8 0 10.5 -8t2.5 -41v-7q0 -33 -2.5 -41t-10.5 -8h-357
q-18 0 -28.5 1t-13 4t-2.5 13v119h-220l-84 -120q-8 -11 -21 -14t-50 -3h-23q-31 0 -43 2.5zM471 236v224q-41 -70 -83 -128l-69 -96h152zM516 643q-6 3 -1 12l106 163q4 7 13.5 9.5t36.5 2.5h48q32 0 32 -9q0 -2 -3 -7l-130 -163q-5 -6 -14 -8.5t-27 -2.5h-38q-17 0 -23 3z
" />
    <glyph glyph-name="b.sc" horiz-adv-x="575" 
d="M502 259.5q31 -36.5 31 -89.5q0 -89 -74.5 -129.5t-194.5 -40.5h-146q-18 0 -28.5 1t-13 4.5t-2.5 12.5v546q0 10 2.5 13t13 4t28.5 1h121q130 0 195 -30.5t65 -114.5q0 -43 -22 -75.5t-63 -51.5q57 -14 88 -50.5zM213 348h37q53 0 81 15t28 53t-25.5 50t-83.5 12h-37
v-130zM361 119q31 16 31 58q0 43 -31.5 57.5t-98.5 14.5h-49v-146h53q64 0 95 16z" />
    <glyph glyph-name="c.sc" horiz-adv-x="562" 
d="M114 67.5q-76 77.5 -76 217.5q0 93 36 162.5t103 107t158 37.5q110 0 185 -50q8 -5 8 -13q0 -10 -15 -34l-12 -18q-11 -16 -17.5 -22.5t-11.5 -6.5q-4 0 -10 3q-51 30 -114 30q-79 0 -122.5 -50.5t-43.5 -142.5q0 -90 42.5 -138t122.5 -48q32 0 65.5 8t60.5 20q6 3 11 3
t10.5 -7t13.5 -26l7 -16q10 -23 10 -33q0 -6 -2.5 -9.5t-8.5 -7.5q-79 -44 -188 -44q-136 0 -212 77.5z" />
    <glyph glyph-name="cacute.loclPLK.sc" horiz-adv-x="562" 
d="M114 67.5q-76 77.5 -76 217.5q0 93 36 162.5t103 107t158 37.5q110 0 185 -50q8 -5 8 -13q0 -10 -15 -34l-12 -18q-11 -16 -17.5 -22.5t-11.5 -6.5q-4 0 -10 3q-51 30 -114 30q-79 0 -122.5 -50.5t-43.5 -142.5q0 -90 42.5 -138t122.5 -48q32 0 65.5 8t60.5 20q6 3 11 3
t10.5 -7t13.5 -26l7 -16q10 -23 10 -33q0 -6 -2.5 -9.5t-8.5 -7.5q-79 -44 -188 -44q-136 0 -212 77.5zM236 653q-6 3 -1 12l106 163q4 7 13.5 9.5t36.5 2.5h48q32 0 32 -9q0 -2 -3 -7l-130 -163q-5 -6 -14 -8.5t-27 -2.5h-38q-17 0 -23 3z" />
    <glyph glyph-name="cacute.sc" horiz-adv-x="562" 
d="M114 67.5q-76 77.5 -76 217.5q0 93 36 162.5t103 107t158 37.5q110 0 185 -50q8 -5 8 -13q0 -10 -15 -34l-12 -18q-11 -16 -17.5 -22.5t-11.5 -6.5q-4 0 -10 3q-51 30 -114 30q-79 0 -122.5 -50.5t-43.5 -142.5q0 -90 42.5 -138t122.5 -48q32 0 65.5 8t60.5 20q6 3 11 3
t10.5 -7t13.5 -26l7 -16q10 -23 10 -33q0 -6 -2.5 -9.5t-8.5 -7.5q-79 -44 -188 -44q-136 0 -212 77.5zM236 643q-6 3 -1 12l106 163q4 7 13.5 9.5t36.5 2.5h48q32 0 32 -9q0 -2 -3 -7l-130 -163q-5 -6 -14 -8.5t-27 -2.5h-38q-17 0 -23 3z" />
    <glyph glyph-name="ccaron.sc" horiz-adv-x="562" 
d="M114 67.5q-76 77.5 -76 217.5q0 93 36 162.5t103 107t158 37.5q110 0 185 -50q8 -5 8 -13q0 -10 -15 -34l-12 -18q-11 -16 -17.5 -22.5t-11.5 -6.5q-4 0 -10 3q-51 30 -114 30q-79 0 -122.5 -50.5t-43.5 -142.5q0 -90 42.5 -138t122.5 -48q32 0 65.5 8t60.5 20q6 3 11 3
t10.5 -7t13.5 -26l7 -16q10 -23 10 -33q0 -6 -2.5 -9.5t-8.5 -7.5q-79 -44 -188 -44q-136 0 -212 77.5zM284.5 643q-12.5 3 -21.5 13l-91 97q-5 5 -5 10q0 8 17 25l10 10q9 9 15.5 14.5t11.5 5.5q3 0 10 -5l101 -88l101 88q7 5 10 5q5 0 11.5 -5.5t15.5 -14.5l10 -10
q17 -17 17 -25q0 -5 -5 -10l-91 -97q-9 -10 -21.5 -13t-40.5 -3h-14q-28 0 -40.5 3z" />
    <glyph glyph-name="ccedilla.sc" horiz-adv-x="562" 
d="M515 84q10 -23 10 -33q0 -6 -2.5 -9.5t-8.5 -7.5q-65 -37 -154 -43l-3 -28q48 -2 77 -25t29 -69q0 -45 -32.5 -76.5t-94.5 -31.5q-47 0 -78 13q-4 2 -5.5 4t-1.5 7q0 9 4 24l3 11q5 18 9 23.5t13 2.5q21 -6 46 -6q20 0 29.5 8t9.5 21q0 30 -45 30q-31 0 -60 -4l14 98
q-113 14 -174.5 90t-61.5 202q0 93 36 162.5t103 107t158 37.5q110 0 185 -50q8 -5 8 -13q0 -10 -15 -34l-12 -18q-11 -16 -17.5 -22.5t-11.5 -6.5q-4 0 -10 3q-51 30 -114 30q-79 0 -122.5 -50.5t-43.5 -142.5q0 -90 42.5 -138t122.5 -48q32 0 65.5 8t60.5 20q6 3 11 3
t10.5 -7t13.5 -26z" />
    <glyph glyph-name="ccircumflex.sc" horiz-adv-x="562" 
d="M114 67.5q-76 77.5 -76 217.5q0 93 36 162.5t103 107t158 37.5q110 0 185 -50q8 -5 8 -13q0 -10 -15 -34l-12 -18q-11 -16 -17.5 -22.5t-11.5 -6.5q-4 0 -10 3q-51 30 -114 30q-79 0 -122.5 -50.5t-43.5 -142.5q0 -90 42.5 -138t122.5 -48q32 0 65.5 8t60.5 20q6 3 11 3
t10.5 -7t13.5 -26l7 -16q10 -23 10 -33q0 -6 -2.5 -9.5t-8.5 -7.5q-79 -44 -188 -44q-136 0 -212 77.5zM221 630q-5 0 -11.5 5.5t-15.5 14.5l-10 10q-17 17 -17 25q0 5 5 10l91 97q9 10 21.5 13t40.5 3h14q28 0 40.5 -3t21.5 -13l91 -97q5 -5 5 -10q0 -8 -17 -25l-10 -10
q-9 -9 -15.5 -14.5t-11.5 -5.5q-3 0 -10 5l-101 88l-101 -88q-7 -5 -10 -5z" />
    <glyph glyph-name="cdotaccent.sc" horiz-adv-x="562" 
d="M114 67.5q-76 77.5 -76 217.5q0 93 36 162.5t103 107t158 37.5q110 0 185 -50q8 -5 8 -13q0 -10 -15 -34l-12 -18q-11 -16 -17.5 -22.5t-11.5 -6.5q-4 0 -10 3q-51 30 -114 30q-79 0 -122.5 -50.5t-43.5 -142.5q0 -90 42.5 -138t122.5 -48q32 0 65.5 8t60.5 20q6 3 11 3
t10.5 -7t13.5 -26l7 -16q10 -23 10 -33q0 -6 -2.5 -9.5t-8.5 -7.5q-79 -44 -188 -44q-136 0 -212 77.5zM281 672.5q-22 21.5 -22 51.5t22 51t52 21t51 -21t21 -51t-21 -51.5t-51 -21.5t-52 21.5z" />
    <glyph glyph-name="d.sc" horiz-adv-x="641" 
d="M89.5 1q-10.5 1 -13 4t-2.5 13v546q0 10 2.5 13t13 4t28.5 1h136q171 0 260 -69.5t89 -220.5q0 -292 -348 -292h-137q-18 0 -28.5 1zM260 105q103 0 151.5 45.5t48.5 141.5q0 99 -47.5 142t-151.5 43h-48v-372h47z" />
    <glyph glyph-name="eth.sc" horiz-adv-x="641" 
d="M514 512.5q89 -69.5 89 -220.5q0 -292 -348 -292h-137q-18 0 -28.5 1t-13 4t-2.5 13v226h-48q-11 0 -15.5 8.5t-4.5 37.5v8q0 29 4.5 37.5t15.5 8.5h48v220q0 10 2.5 13t13 4t28.5 1h136q171 0 260 -69.5zM411.5 150.5q48.5 45.5 48.5 141.5q0 99 -47.5 142t-151.5 43
h-48v-133h72q12 0 16 -8.5t4 -37.5v-8q0 -29 -4 -37.5t-16 -8.5h-72v-139h47q103 0 151.5 45.5z" />
    <glyph glyph-name="dcaron.sc" horiz-adv-x="641" 
d="M89.5 1q-10.5 1 -13 4t-2.5 13v546q0 10 2.5 13t13 4t28.5 1h136q171 0 260 -69.5t89 -220.5q0 -292 -348 -292h-137q-18 0 -28.5 1zM260 105q103 0 151.5 45.5t48.5 141.5q0 99 -47.5 142t-151.5 43h-48v-372h47zM273.5 643q-12.5 3 -21.5 13l-91 97q-5 5 -5 10
q0 8 17 25l10 10q9 9 15.5 14.5t11.5 5.5q3 0 10 -5l101 -88l101 88q7 5 10 5q5 0 11.5 -5.5t15.5 -14.5l10 -10q17 -17 17 -25q0 -5 -5 -10l-91 -97q-9 -10 -21.5 -13t-40.5 -3h-14q-28 0 -40.5 3z" />
    <glyph glyph-name="dcroat.sc" horiz-adv-x="641" 
d="M514 512.5q89 -69.5 89 -220.5q0 -292 -348 -292h-137q-18 0 -28.5 1t-13 4t-2.5 13v226h-48q-11 0 -15.5 8.5t-4.5 37.5v8q0 29 4.5 37.5t15.5 8.5h48v220q0 10 2.5 13t13 4t28.5 1h136q171 0 260 -69.5zM411.5 150.5q48.5 45.5 48.5 141.5q0 99 -47.5 142t-151.5 43
h-48v-133h72q12 0 16 -8.5t4 -37.5v-8q0 -29 -4 -37.5t-16 -8.5h-72v-139h47q103 0 151.5 45.5z" />
    <glyph glyph-name="e.sc" horiz-adv-x="542" 
d="M89.5 1q-10.5 1 -13 4t-2.5 13v546q0 10 2.5 13t13 4t28.5 1h353q8 0 10.5 -8t2.5 -41v-7q0 -33 -2.5 -41t-10.5 -8h-258v-131h220q7 0 9.5 -8t2.5 -41v-7q0 -33 -2.5 -41t-9.5 -8h-220v-136h262q8 0 10.5 -8t2.5 -41v-7q0 -33 -2.5 -41t-10.5 -8h-357q-18 0 -28.5 1z
" />
    <glyph glyph-name="eacute.sc" horiz-adv-x="542" 
d="M89.5 1q-10.5 1 -13 4t-2.5 13v546q0 10 2.5 13t13 4t28.5 1h353q8 0 10.5 -8t2.5 -41v-7q0 -33 -2.5 -41t-10.5 -8h-258v-131h220q7 0 9.5 -8t2.5 -41v-7q0 -33 -2.5 -41t-9.5 -8h-220v-136h262q8 0 10.5 -8t2.5 -41v-7q0 -33 -2.5 -41t-10.5 -8h-357q-18 0 -28.5 1z
M188 643q-6 3 -1 12l106 163q4 7 13.5 9.5t36.5 2.5h48q32 0 32 -9q0 -2 -3 -7l-130 -163q-5 -6 -14 -8.5t-27 -2.5h-38q-17 0 -23 3z" />
    <glyph glyph-name="ebreve.sc" horiz-adv-x="542" 
d="M89.5 1q-10.5 1 -13 4t-2.5 13v546q0 10 2.5 13t13 4t28.5 1h353q8 0 10.5 -8t2.5 -41v-7q0 -33 -2.5 -41t-10.5 -8h-258v-131h220q7 0 9.5 -8t2.5 -41v-7q0 -33 -2.5 -41t-9.5 -8h-220v-136h262q8 0 10.5 -8t2.5 -41v-7q0 -33 -2.5 -41t-10.5 -8h-357q-18 0 -28.5 1z
M173.5 677q-40.5 37 -44.5 104q0 9 8 11.5t35 2.5h15q22 0 29 -2.5t8 -9.5q10 -57 60 -57t60 57q1 7 8 9.5t29 2.5h15q27 0 35 -2.5t8 -11.5q-4 -67 -44.5 -104t-110.5 -37t-110.5 37z" />
    <glyph glyph-name="ecaron.sc" horiz-adv-x="542" 
d="M89.5 1q-10.5 1 -13 4t-2.5 13v546q0 10 2.5 13t13 4t28.5 1h353q8 0 10.5 -8t2.5 -41v-7q0 -33 -2.5 -41t-10.5 -8h-258v-131h220q7 0 9.5 -8t2.5 -41v-7q0 -33 -2.5 -41t-9.5 -8h-220v-136h262q8 0 10.5 -8t2.5 -41v-7q0 -33 -2.5 -41t-10.5 -8h-357q-18 0 -28.5 1z
M236.5 643q-12.5 3 -21.5 13l-91 97q-5 5 -5 10q0 8 17 25l10 10q9 9 15.5 14.5t11.5 5.5q3 0 10 -5l101 -88l101 88q7 5 10 5q5 0 11.5 -5.5t15.5 -14.5l10 -10q17 -17 17 -25q0 -5 -5 -10l-91 -97q-9 -10 -21.5 -13t-40.5 -3h-14q-28 0 -40.5 3z" />
    <glyph glyph-name="ecircumflex.sc" horiz-adv-x="542" 
d="M89.5 1q-10.5 1 -13 4t-2.5 13v546q0 10 2.5 13t13 4t28.5 1h353q8 0 10.5 -8t2.5 -41v-7q0 -33 -2.5 -41t-10.5 -8h-258v-131h220q7 0 9.5 -8t2.5 -41v-7q0 -33 -2.5 -41t-9.5 -8h-220v-136h262q8 0 10.5 -8t2.5 -41v-7q0 -33 -2.5 -41t-10.5 -8h-357q-18 0 -28.5 1z
M173 630q-5 0 -11.5 5.5t-15.5 14.5l-10 10q-17 17 -17 25q0 5 5 10l91 97q9 10 21.5 13t40.5 3h14q28 0 40.5 -3t21.5 -13l91 -97q5 -5 5 -10q0 -8 -17 -25l-10 -10q-9 -9 -15.5 -14.5t-11.5 -5.5q-3 0 -10 5l-101 88l-101 -88q-7 -5 -10 -5z" />
    <glyph glyph-name="edieresis.sc" horiz-adv-x="542" 
d="M89.5 1q-10.5 1 -13 4t-2.5 13v546q0 10 2.5 13t13 4t28.5 1h353q8 0 10.5 -8t2.5 -41v-7q0 -33 -2.5 -41t-10.5 -8h-258v-131h220q7 0 9.5 -8t2.5 -41v-7q0 -33 -2.5 -41t-9.5 -8h-220v-136h262q8 0 10.5 -8t2.5 -41v-7q0 -33 -2.5 -41t-10.5 -8h-357q-18 0 -28.5 1z
M123 671q-21 20 -21 49q0 30 21 50.5t52 20.5q32 0 52.5 -20.5t20.5 -50.5q0 -29 -20.5 -49t-52.5 -20q-31 0 -52 20zM340 671q-20 20 -20 49q0 30 20 50.5t51 20.5q33 0 54 -20.5t21 -50.5q0 -29 -21 -49t-54 -20q-31 0 -51 20z" />
    <glyph glyph-name="edotaccent.sc" horiz-adv-x="542" 
d="M89.5 1q-10.5 1 -13 4t-2.5 13v546q0 10 2.5 13t13 4t28.5 1h353q8 0 10.5 -8t2.5 -41v-7q0 -33 -2.5 -41t-10.5 -8h-258v-131h220q7 0 9.5 -8t2.5 -41v-7q0 -33 -2.5 -41t-9.5 -8h-220v-136h262q8 0 10.5 -8t2.5 -41v-7q0 -33 -2.5 -41t-10.5 -8h-357q-18 0 -28.5 1z
M233 672.5q-22 21.5 -22 51.5t22 51t52 21t51 -21t21 -51t-21 -51.5t-51 -21.5t-52 21.5z" />
    <glyph glyph-name="egrave.sc" horiz-adv-x="542" 
d="M89.5 1q-10.5 1 -13 4t-2.5 13v546q0 10 2.5 13t13 4t28.5 1h353q8 0 10.5 -8t2.5 -41v-7q0 -33 -2.5 -41t-10.5 -8h-258v-131h220q7 0 9.5 -8t2.5 -41v-7q0 -33 -2.5 -41t-9.5 -8h-220v-136h262q8 0 10.5 -8t2.5 -41v-7q0 -33 -2.5 -41t-10.5 -8h-357q-18 0 -28.5 1z
M292 642.5q-9 2.5 -14 8.5l-130 163q-3 5 -3 7q0 9 32 9h48q27 0 36.5 -2.5t13.5 -9.5l106 -163q2 -3 2 -7q0 -8 -26 -8h-38q-18 0 -27 2.5z" />
    <glyph glyph-name="emacron.sc" horiz-adv-x="542" 
d="M89.5 1q-10.5 1 -13 4t-2.5 13v546q0 10 2.5 13t13 4t28.5 1h353q8 0 10.5 -8t2.5 -41v-7q0 -33 -2.5 -41t-10.5 -8h-258v-131h220q7 0 9.5 -8t2.5 -41v-7q0 -33 -2.5 -41t-9.5 -8h-220v-136h262q8 0 10.5 -8t2.5 -41v-7q0 -33 -2.5 -41t-10.5 -8h-357q-18 0 -28.5 1z
M138.5 659.5q-2.5 8.5 -2.5 32.5v14q0 24 2.5 32.5t10.5 8.5h270q8 0 10.5 -8.5t2.5 -32.5v-14q0 -24 -2.5 -32.5t-10.5 -8.5h-270q-8 0 -10.5 8.5z" />
    <glyph glyph-name="eogonek.sc" horiz-adv-x="542" 
d="M485.5 97q2.5 -8 2.5 -41v-7q0 -31 -3.5 -39t-17.5 -11q-42 -10 -73.5 -38.5t-31.5 -66.5q0 -21 11.5 -33t31.5 -12q23 0 41 10q6 3 10 -2t12 -25l4 -12q6 -18 6 -26t-8 -13q-16 -10 -40 -15.5t-44 -5.5q-55 0 -90 30.5t-35 85.5q0 36 21.5 69t58.5 55h-223
q-18 0 -28.5 1t-13 4t-2.5 13v546q0 10 2.5 13t13 4t28.5 1h353q8 0 10.5 -8t2.5 -41v-7q0 -33 -2.5 -41t-10.5 -8h-258v-131h220q7 0 9.5 -8t2.5 -41v-7q0 -33 -2.5 -41t-9.5 -8h-220v-136h262q8 0 10.5 -8z" />
    <glyph glyph-name="f.sc" horiz-adv-x="515" 
d="M481.5 574q2.5 -8 2.5 -41v-7q0 -33 -2.5 -41t-10.5 -8h-258v-131h220q7 0 9.5 -8t2.5 -41v-7q0 -33 -2.5 -41t-9.5 -8h-220v-223q0 -9 -4 -12.5t-19 -4.5t-40 -1h-12q-25 0 -40.5 1t-19.5 4.5t-4 12.5v546q0 10 2.5 13t13 4t28.5 1h353q8 0 10.5 -8z" />
    <glyph glyph-name="f_f.liga.sc" horiz-adv-x="1030" 
d="M481.5 574q2.5 -8 2.5 -41v-7q0 -33 -2.5 -41t-10.5 -8h-258v-131h220q7 0 9.5 -8t2.5 -41v-7q0 -33 -2.5 -41t-9.5 -8h-220v-223q0 -9 -4 -12.5t-19 -4.5t-40 -1h-12q-25 0 -40.5 1t-19.5 4.5t-4 12.5v546q0 10 2.5 13t13 4t28.5 1h353q8 0 10.5 -8zM996.5 574
q2.5 -8 2.5 -41v-7q0 -33 -2.5 -41t-10.5 -8h-258v-131h220q7 0 9.5 -8t2.5 -41v-7q0 -33 -2.5 -41t-9.5 -8h-220v-223q0 -9 -4 -12.5t-19 -4.5t-40 -1h-12q-25 0 -40.5 1t-19.5 4.5t-4 12.5v546q0 10 2.5 13t13 4t28.5 1h353q8 0 10.5 -8z" />
    <glyph glyph-name="f_f_i.liga.sc" horiz-adv-x="1317" 
d="M481.5 574q2.5 -8 2.5 -41v-7q0 -33 -2.5 -41t-10.5 -8h-258v-131h220q7 0 9.5 -8t2.5 -41v-7q0 -33 -2.5 -41t-9.5 -8h-220v-223q0 -9 -4 -12.5t-19 -4.5t-40 -1h-12q-25 0 -40.5 1t-19.5 4.5t-4 12.5v546q0 10 2.5 13t13 4t28.5 1h353q8 0 10.5 -8zM996.5 574
q2.5 -8 2.5 -41v-7q0 -33 -2.5 -41t-10.5 -8h-258v-131h220q7 0 9.5 -8t2.5 -41v-7q0 -33 -2.5 -41t-9.5 -8h-220v-223q0 -9 -4 -12.5t-19 -4.5t-40 -1h-12q-25 0 -40.5 1t-19.5 4.5t-4 12.5v546q0 10 2.5 13t13 4t28.5 1h353q8 0 10.5 -8zM1127.5 1q-15.5 1 -19.5 4.5
t-4 12.5v546q0 9 4 12.5t19.5 4.5t40.5 1h12q25 0 40 -1t19 -4.5t4 -12.5v-546q0 -9 -4 -12.5t-19 -4.5t-40 -1h-12q-25 0 -40.5 1z" />
    <glyph glyph-name="f_f_l.liga.sc" horiz-adv-x="1527" 
d="M481.5 574q2.5 -8 2.5 -41v-7q0 -33 -2.5 -41t-10.5 -8h-258v-131h220q7 0 9.5 -8t2.5 -41v-7q0 -33 -2.5 -41t-9.5 -8h-220v-223q0 -9 -4 -12.5t-19 -4.5t-40 -1h-12q-25 0 -40.5 1t-19.5 4.5t-4 12.5v546q0 10 2.5 13t13 4t28.5 1h353q8 0 10.5 -8zM996.5 574
q2.5 -8 2.5 -41v-7q0 -33 -2.5 -41t-10.5 -8h-258v-131h220q7 0 9.5 -8t2.5 -41v-7q0 -33 -2.5 -41t-9.5 -8h-220v-223q0 -9 -4 -12.5t-19 -4.5t-40 -1h-12q-25 0 -40.5 1t-19.5 4.5t-4 12.5v546q0 10 2.5 13t13 4t28.5 1h353q8 0 10.5 -8zM1117.5 1q-8.5 1 -11 4.5
t-2.5 12.5v546q0 9 4 12.5t19.5 4.5t40.5 1h12q25 0 40 -1t19 -4.5t4 -12.5v-459h241q8 0 10.5 -8t2.5 -41v-7q0 -33 -2.5 -41t-10.5 -8h-336q-22 0 -30.5 1z" />
    <glyph glyph-name="fi.sc" horiz-adv-x="802" 
d="M481.5 574q2.5 -8 2.5 -41v-7q0 -33 -2.5 -41t-10.5 -8h-258v-131h220q7 0 9.5 -8t2.5 -41v-7q0 -33 -2.5 -41t-9.5 -8h-220v-223q0 -9 -4 -12.5t-19 -4.5t-40 -1h-12q-25 0 -40.5 1t-19.5 4.5t-4 12.5v546q0 10 2.5 13t13 4t28.5 1h353q8 0 10.5 -8zM612.5 1
q-15.5 1 -19.5 4.5t-4 12.5v546q0 9 4 12.5t19.5 4.5t40.5 1h12q25 0 40 -1t19 -4.5t4 -12.5v-546q0 -9 -4 -12.5t-19 -4.5t-40 -1h-12q-25 0 -40.5 1z" />
    <glyph glyph-name="fl.sc" horiz-adv-x="1012" 
d="M481.5 574q2.5 -8 2.5 -41v-7q0 -33 -2.5 -41t-10.5 -8h-258v-131h220q7 0 9.5 -8t2.5 -41v-7q0 -33 -2.5 -41t-9.5 -8h-220v-223q0 -9 -4 -12.5t-19 -4.5t-40 -1h-12q-25 0 -40.5 1t-19.5 4.5t-4 12.5v546q0 10 2.5 13t13 4t28.5 1h353q8 0 10.5 -8zM602.5 1
q-8.5 1 -11 4.5t-2.5 12.5v546q0 9 4 12.5t19.5 4.5t40.5 1h12q25 0 40 -1t19 -4.5t4 -12.5v-459h241q8 0 10.5 -8t2.5 -41v-7q0 -33 -2.5 -41t-10.5 -8h-336q-22 0 -30.5 1z" />
    <glyph glyph-name="g.sc" horiz-adv-x="636" 
d="M115 67.5q-77 77.5 -77 223.5q0 94 38.5 162t108 103.5t162.5 35.5q56 0 107.5 -13.5t92.5 -39.5q9 -4 9 -14q0 -13 -18 -39l-11 -17q-4 -6 -9 -14t-9 -12t-6 -4q-3 0 -11 5q-64 37 -133 37q-87 0 -132.5 -49t-45.5 -139q0 -193 170 -193q35 0 79 7v121h-106
q-7 0 -9.5 8.5t-2.5 40.5v9q0 31 2.5 38.5t9.5 7.5h204q16 0 26 -1t12 -4.5t2 -13.5v-261q0 -9 -3 -14t-10 -9q-37 -18 -97 -28.5t-121 -10.5q-145 0 -222 77.5z" />
    <glyph glyph-name="gbreve.sc" horiz-adv-x="636" 
d="M115 67.5q-77 77.5 -77 223.5q0 94 38.5 162t108 103.5t162.5 35.5q56 0 107.5 -13.5t92.5 -39.5q9 -4 9 -14q0 -13 -18 -39l-11 -17q-4 -6 -9 -14t-9 -12t-6 -4q-3 0 -11 5q-64 37 -133 37q-87 0 -132.5 -49t-45.5 -139q0 -193 170 -193q35 0 79 7v121h-106
q-7 0 -9.5 8.5t-2.5 40.5v9q0 31 2.5 38.5t9.5 7.5h204q16 0 26 -1t12 -4.5t2 -13.5v-261q0 -9 -3 -14t-10 -9q-37 -18 -97 -28.5t-121 -10.5q-145 0 -222 77.5zM234.5 677q-40.5 37 -44.5 104q0 9 8 11.5t35 2.5h15q22 0 29 -2.5t8 -9.5q10 -57 60 -57t60 57q1 7 8 9.5
t29 2.5h15q27 0 35 -2.5t8 -11.5q-4 -67 -44.5 -104t-110.5 -37t-110.5 37z" />
    <glyph glyph-name="gcircumflex.sc" horiz-adv-x="636" 
d="M115 67.5q-77 77.5 -77 223.5q0 94 38.5 162t108 103.5t162.5 35.5q56 0 107.5 -13.5t92.5 -39.5q9 -4 9 -14q0 -13 -18 -39l-11 -17q-4 -6 -9 -14t-9 -12t-6 -4q-3 0 -11 5q-64 37 -133 37q-87 0 -132.5 -49t-45.5 -139q0 -193 170 -193q35 0 79 7v121h-106
q-7 0 -9.5 8.5t-2.5 40.5v9q0 31 2.5 38.5t9.5 7.5h204q16 0 26 -1t12 -4.5t2 -13.5v-261q0 -9 -3 -14t-10 -9q-37 -18 -97 -28.5t-121 -10.5q-145 0 -222 77.5zM234 630q-5 0 -11.5 5.5t-15.5 14.5l-10 10q-17 17 -17 25q0 5 5 10l91 97q9 10 21.5 13t40.5 3h14
q28 0 40.5 -3t21.5 -13l91 -97q5 -5 5 -10q0 -8 -17 -25l-10 -10q-9 -9 -15.5 -14.5t-11.5 -5.5q-3 0 -10 5l-101 88l-101 -88q-7 -5 -10 -5z" />
    <glyph glyph-name="gcommaaccent.sc" horiz-adv-x="636" 
d="M115 67.5q-77 77.5 -77 223.5q0 94 38.5 162t108 103.5t162.5 35.5q56 0 107.5 -13.5t92.5 -39.5q9 -4 9 -14q0 -13 -18 -39l-11 -17q-4 -6 -9 -14t-9 -12t-6 -4q-3 0 -11 5q-64 37 -133 37q-87 0 -132.5 -49t-45.5 -139q0 -193 170 -193q35 0 79 7v121h-106
q-7 0 -9.5 8.5t-2.5 40.5v9q0 31 2.5 38.5t9.5 7.5h204q16 0 26 -1t12 -4.5t2 -13.5v-261q0 -9 -3 -14t-10 -9q-37 -18 -97 -28.5t-121 -10.5q-145 0 -222 77.5zM273 -299q-6 4 -6 10q0 5 4 9q41 51 41 92q0 9 -3.5 16t-11.5 17q-9 11 -13.5 20t-4.5 22q0 22 17 38t44 16
q29 0 47.5 -21.5t18.5 -54.5q0 -46 -25 -92t-71 -86q-7 -5 -10 -5q-4 0 -11 5z" />
    <glyph glyph-name="gdotaccent.sc" horiz-adv-x="636" 
d="M115 67.5q-77 77.5 -77 223.5q0 94 38.5 162t108 103.5t162.5 35.5q56 0 107.5 -13.5t92.5 -39.5q9 -4 9 -14q0 -13 -18 -39l-11 -17q-4 -6 -9 -14t-9 -12t-6 -4q-3 0 -11 5q-64 37 -133 37q-87 0 -132.5 -49t-45.5 -139q0 -193 170 -193q35 0 79 7v121h-106
q-7 0 -9.5 8.5t-2.5 40.5v9q0 31 2.5 38.5t9.5 7.5h204q16 0 26 -1t12 -4.5t2 -13.5v-261q0 -9 -3 -14t-10 -9q-37 -18 -97 -28.5t-121 -10.5q-145 0 -222 77.5zM294 672.5q-22 21.5 -22 51.5t22 51t52 21t51 -21t21 -51t-21 -51.5t-51 -21.5t-52 21.5z" />
    <glyph glyph-name="h.sc" horiz-adv-x="658" 
d="M561 581q15 -1 19 -4.5t4 -12.5v-546q0 -9 -4 -12.5t-19 -4.5t-40 -1h-12q-25 0 -40.5 1t-19.5 4.5t-4 12.5v223h-232v-223q0 -9 -4 -12.5t-19 -4.5t-40 -1h-12q-25 0 -40.5 1t-19.5 4.5t-4 12.5v546q0 9 4 12.5t19.5 4.5t40.5 1h12q25 0 40 -1t19 -4.5t4 -12.5v-218h232
v218q0 9 4 12.5t19.5 4.5t40.5 1h12q25 0 40 -1z" />
    <glyph glyph-name="hbar.sc" horiz-adv-x="666" 
d="M643.5 504.5q4.5 -8.5 4.5 -37.5v-8q0 -29 -4.5 -37.5t-15.5 -8.5h-40v-395q0 -9 -4 -12.5t-19 -4.5t-40 -1h-12q-25 0 -40.5 1t-19.5 4.5t-4 12.5v223h-232v-223q0 -9 -4 -12.5t-19 -4.5t-40 -1h-12q-25 0 -40.5 1t-19.5 4.5t-4 12.5v395h-40q-11 0 -15.5 8.5t-4.5 37.5
v8q0 29 4.5 37.5t15.5 8.5h40v51q0 9 4 12.5t19.5 4.5t40.5 1h12q25 0 40 -1t19 -4.5t4 -12.5v-51h232v51q0 9 4 12.5t19.5 4.5t40.5 1h12q25 0 40 -1t19 -4.5t4 -12.5v-51h40q11 0 15.5 -8.5zM449 413h-232v-67h232v67z" />
    <glyph glyph-name="hcircumflex.sc" horiz-adv-x="658" 
d="M561 581q15 -1 19 -4.5t4 -12.5v-546q0 -9 -4 -12.5t-19 -4.5t-40 -1h-12q-25 0 -40.5 1t-19.5 4.5t-4 12.5v223h-232v-223q0 -9 -4 -12.5t-19 -4.5t-40 -1h-12q-25 0 -40.5 1t-19.5 4.5t-4 12.5v546q0 9 4 12.5t19.5 4.5t40.5 1h12q25 0 40 -1t19 -4.5t4 -12.5v-218h232
v218q0 9 4 12.5t19.5 4.5t40.5 1h12q25 0 40 -1zM218 630q-5 0 -11.5 5.5t-15.5 14.5l-10 10q-17 17 -17 25q0 5 5 10l91 97q9 10 21.5 13t40.5 3h14q28 0 40.5 -3t21.5 -13l91 -97q5 -5 5 -10q0 -8 -17 -25l-10 -10q-9 -9 -15.5 -14.5t-11.5 -5.5q-3 0 -10 5l-101 88
l-101 -88q-7 -5 -10 -5z" />
    <glyph glyph-name="i.sc" horiz-adv-x="287" 
d="M97.5 1q-15.5 1 -19.5 4.5t-4 12.5v546q0 9 4 12.5t19.5 4.5t40.5 1h12q25 0 40 -1t19 -4.5t4 -12.5v-546q0 -9 -4 -12.5t-19 -4.5t-40 -1h-12q-25 0 -40.5 1z" />
    <glyph glyph-name="dotlessi.sc" horiz-adv-x="287" 
d="M97.5 1q-15.5 1 -19.5 4.5t-4 12.5v546q0 9 4 12.5t19.5 4.5t40.5 1h12q25 0 40 -1t19 -4.5t4 -12.5v-546q0 -9 -4 -12.5t-19 -4.5t-40 -1h-12q-25 0 -40.5 1z" />
    <glyph glyph-name="iacute.sc" horiz-adv-x="287" 
d="M97.5 1q-15.5 1 -19.5 4.5t-4 12.5v546q0 9 4 12.5t19.5 4.5t40.5 1h12q25 0 40 -1t19 -4.5t4 -12.5v-546q0 -9 -4 -12.5t-19 -4.5t-40 -1h-12q-25 0 -40.5 1zM48 643q-6 3 -1 12l106 163q4 7 13.5 9.5t36.5 2.5h48q32 0 32 -9q0 -2 -3 -7l-130 -163q-5 -6 -14 -8.5
t-27 -2.5h-38q-17 0 -23 3z" />
    <glyph glyph-name="iacute_j.loclNLD.sc" horiz-adv-x="739" 
d="M97.5 1q-15.5 1 -19.5 4.5t-4 12.5v546q0 9 4 12.5t19.5 4.5t40.5 1h12q25 0 40 -1t19 -4.5t4 -12.5v-546q0 -9 -4 -12.5t-19 -4.5t-40 -1h-12q-25 0 -40.5 1zM48 643q-6 3 -1 12l106 163q4 7 13.5 9.5t36.5 2.5h48q32 0 32 -9q0 -2 -3 -7l-130 -163q-5 -6 -14 -8.5
t-27 -2.5h-38q-17 0 -23 3zM326 13q-9 5 -9 13q0 10 9 34l6 17q9 27 13.5 33.5t13.5 3.5q48 -14 82 -14q53 0 70.5 22t17.5 76v366q0 9 4 12.5t19 4.5t40 1h13q25 0 40.5 -1t19 -4.5t3.5 -12.5v-369q0 -105 -51.5 -155t-158.5 -50q-74 0 -132 23zM504 643q-6 3 -1 12
l106 163q4 7 13.5 9.5t36.5 2.5h48q32 0 32 -9q0 -2 -3 -7l-130 -163q-5 -6 -14 -8.5t-27 -2.5h-38q-17 0 -23 3z" />
    <glyph glyph-name="ibreve.sc" horiz-adv-x="287" 
d="M97.5 1q-15.5 1 -19.5 4.5t-4 12.5v546q0 9 4 12.5t19.5 4.5t40.5 1h12q25 0 40 -1t19 -4.5t4 -12.5v-546q0 -9 -4 -12.5t-19 -4.5t-40 -1h-12q-25 0 -40.5 1zM33.5 677q-40.5 37 -44.5 104q0 9 8 11.5t35 2.5h15q22 0 29 -2.5t8 -9.5q10 -57 60 -57t60 57q1 7 8 9.5
t29 2.5h15q27 0 35 -2.5t8 -11.5q-4 -67 -44.5 -104t-110.5 -37t-110.5 37z" />
    <glyph glyph-name="icircumflex.sc" horiz-adv-x="287" 
d="M97.5 1q-15.5 1 -19.5 4.5t-4 12.5v546q0 9 4 12.5t19.5 4.5t40.5 1h12q25 0 40 -1t19 -4.5t4 -12.5v-546q0 -9 -4 -12.5t-19 -4.5t-40 -1h-12q-25 0 -40.5 1zM33 630q-5 0 -11.5 5.5t-15.5 14.5l-10 10q-17 17 -17 25q0 5 5 10l91 97q9 10 21.5 13t40.5 3h14
q28 0 40.5 -3t21.5 -13l91 -97q5 -5 5 -10q0 -8 -17 -25l-10 -10q-9 -9 -15.5 -14.5t-11.5 -5.5q-3 0 -10 5l-101 88l-101 -88q-7 -5 -10 -5z" />
    <glyph glyph-name="idieresis.sc" horiz-adv-x="287" 
d="M97.5 1q-15.5 1 -19.5 4.5t-4 12.5v546q0 9 4 12.5t19.5 4.5t40.5 1h12q25 0 40 -1t19 -4.5t4 -12.5v-546q0 -9 -4 -12.5t-19 -4.5t-40 -1h-12q-25 0 -40.5 1zM-17 671q-21 20 -21 49q0 30 21 50.5t52 20.5q32 0 52.5 -20.5t20.5 -50.5q0 -29 -20.5 -49t-52.5 -20
q-31 0 -52 20zM200 671q-20 20 -20 49q0 30 20 50.5t51 20.5q33 0 54 -20.5t21 -50.5q0 -29 -21 -49t-54 -20q-31 0 -51 20z" />
    <glyph glyph-name="i.sc.loclTRK" horiz-adv-x="287" 
d="M97.5 1q-15.5 1 -19.5 4.5t-4 12.5v546q0 9 4 12.5t19.5 4.5t40.5 1h12q25 0 40 -1t19 -4.5t4 -12.5v-546q0 -9 -4 -12.5t-19 -4.5t-40 -1h-12q-25 0 -40.5 1zM93 672.5q-22 21.5 -22 51.5t22 51t52 21t51 -21t21 -51t-21 -51.5t-51 -21.5t-52 21.5z" />
    <glyph glyph-name="igrave.sc" horiz-adv-x="287" 
d="M97.5 1q-15.5 1 -19.5 4.5t-4 12.5v546q0 9 4 12.5t19.5 4.5t40.5 1h12q25 0 40 -1t19 -4.5t4 -12.5v-546q0 -9 -4 -12.5t-19 -4.5t-40 -1h-12q-25 0 -40.5 1zM152 642.5q-9 2.5 -14 8.5l-130 163q-3 5 -3 7q0 9 32 9h48q27 0 36.5 -2.5t13.5 -9.5l106 -163q2 -3 2 -7
q0 -8 -26 -8h-38q-18 0 -27 2.5z" />
    <glyph glyph-name="ij.sc" horiz-adv-x="739" 
d="M97.5 1q-15.5 1 -19.5 4.5t-4 12.5v546q0 9 4 12.5t19.5 4.5t40.5 1h12q25 0 40 -1t19 -4.5t4 -12.5v-546q0 -9 -4 -12.5t-19 -4.5t-40 -1h-12q-25 0 -40.5 1zM326 13q-9 5 -9 13q0 10 9 34l6 17q9 27 13.5 33.5t13.5 3.5q48 -14 82 -14q53 0 70.5 22t17.5 76v366
q0 9 4 12.5t19 4.5t40 1h13q25 0 40.5 -1t19 -4.5t3.5 -12.5v-369q0 -105 -51.5 -155t-158.5 -50q-74 0 -132 23z" />
    <glyph glyph-name="imacron.sc" horiz-adv-x="287" 
d="M97.5 1q-15.5 1 -19.5 4.5t-4 12.5v546q0 9 4 12.5t19.5 4.5t40.5 1h12q25 0 40 -1t19 -4.5t4 -12.5v-546q0 -9 -4 -12.5t-19 -4.5t-40 -1h-12q-25 0 -40.5 1zM-1.5 659.5q-2.5 8.5 -2.5 32.5v14q0 24 2.5 32.5t10.5 8.5h270q8 0 10.5 -8.5t2.5 -32.5v-14
q0 -24 -2.5 -32.5t-10.5 -8.5h-270q-8 0 -10.5 8.5z" />
    <glyph glyph-name="iogonek.sc" horiz-adv-x="287" 
d="M122 -41q-30 -27 -30 -64q0 -22 11.5 -34t31.5 -12q19 0 41 10q6 3 10 -2t12 -25l4 -12q6 -18 6 -25q0 -8 -8 -14q-17 -9 -41 -15t-43 -6q-55 0 -91 31.5t-36 86.5q0 44 23 80.5t62 58.5v547q0 9 4 12.5t19.5 4.5t40.5 1h12q25 0 40 -1t19 -4.5t4 -12.5v-540v-4
q0 -10 -3 -13.5t-15 -7.5q-43 -13 -73 -40z" />
    <glyph glyph-name="itilde.sc" horiz-adv-x="287" 
d="M97.5 1q-15.5 1 -19.5 4.5t-4 12.5v546q0 9 4 12.5t19.5 4.5t40.5 1h12q25 0 40 -1t19 -4.5t4 -12.5v-546q0 -9 -4 -12.5t-19 -4.5t-40 -1h-12q-25 0 -40.5 1zM167.5 656.5q-15.5 5.5 -37.5 16.5q-12 6 -23.5 10.5t-20.5 4.5q-27 0 -59 -32q-4 -4 -12 -1t-24 19l-4 4
q-20 20 -20 28q0 3 4 9q54 67 115 67q19 0 34.5 -5.5t37.5 -16.5q11 -6 22.5 -10.5t20.5 -4.5q27 0 59 32q4 4 12 1t24 -19l4 -4q20 -20 20 -28q0 -3 -4 -9q-54 -67 -115 -67q-18 0 -33.5 5.5z" />
    <glyph glyph-name="j.sc" horiz-adv-x="452" 
d="M39 13q-9 5 -9 13q0 10 9 34l6 17q9 27 13.5 33.5t13.5 3.5q48 -14 82 -14q53 0 70.5 22t17.5 76v366q0 9 4 12.5t19 4.5t40 1h13q25 0 40.5 -1t19 -4.5t3.5 -12.5v-369q0 -105 -51.5 -155t-158.5 -50q-74 0 -132 23z" />
    <glyph glyph-name="uni0237.sc" horiz-adv-x="452" 
d="M39 13q-9 5 -9 13q0 10 9 34l6 17q9 27 13.5 33.5t13.5 3.5q48 -14 82 -14q53 0 70.5 22t17.5 76v366q0 9 4 12.5t19 4.5t40 1h13q25 0 40.5 -1t19 -4.5t3.5 -12.5v-369q0 -105 -51.5 -155t-158.5 -50q-74 0 -132 23z" />
    <glyph glyph-name="jcircumflex.sc" horiz-adv-x="452" 
d="M39 13q-9 5 -9 13q0 10 9 34l6 17q9 27 13.5 33.5t13.5 3.5q48 -14 82 -14q53 0 70.5 22t17.5 76v366q0 9 4 12.5t19 4.5t40 1h13q25 0 40.5 -1t19 -4.5t3.5 -12.5v-369q0 -105 -51.5 -155t-158.5 -50q-74 0 -132 23zM202 630q-5 0 -11.5 5.5t-15.5 14.5l-10 10
q-17 17 -17 25q0 5 5 10l91 97q9 10 21.5 13t40.5 3h14q28 0 40.5 -3t21.5 -13l91 -97q5 -5 5 -10q0 -8 -17 -25l-10 -10q-9 -9 -15.5 -14.5t-11.5 -5.5q-3 0 -10 5l-101 88l-101 -88q-7 -5 -10 -5z" />
    <glyph glyph-name="k.sc" horiz-adv-x="597" 
d="M569 10q0 -6 -9.5 -8t-35.5 -2h-28q-28 0 -45.5 0.5t-24 3t-11.5 10.5l-163 237l-39 -29v-204q0 -9 -4 -12.5t-19 -4.5t-40 -1h-12q-25 0 -40.5 1t-19.5 4.5t-4 12.5v546q0 9 4 12.5t19.5 4.5t40.5 1h12q25 0 40 -1t19 -4.5t4 -12.5v-206l28 22q47 37 90 82t92 107
q8 9 17 11t48 2h6q36 0 49 -2t13 -9q0 -3 -3 -9q-68 -119 -200 -236l210 -303q6 -9 6 -13z" />
    <glyph glyph-name="kcommaaccent.sc" horiz-adv-x="597" 
d="M569 10q0 -6 -9.5 -8t-35.5 -2h-28q-28 0 -45.5 0.5t-24 3t-11.5 10.5l-163 237l-39 -29v-204q0 -9 -4 -12.5t-19 -4.5t-40 -1h-12q-25 0 -40.5 1t-19.5 4.5t-4 12.5v546q0 9 4 12.5t19.5 4.5t40.5 1h12q25 0 40 -1t19 -4.5t4 -12.5v-206l28 22q47 37 90 82t92 107
q8 9 17 11t48 2h6q36 0 49 -2t13 -9q0 -3 -3 -9q-68 -119 -200 -236l210 -303q6 -9 6 -13zM235 -299q-6 4 -6 10q0 5 4 9q41 51 41 92q0 9 -3.5 16t-11.5 17q-9 11 -13.5 20t-4.5 22q0 22 17 38t44 16q29 0 47.5 -21.5t18.5 -54.5q0 -46 -25 -92t-71 -86q-7 -5 -10 -5
q-4 0 -11 5z" />
    <glyph glyph-name="l.sc" horiz-adv-x="497" 
d="M87.5 1q-8.5 1 -11 4.5t-2.5 12.5v546q0 9 4 12.5t19.5 4.5t40.5 1h12q25 0 40 -1t19 -4.5t4 -12.5v-459h241q8 0 10.5 -8t2.5 -41v-7q0 -33 -2.5 -41t-10.5 -8h-336q-22 0 -30.5 1z" />
    <glyph glyph-name="lacute.sc" horiz-adv-x="497" 
d="M87.5 1q-8.5 1 -11 4.5t-2.5 12.5v546q0 9 4 12.5t19.5 4.5t40.5 1h12q25 0 40 -1t19 -4.5t4 -12.5v-459h241q8 0 10.5 -8t2.5 -41v-7q0 -33 -2.5 -41t-10.5 -8h-336q-22 0 -30.5 1zM49 643q-6 3 -1 12l106 163q4 7 13.5 9.5t36.5 2.5h48q32 0 32 -9q0 -2 -3 -7
l-130 -163q-5 -6 -14 -8.5t-27 -2.5h-38q-17 0 -23 3z" />
    <glyph glyph-name="lcaron.sc" horiz-adv-x="497" 
d="M87.5 1q-8.5 1 -11 4.5t-2.5 12.5v546q0 9 4 12.5t19.5 4.5t40.5 1h12q25 0 40 -1t19 -4.5t4 -12.5v-459h241q8 0 10.5 -8t2.5 -41v-7q0 -33 -2.5 -41t-10.5 -8h-336q-22 0 -30.5 1zM276 352q-6 4 -6 10q0 5 4 9q41 51 41 92q0 9 -3.5 16t-11.5 17q-9 11 -13.5 20
t-4.5 22q0 22 17 38t44 16q29 0 47.5 -21.5t18.5 -54.5q0 -46 -25 -92t-71 -86q-7 -5 -10 -5q-4 0 -11 5z" />
    <glyph glyph-name="lcommaaccent.sc" horiz-adv-x="497" 
d="M87.5 1q-8.5 1 -11 4.5t-2.5 12.5v546q0 9 4 12.5t19.5 4.5t40.5 1h12q25 0 40 -1t19 -4.5t4 -12.5v-459h241q8 0 10.5 -8t2.5 -41v-7q0 -33 -2.5 -41t-10.5 -8h-336q-22 0 -30.5 1zM210 -299q-6 4 -6 10q0 5 4 9q41 51 41 92q0 9 -3.5 16t-11.5 17q-9 11 -13.5 20
t-4.5 22q0 22 17 38t44 16q29 0 47.5 -21.5t18.5 -54.5q0 -46 -25 -92t-71 -86q-7 -5 -10 -5q-4 0 -11 5z" />
    <glyph glyph-name="ldot.sc" horiz-adv-x="497" 
d="M87.5 1q-8.5 1 -11 4.5t-2.5 12.5v546q0 9 4 12.5t19.5 4.5t40.5 1h12q25 0 40 -1t19 -4.5t4 -12.5v-459h241q8 0 10.5 -8t2.5 -41v-7q0 -33 -2.5 -41t-10.5 -8h-336q-22 0 -30.5 1zM324.5 266q-24.5 24 -24.5 58q0 35 24.5 59t60.5 24q37 0 61.5 -24t24.5 -59
q0 -34 -24.5 -58t-61.5 -24q-36 0 -60.5 24z" />
    <glyph glyph-name="lslash.sc" horiz-adv-x="499" 
d="M466.5 97q2.5 -8 2.5 -41v-7q0 -33 -2.5 -41t-10.5 -8h-336q-22 0 -30.5 1t-11 4.5t-2.5 12.5v191l-46 -24q-10 -4 -12 -4q-5 0 -7.5 7.5t-2.5 25.5v33q0 28 2.5 36.5t12.5 13.5l53 28v239q0 9 4 12.5t19.5 4.5t40.5 1h12q25 0 40 -1t19 -4.5t4 -12.5v-167l100 52
q10 4 11 4q6 0 8.5 -9.5t2.5 -33.5v-23q0 -28 -2.5 -36.5t-12.5 -13.5l-107 -56v-176h241q8 0 10.5 -8z" />
    <glyph glyph-name="m.sc" horiz-adv-x="770" 
d="M95.5 1q-14.5 1 -18 3.5t-3.5 8.5v551q0 12 10.5 15.5t45.5 3.5h42q37 0 49 -3t17 -11l69 -136q23 -45 65 -143q10 -26 16 -39q54 120 86 182l69 135q4 9 16.5 12t48.5 3h31q36 0 46.5 -3.5t10.5 -15.5v-551q0 -6 -4 -8.5t-19 -3.5t-38 -1h-7q-24 0 -38.5 1t-18 3.5
t-3.5 8.5v198l1 88q1 28 1 67q-36 -93 -76 -171l-44 -84q-5 -8 -14 -10.5t-44 -2.5h-13q-36 0 -45.5 2.5t-13.5 10.5l-44 85q-42 81 -77 172q3 -42 3 -145v-210q0 -6 -4 -8.5t-19 -3.5t-39 -1h-6q-24 0 -38.5 1z" />
    <glyph glyph-name="n.sc" horiz-adv-x="673" 
d="M579.5 581q11.5 -1 15.5 -5t4 -12v-546q0 -10 -3 -13t-16.5 -4t-35.5 -1h-6q-32 0 -41 2.5t-18 14.5l-190 237q-45 54 -89 121q4 -67 4 -132v-225q0 -8 -4 -12t-15.5 -5t-39.5 -1h-12q-28 0 -39.5 1t-15.5 5t-4 12v546q0 9 3 12.5t16.5 4.5t36.5 1h6q31 0 39.5 -2.5
t18.5 -14.5l206 -256l74 -98q-5 63 -5 138v215q0 8 4 12t15.5 5t39.5 1h12q28 0 39.5 -1z" />
    <glyph glyph-name="nacute.loclPLK.sc" horiz-adv-x="673" 
d="M579.5 581q11.5 -1 15.5 -5t4 -12v-546q0 -10 -3 -13t-16.5 -4t-35.5 -1h-6q-32 0 -41 2.5t-18 14.5l-190 237q-45 54 -89 121q4 -67 4 -132v-225q0 -8 -4 -12t-15.5 -5t-39.5 -1h-12q-28 0 -39.5 1t-15.5 5t-4 12v546q0 9 3 12.5t16.5 4.5t36.5 1h6q31 0 39.5 -2.5
t18.5 -14.5l206 -256l74 -98q-5 63 -5 138v215q0 8 4 12t15.5 5t39.5 1h12q28 0 39.5 -1zM241 653q-6 3 -1 12l106 163q4 7 13.5 9.5t36.5 2.5h48q32 0 32 -9q0 -2 -3 -7l-130 -163q-5 -6 -14 -8.5t-27 -2.5h-38q-17 0 -23 3z" />
    <glyph glyph-name="nacute.sc" horiz-adv-x="673" 
d="M579.5 581q11.5 -1 15.5 -5t4 -12v-546q0 -10 -3 -13t-16.5 -4t-35.5 -1h-6q-32 0 -41 2.5t-18 14.5l-190 237q-45 54 -89 121q4 -67 4 -132v-225q0 -8 -4 -12t-15.5 -5t-39.5 -1h-12q-28 0 -39.5 1t-15.5 5t-4 12v546q0 9 3 12.5t16.5 4.5t36.5 1h6q31 0 39.5 -2.5
t18.5 -14.5l206 -256l74 -98q-5 63 -5 138v215q0 8 4 12t15.5 5t39.5 1h12q28 0 39.5 -1zM241 643q-6 3 -1 12l106 163q4 7 13.5 9.5t36.5 2.5h48q32 0 32 -9q0 -2 -3 -7l-130 -163q-5 -6 -14 -8.5t-27 -2.5h-38q-17 0 -23 3z" />
    <glyph glyph-name="ncaron.sc" horiz-adv-x="673" 
d="M579.5 581q11.5 -1 15.5 -5t4 -12v-546q0 -10 -3 -13t-16.5 -4t-35.5 -1h-6q-32 0 -41 2.5t-18 14.5l-190 237q-45 54 -89 121q4 -67 4 -132v-225q0 -8 -4 -12t-15.5 -5t-39.5 -1h-12q-28 0 -39.5 1t-15.5 5t-4 12v546q0 9 3 12.5t16.5 4.5t36.5 1h6q31 0 39.5 -2.5
t18.5 -14.5l206 -256l74 -98q-5 63 -5 138v215q0 8 4 12t15.5 5t39.5 1h12q28 0 39.5 -1zM289.5 643q-12.5 3 -21.5 13l-91 97q-5 5 -5 10q0 8 17 25l10 10q9 9 15.5 14.5t11.5 5.5q3 0 10 -5l101 -88l101 88q7 5 10 5q5 0 11.5 -5.5t15.5 -14.5l10 -10q17 -17 17 -25
q0 -5 -5 -10l-91 -97q-9 -10 -21.5 -13t-40.5 -3h-14q-28 0 -40.5 3z" />
    </font>
</defs>
</svg>
